M48
;GenerationSoftware,Autodesk,EAGLE,9.6.2*%
;CreationDate,2023-05-02T03:47:19Z*%
FMAT,2
ICI,OFF
METRIC,TZ,000.000
T9C0.305
T8C0.790
T7C0.889
T6C1.000
T5C1.016
T4C1.400
T3C2.000
T2C2.500
T1C3.175
%
G90
M71
T1
X97790Y80010
X96520Y3810
X3810Y3810
X3810Y80010
T2
X8970Y71770
X18970Y71770
T3
X96520Y12446
X96520Y56134
X73660Y12446
X73660Y56134
X7620Y12446
X7620Y56134
X30480Y56134
X30480Y12446
T4
X47090Y50760
X47090Y45760
X59590Y45760
X47090Y35520
X47090Y30520
X59590Y30520
X59590Y35520
X59590Y14010
X59590Y50760
X59590Y19010
X47090Y14010
X47090Y19010
T5
X73660Y35814
X73660Y38354
X30480Y32766
X30480Y35306
X30480Y30226
X73660Y33274
X73660Y30734
X30480Y37846
T6
X16470Y64770
X13970Y64770
X11470Y64770
T7
X41630Y16070
X39090Y18610
X41630Y18610
X39090Y21150
X41630Y21150
X39090Y23690
X41630Y23690
X39090Y26230
X39090Y28770
X41630Y28770
X39090Y31310
X41630Y31310
X39090Y33850
X41630Y33850
X39090Y36390
X41630Y36390
X39090Y38930
X41630Y38930
X39090Y41470
X41630Y41470
X39090Y44010
X41630Y44010
X39090Y46550
X41630Y46550
X39090Y49090
X41630Y49090
X39090Y51630
X41630Y51630
X39090Y54170
X41630Y54170
X64490Y10990
X67030Y10990
X64490Y13530
X67030Y13530
X64490Y16070
X67030Y16070
X64490Y18610
X67030Y18610
X64490Y21150
X67030Y21150
X64490Y23690
X67030Y23690
X64490Y26230
X67030Y26230
X64490Y28770
X67030Y28770
X64490Y31310
X67030Y31310
X64490Y33850
X67030Y33850
X64490Y36390
X67030Y36390
X41630Y26230
X67030Y38930
X64490Y41470
X67030Y41470
X64490Y44010
X67030Y44010
X64490Y46550
X67030Y46550
X64490Y49090
X67030Y49090
X64490Y51630
X67030Y51630
X64490Y54170
X67030Y54170
X64490Y38930
X39090Y10990
X41630Y10990
X95250Y35560
X95250Y33020
X95250Y30480
X95250Y27940
X8890Y38100
X8890Y35560
X8890Y33020
X8890Y30480
X39090Y13530
X41630Y13530
X39090Y16070
T8
X55880Y63500
X58420Y63500
X60960Y63500
X63500Y63500
X66040Y63500
X68580Y63500
X71120Y63500
X73660Y63500
X76200Y63500
X78740Y63500
X78740Y78740
X76200Y78740
X73660Y78740
X71120Y78740
X68580Y78740
X66040Y78740
X53340Y63500
X60960Y78740
X58420Y78740
X55880Y78740
X53340Y78740
X50800Y78740
X48260Y78740
X45720Y78740
X43180Y78740
X40640Y78740
X38100Y78740
X35560Y78740
X33020Y78740
X30480Y78740
X63500Y78740
X38100Y63500
X30480Y63500
X33020Y63500
X35560Y63500
X40640Y63500
X43180Y63500
X45720Y63500
X48260Y63500
X50800Y63500
T9
X28448Y37846
X75946Y33274
X92710Y30480
X61214Y45720
X61214Y13970
X61722Y30480
X61468Y21717
X11430Y63500
X95250Y25908
X8890Y28448
X61976Y38354
X62230Y53340
X81280Y38100
X73660Y28956
X81280Y35560
X68580Y62230
X4445Y71120
X28702Y35306
X16510Y63500
X40640Y62230
X11176Y33020
M30