G04 EAGLE Gerber RS-274X export*
G75*
%MOMM*%
%FSLAX34Y34*%
%LPD*%
%INCopper Layer 15*%
%IPPOS*%
%AMOC8*
5,1,8,0,0,1.08239X$1,22.5*%
G01*
%ADD10C,1.244600*%
%ADD11C,1.422400*%
%ADD12C,1.106000*%
%ADD13C,1.960000*%
%ADD14C,1.400000*%
%ADD15C,4.191000*%
%ADD16C,0.609600*%

G36*
X1012308Y2556D02*
X1012308Y2556D01*
X1012427Y2563D01*
X1012465Y2576D01*
X1012506Y2581D01*
X1012616Y2624D01*
X1012729Y2661D01*
X1012764Y2683D01*
X1012801Y2698D01*
X1012897Y2767D01*
X1012998Y2831D01*
X1013026Y2861D01*
X1013059Y2884D01*
X1013135Y2976D01*
X1013216Y3063D01*
X1013236Y3098D01*
X1013261Y3129D01*
X1013312Y3237D01*
X1013370Y3341D01*
X1013380Y3381D01*
X1013397Y3417D01*
X1013419Y3534D01*
X1013449Y3649D01*
X1013453Y3709D01*
X1013457Y3729D01*
X1013455Y3750D01*
X1013459Y3810D01*
X1013459Y834390D01*
X1013444Y834508D01*
X1013437Y834627D01*
X1013424Y834665D01*
X1013419Y834706D01*
X1013376Y834816D01*
X1013339Y834929D01*
X1013317Y834964D01*
X1013302Y835001D01*
X1013233Y835097D01*
X1013169Y835198D01*
X1013139Y835226D01*
X1013116Y835259D01*
X1013024Y835335D01*
X1012937Y835416D01*
X1012902Y835436D01*
X1012871Y835461D01*
X1012763Y835512D01*
X1012659Y835570D01*
X1012619Y835580D01*
X1012583Y835597D01*
X1012466Y835619D01*
X1012351Y835649D01*
X1012291Y835653D01*
X1012271Y835657D01*
X1012250Y835655D01*
X1012190Y835659D01*
X3810Y835659D01*
X3692Y835644D01*
X3573Y835637D01*
X3535Y835624D01*
X3494Y835619D01*
X3384Y835576D01*
X3271Y835539D01*
X3236Y835517D01*
X3199Y835502D01*
X3103Y835433D01*
X3002Y835369D01*
X2974Y835339D01*
X2941Y835316D01*
X2865Y835224D01*
X2784Y835137D01*
X2764Y835102D01*
X2739Y835071D01*
X2688Y834963D01*
X2630Y834859D01*
X2620Y834819D01*
X2603Y834783D01*
X2581Y834666D01*
X2551Y834551D01*
X2547Y834491D01*
X2543Y834471D01*
X2545Y834450D01*
X2541Y834390D01*
X2541Y3810D01*
X2556Y3692D01*
X2563Y3573D01*
X2576Y3535D01*
X2581Y3494D01*
X2624Y3384D01*
X2661Y3271D01*
X2683Y3236D01*
X2698Y3199D01*
X2767Y3103D01*
X2831Y3002D01*
X2861Y2974D01*
X2884Y2941D01*
X2976Y2865D01*
X3063Y2784D01*
X3098Y2764D01*
X3129Y2739D01*
X3237Y2688D01*
X3341Y2630D01*
X3381Y2620D01*
X3417Y2603D01*
X3534Y2581D01*
X3649Y2551D01*
X3709Y2547D01*
X3729Y2543D01*
X3750Y2545D01*
X3810Y2541D01*
X1012190Y2541D01*
X1012308Y2556D01*
G37*
%LPC*%
G36*
X973226Y776604D02*
X973226Y776604D01*
X964591Y780181D01*
X957981Y786791D01*
X954404Y795426D01*
X954404Y804774D01*
X957981Y813409D01*
X964591Y820019D01*
X973226Y823596D01*
X982574Y823596D01*
X991209Y820019D01*
X997819Y813409D01*
X1001396Y804774D01*
X1001396Y795426D01*
X997819Y786791D01*
X991209Y780181D01*
X982574Y776604D01*
X973226Y776604D01*
G37*
%LPD*%
%LPC*%
G36*
X33426Y776604D02*
X33426Y776604D01*
X24791Y780181D01*
X18181Y786791D01*
X14604Y795426D01*
X14604Y804774D01*
X18181Y813409D01*
X24791Y820019D01*
X33426Y823596D01*
X42774Y823596D01*
X51409Y820019D01*
X58019Y813409D01*
X61596Y804774D01*
X61596Y795426D01*
X58019Y786791D01*
X51409Y780181D01*
X42774Y776604D01*
X33426Y776604D01*
G37*
%LPD*%
%LPC*%
G36*
X960526Y14604D02*
X960526Y14604D01*
X951891Y18181D01*
X945281Y24791D01*
X941704Y33426D01*
X941704Y42774D01*
X945281Y51409D01*
X951891Y58019D01*
X960526Y61596D01*
X969874Y61596D01*
X978509Y58019D01*
X985119Y51409D01*
X988696Y42774D01*
X988696Y33426D01*
X985119Y24791D01*
X978509Y18181D01*
X969874Y14604D01*
X960526Y14604D01*
G37*
%LPD*%
%LPC*%
G36*
X33426Y14604D02*
X33426Y14604D01*
X24791Y18181D01*
X18181Y24791D01*
X14604Y33426D01*
X14604Y42774D01*
X18181Y51409D01*
X24791Y58019D01*
X33426Y61596D01*
X42774Y61596D01*
X51409Y58019D01*
X58019Y51409D01*
X61596Y42774D01*
X61596Y33426D01*
X58019Y24791D01*
X51409Y18181D01*
X42774Y14604D01*
X33426Y14604D01*
G37*
%LPD*%
%LPC*%
G36*
X86708Y702659D02*
X86708Y702659D01*
X81180Y704949D01*
X76949Y709180D01*
X74659Y714708D01*
X74659Y720692D01*
X76949Y726220D01*
X81180Y730451D01*
X86708Y732741D01*
X92692Y732741D01*
X98220Y730451D01*
X102451Y726220D01*
X104741Y720692D01*
X104741Y714708D01*
X102451Y709180D01*
X98220Y704949D01*
X92692Y702659D01*
X86708Y702659D01*
G37*
%LPD*%
%LPC*%
G36*
X186708Y702659D02*
X186708Y702659D01*
X181180Y704949D01*
X176949Y709180D01*
X174659Y714708D01*
X174659Y720692D01*
X176949Y726220D01*
X181180Y730451D01*
X186708Y732741D01*
X192692Y732741D01*
X198220Y730451D01*
X202451Y726220D01*
X204741Y720692D01*
X204741Y714708D01*
X202451Y709180D01*
X198220Y704949D01*
X192692Y702659D01*
X186708Y702659D01*
G37*
%LPD*%
%LPC*%
G36*
X593445Y445259D02*
X593445Y445259D01*
X588910Y447138D01*
X585438Y450610D01*
X583559Y455145D01*
X583559Y460055D01*
X585438Y464590D01*
X588910Y468062D01*
X593445Y469941D01*
X598355Y469941D01*
X602890Y468062D01*
X606362Y464590D01*
X607197Y462575D01*
X607256Y462472D01*
X607308Y462365D01*
X607334Y462334D01*
X607354Y462299D01*
X607437Y462214D01*
X607514Y462123D01*
X607547Y462100D01*
X607575Y462071D01*
X607677Y462009D01*
X607774Y461940D01*
X607812Y461926D01*
X607847Y461904D01*
X607960Y461869D01*
X608072Y461827D01*
X608112Y461823D01*
X608151Y461811D01*
X608269Y461805D01*
X608388Y461792D01*
X608428Y461798D01*
X608468Y461796D01*
X608585Y461820D01*
X608703Y461836D01*
X608760Y461856D01*
X608780Y461860D01*
X608798Y461869D01*
X608855Y461888D01*
X611028Y462789D01*
X613252Y462789D01*
X615306Y461938D01*
X616878Y460366D01*
X617729Y458312D01*
X617729Y456088D01*
X616878Y454034D01*
X615306Y452462D01*
X613252Y451611D01*
X611028Y451611D01*
X608961Y452467D01*
X608940Y452491D01*
X608848Y452551D01*
X608762Y452618D01*
X608716Y452638D01*
X608674Y452665D01*
X608571Y452701D01*
X608470Y452745D01*
X608421Y452753D01*
X608374Y452769D01*
X608264Y452777D01*
X608156Y452795D01*
X608106Y452790D01*
X608057Y452794D01*
X607948Y452775D01*
X607839Y452765D01*
X607792Y452748D01*
X607743Y452739D01*
X607643Y452694D01*
X607540Y452657D01*
X607499Y452629D01*
X607453Y452609D01*
X607368Y452540D01*
X607277Y452479D01*
X607244Y452441D01*
X607205Y452410D01*
X607139Y452323D01*
X607066Y452240D01*
X607044Y452196D01*
X607014Y452156D01*
X606943Y452012D01*
X606362Y450610D01*
X602890Y447138D01*
X598355Y445259D01*
X593445Y445259D01*
G37*
%LPD*%
%LPC*%
G36*
X593445Y127759D02*
X593445Y127759D01*
X588910Y129638D01*
X585438Y133110D01*
X583559Y137645D01*
X583559Y142555D01*
X585438Y147090D01*
X588910Y150562D01*
X593445Y152441D01*
X598355Y152441D01*
X602890Y150562D01*
X606362Y147090D01*
X607197Y145075D01*
X607256Y144972D01*
X607308Y144865D01*
X607334Y144834D01*
X607354Y144799D01*
X607437Y144714D01*
X607514Y144623D01*
X607547Y144600D01*
X607575Y144571D01*
X607677Y144509D01*
X607774Y144440D01*
X607812Y144426D01*
X607847Y144404D01*
X607960Y144369D01*
X608072Y144327D01*
X608112Y144323D01*
X608151Y144311D01*
X608269Y144305D01*
X608388Y144292D01*
X608428Y144298D01*
X608468Y144296D01*
X608585Y144320D01*
X608703Y144336D01*
X608760Y144356D01*
X608780Y144360D01*
X608798Y144369D01*
X608855Y144388D01*
X611028Y145289D01*
X613252Y145289D01*
X615306Y144438D01*
X616878Y142866D01*
X617729Y140812D01*
X617729Y138588D01*
X616878Y136534D01*
X615306Y134962D01*
X613252Y134111D01*
X611028Y134111D01*
X608961Y134967D01*
X608940Y134991D01*
X608848Y135051D01*
X608762Y135118D01*
X608716Y135138D01*
X608674Y135165D01*
X608571Y135201D01*
X608470Y135245D01*
X608421Y135253D01*
X608374Y135269D01*
X608264Y135277D01*
X608156Y135295D01*
X608106Y135290D01*
X608057Y135294D01*
X607948Y135275D01*
X607839Y135265D01*
X607792Y135248D01*
X607743Y135239D01*
X607643Y135194D01*
X607540Y135157D01*
X607499Y135129D01*
X607453Y135109D01*
X607368Y135040D01*
X607277Y134979D01*
X607244Y134941D01*
X607205Y134910D01*
X607139Y134823D01*
X607066Y134740D01*
X607044Y134696D01*
X607014Y134656D01*
X606943Y134512D01*
X606362Y133110D01*
X602890Y129638D01*
X598355Y127759D01*
X593445Y127759D01*
G37*
%LPD*%
%LPC*%
G36*
X302305Y111919D02*
X302305Y111919D01*
X297696Y113828D01*
X294168Y117356D01*
X292259Y121965D01*
X292259Y126955D01*
X294168Y131564D01*
X297696Y135092D01*
X302305Y137001D01*
X307295Y137001D01*
X311904Y135092D01*
X315432Y131564D01*
X317341Y126955D01*
X317341Y121965D01*
X315432Y117356D01*
X311904Y113828D01*
X307295Y111919D01*
X302305Y111919D01*
G37*
%LPD*%
%LPC*%
G36*
X73705Y111919D02*
X73705Y111919D01*
X69096Y113828D01*
X65568Y117356D01*
X63659Y121965D01*
X63659Y126955D01*
X65568Y131564D01*
X69096Y135092D01*
X73705Y137001D01*
X78695Y137001D01*
X83304Y135092D01*
X86832Y131564D01*
X88741Y126955D01*
X88741Y121965D01*
X86832Y117356D01*
X83304Y113828D01*
X78695Y111919D01*
X73705Y111919D01*
G37*
%LPD*%
%LPC*%
G36*
X734105Y111919D02*
X734105Y111919D01*
X729496Y113828D01*
X725968Y117356D01*
X724059Y121965D01*
X724059Y126955D01*
X725968Y131564D01*
X729496Y135092D01*
X734105Y137001D01*
X739095Y137001D01*
X743704Y135092D01*
X747232Y131564D01*
X749141Y126955D01*
X749141Y121965D01*
X747232Y117356D01*
X743704Y113828D01*
X739095Y111919D01*
X734105Y111919D01*
G37*
%LPD*%
%LPC*%
G36*
X962705Y111919D02*
X962705Y111919D01*
X958096Y113828D01*
X954568Y117356D01*
X952659Y121965D01*
X952659Y126955D01*
X954568Y131564D01*
X958096Y135092D01*
X962705Y137001D01*
X967695Y137001D01*
X972304Y135092D01*
X975832Y131564D01*
X977741Y126955D01*
X977741Y121965D01*
X975832Y117356D01*
X972304Y113828D01*
X967695Y111919D01*
X962705Y111919D01*
G37*
%LPD*%
%LPC*%
G36*
X962705Y548799D02*
X962705Y548799D01*
X958096Y550708D01*
X954568Y554236D01*
X952659Y558845D01*
X952659Y563835D01*
X954568Y568444D01*
X958096Y571972D01*
X962705Y573881D01*
X967695Y573881D01*
X972304Y571972D01*
X975832Y568444D01*
X977741Y563835D01*
X977741Y558845D01*
X975832Y554236D01*
X972304Y550708D01*
X967695Y548799D01*
X962705Y548799D01*
G37*
%LPD*%
%LPC*%
G36*
X734105Y548799D02*
X734105Y548799D01*
X729496Y550708D01*
X725968Y554236D01*
X724059Y558845D01*
X724059Y563835D01*
X725968Y568444D01*
X729496Y571972D01*
X734105Y573881D01*
X739095Y573881D01*
X743704Y571972D01*
X747232Y568444D01*
X749141Y563835D01*
X749141Y558845D01*
X747232Y554236D01*
X743704Y550708D01*
X739095Y548799D01*
X734105Y548799D01*
G37*
%LPD*%
%LPC*%
G36*
X302305Y548799D02*
X302305Y548799D01*
X297696Y550708D01*
X294168Y554236D01*
X292259Y558845D01*
X292259Y563835D01*
X294168Y568444D01*
X297696Y571972D01*
X302305Y573881D01*
X307295Y573881D01*
X311904Y571972D01*
X315432Y568444D01*
X317341Y563835D01*
X317341Y558845D01*
X315432Y554236D01*
X311904Y550708D01*
X307295Y548799D01*
X302305Y548799D01*
G37*
%LPD*%
%LPC*%
G36*
X73705Y548799D02*
X73705Y548799D01*
X69096Y550708D01*
X65568Y554236D01*
X63659Y558845D01*
X63659Y563835D01*
X65568Y568444D01*
X69096Y571972D01*
X73705Y573881D01*
X78695Y573881D01*
X83304Y571972D01*
X86832Y568444D01*
X88741Y563835D01*
X88741Y558845D01*
X86832Y554236D01*
X83304Y550708D01*
X78695Y548799D01*
X73705Y548799D01*
G37*
%LPD*%
%LPC*%
G36*
X468445Y127759D02*
X468445Y127759D01*
X463910Y129638D01*
X460438Y133110D01*
X458559Y137645D01*
X458559Y142555D01*
X460438Y147090D01*
X463910Y150562D01*
X468445Y152441D01*
X473355Y152441D01*
X477890Y150562D01*
X481362Y147090D01*
X483241Y142555D01*
X483241Y137645D01*
X481362Y133110D01*
X477890Y129638D01*
X473355Y127759D01*
X468445Y127759D01*
G37*
%LPD*%
%LPC*%
G36*
X468445Y177759D02*
X468445Y177759D01*
X463910Y179638D01*
X460438Y183110D01*
X458559Y187645D01*
X458559Y192555D01*
X460438Y197090D01*
X463910Y200562D01*
X468445Y202441D01*
X473355Y202441D01*
X477890Y200562D01*
X481362Y197090D01*
X483241Y192555D01*
X483241Y187645D01*
X481362Y183110D01*
X477890Y179638D01*
X473355Y177759D01*
X468445Y177759D01*
G37*
%LPD*%
%LPC*%
G36*
X593445Y177759D02*
X593445Y177759D01*
X588910Y179638D01*
X585438Y183110D01*
X583559Y187645D01*
X583559Y192555D01*
X585438Y197090D01*
X588910Y200562D01*
X593445Y202441D01*
X598355Y202441D01*
X602890Y200562D01*
X606362Y197090D01*
X608241Y192555D01*
X608241Y187645D01*
X606362Y183110D01*
X602890Y179638D01*
X598355Y177759D01*
X593445Y177759D01*
G37*
%LPD*%
%LPC*%
G36*
X468445Y292859D02*
X468445Y292859D01*
X463910Y294738D01*
X460438Y298210D01*
X458559Y302745D01*
X458559Y307655D01*
X460438Y312190D01*
X463910Y315662D01*
X468445Y317541D01*
X473355Y317541D01*
X477890Y315662D01*
X481362Y312190D01*
X483241Y307655D01*
X483241Y302745D01*
X481362Y298210D01*
X477890Y294738D01*
X473355Y292859D01*
X468445Y292859D01*
G37*
%LPD*%
%LPC*%
G36*
X468445Y445259D02*
X468445Y445259D01*
X463910Y447138D01*
X460438Y450610D01*
X458559Y455145D01*
X458559Y460055D01*
X460438Y464590D01*
X463910Y468062D01*
X468445Y469941D01*
X473355Y469941D01*
X477890Y468062D01*
X481362Y464590D01*
X483241Y460055D01*
X483241Y455145D01*
X481362Y450610D01*
X477890Y447138D01*
X473355Y445259D01*
X468445Y445259D01*
G37*
%LPD*%
%LPC*%
G36*
X593445Y342859D02*
X593445Y342859D01*
X588910Y344738D01*
X585438Y348210D01*
X583559Y352745D01*
X583559Y357655D01*
X585438Y362190D01*
X588910Y365662D01*
X593445Y367541D01*
X598355Y367541D01*
X602890Y365662D01*
X606362Y362190D01*
X608241Y357655D01*
X608241Y352745D01*
X606362Y348210D01*
X602890Y344738D01*
X598355Y342859D01*
X593445Y342859D01*
G37*
%LPD*%
%LPC*%
G36*
X468445Y342859D02*
X468445Y342859D01*
X463910Y344738D01*
X460438Y348210D01*
X458559Y352745D01*
X458559Y357655D01*
X460438Y362190D01*
X463910Y365662D01*
X468445Y367541D01*
X473355Y367541D01*
X477890Y365662D01*
X481362Y362190D01*
X483241Y357655D01*
X483241Y352745D01*
X481362Y348210D01*
X477890Y344738D01*
X473355Y342859D01*
X468445Y342859D01*
G37*
%LPD*%
%LPC*%
G36*
X593445Y495259D02*
X593445Y495259D01*
X588910Y497138D01*
X585438Y500610D01*
X583559Y505145D01*
X583559Y510055D01*
X585438Y514590D01*
X588910Y518062D01*
X593445Y519941D01*
X598355Y519941D01*
X602890Y518062D01*
X606362Y514590D01*
X608241Y510055D01*
X608241Y505145D01*
X606362Y500610D01*
X602890Y497138D01*
X598355Y495259D01*
X593445Y495259D01*
G37*
%LPD*%
%LPC*%
G36*
X593445Y292859D02*
X593445Y292859D01*
X588910Y294738D01*
X585438Y298210D01*
X583559Y302745D01*
X583559Y307655D01*
X585438Y312190D01*
X588910Y315662D01*
X593445Y317541D01*
X598355Y317541D01*
X602890Y315662D01*
X606362Y312190D01*
X608241Y307655D01*
X608241Y302745D01*
X606362Y298210D01*
X602890Y294738D01*
X598355Y292859D01*
X593445Y292859D01*
G37*
%LPD*%
%LPC*%
G36*
X468445Y495259D02*
X468445Y495259D01*
X463910Y497138D01*
X460438Y500610D01*
X458559Y505145D01*
X458559Y510055D01*
X460438Y514590D01*
X463910Y518062D01*
X468445Y519941D01*
X473355Y519941D01*
X477890Y518062D01*
X481362Y514590D01*
X483241Y510055D01*
X483241Y505145D01*
X481362Y500610D01*
X477890Y497138D01*
X473355Y495259D01*
X468445Y495259D01*
G37*
%LPD*%
%LPC*%
G36*
X163988Y629411D02*
X163988Y629411D01*
X161934Y630262D01*
X160362Y631834D01*
X159511Y633888D01*
X159511Y636112D01*
X160231Y637850D01*
X160263Y637965D01*
X160302Y638078D01*
X160305Y638118D01*
X160315Y638157D01*
X160317Y638276D01*
X160327Y638395D01*
X160320Y638434D01*
X160320Y638475D01*
X160293Y638591D01*
X160272Y638708D01*
X160256Y638745D01*
X160246Y638784D01*
X160191Y638889D01*
X160142Y638998D01*
X160116Y639030D01*
X160098Y639065D01*
X160018Y639153D01*
X159943Y639246D01*
X159911Y639271D01*
X159884Y639301D01*
X159784Y639366D01*
X159689Y639438D01*
X159635Y639464D01*
X159618Y639475D01*
X159599Y639482D01*
X159545Y639509D01*
X159296Y639612D01*
X156612Y642296D01*
X155159Y645802D01*
X155159Y649598D01*
X156612Y653104D01*
X159296Y655788D01*
X162802Y657241D01*
X166598Y657241D01*
X170104Y655788D01*
X172788Y653104D01*
X174241Y649598D01*
X174241Y645802D01*
X172788Y642296D01*
X170092Y639599D01*
X170074Y639576D01*
X170052Y639557D01*
X169977Y639451D01*
X169897Y639348D01*
X169885Y639321D01*
X169868Y639297D01*
X169822Y639176D01*
X169771Y639056D01*
X169766Y639027D01*
X169756Y639000D01*
X169741Y638871D01*
X169721Y638742D01*
X169724Y638713D01*
X169720Y638684D01*
X169739Y638555D01*
X169751Y638426D01*
X169761Y638398D01*
X169765Y638369D01*
X169817Y638216D01*
X170689Y636112D01*
X170689Y633888D01*
X169838Y631834D01*
X168266Y630262D01*
X166212Y629411D01*
X163988Y629411D01*
G37*
%LPD*%
%LPC*%
G36*
X684688Y616711D02*
X684688Y616711D01*
X682634Y617562D01*
X681062Y619134D01*
X680211Y621188D01*
X680211Y623412D01*
X681062Y625466D01*
X681671Y626075D01*
X681702Y626114D01*
X681739Y626148D01*
X681799Y626240D01*
X681866Y626326D01*
X681886Y626372D01*
X681913Y626413D01*
X681949Y626517D01*
X681993Y626618D01*
X682000Y626667D01*
X682016Y626714D01*
X682025Y626823D01*
X682042Y626932D01*
X682038Y626982D01*
X682042Y627031D01*
X682023Y627139D01*
X682013Y627249D01*
X681996Y627296D01*
X681987Y627345D01*
X681942Y627445D01*
X681905Y627548D01*
X681877Y627589D01*
X681857Y627635D01*
X681788Y627720D01*
X681726Y627811D01*
X681689Y627844D01*
X681658Y627883D01*
X681570Y627949D01*
X681488Y628022D01*
X681444Y628044D01*
X681404Y628074D01*
X681259Y628145D01*
X681228Y628158D01*
X678958Y630428D01*
X677729Y633395D01*
X677729Y636605D01*
X678958Y639572D01*
X681228Y641842D01*
X684195Y643071D01*
X687405Y643071D01*
X690372Y641842D01*
X692642Y639572D01*
X693871Y636605D01*
X693871Y633395D01*
X692642Y630428D01*
X690372Y628158D01*
X690341Y628145D01*
X690297Y628120D01*
X690251Y628104D01*
X690160Y628042D01*
X690064Y627988D01*
X690029Y627953D01*
X689987Y627925D01*
X689915Y627843D01*
X689836Y627766D01*
X689810Y627724D01*
X689777Y627687D01*
X689727Y627589D01*
X689670Y627495D01*
X689655Y627448D01*
X689632Y627403D01*
X689608Y627296D01*
X689576Y627191D01*
X689574Y627142D01*
X689563Y627093D01*
X689566Y626983D01*
X689561Y626874D01*
X689571Y626825D01*
X689572Y626775D01*
X689603Y626670D01*
X689625Y626562D01*
X689647Y626517D01*
X689661Y626470D01*
X689717Y626375D01*
X689765Y626276D01*
X689797Y626239D01*
X689822Y626196D01*
X689929Y626075D01*
X690538Y625466D01*
X691389Y623412D01*
X691389Y621188D01*
X690538Y619134D01*
X688966Y617562D01*
X686912Y616711D01*
X684688Y616711D01*
G37*
%LPD*%
%LPC*%
G36*
X405288Y616711D02*
X405288Y616711D01*
X403234Y617562D01*
X401662Y619134D01*
X400811Y621188D01*
X400811Y623412D01*
X401662Y625466D01*
X402271Y626075D01*
X402302Y626114D01*
X402339Y626148D01*
X402399Y626240D01*
X402466Y626326D01*
X402486Y626372D01*
X402513Y626413D01*
X402549Y626517D01*
X402593Y626618D01*
X402600Y626667D01*
X402616Y626714D01*
X402625Y626823D01*
X402642Y626932D01*
X402638Y626982D01*
X402642Y627031D01*
X402623Y627139D01*
X402613Y627249D01*
X402596Y627296D01*
X402587Y627345D01*
X402542Y627445D01*
X402505Y627548D01*
X402477Y627589D01*
X402457Y627635D01*
X402388Y627720D01*
X402326Y627811D01*
X402289Y627844D01*
X402258Y627883D01*
X402170Y627949D01*
X402088Y628022D01*
X402044Y628044D01*
X402004Y628074D01*
X401859Y628145D01*
X401828Y628158D01*
X399558Y630428D01*
X398329Y633395D01*
X398329Y636605D01*
X399558Y639572D01*
X401828Y641842D01*
X404795Y643071D01*
X408005Y643071D01*
X410972Y641842D01*
X413242Y639572D01*
X414471Y636605D01*
X414471Y633395D01*
X413242Y630428D01*
X410972Y628158D01*
X410941Y628145D01*
X410897Y628120D01*
X410851Y628104D01*
X410760Y628042D01*
X410664Y627988D01*
X410629Y627953D01*
X410587Y627925D01*
X410515Y627843D01*
X410436Y627766D01*
X410410Y627724D01*
X410377Y627687D01*
X410327Y627589D01*
X410270Y627495D01*
X410255Y627448D01*
X410232Y627403D01*
X410208Y627296D01*
X410176Y627191D01*
X410174Y627142D01*
X410163Y627093D01*
X410166Y626983D01*
X410161Y626874D01*
X410171Y626825D01*
X410172Y626775D01*
X410203Y626670D01*
X410225Y626562D01*
X410247Y626517D01*
X410261Y626470D01*
X410317Y626375D01*
X410365Y626276D01*
X410397Y626239D01*
X410422Y626196D01*
X410529Y626075D01*
X411138Y625466D01*
X411989Y623412D01*
X411989Y621188D01*
X411138Y619134D01*
X409566Y617562D01*
X407512Y616711D01*
X405288Y616711D01*
G37*
%LPD*%
%LPC*%
G36*
X302880Y292607D02*
X302880Y292607D01*
X299332Y294077D01*
X296617Y296792D01*
X295147Y300340D01*
X295147Y304180D01*
X296617Y307728D01*
X299332Y310443D01*
X302880Y311913D01*
X306720Y311913D01*
X310268Y310443D01*
X312983Y307728D01*
X314453Y304180D01*
X314453Y300340D01*
X312983Y296792D01*
X310268Y294077D01*
X306720Y292607D01*
X302880Y292607D01*
G37*
%LPD*%
%LPC*%
G36*
X734680Y323087D02*
X734680Y323087D01*
X731132Y324557D01*
X728417Y327272D01*
X726947Y330820D01*
X726947Y334660D01*
X728417Y338208D01*
X731132Y340923D01*
X734680Y342393D01*
X738520Y342393D01*
X742068Y340923D01*
X744783Y338208D01*
X746253Y334660D01*
X746253Y330820D01*
X744783Y327272D01*
X742068Y324557D01*
X738520Y323087D01*
X734680Y323087D01*
G37*
%LPD*%
%LPC*%
G36*
X302880Y318007D02*
X302880Y318007D01*
X299332Y319477D01*
X296617Y322192D01*
X295147Y325740D01*
X295147Y329580D01*
X296617Y333128D01*
X299332Y335843D01*
X302880Y337313D01*
X306720Y337313D01*
X310268Y335843D01*
X312983Y333128D01*
X314453Y329580D01*
X314453Y325740D01*
X312983Y322192D01*
X310268Y319477D01*
X306720Y318007D01*
X302880Y318007D01*
G37*
%LPD*%
%LPC*%
G36*
X734680Y348487D02*
X734680Y348487D01*
X731132Y349957D01*
X728417Y352672D01*
X726947Y356220D01*
X726947Y360060D01*
X728417Y363608D01*
X731132Y366323D01*
X734680Y367793D01*
X738520Y367793D01*
X742068Y366323D01*
X744783Y363608D01*
X746253Y360060D01*
X746253Y356220D01*
X744783Y352672D01*
X742068Y349957D01*
X738520Y348487D01*
X734680Y348487D01*
G37*
%LPD*%
%LPC*%
G36*
X302880Y343407D02*
X302880Y343407D01*
X299332Y344877D01*
X296617Y347592D01*
X295147Y351140D01*
X295147Y354980D01*
X296617Y358528D01*
X299332Y361243D01*
X302880Y362713D01*
X306720Y362713D01*
X310268Y361243D01*
X312983Y358528D01*
X314453Y354980D01*
X314453Y351140D01*
X312983Y347592D01*
X310268Y344877D01*
X306720Y343407D01*
X302880Y343407D01*
G37*
%LPD*%
%LPC*%
G36*
X734680Y373887D02*
X734680Y373887D01*
X731132Y375357D01*
X728417Y378072D01*
X726947Y381620D01*
X726947Y385460D01*
X728417Y389008D01*
X731132Y391723D01*
X734680Y393193D01*
X738520Y393193D01*
X742068Y391723D01*
X744783Y389008D01*
X746253Y385460D01*
X746253Y381620D01*
X744783Y378072D01*
X742068Y375357D01*
X738520Y373887D01*
X734680Y373887D01*
G37*
%LPD*%
%LPC*%
G36*
X137802Y638159D02*
X137802Y638159D01*
X134296Y639612D01*
X131612Y642296D01*
X130159Y645802D01*
X130159Y649598D01*
X131612Y653104D01*
X134296Y655788D01*
X137802Y657241D01*
X141598Y657241D01*
X145104Y655788D01*
X147788Y653104D01*
X149241Y649598D01*
X149241Y645802D01*
X147788Y642296D01*
X145104Y639612D01*
X141598Y638159D01*
X137802Y638159D01*
G37*
%LPD*%
%LPC*%
G36*
X643157Y278936D02*
X643157Y278936D01*
X639936Y280270D01*
X637470Y282736D01*
X636136Y285957D01*
X636136Y289443D01*
X637470Y292664D01*
X639936Y295130D01*
X643157Y296464D01*
X646643Y296464D01*
X649864Y295130D01*
X652330Y292664D01*
X653664Y289443D01*
X653664Y285957D01*
X652330Y282736D01*
X649864Y280270D01*
X646643Y278936D01*
X643157Y278936D01*
G37*
%LPD*%
%LPC*%
G36*
X668557Y253536D02*
X668557Y253536D01*
X665336Y254870D01*
X662870Y257336D01*
X661536Y260557D01*
X661536Y264043D01*
X662870Y267264D01*
X665336Y269730D01*
X668557Y271064D01*
X672043Y271064D01*
X675264Y269730D01*
X677730Y267264D01*
X679064Y264043D01*
X679064Y260557D01*
X677730Y257336D01*
X675264Y254870D01*
X672043Y253536D01*
X668557Y253536D01*
G37*
%LPD*%
%LPC*%
G36*
X643157Y253536D02*
X643157Y253536D01*
X639936Y254870D01*
X637470Y257336D01*
X636136Y260557D01*
X636136Y264043D01*
X637470Y267264D01*
X639936Y269730D01*
X643157Y271064D01*
X646643Y271064D01*
X649864Y269730D01*
X652330Y267264D01*
X653664Y264043D01*
X653664Y260557D01*
X652330Y257336D01*
X649864Y254870D01*
X646643Y253536D01*
X643157Y253536D01*
G37*
%LPD*%
%LPC*%
G36*
X389157Y253536D02*
X389157Y253536D01*
X385936Y254870D01*
X383470Y257336D01*
X382136Y260557D01*
X382136Y264043D01*
X383470Y267264D01*
X385936Y269730D01*
X389157Y271064D01*
X392643Y271064D01*
X395864Y269730D01*
X398330Y267264D01*
X399664Y264043D01*
X399664Y260557D01*
X398330Y257336D01*
X395864Y254870D01*
X392643Y253536D01*
X389157Y253536D01*
G37*
%LPD*%
%LPC*%
G36*
X668557Y228136D02*
X668557Y228136D01*
X665336Y229470D01*
X662870Y231936D01*
X661536Y235157D01*
X661536Y238643D01*
X662870Y241864D01*
X665336Y244330D01*
X668557Y245664D01*
X672043Y245664D01*
X675264Y244330D01*
X677730Y241864D01*
X679064Y238643D01*
X679064Y235157D01*
X677730Y231936D01*
X675264Y229470D01*
X672043Y228136D01*
X668557Y228136D01*
G37*
%LPD*%
%LPC*%
G36*
X643157Y228136D02*
X643157Y228136D01*
X639936Y229470D01*
X637470Y231936D01*
X636136Y235157D01*
X636136Y238643D01*
X637470Y241864D01*
X639936Y244330D01*
X643157Y245664D01*
X646643Y245664D01*
X649864Y244330D01*
X652330Y241864D01*
X653664Y238643D01*
X653664Y235157D01*
X652330Y231936D01*
X649864Y229470D01*
X646643Y228136D01*
X643157Y228136D01*
G37*
%LPD*%
%LPC*%
G36*
X414557Y228136D02*
X414557Y228136D01*
X411336Y229470D01*
X408870Y231936D01*
X407536Y235157D01*
X407536Y238643D01*
X408870Y241864D01*
X411336Y244330D01*
X414557Y245664D01*
X418043Y245664D01*
X421264Y244330D01*
X423730Y241864D01*
X425064Y238643D01*
X425064Y235157D01*
X423730Y231936D01*
X421264Y229470D01*
X418043Y228136D01*
X414557Y228136D01*
G37*
%LPD*%
%LPC*%
G36*
X389157Y228136D02*
X389157Y228136D01*
X385936Y229470D01*
X383470Y231936D01*
X382136Y235157D01*
X382136Y238643D01*
X383470Y241864D01*
X385936Y244330D01*
X389157Y245664D01*
X392643Y245664D01*
X395864Y244330D01*
X398330Y241864D01*
X399664Y238643D01*
X399664Y235157D01*
X398330Y231936D01*
X395864Y229470D01*
X392643Y228136D01*
X389157Y228136D01*
G37*
%LPD*%
%LPC*%
G36*
X668557Y202736D02*
X668557Y202736D01*
X665336Y204070D01*
X662870Y206536D01*
X661536Y209757D01*
X661536Y213243D01*
X662870Y216464D01*
X665336Y218930D01*
X668557Y220264D01*
X672043Y220264D01*
X675264Y218930D01*
X677730Y216464D01*
X679064Y213243D01*
X679064Y209757D01*
X677730Y206536D01*
X675264Y204070D01*
X672043Y202736D01*
X668557Y202736D01*
G37*
%LPD*%
%LPC*%
G36*
X643157Y202736D02*
X643157Y202736D01*
X639936Y204070D01*
X637470Y206536D01*
X636136Y209757D01*
X636136Y213243D01*
X637470Y216464D01*
X639936Y218930D01*
X643157Y220264D01*
X646643Y220264D01*
X649864Y218930D01*
X652330Y216464D01*
X653664Y213243D01*
X653664Y209757D01*
X652330Y206536D01*
X649864Y204070D01*
X646643Y202736D01*
X643157Y202736D01*
G37*
%LPD*%
%LPC*%
G36*
X414557Y202736D02*
X414557Y202736D01*
X411336Y204070D01*
X408870Y206536D01*
X407536Y209757D01*
X407536Y213243D01*
X408870Y216464D01*
X411336Y218930D01*
X414557Y220264D01*
X418043Y220264D01*
X421264Y218930D01*
X423730Y216464D01*
X425064Y213243D01*
X425064Y209757D01*
X423730Y206536D01*
X421264Y204070D01*
X418043Y202736D01*
X414557Y202736D01*
G37*
%LPD*%
%LPC*%
G36*
X389157Y202736D02*
X389157Y202736D01*
X385936Y204070D01*
X383470Y206536D01*
X382136Y209757D01*
X382136Y213243D01*
X383470Y216464D01*
X385936Y218930D01*
X389157Y220264D01*
X392643Y220264D01*
X395864Y218930D01*
X398330Y216464D01*
X399664Y213243D01*
X399664Y209757D01*
X398330Y206536D01*
X395864Y204070D01*
X392643Y202736D01*
X389157Y202736D01*
G37*
%LPD*%
%LPC*%
G36*
X389157Y177336D02*
X389157Y177336D01*
X385936Y178670D01*
X383470Y181136D01*
X382136Y184357D01*
X382136Y187843D01*
X383470Y191064D01*
X385936Y193530D01*
X389157Y194864D01*
X392643Y194864D01*
X395864Y193530D01*
X398330Y191064D01*
X399664Y187843D01*
X399664Y184357D01*
X398330Y181136D01*
X395864Y178670D01*
X392643Y177336D01*
X389157Y177336D01*
G37*
%LPD*%
%LPC*%
G36*
X668557Y177336D02*
X668557Y177336D01*
X665336Y178670D01*
X662870Y181136D01*
X661536Y184357D01*
X661536Y187843D01*
X662870Y191064D01*
X665336Y193530D01*
X668557Y194864D01*
X672043Y194864D01*
X675264Y193530D01*
X677730Y191064D01*
X679064Y187843D01*
X679064Y184357D01*
X677730Y181136D01*
X675264Y178670D01*
X672043Y177336D01*
X668557Y177336D01*
G37*
%LPD*%
%LPC*%
G36*
X643157Y177336D02*
X643157Y177336D01*
X639936Y178670D01*
X637470Y181136D01*
X636136Y184357D01*
X636136Y187843D01*
X637470Y191064D01*
X639936Y193530D01*
X643157Y194864D01*
X646643Y194864D01*
X649864Y193530D01*
X652330Y191064D01*
X653664Y187843D01*
X653664Y184357D01*
X652330Y181136D01*
X649864Y178670D01*
X646643Y177336D01*
X643157Y177336D01*
G37*
%LPD*%
%LPC*%
G36*
X668557Y151936D02*
X668557Y151936D01*
X665336Y153270D01*
X662870Y155736D01*
X661536Y158957D01*
X661536Y162443D01*
X662870Y165664D01*
X665336Y168130D01*
X668557Y169464D01*
X672043Y169464D01*
X675264Y168130D01*
X677730Y165664D01*
X679064Y162443D01*
X679064Y158957D01*
X677730Y155736D01*
X675264Y153270D01*
X672043Y151936D01*
X668557Y151936D01*
G37*
%LPD*%
%LPC*%
G36*
X643157Y151936D02*
X643157Y151936D01*
X639936Y153270D01*
X637470Y155736D01*
X636136Y158957D01*
X636136Y162443D01*
X637470Y165664D01*
X639936Y168130D01*
X643157Y169464D01*
X646643Y169464D01*
X649864Y168130D01*
X652330Y165664D01*
X653664Y162443D01*
X653664Y158957D01*
X652330Y155736D01*
X649864Y153270D01*
X646643Y151936D01*
X643157Y151936D01*
G37*
%LPD*%
%LPC*%
G36*
X414557Y151936D02*
X414557Y151936D01*
X411336Y153270D01*
X408870Y155736D01*
X407536Y158957D01*
X407536Y162443D01*
X408870Y165664D01*
X411336Y168130D01*
X414557Y169464D01*
X418043Y169464D01*
X421264Y168130D01*
X423730Y165664D01*
X425064Y162443D01*
X425064Y158957D01*
X423730Y155736D01*
X421264Y153270D01*
X418043Y151936D01*
X414557Y151936D01*
G37*
%LPD*%
%LPC*%
G36*
X389157Y151936D02*
X389157Y151936D01*
X385936Y153270D01*
X383470Y155736D01*
X382136Y158957D01*
X382136Y162443D01*
X383470Y165664D01*
X385936Y168130D01*
X389157Y169464D01*
X392643Y169464D01*
X395864Y168130D01*
X398330Y165664D01*
X399664Y162443D01*
X399664Y158957D01*
X398330Y155736D01*
X395864Y153270D01*
X392643Y151936D01*
X389157Y151936D01*
G37*
%LPD*%
%LPC*%
G36*
X668557Y126536D02*
X668557Y126536D01*
X665336Y127870D01*
X662870Y130336D01*
X661536Y133557D01*
X661536Y137043D01*
X662870Y140264D01*
X665336Y142730D01*
X668557Y144064D01*
X672043Y144064D01*
X675264Y142730D01*
X677730Y140264D01*
X679064Y137043D01*
X679064Y133557D01*
X677730Y130336D01*
X675264Y127870D01*
X672043Y126536D01*
X668557Y126536D01*
G37*
%LPD*%
%LPC*%
G36*
X643157Y126536D02*
X643157Y126536D01*
X639936Y127870D01*
X637470Y130336D01*
X636136Y133557D01*
X636136Y137043D01*
X637470Y140264D01*
X639936Y142730D01*
X643157Y144064D01*
X646643Y144064D01*
X649864Y142730D01*
X652330Y140264D01*
X653664Y137043D01*
X653664Y133557D01*
X652330Y130336D01*
X649864Y127870D01*
X646643Y126536D01*
X643157Y126536D01*
G37*
%LPD*%
%LPC*%
G36*
X414557Y126536D02*
X414557Y126536D01*
X411336Y127870D01*
X408870Y130336D01*
X407536Y133557D01*
X407536Y137043D01*
X408870Y140264D01*
X411336Y142730D01*
X414557Y144064D01*
X418043Y144064D01*
X421264Y142730D01*
X423730Y140264D01*
X425064Y137043D01*
X425064Y133557D01*
X423730Y130336D01*
X421264Y127870D01*
X418043Y126536D01*
X414557Y126536D01*
G37*
%LPD*%
%LPC*%
G36*
X389157Y126536D02*
X389157Y126536D01*
X385936Y127870D01*
X383470Y130336D01*
X382136Y133557D01*
X382136Y137043D01*
X383470Y140264D01*
X385936Y142730D01*
X389157Y144064D01*
X392643Y144064D01*
X395864Y142730D01*
X398330Y140264D01*
X399664Y137043D01*
X399664Y133557D01*
X398330Y130336D01*
X395864Y127870D01*
X392643Y126536D01*
X389157Y126536D01*
G37*
%LPD*%
%LPC*%
G36*
X668557Y101136D02*
X668557Y101136D01*
X665336Y102470D01*
X662870Y104936D01*
X661536Y108157D01*
X661536Y111643D01*
X662870Y114864D01*
X665336Y117330D01*
X668557Y118664D01*
X672043Y118664D01*
X675264Y117330D01*
X677730Y114864D01*
X679064Y111643D01*
X679064Y108157D01*
X677730Y104936D01*
X675264Y102470D01*
X672043Y101136D01*
X668557Y101136D01*
G37*
%LPD*%
%LPC*%
G36*
X643157Y101136D02*
X643157Y101136D01*
X639936Y102470D01*
X637470Y104936D01*
X636136Y108157D01*
X636136Y111643D01*
X637470Y114864D01*
X639936Y117330D01*
X643157Y118664D01*
X646643Y118664D01*
X649864Y117330D01*
X652330Y114864D01*
X653664Y111643D01*
X653664Y108157D01*
X652330Y104936D01*
X649864Y102470D01*
X646643Y101136D01*
X643157Y101136D01*
G37*
%LPD*%
%LPC*%
G36*
X414557Y101136D02*
X414557Y101136D01*
X411336Y102470D01*
X408870Y104936D01*
X407536Y108157D01*
X407536Y111643D01*
X408870Y114864D01*
X411336Y117330D01*
X414557Y118664D01*
X418043Y118664D01*
X421264Y117330D01*
X423730Y114864D01*
X425064Y111643D01*
X425064Y108157D01*
X423730Y104936D01*
X421264Y102470D01*
X418043Y101136D01*
X414557Y101136D01*
G37*
%LPD*%
%LPC*%
G36*
X389157Y101136D02*
X389157Y101136D01*
X385936Y102470D01*
X383470Y104936D01*
X382136Y108157D01*
X382136Y111643D01*
X383470Y114864D01*
X385936Y117330D01*
X389157Y118664D01*
X392643Y118664D01*
X395864Y117330D01*
X398330Y114864D01*
X399664Y111643D01*
X399664Y108157D01*
X398330Y104936D01*
X395864Y102470D01*
X392643Y101136D01*
X389157Y101136D01*
G37*
%LPD*%
%LPC*%
G36*
X414557Y177336D02*
X414557Y177336D01*
X411336Y178670D01*
X408870Y181136D01*
X407536Y184357D01*
X407536Y187843D01*
X408870Y191064D01*
X411336Y193530D01*
X414557Y194864D01*
X418043Y194864D01*
X421264Y193530D01*
X423730Y191064D01*
X425064Y187843D01*
X425064Y184357D01*
X423730Y181136D01*
X421264Y178670D01*
X418043Y177336D01*
X414557Y177336D01*
G37*
%LPD*%
%LPC*%
G36*
X668557Y532936D02*
X668557Y532936D01*
X665336Y534270D01*
X662870Y536736D01*
X661536Y539957D01*
X661536Y543443D01*
X662870Y546664D01*
X665336Y549130D01*
X668557Y550464D01*
X672043Y550464D01*
X675264Y549130D01*
X677730Y546664D01*
X679064Y543443D01*
X679064Y539957D01*
X677730Y536736D01*
X675264Y534270D01*
X672043Y532936D01*
X668557Y532936D01*
G37*
%LPD*%
%LPC*%
G36*
X643157Y532936D02*
X643157Y532936D01*
X639936Y534270D01*
X637470Y536736D01*
X636136Y539957D01*
X636136Y543443D01*
X637470Y546664D01*
X639936Y549130D01*
X643157Y550464D01*
X646643Y550464D01*
X649864Y549130D01*
X652330Y546664D01*
X653664Y543443D01*
X653664Y539957D01*
X652330Y536736D01*
X649864Y534270D01*
X646643Y532936D01*
X643157Y532936D01*
G37*
%LPD*%
%LPC*%
G36*
X414557Y532936D02*
X414557Y532936D01*
X411336Y534270D01*
X408870Y536736D01*
X407536Y539957D01*
X407536Y543443D01*
X408870Y546664D01*
X411336Y549130D01*
X414557Y550464D01*
X418043Y550464D01*
X421264Y549130D01*
X423730Y546664D01*
X425064Y543443D01*
X425064Y539957D01*
X423730Y536736D01*
X421264Y534270D01*
X418043Y532936D01*
X414557Y532936D01*
G37*
%LPD*%
%LPC*%
G36*
X389157Y532936D02*
X389157Y532936D01*
X385936Y534270D01*
X383470Y536736D01*
X382136Y539957D01*
X382136Y543443D01*
X383470Y546664D01*
X385936Y549130D01*
X389157Y550464D01*
X392643Y550464D01*
X395864Y549130D01*
X398330Y546664D01*
X399664Y543443D01*
X399664Y539957D01*
X398330Y536736D01*
X395864Y534270D01*
X392643Y532936D01*
X389157Y532936D01*
G37*
%LPD*%
%LPC*%
G36*
X668557Y507536D02*
X668557Y507536D01*
X665336Y508870D01*
X662870Y511336D01*
X661536Y514557D01*
X661536Y518043D01*
X662870Y521264D01*
X665336Y523730D01*
X668557Y525064D01*
X672043Y525064D01*
X675264Y523730D01*
X677730Y521264D01*
X679064Y518043D01*
X679064Y514557D01*
X677730Y511336D01*
X675264Y508870D01*
X672043Y507536D01*
X668557Y507536D01*
G37*
%LPD*%
%LPC*%
G36*
X643157Y507536D02*
X643157Y507536D01*
X639936Y508870D01*
X637470Y511336D01*
X636136Y514557D01*
X636136Y518043D01*
X637470Y521264D01*
X639936Y523730D01*
X643157Y525064D01*
X646643Y525064D01*
X649864Y523730D01*
X652330Y521264D01*
X653664Y518043D01*
X653664Y514557D01*
X652330Y511336D01*
X649864Y508870D01*
X646643Y507536D01*
X643157Y507536D01*
G37*
%LPD*%
%LPC*%
G36*
X414557Y507536D02*
X414557Y507536D01*
X411336Y508870D01*
X408870Y511336D01*
X407536Y514557D01*
X407536Y518043D01*
X408870Y521264D01*
X411336Y523730D01*
X414557Y525064D01*
X418043Y525064D01*
X421264Y523730D01*
X423730Y521264D01*
X425064Y518043D01*
X425064Y514557D01*
X423730Y511336D01*
X421264Y508870D01*
X418043Y507536D01*
X414557Y507536D01*
G37*
%LPD*%
%LPC*%
G36*
X389157Y507536D02*
X389157Y507536D01*
X385936Y508870D01*
X383470Y511336D01*
X382136Y514557D01*
X382136Y518043D01*
X383470Y521264D01*
X385936Y523730D01*
X389157Y525064D01*
X392643Y525064D01*
X395864Y523730D01*
X398330Y521264D01*
X399664Y518043D01*
X399664Y514557D01*
X398330Y511336D01*
X395864Y508870D01*
X392643Y507536D01*
X389157Y507536D01*
G37*
%LPD*%
%LPC*%
G36*
X414557Y482136D02*
X414557Y482136D01*
X411336Y483470D01*
X408870Y485936D01*
X407536Y489157D01*
X407536Y492643D01*
X408870Y495864D01*
X411336Y498330D01*
X414557Y499664D01*
X418043Y499664D01*
X421264Y498330D01*
X423730Y495864D01*
X425064Y492643D01*
X425064Y489157D01*
X423730Y485936D01*
X421264Y483470D01*
X418043Y482136D01*
X414557Y482136D01*
G37*
%LPD*%
%LPC*%
G36*
X389157Y482136D02*
X389157Y482136D01*
X385936Y483470D01*
X383470Y485936D01*
X382136Y489157D01*
X382136Y492643D01*
X383470Y495864D01*
X385936Y498330D01*
X389157Y499664D01*
X392643Y499664D01*
X395864Y498330D01*
X398330Y495864D01*
X399664Y492643D01*
X399664Y489157D01*
X398330Y485936D01*
X395864Y483470D01*
X392643Y482136D01*
X389157Y482136D01*
G37*
%LPD*%
%LPC*%
G36*
X668557Y482136D02*
X668557Y482136D01*
X665336Y483470D01*
X662870Y485936D01*
X661536Y489157D01*
X661536Y492643D01*
X662870Y495864D01*
X665336Y498330D01*
X668557Y499664D01*
X672043Y499664D01*
X675264Y498330D01*
X677730Y495864D01*
X679064Y492643D01*
X679064Y489157D01*
X677730Y485936D01*
X675264Y483470D01*
X672043Y482136D01*
X668557Y482136D01*
G37*
%LPD*%
%LPC*%
G36*
X643157Y482136D02*
X643157Y482136D01*
X639936Y483470D01*
X637470Y485936D01*
X636136Y489157D01*
X636136Y492643D01*
X637470Y495864D01*
X639936Y498330D01*
X643157Y499664D01*
X646643Y499664D01*
X649864Y498330D01*
X652330Y495864D01*
X653664Y492643D01*
X653664Y489157D01*
X652330Y485936D01*
X649864Y483470D01*
X646643Y482136D01*
X643157Y482136D01*
G37*
%LPD*%
%LPC*%
G36*
X414557Y456736D02*
X414557Y456736D01*
X411336Y458070D01*
X408870Y460536D01*
X407536Y463757D01*
X407536Y467243D01*
X408870Y470464D01*
X411336Y472930D01*
X414557Y474264D01*
X418043Y474264D01*
X421264Y472930D01*
X423730Y470464D01*
X425064Y467243D01*
X425064Y463757D01*
X423730Y460536D01*
X421264Y458070D01*
X418043Y456736D01*
X414557Y456736D01*
G37*
%LPD*%
%LPC*%
G36*
X389157Y456736D02*
X389157Y456736D01*
X385936Y458070D01*
X383470Y460536D01*
X382136Y463757D01*
X382136Y467243D01*
X383470Y470464D01*
X385936Y472930D01*
X389157Y474264D01*
X392643Y474264D01*
X395864Y472930D01*
X398330Y470464D01*
X399664Y467243D01*
X399664Y463757D01*
X398330Y460536D01*
X395864Y458070D01*
X392643Y456736D01*
X389157Y456736D01*
G37*
%LPD*%
%LPC*%
G36*
X668557Y456736D02*
X668557Y456736D01*
X665336Y458070D01*
X662870Y460536D01*
X661536Y463757D01*
X661536Y467243D01*
X662870Y470464D01*
X665336Y472930D01*
X668557Y474264D01*
X672043Y474264D01*
X675264Y472930D01*
X677730Y470464D01*
X679064Y467243D01*
X679064Y463757D01*
X677730Y460536D01*
X675264Y458070D01*
X672043Y456736D01*
X668557Y456736D01*
G37*
%LPD*%
%LPC*%
G36*
X643157Y456736D02*
X643157Y456736D01*
X639936Y458070D01*
X637470Y460536D01*
X636136Y463757D01*
X636136Y467243D01*
X637470Y470464D01*
X639936Y472930D01*
X643157Y474264D01*
X646643Y474264D01*
X649864Y472930D01*
X652330Y470464D01*
X653664Y467243D01*
X653664Y463757D01*
X652330Y460536D01*
X649864Y458070D01*
X646643Y456736D01*
X643157Y456736D01*
G37*
%LPD*%
%LPC*%
G36*
X668557Y431336D02*
X668557Y431336D01*
X665336Y432670D01*
X662870Y435136D01*
X661536Y438357D01*
X661536Y441843D01*
X662870Y445064D01*
X665336Y447530D01*
X668557Y448864D01*
X672043Y448864D01*
X675264Y447530D01*
X677730Y445064D01*
X679064Y441843D01*
X679064Y438357D01*
X677730Y435136D01*
X675264Y432670D01*
X672043Y431336D01*
X668557Y431336D01*
G37*
%LPD*%
%LPC*%
G36*
X643157Y431336D02*
X643157Y431336D01*
X639936Y432670D01*
X637470Y435136D01*
X636136Y438357D01*
X636136Y441843D01*
X637470Y445064D01*
X639936Y447530D01*
X643157Y448864D01*
X646643Y448864D01*
X649864Y447530D01*
X652330Y445064D01*
X653664Y441843D01*
X653664Y438357D01*
X652330Y435136D01*
X649864Y432670D01*
X646643Y431336D01*
X643157Y431336D01*
G37*
%LPD*%
%LPC*%
G36*
X414557Y431336D02*
X414557Y431336D01*
X411336Y432670D01*
X408870Y435136D01*
X407536Y438357D01*
X407536Y441843D01*
X408870Y445064D01*
X411336Y447530D01*
X414557Y448864D01*
X418043Y448864D01*
X421264Y447530D01*
X423730Y445064D01*
X425064Y441843D01*
X425064Y438357D01*
X423730Y435136D01*
X421264Y432670D01*
X418043Y431336D01*
X414557Y431336D01*
G37*
%LPD*%
%LPC*%
G36*
X389157Y431336D02*
X389157Y431336D01*
X385936Y432670D01*
X383470Y435136D01*
X382136Y438357D01*
X382136Y441843D01*
X383470Y445064D01*
X385936Y447530D01*
X389157Y448864D01*
X392643Y448864D01*
X395864Y447530D01*
X398330Y445064D01*
X399664Y441843D01*
X399664Y438357D01*
X398330Y435136D01*
X395864Y432670D01*
X392643Y431336D01*
X389157Y431336D01*
G37*
%LPD*%
%LPC*%
G36*
X668557Y405936D02*
X668557Y405936D01*
X665336Y407270D01*
X662870Y409736D01*
X661536Y412957D01*
X661536Y416443D01*
X662870Y419664D01*
X665336Y422130D01*
X668557Y423464D01*
X672043Y423464D01*
X675264Y422130D01*
X677730Y419664D01*
X679064Y416443D01*
X679064Y412957D01*
X677730Y409736D01*
X675264Y407270D01*
X672043Y405936D01*
X668557Y405936D01*
G37*
%LPD*%
%LPC*%
G36*
X643157Y405936D02*
X643157Y405936D01*
X639936Y407270D01*
X637470Y409736D01*
X636136Y412957D01*
X636136Y416443D01*
X637470Y419664D01*
X639936Y422130D01*
X643157Y423464D01*
X646643Y423464D01*
X649864Y422130D01*
X652330Y419664D01*
X653664Y416443D01*
X653664Y412957D01*
X652330Y409736D01*
X649864Y407270D01*
X646643Y405936D01*
X643157Y405936D01*
G37*
%LPD*%
%LPC*%
G36*
X414557Y405936D02*
X414557Y405936D01*
X411336Y407270D01*
X408870Y409736D01*
X407536Y412957D01*
X407536Y416443D01*
X408870Y419664D01*
X411336Y422130D01*
X414557Y423464D01*
X418043Y423464D01*
X421264Y422130D01*
X423730Y419664D01*
X425064Y416443D01*
X425064Y412957D01*
X423730Y409736D01*
X421264Y407270D01*
X418043Y405936D01*
X414557Y405936D01*
G37*
%LPD*%
%LPC*%
G36*
X389157Y405936D02*
X389157Y405936D01*
X385936Y407270D01*
X383470Y409736D01*
X382136Y412957D01*
X382136Y416443D01*
X383470Y419664D01*
X385936Y422130D01*
X389157Y423464D01*
X392643Y423464D01*
X395864Y422130D01*
X398330Y419664D01*
X399664Y416443D01*
X399664Y412957D01*
X398330Y409736D01*
X395864Y407270D01*
X392643Y405936D01*
X389157Y405936D01*
G37*
%LPD*%
%LPC*%
G36*
X668557Y380536D02*
X668557Y380536D01*
X665336Y381870D01*
X662870Y384336D01*
X661536Y387557D01*
X661536Y391043D01*
X662870Y394264D01*
X665336Y396730D01*
X668557Y398064D01*
X672043Y398064D01*
X675264Y396730D01*
X677730Y394264D01*
X679064Y391043D01*
X679064Y387557D01*
X677730Y384336D01*
X675264Y381870D01*
X672043Y380536D01*
X668557Y380536D01*
G37*
%LPD*%
%LPC*%
G36*
X414557Y380536D02*
X414557Y380536D01*
X411336Y381870D01*
X408870Y384336D01*
X407536Y387557D01*
X407536Y391043D01*
X408870Y394264D01*
X411336Y396730D01*
X414557Y398064D01*
X418043Y398064D01*
X421264Y396730D01*
X423730Y394264D01*
X425064Y391043D01*
X425064Y387557D01*
X423730Y384336D01*
X421264Y381870D01*
X418043Y380536D01*
X414557Y380536D01*
G37*
%LPD*%
%LPC*%
G36*
X389157Y380536D02*
X389157Y380536D01*
X385936Y381870D01*
X383470Y384336D01*
X382136Y387557D01*
X382136Y391043D01*
X383470Y394264D01*
X385936Y396730D01*
X389157Y398064D01*
X392643Y398064D01*
X395864Y396730D01*
X398330Y394264D01*
X399664Y391043D01*
X399664Y387557D01*
X398330Y384336D01*
X395864Y381870D01*
X392643Y380536D01*
X389157Y380536D01*
G37*
%LPD*%
%LPC*%
G36*
X87157Y372236D02*
X87157Y372236D01*
X83936Y373570D01*
X81470Y376036D01*
X80136Y379257D01*
X80136Y382743D01*
X81470Y385964D01*
X83936Y388430D01*
X87157Y389764D01*
X90643Y389764D01*
X93864Y388430D01*
X96330Y385964D01*
X97664Y382743D01*
X97664Y379257D01*
X96330Y376036D01*
X93864Y373570D01*
X90643Y372236D01*
X87157Y372236D01*
G37*
%LPD*%
%LPC*%
G36*
X668557Y278936D02*
X668557Y278936D01*
X665336Y280270D01*
X662870Y282736D01*
X661536Y285957D01*
X661536Y289443D01*
X662870Y292664D01*
X665336Y295130D01*
X668557Y296464D01*
X672043Y296464D01*
X675264Y295130D01*
X677730Y292664D01*
X679064Y289443D01*
X679064Y285957D01*
X677730Y282736D01*
X675264Y280270D01*
X672043Y278936D01*
X668557Y278936D01*
G37*
%LPD*%
%LPC*%
G36*
X668557Y355136D02*
X668557Y355136D01*
X665336Y356470D01*
X662870Y358936D01*
X661536Y362157D01*
X661536Y365643D01*
X662870Y368864D01*
X665336Y371330D01*
X668557Y372664D01*
X672043Y372664D01*
X675264Y371330D01*
X677730Y368864D01*
X679064Y365643D01*
X679064Y362157D01*
X677730Y358936D01*
X675264Y356470D01*
X672043Y355136D01*
X668557Y355136D01*
G37*
%LPD*%
%LPC*%
G36*
X643157Y355136D02*
X643157Y355136D01*
X639936Y356470D01*
X637470Y358936D01*
X636136Y362157D01*
X636136Y365643D01*
X637470Y368864D01*
X639936Y371330D01*
X643157Y372664D01*
X646643Y372664D01*
X649864Y371330D01*
X652330Y368864D01*
X653664Y365643D01*
X653664Y362157D01*
X652330Y358936D01*
X649864Y356470D01*
X646643Y355136D01*
X643157Y355136D01*
G37*
%LPD*%
%LPC*%
G36*
X414557Y355136D02*
X414557Y355136D01*
X411336Y356470D01*
X408870Y358936D01*
X407536Y362157D01*
X407536Y365643D01*
X408870Y368864D01*
X411336Y371330D01*
X414557Y372664D01*
X418043Y372664D01*
X421264Y371330D01*
X423730Y368864D01*
X425064Y365643D01*
X425064Y362157D01*
X423730Y358936D01*
X421264Y356470D01*
X418043Y355136D01*
X414557Y355136D01*
G37*
%LPD*%
%LPC*%
G36*
X389157Y355136D02*
X389157Y355136D01*
X385936Y356470D01*
X383470Y358936D01*
X382136Y362157D01*
X382136Y365643D01*
X383470Y368864D01*
X385936Y371330D01*
X389157Y372664D01*
X392643Y372664D01*
X395864Y371330D01*
X398330Y368864D01*
X399664Y365643D01*
X399664Y362157D01*
X398330Y358936D01*
X395864Y356470D01*
X392643Y355136D01*
X389157Y355136D01*
G37*
%LPD*%
%LPC*%
G36*
X950757Y346836D02*
X950757Y346836D01*
X947536Y348170D01*
X945070Y350636D01*
X943736Y353857D01*
X943736Y357343D01*
X945070Y360564D01*
X947536Y363030D01*
X950757Y364364D01*
X954243Y364364D01*
X957464Y363030D01*
X959930Y360564D01*
X961264Y357343D01*
X961264Y353857D01*
X959930Y350636D01*
X957464Y348170D01*
X954243Y346836D01*
X950757Y346836D01*
G37*
%LPD*%
%LPC*%
G36*
X87157Y346836D02*
X87157Y346836D01*
X83936Y348170D01*
X81470Y350636D01*
X80136Y353857D01*
X80136Y357343D01*
X81470Y360564D01*
X83936Y363030D01*
X87157Y364364D01*
X90643Y364364D01*
X93864Y363030D01*
X96330Y360564D01*
X97664Y357343D01*
X97664Y353857D01*
X96330Y350636D01*
X93864Y348170D01*
X90643Y346836D01*
X87157Y346836D01*
G37*
%LPD*%
%LPC*%
G36*
X668557Y329736D02*
X668557Y329736D01*
X665336Y331070D01*
X662870Y333536D01*
X661536Y336757D01*
X661536Y340243D01*
X662870Y343464D01*
X665336Y345930D01*
X668557Y347264D01*
X672043Y347264D01*
X675264Y345930D01*
X677730Y343464D01*
X679064Y340243D01*
X679064Y336757D01*
X677730Y333536D01*
X675264Y331070D01*
X672043Y329736D01*
X668557Y329736D01*
G37*
%LPD*%
%LPC*%
G36*
X643157Y329736D02*
X643157Y329736D01*
X639936Y331070D01*
X637470Y333536D01*
X636136Y336757D01*
X636136Y340243D01*
X637470Y343464D01*
X639936Y345930D01*
X643157Y347264D01*
X646643Y347264D01*
X649864Y345930D01*
X652330Y343464D01*
X653664Y340243D01*
X653664Y336757D01*
X652330Y333536D01*
X649864Y331070D01*
X646643Y329736D01*
X643157Y329736D01*
G37*
%LPD*%
%LPC*%
G36*
X414557Y329736D02*
X414557Y329736D01*
X411336Y331070D01*
X408870Y333536D01*
X407536Y336757D01*
X407536Y340243D01*
X408870Y343464D01*
X411336Y345930D01*
X414557Y347264D01*
X418043Y347264D01*
X421264Y345930D01*
X423730Y343464D01*
X425064Y340243D01*
X425064Y336757D01*
X423730Y333536D01*
X421264Y331070D01*
X418043Y329736D01*
X414557Y329736D01*
G37*
%LPD*%
%LPC*%
G36*
X389157Y329736D02*
X389157Y329736D01*
X385936Y331070D01*
X383470Y333536D01*
X382136Y336757D01*
X382136Y340243D01*
X383470Y343464D01*
X385936Y345930D01*
X389157Y347264D01*
X392643Y347264D01*
X395864Y345930D01*
X398330Y343464D01*
X399664Y340243D01*
X399664Y336757D01*
X398330Y333536D01*
X395864Y331070D01*
X392643Y329736D01*
X389157Y329736D01*
G37*
%LPD*%
%LPC*%
G36*
X950757Y321436D02*
X950757Y321436D01*
X947536Y322770D01*
X945070Y325236D01*
X943736Y328457D01*
X943736Y331943D01*
X945070Y335164D01*
X947536Y337630D01*
X950757Y338964D01*
X954243Y338964D01*
X957464Y337630D01*
X959930Y335164D01*
X961264Y331943D01*
X961264Y328457D01*
X959930Y325236D01*
X957464Y322770D01*
X954243Y321436D01*
X950757Y321436D01*
G37*
%LPD*%
%LPC*%
G36*
X87157Y321436D02*
X87157Y321436D01*
X83936Y322770D01*
X81470Y325236D01*
X80136Y328457D01*
X80136Y331943D01*
X81470Y335164D01*
X83936Y337630D01*
X87157Y338964D01*
X90643Y338964D01*
X93864Y337630D01*
X96330Y335164D01*
X97664Y331943D01*
X97664Y328457D01*
X96330Y325236D01*
X93864Y322770D01*
X90643Y321436D01*
X87157Y321436D01*
G37*
%LPD*%
%LPC*%
G36*
X668557Y304336D02*
X668557Y304336D01*
X665336Y305670D01*
X662870Y308136D01*
X661536Y311357D01*
X661536Y314843D01*
X662870Y318064D01*
X665336Y320530D01*
X668557Y321864D01*
X672043Y321864D01*
X675264Y320530D01*
X677730Y318064D01*
X679064Y314843D01*
X679064Y311357D01*
X677730Y308136D01*
X675264Y305670D01*
X672043Y304336D01*
X668557Y304336D01*
G37*
%LPD*%
%LPC*%
G36*
X643157Y304336D02*
X643157Y304336D01*
X639936Y305670D01*
X637470Y308136D01*
X636136Y311357D01*
X636136Y314843D01*
X637470Y318064D01*
X639936Y320530D01*
X643157Y321864D01*
X646643Y321864D01*
X649864Y320530D01*
X652330Y318064D01*
X653664Y314843D01*
X653664Y311357D01*
X652330Y308136D01*
X649864Y305670D01*
X646643Y304336D01*
X643157Y304336D01*
G37*
%LPD*%
%LPC*%
G36*
X414557Y304336D02*
X414557Y304336D01*
X411336Y305670D01*
X408870Y308136D01*
X407536Y311357D01*
X407536Y314843D01*
X408870Y318064D01*
X411336Y320530D01*
X414557Y321864D01*
X418043Y321864D01*
X421264Y320530D01*
X423730Y318064D01*
X425064Y314843D01*
X425064Y311357D01*
X423730Y308136D01*
X421264Y305670D01*
X418043Y304336D01*
X414557Y304336D01*
G37*
%LPD*%
%LPC*%
G36*
X389157Y304336D02*
X389157Y304336D01*
X385936Y305670D01*
X383470Y308136D01*
X382136Y311357D01*
X382136Y314843D01*
X383470Y318064D01*
X385936Y320530D01*
X389157Y321864D01*
X392643Y321864D01*
X395864Y320530D01*
X398330Y318064D01*
X399664Y314843D01*
X399664Y311357D01*
X398330Y308136D01*
X395864Y305670D01*
X392643Y304336D01*
X389157Y304336D01*
G37*
%LPD*%
%LPC*%
G36*
X950757Y296036D02*
X950757Y296036D01*
X947536Y297370D01*
X945070Y299836D01*
X943736Y303057D01*
X943736Y306543D01*
X945070Y309764D01*
X947536Y312230D01*
X950757Y313564D01*
X954243Y313564D01*
X957464Y312230D01*
X959930Y309764D01*
X961264Y306543D01*
X961264Y303057D01*
X959930Y299836D01*
X957464Y297370D01*
X954243Y296036D01*
X950757Y296036D01*
G37*
%LPD*%
%LPC*%
G36*
X414557Y278936D02*
X414557Y278936D01*
X411336Y280270D01*
X408870Y282736D01*
X407536Y285957D01*
X407536Y289443D01*
X408870Y292664D01*
X411336Y295130D01*
X414557Y296464D01*
X418043Y296464D01*
X421264Y295130D01*
X423730Y292664D01*
X425064Y289443D01*
X425064Y285957D01*
X423730Y282736D01*
X421264Y280270D01*
X418043Y278936D01*
X414557Y278936D01*
G37*
%LPD*%
%LPC*%
G36*
X389157Y278936D02*
X389157Y278936D01*
X385936Y280270D01*
X383470Y282736D01*
X382136Y285957D01*
X382136Y289443D01*
X383470Y292664D01*
X385936Y295130D01*
X389157Y296464D01*
X392643Y296464D01*
X395864Y295130D01*
X398330Y292664D01*
X399664Y289443D01*
X399664Y285957D01*
X398330Y282736D01*
X395864Y280270D01*
X392643Y278936D01*
X389157Y278936D01*
G37*
%LPD*%
%LPC*%
G36*
X328595Y779329D02*
X328595Y779329D01*
X325628Y780558D01*
X323358Y782828D01*
X322129Y785795D01*
X322129Y789005D01*
X323358Y791972D01*
X325628Y794242D01*
X328595Y795471D01*
X331805Y795471D01*
X334772Y794242D01*
X337042Y791972D01*
X338271Y789005D01*
X338271Y785795D01*
X337042Y782828D01*
X334772Y780558D01*
X331805Y779329D01*
X328595Y779329D01*
G37*
%LPD*%
%LPC*%
G36*
X303195Y779329D02*
X303195Y779329D01*
X300228Y780558D01*
X297958Y782828D01*
X296729Y785795D01*
X296729Y789005D01*
X297958Y791972D01*
X300228Y794242D01*
X303195Y795471D01*
X306405Y795471D01*
X309372Y794242D01*
X311642Y791972D01*
X312871Y789005D01*
X312871Y785795D01*
X311642Y782828D01*
X309372Y780558D01*
X306405Y779329D01*
X303195Y779329D01*
G37*
%LPD*%
%LPC*%
G36*
X785795Y779329D02*
X785795Y779329D01*
X782828Y780558D01*
X780558Y782828D01*
X779329Y785795D01*
X779329Y789005D01*
X780558Y791972D01*
X782828Y794242D01*
X785795Y795471D01*
X789005Y795471D01*
X791972Y794242D01*
X794242Y791972D01*
X795471Y789005D01*
X795471Y785795D01*
X794242Y782828D01*
X791972Y780558D01*
X789005Y779329D01*
X785795Y779329D01*
G37*
%LPD*%
%LPC*%
G36*
X760395Y779329D02*
X760395Y779329D01*
X757428Y780558D01*
X755158Y782828D01*
X753929Y785795D01*
X753929Y789005D01*
X755158Y791972D01*
X757428Y794242D01*
X760395Y795471D01*
X763605Y795471D01*
X766572Y794242D01*
X768842Y791972D01*
X770071Y789005D01*
X770071Y785795D01*
X768842Y782828D01*
X766572Y780558D01*
X763605Y779329D01*
X760395Y779329D01*
G37*
%LPD*%
%LPC*%
G36*
X734995Y779329D02*
X734995Y779329D01*
X732028Y780558D01*
X729758Y782828D01*
X728529Y785795D01*
X728529Y789005D01*
X729758Y791972D01*
X732028Y794242D01*
X734995Y795471D01*
X738205Y795471D01*
X741172Y794242D01*
X743442Y791972D01*
X744671Y789005D01*
X744671Y785795D01*
X743442Y782828D01*
X741172Y780558D01*
X738205Y779329D01*
X734995Y779329D01*
G37*
%LPD*%
%LPC*%
G36*
X709595Y779329D02*
X709595Y779329D01*
X706628Y780558D01*
X704358Y782828D01*
X703129Y785795D01*
X703129Y789005D01*
X704358Y791972D01*
X706628Y794242D01*
X709595Y795471D01*
X712805Y795471D01*
X715772Y794242D01*
X718042Y791972D01*
X719271Y789005D01*
X719271Y785795D01*
X718042Y782828D01*
X715772Y780558D01*
X712805Y779329D01*
X709595Y779329D01*
G37*
%LPD*%
%LPC*%
G36*
X684195Y779329D02*
X684195Y779329D01*
X681228Y780558D01*
X678958Y782828D01*
X677729Y785795D01*
X677729Y789005D01*
X678958Y791972D01*
X681228Y794242D01*
X684195Y795471D01*
X687405Y795471D01*
X690372Y794242D01*
X692642Y791972D01*
X693871Y789005D01*
X693871Y785795D01*
X692642Y782828D01*
X690372Y780558D01*
X687405Y779329D01*
X684195Y779329D01*
G37*
%LPD*%
%LPC*%
G36*
X658795Y779329D02*
X658795Y779329D01*
X655828Y780558D01*
X653558Y782828D01*
X652329Y785795D01*
X652329Y789005D01*
X653558Y791972D01*
X655828Y794242D01*
X658795Y795471D01*
X662005Y795471D01*
X664972Y794242D01*
X667242Y791972D01*
X668471Y789005D01*
X668471Y785795D01*
X667242Y782828D01*
X664972Y780558D01*
X662005Y779329D01*
X658795Y779329D01*
G37*
%LPD*%
%LPC*%
G36*
X633395Y779329D02*
X633395Y779329D01*
X630428Y780558D01*
X628158Y782828D01*
X626929Y785795D01*
X626929Y789005D01*
X628158Y791972D01*
X630428Y794242D01*
X633395Y795471D01*
X636605Y795471D01*
X639572Y794242D01*
X641842Y791972D01*
X643071Y789005D01*
X643071Y785795D01*
X641842Y782828D01*
X639572Y780558D01*
X636605Y779329D01*
X633395Y779329D01*
G37*
%LPD*%
%LPC*%
G36*
X607995Y779329D02*
X607995Y779329D01*
X605028Y780558D01*
X602758Y782828D01*
X601529Y785795D01*
X601529Y789005D01*
X602758Y791972D01*
X605028Y794242D01*
X607995Y795471D01*
X611205Y795471D01*
X614172Y794242D01*
X616442Y791972D01*
X617671Y789005D01*
X617671Y785795D01*
X616442Y782828D01*
X614172Y780558D01*
X611205Y779329D01*
X607995Y779329D01*
G37*
%LPD*%
%LPC*%
G36*
X582595Y779329D02*
X582595Y779329D01*
X579628Y780558D01*
X577358Y782828D01*
X576129Y785795D01*
X576129Y789005D01*
X577358Y791972D01*
X579628Y794242D01*
X582595Y795471D01*
X585805Y795471D01*
X588772Y794242D01*
X591042Y791972D01*
X592271Y789005D01*
X592271Y785795D01*
X591042Y782828D01*
X588772Y780558D01*
X585805Y779329D01*
X582595Y779329D01*
G37*
%LPD*%
%LPC*%
G36*
X557195Y779329D02*
X557195Y779329D01*
X554228Y780558D01*
X551958Y782828D01*
X550729Y785795D01*
X550729Y789005D01*
X551958Y791972D01*
X554228Y794242D01*
X557195Y795471D01*
X560405Y795471D01*
X563372Y794242D01*
X565642Y791972D01*
X566871Y789005D01*
X566871Y785795D01*
X565642Y782828D01*
X563372Y780558D01*
X560405Y779329D01*
X557195Y779329D01*
G37*
%LPD*%
%LPC*%
G36*
X531795Y779329D02*
X531795Y779329D01*
X528828Y780558D01*
X526558Y782828D01*
X525329Y785795D01*
X525329Y789005D01*
X526558Y791972D01*
X528828Y794242D01*
X531795Y795471D01*
X535005Y795471D01*
X537972Y794242D01*
X540242Y791972D01*
X541471Y789005D01*
X541471Y785795D01*
X540242Y782828D01*
X537972Y780558D01*
X535005Y779329D01*
X531795Y779329D01*
G37*
%LPD*%
%LPC*%
G36*
X506395Y779329D02*
X506395Y779329D01*
X503428Y780558D01*
X501158Y782828D01*
X499929Y785795D01*
X499929Y789005D01*
X501158Y791972D01*
X503428Y794242D01*
X506395Y795471D01*
X509605Y795471D01*
X512572Y794242D01*
X514842Y791972D01*
X516071Y789005D01*
X516071Y785795D01*
X514842Y782828D01*
X512572Y780558D01*
X509605Y779329D01*
X506395Y779329D01*
G37*
%LPD*%
%LPC*%
G36*
X480995Y779329D02*
X480995Y779329D01*
X478028Y780558D01*
X475758Y782828D01*
X474529Y785795D01*
X474529Y789005D01*
X475758Y791972D01*
X478028Y794242D01*
X480995Y795471D01*
X484205Y795471D01*
X487172Y794242D01*
X489442Y791972D01*
X490671Y789005D01*
X490671Y785795D01*
X489442Y782828D01*
X487172Y780558D01*
X484205Y779329D01*
X480995Y779329D01*
G37*
%LPD*%
%LPC*%
G36*
X455595Y779329D02*
X455595Y779329D01*
X452628Y780558D01*
X450358Y782828D01*
X449129Y785795D01*
X449129Y789005D01*
X450358Y791972D01*
X452628Y794242D01*
X455595Y795471D01*
X458805Y795471D01*
X461772Y794242D01*
X464042Y791972D01*
X465271Y789005D01*
X465271Y785795D01*
X464042Y782828D01*
X461772Y780558D01*
X458805Y779329D01*
X455595Y779329D01*
G37*
%LPD*%
%LPC*%
G36*
X430195Y779329D02*
X430195Y779329D01*
X427228Y780558D01*
X424958Y782828D01*
X423729Y785795D01*
X423729Y789005D01*
X424958Y791972D01*
X427228Y794242D01*
X430195Y795471D01*
X433405Y795471D01*
X436372Y794242D01*
X438642Y791972D01*
X439871Y789005D01*
X439871Y785795D01*
X438642Y782828D01*
X436372Y780558D01*
X433405Y779329D01*
X430195Y779329D01*
G37*
%LPD*%
%LPC*%
G36*
X404795Y779329D02*
X404795Y779329D01*
X401828Y780558D01*
X399558Y782828D01*
X398329Y785795D01*
X398329Y789005D01*
X399558Y791972D01*
X401828Y794242D01*
X404795Y795471D01*
X408005Y795471D01*
X410972Y794242D01*
X413242Y791972D01*
X414471Y789005D01*
X414471Y785795D01*
X413242Y782828D01*
X410972Y780558D01*
X408005Y779329D01*
X404795Y779329D01*
G37*
%LPD*%
%LPC*%
G36*
X379395Y779329D02*
X379395Y779329D01*
X376428Y780558D01*
X374158Y782828D01*
X372929Y785795D01*
X372929Y789005D01*
X374158Y791972D01*
X376428Y794242D01*
X379395Y795471D01*
X382605Y795471D01*
X385572Y794242D01*
X387842Y791972D01*
X389071Y789005D01*
X389071Y785795D01*
X387842Y782828D01*
X385572Y780558D01*
X382605Y779329D01*
X379395Y779329D01*
G37*
%LPD*%
%LPC*%
G36*
X353995Y779329D02*
X353995Y779329D01*
X351028Y780558D01*
X348758Y782828D01*
X347529Y785795D01*
X347529Y789005D01*
X348758Y791972D01*
X351028Y794242D01*
X353995Y795471D01*
X357205Y795471D01*
X360172Y794242D01*
X362442Y791972D01*
X363671Y789005D01*
X363671Y785795D01*
X362442Y782828D01*
X360172Y780558D01*
X357205Y779329D01*
X353995Y779329D01*
G37*
%LPD*%
%LPC*%
G36*
X379395Y626929D02*
X379395Y626929D01*
X376428Y628158D01*
X374158Y630428D01*
X372929Y633395D01*
X372929Y636605D01*
X374158Y639572D01*
X376428Y641842D01*
X379395Y643071D01*
X382605Y643071D01*
X385572Y641842D01*
X387842Y639572D01*
X389071Y636605D01*
X389071Y633395D01*
X387842Y630428D01*
X385572Y628158D01*
X382605Y626929D01*
X379395Y626929D01*
G37*
%LPD*%
%LPC*%
G36*
X455595Y626929D02*
X455595Y626929D01*
X452628Y628158D01*
X450358Y630428D01*
X449129Y633395D01*
X449129Y636605D01*
X450358Y639572D01*
X452628Y641842D01*
X455595Y643071D01*
X458805Y643071D01*
X461772Y641842D01*
X464042Y639572D01*
X465271Y636605D01*
X465271Y633395D01*
X464042Y630428D01*
X461772Y628158D01*
X458805Y626929D01*
X455595Y626929D01*
G37*
%LPD*%
%LPC*%
G36*
X531795Y626929D02*
X531795Y626929D01*
X528828Y628158D01*
X526558Y630428D01*
X525329Y633395D01*
X525329Y636605D01*
X526558Y639572D01*
X528828Y641842D01*
X531795Y643071D01*
X535005Y643071D01*
X537972Y641842D01*
X540242Y639572D01*
X541471Y636605D01*
X541471Y633395D01*
X540242Y630428D01*
X537972Y628158D01*
X535005Y626929D01*
X531795Y626929D01*
G37*
%LPD*%
%LPC*%
G36*
X557195Y626929D02*
X557195Y626929D01*
X554228Y628158D01*
X551958Y630428D01*
X550729Y633395D01*
X550729Y636605D01*
X551958Y639572D01*
X554228Y641842D01*
X557195Y643071D01*
X560405Y643071D01*
X563372Y641842D01*
X565642Y639572D01*
X566871Y636605D01*
X566871Y633395D01*
X565642Y630428D01*
X563372Y628158D01*
X560405Y626929D01*
X557195Y626929D01*
G37*
%LPD*%
%LPC*%
G36*
X633395Y626929D02*
X633395Y626929D01*
X630428Y628158D01*
X628158Y630428D01*
X626929Y633395D01*
X626929Y636605D01*
X628158Y639572D01*
X630428Y641842D01*
X633395Y643071D01*
X636605Y643071D01*
X639572Y641842D01*
X641842Y639572D01*
X643071Y636605D01*
X643071Y633395D01*
X641842Y630428D01*
X639572Y628158D01*
X636605Y626929D01*
X633395Y626929D01*
G37*
%LPD*%
%LPC*%
G36*
X328595Y626929D02*
X328595Y626929D01*
X325628Y628158D01*
X323358Y630428D01*
X322129Y633395D01*
X322129Y636605D01*
X323358Y639572D01*
X325628Y641842D01*
X328595Y643071D01*
X331805Y643071D01*
X334772Y641842D01*
X337042Y639572D01*
X338271Y636605D01*
X338271Y633395D01*
X337042Y630428D01*
X334772Y628158D01*
X331805Y626929D01*
X328595Y626929D01*
G37*
%LPD*%
%LPC*%
G36*
X303195Y626929D02*
X303195Y626929D01*
X300228Y628158D01*
X297958Y630428D01*
X296729Y633395D01*
X296729Y636605D01*
X297958Y639572D01*
X300228Y641842D01*
X303195Y643071D01*
X306405Y643071D01*
X309372Y641842D01*
X311642Y639572D01*
X312871Y636605D01*
X312871Y633395D01*
X311642Y630428D01*
X309372Y628158D01*
X306405Y626929D01*
X303195Y626929D01*
G37*
%LPD*%
%LPC*%
G36*
X785795Y626929D02*
X785795Y626929D01*
X782828Y628158D01*
X780558Y630428D01*
X779329Y633395D01*
X779329Y636605D01*
X780558Y639572D01*
X782828Y641842D01*
X785795Y643071D01*
X789005Y643071D01*
X791972Y641842D01*
X794242Y639572D01*
X795471Y636605D01*
X795471Y633395D01*
X794242Y630428D01*
X791972Y628158D01*
X789005Y626929D01*
X785795Y626929D01*
G37*
%LPD*%
%LPC*%
G36*
X353995Y626929D02*
X353995Y626929D01*
X351028Y628158D01*
X348758Y630428D01*
X347529Y633395D01*
X347529Y636605D01*
X348758Y639572D01*
X351028Y641842D01*
X353995Y643071D01*
X357205Y643071D01*
X360172Y641842D01*
X362442Y639572D01*
X363671Y636605D01*
X363671Y633395D01*
X362442Y630428D01*
X360172Y628158D01*
X357205Y626929D01*
X353995Y626929D01*
G37*
%LPD*%
%LPC*%
G36*
X480995Y626929D02*
X480995Y626929D01*
X478028Y628158D01*
X475758Y630428D01*
X474529Y633395D01*
X474529Y636605D01*
X475758Y639572D01*
X478028Y641842D01*
X480995Y643071D01*
X484205Y643071D01*
X487172Y641842D01*
X489442Y639572D01*
X490671Y636605D01*
X490671Y633395D01*
X489442Y630428D01*
X487172Y628158D01*
X484205Y626929D01*
X480995Y626929D01*
G37*
%LPD*%
%LPC*%
G36*
X582595Y626929D02*
X582595Y626929D01*
X579628Y628158D01*
X577358Y630428D01*
X576129Y633395D01*
X576129Y636605D01*
X577358Y639572D01*
X579628Y641842D01*
X582595Y643071D01*
X585805Y643071D01*
X588772Y641842D01*
X591042Y639572D01*
X592271Y636605D01*
X592271Y633395D01*
X591042Y630428D01*
X588772Y628158D01*
X585805Y626929D01*
X582595Y626929D01*
G37*
%LPD*%
%LPC*%
G36*
X607995Y626929D02*
X607995Y626929D01*
X605028Y628158D01*
X602758Y630428D01*
X601529Y633395D01*
X601529Y636605D01*
X602758Y639572D01*
X605028Y641842D01*
X607995Y643071D01*
X611205Y643071D01*
X614172Y641842D01*
X616442Y639572D01*
X617671Y636605D01*
X617671Y633395D01*
X616442Y630428D01*
X614172Y628158D01*
X611205Y626929D01*
X607995Y626929D01*
G37*
%LPD*%
%LPC*%
G36*
X506395Y626929D02*
X506395Y626929D01*
X503428Y628158D01*
X501158Y630428D01*
X499929Y633395D01*
X499929Y636605D01*
X501158Y639572D01*
X503428Y641842D01*
X506395Y643071D01*
X509605Y643071D01*
X512572Y641842D01*
X514842Y639572D01*
X516071Y636605D01*
X516071Y633395D01*
X514842Y630428D01*
X512572Y628158D01*
X509605Y626929D01*
X506395Y626929D01*
G37*
%LPD*%
%LPC*%
G36*
X658795Y626929D02*
X658795Y626929D01*
X655828Y628158D01*
X653558Y630428D01*
X652329Y633395D01*
X652329Y636605D01*
X653558Y639572D01*
X655828Y641842D01*
X658795Y643071D01*
X662005Y643071D01*
X664972Y641842D01*
X667242Y639572D01*
X668471Y636605D01*
X668471Y633395D01*
X667242Y630428D01*
X664972Y628158D01*
X662005Y626929D01*
X658795Y626929D01*
G37*
%LPD*%
%LPC*%
G36*
X709595Y626929D02*
X709595Y626929D01*
X706628Y628158D01*
X704358Y630428D01*
X703129Y633395D01*
X703129Y636605D01*
X704358Y639572D01*
X706628Y641842D01*
X709595Y643071D01*
X712805Y643071D01*
X715772Y641842D01*
X718042Y639572D01*
X719271Y636605D01*
X719271Y633395D01*
X718042Y630428D01*
X715772Y628158D01*
X712805Y626929D01*
X709595Y626929D01*
G37*
%LPD*%
%LPC*%
G36*
X734995Y626929D02*
X734995Y626929D01*
X732028Y628158D01*
X729758Y630428D01*
X728529Y633395D01*
X728529Y636605D01*
X729758Y639572D01*
X732028Y641842D01*
X734995Y643071D01*
X738205Y643071D01*
X741172Y641842D01*
X743442Y639572D01*
X744671Y636605D01*
X744671Y633395D01*
X743442Y630428D01*
X741172Y628158D01*
X738205Y626929D01*
X734995Y626929D01*
G37*
%LPD*%
%LPC*%
G36*
X760395Y626929D02*
X760395Y626929D01*
X757428Y628158D01*
X755158Y630428D01*
X753929Y633395D01*
X753929Y636605D01*
X755158Y639572D01*
X757428Y641842D01*
X760395Y643071D01*
X763605Y643071D01*
X766572Y641842D01*
X768842Y639572D01*
X770071Y636605D01*
X770071Y633395D01*
X768842Y630428D01*
X766572Y628158D01*
X763605Y626929D01*
X760395Y626929D01*
G37*
%LPD*%
%LPC*%
G36*
X430195Y626929D02*
X430195Y626929D01*
X427228Y628158D01*
X424958Y630428D01*
X423729Y633395D01*
X423729Y636605D01*
X424958Y639572D01*
X427228Y641842D01*
X430195Y643071D01*
X433405Y643071D01*
X436372Y641842D01*
X438642Y639572D01*
X439871Y636605D01*
X439871Y633395D01*
X438642Y630428D01*
X436372Y628158D01*
X433405Y626929D01*
X430195Y626929D01*
G37*
%LPD*%
%LPC*%
G36*
X43338Y705611D02*
X43338Y705611D01*
X41284Y706462D01*
X39712Y708034D01*
X38861Y710088D01*
X38861Y712312D01*
X39712Y714366D01*
X41284Y715938D01*
X43338Y716789D01*
X45562Y716789D01*
X47616Y715938D01*
X49188Y714366D01*
X50039Y712312D01*
X50039Y710088D01*
X49188Y708034D01*
X47616Y706462D01*
X45562Y705611D01*
X43338Y705611D01*
G37*
%LPD*%
%LPC*%
G36*
X285908Y347471D02*
X285908Y347471D01*
X283854Y348322D01*
X282282Y349894D01*
X281431Y351948D01*
X281431Y354172D01*
X282282Y356226D01*
X283854Y357798D01*
X285908Y358649D01*
X288132Y358649D01*
X290186Y357798D01*
X291758Y356226D01*
X292609Y354172D01*
X292609Y351948D01*
X291758Y349894D01*
X290186Y348322D01*
X288132Y347471D01*
X285908Y347471D01*
G37*
%LPD*%
%LPC*%
G36*
X110648Y324611D02*
X110648Y324611D01*
X108594Y325462D01*
X107022Y327034D01*
X106171Y329088D01*
X106171Y331312D01*
X107022Y333366D01*
X108594Y334938D01*
X110648Y335789D01*
X112872Y335789D01*
X114926Y334938D01*
X116498Y333366D01*
X117349Y331312D01*
X117349Y329088D01*
X116498Y327034D01*
X114926Y325462D01*
X112872Y324611D01*
X110648Y324611D01*
G37*
%LPD*%
%LPC*%
G36*
X925988Y299211D02*
X925988Y299211D01*
X923934Y300062D01*
X922362Y301634D01*
X921511Y303688D01*
X921511Y305912D01*
X922362Y307966D01*
X923934Y309538D01*
X925988Y310389D01*
X928212Y310389D01*
X930266Y309538D01*
X931838Y307966D01*
X932689Y305912D01*
X932689Y303688D01*
X931838Y301634D01*
X930266Y300062D01*
X928212Y299211D01*
X925988Y299211D01*
G37*
%LPD*%
%LPC*%
G36*
X616108Y299211D02*
X616108Y299211D01*
X614054Y300062D01*
X612482Y301634D01*
X611631Y303688D01*
X611631Y305912D01*
X612482Y307966D01*
X614054Y309538D01*
X616108Y310389D01*
X618332Y310389D01*
X620386Y309538D01*
X621958Y307966D01*
X622809Y305912D01*
X622809Y303688D01*
X621958Y301634D01*
X620386Y300062D01*
X618332Y299211D01*
X616108Y299211D01*
G37*
%LPD*%
%LPC*%
G36*
X758348Y327151D02*
X758348Y327151D01*
X756294Y328002D01*
X754722Y329574D01*
X753871Y331628D01*
X753871Y333852D01*
X754722Y335906D01*
X756294Y337478D01*
X758348Y338329D01*
X760572Y338329D01*
X762626Y337478D01*
X764198Y335906D01*
X765049Y333852D01*
X765049Y331628D01*
X764198Y329574D01*
X762626Y328002D01*
X760572Y327151D01*
X758348Y327151D01*
G37*
%LPD*%
%LPC*%
G36*
X307339Y380999D02*
X307339Y380999D01*
X307339Y387784D01*
X308505Y387406D01*
X309859Y386716D01*
X311088Y385823D01*
X312163Y384748D01*
X313056Y383519D01*
X313746Y382165D01*
X314124Y380999D01*
X307339Y380999D01*
G37*
%LPD*%
%LPC*%
G36*
X739139Y309879D02*
X739139Y309879D01*
X739139Y316664D01*
X740305Y316286D01*
X741659Y315596D01*
X742888Y314703D01*
X743963Y313628D01*
X744856Y312399D01*
X745546Y311045D01*
X745924Y309879D01*
X739139Y309879D01*
G37*
%LPD*%
%LPC*%
G36*
X739139Y304801D02*
X739139Y304801D01*
X745924Y304801D01*
X745546Y303635D01*
X744856Y302281D01*
X743963Y301052D01*
X742888Y299977D01*
X741659Y299084D01*
X740305Y298394D01*
X739139Y298016D01*
X739139Y304801D01*
G37*
%LPD*%
%LPC*%
G36*
X307339Y375921D02*
X307339Y375921D01*
X314124Y375921D01*
X313746Y374755D01*
X313056Y373401D01*
X312163Y372172D01*
X311088Y371097D01*
X309859Y370204D01*
X308505Y369514D01*
X307339Y369136D01*
X307339Y375921D01*
G37*
%LPD*%
%LPC*%
G36*
X727276Y309879D02*
X727276Y309879D01*
X727654Y311045D01*
X728344Y312399D01*
X729237Y313628D01*
X730312Y314703D01*
X731541Y315596D01*
X732895Y316286D01*
X734061Y316664D01*
X734061Y309879D01*
X727276Y309879D01*
G37*
%LPD*%
%LPC*%
G36*
X295476Y380999D02*
X295476Y380999D01*
X295854Y382165D01*
X296544Y383519D01*
X297437Y384748D01*
X298512Y385823D01*
X299741Y386716D01*
X301095Y387406D01*
X302261Y387784D01*
X302261Y380999D01*
X295476Y380999D01*
G37*
%LPD*%
%LPC*%
G36*
X732895Y298394D02*
X732895Y298394D01*
X731541Y299084D01*
X730312Y299977D01*
X729237Y301052D01*
X728344Y302281D01*
X727654Y303635D01*
X727276Y304801D01*
X734061Y304801D01*
X734061Y298016D01*
X732895Y298394D01*
G37*
%LPD*%
%LPC*%
G36*
X301095Y369514D02*
X301095Y369514D01*
X299741Y370204D01*
X298512Y371097D01*
X297437Y372172D01*
X296544Y373401D01*
X295854Y374755D01*
X295476Y375921D01*
X302261Y375921D01*
X302261Y369136D01*
X301095Y369514D01*
G37*
%LPD*%
%LPC*%
G36*
X117199Y650199D02*
X117199Y650199D01*
X117199Y656920D01*
X118362Y656542D01*
X119701Y655860D01*
X120915Y654977D01*
X121977Y653915D01*
X122860Y652701D01*
X123542Y651362D01*
X123920Y650199D01*
X117199Y650199D01*
G37*
%LPD*%
%LPC*%
G36*
X105480Y650199D02*
X105480Y650199D01*
X105858Y651362D01*
X106540Y652701D01*
X107423Y653915D01*
X108485Y654977D01*
X109699Y655860D01*
X111038Y656542D01*
X112201Y656920D01*
X112201Y650199D01*
X105480Y650199D01*
G37*
%LPD*%
%LPC*%
G36*
X117199Y645201D02*
X117199Y645201D01*
X123920Y645201D01*
X123542Y644038D01*
X122860Y642699D01*
X121977Y641485D01*
X120915Y640423D01*
X119701Y639540D01*
X118362Y638858D01*
X117199Y638480D01*
X117199Y645201D01*
G37*
%LPD*%
%LPC*%
G36*
X111038Y638858D02*
X111038Y638858D01*
X109699Y639540D01*
X108485Y640423D01*
X107423Y641485D01*
X106540Y642699D01*
X105858Y644038D01*
X105480Y645201D01*
X112201Y645201D01*
X112201Y638480D01*
X111038Y638858D01*
G37*
%LPD*%
%LPC*%
G36*
X91122Y307022D02*
X91122Y307022D01*
X91122Y313293D01*
X91456Y313227D01*
X93051Y312566D01*
X94487Y311607D01*
X95707Y310387D01*
X96666Y308951D01*
X97327Y307356D01*
X97393Y307022D01*
X91122Y307022D01*
G37*
%LPD*%
%LPC*%
G36*
X418522Y264522D02*
X418522Y264522D01*
X418522Y270793D01*
X418856Y270727D01*
X420451Y270066D01*
X421887Y269107D01*
X423107Y267887D01*
X424066Y266451D01*
X424727Y264856D01*
X424793Y264522D01*
X418522Y264522D01*
G37*
%LPD*%
%LPC*%
G36*
X954722Y281622D02*
X954722Y281622D01*
X954722Y287893D01*
X955056Y287827D01*
X956651Y287166D01*
X958087Y286207D01*
X959307Y284987D01*
X960266Y283551D01*
X960927Y281956D01*
X960993Y281622D01*
X954722Y281622D01*
G37*
%LPD*%
%LPC*%
G36*
X647122Y391522D02*
X647122Y391522D01*
X647122Y397793D01*
X647456Y397727D01*
X649051Y397066D01*
X650487Y396107D01*
X651707Y394887D01*
X652666Y393451D01*
X653327Y391856D01*
X653393Y391522D01*
X647122Y391522D01*
G37*
%LPD*%
%LPC*%
G36*
X647122Y387078D02*
X647122Y387078D01*
X653393Y387078D01*
X653327Y386744D01*
X652666Y385149D01*
X651707Y383713D01*
X650487Y382493D01*
X649051Y381534D01*
X647456Y380873D01*
X647122Y380807D01*
X647122Y387078D01*
G37*
%LPD*%
%LPC*%
G36*
X418522Y260078D02*
X418522Y260078D01*
X424793Y260078D01*
X424727Y259744D01*
X424066Y258149D01*
X423107Y256713D01*
X421887Y255493D01*
X420451Y254534D01*
X418856Y253873D01*
X418522Y253807D01*
X418522Y260078D01*
G37*
%LPD*%
%LPC*%
G36*
X954722Y277178D02*
X954722Y277178D01*
X960993Y277178D01*
X960927Y276844D01*
X960266Y275249D01*
X959307Y273813D01*
X958087Y272593D01*
X956651Y271634D01*
X955056Y270973D01*
X954722Y270907D01*
X954722Y277178D01*
G37*
%LPD*%
%LPC*%
G36*
X91122Y302578D02*
X91122Y302578D01*
X97393Y302578D01*
X97327Y302244D01*
X96666Y300649D01*
X95707Y299213D01*
X94487Y297993D01*
X93051Y297034D01*
X91456Y296373D01*
X91122Y296307D01*
X91122Y302578D01*
G37*
%LPD*%
%LPC*%
G36*
X944007Y281622D02*
X944007Y281622D01*
X944073Y281956D01*
X944734Y283551D01*
X945693Y284987D01*
X946913Y286207D01*
X948349Y287166D01*
X949944Y287827D01*
X950278Y287893D01*
X950278Y281622D01*
X944007Y281622D01*
G37*
%LPD*%
%LPC*%
G36*
X80407Y307022D02*
X80407Y307022D01*
X80473Y307356D01*
X81134Y308951D01*
X82093Y310387D01*
X83313Y311607D01*
X84749Y312566D01*
X86344Y313227D01*
X86678Y313293D01*
X86678Y307022D01*
X80407Y307022D01*
G37*
%LPD*%
%LPC*%
G36*
X407807Y264522D02*
X407807Y264522D01*
X407873Y264856D01*
X408534Y266451D01*
X409493Y267887D01*
X410713Y269107D01*
X412149Y270066D01*
X413744Y270727D01*
X414078Y270793D01*
X414078Y264522D01*
X407807Y264522D01*
G37*
%LPD*%
%LPC*%
G36*
X636407Y391522D02*
X636407Y391522D01*
X636473Y391856D01*
X637134Y393451D01*
X638093Y394887D01*
X639313Y396107D01*
X640749Y397066D01*
X642344Y397727D01*
X642678Y397793D01*
X642678Y391522D01*
X636407Y391522D01*
G37*
%LPD*%
%LPC*%
G36*
X642344Y380873D02*
X642344Y380873D01*
X640749Y381534D01*
X639313Y382493D01*
X638093Y383713D01*
X637134Y385149D01*
X636473Y386744D01*
X636407Y387078D01*
X642678Y387078D01*
X642678Y380807D01*
X642344Y380873D01*
G37*
%LPD*%
%LPC*%
G36*
X949944Y270973D02*
X949944Y270973D01*
X948349Y271634D01*
X946913Y272593D01*
X945693Y273813D01*
X944734Y275249D01*
X944073Y276844D01*
X944007Y277178D01*
X950278Y277178D01*
X950278Y270907D01*
X949944Y270973D01*
G37*
%LPD*%
%LPC*%
G36*
X413744Y253873D02*
X413744Y253873D01*
X412149Y254534D01*
X410713Y255493D01*
X409493Y256713D01*
X408534Y258149D01*
X407873Y259744D01*
X407807Y260078D01*
X414078Y260078D01*
X414078Y253807D01*
X413744Y253873D01*
G37*
%LPD*%
%LPC*%
G36*
X86344Y296373D02*
X86344Y296373D01*
X84749Y297034D01*
X83313Y297993D01*
X82093Y299213D01*
X81134Y300649D01*
X80473Y302244D01*
X80407Y302578D01*
X86678Y302578D01*
X86678Y296307D01*
X86344Y296373D01*
G37*
%LPD*%
%LPC*%
G36*
X736599Y307339D02*
X736599Y307339D01*
X736599Y307341D01*
X736601Y307341D01*
X736601Y307339D01*
X736599Y307339D01*
G37*
%LPD*%
%LPC*%
G36*
X304799Y378459D02*
X304799Y378459D01*
X304799Y378461D01*
X304801Y378461D01*
X304801Y378459D01*
X304799Y378459D01*
G37*
%LPD*%
D10*
X390900Y109900D03*
X416300Y109900D03*
X390900Y135300D03*
X416300Y135300D03*
X390900Y160700D03*
X416300Y160700D03*
X390900Y186100D03*
X416300Y186100D03*
X390900Y211500D03*
X416300Y211500D03*
X390900Y236900D03*
X416300Y236900D03*
X390900Y262300D03*
X416300Y262300D03*
X390900Y287700D03*
X416300Y287700D03*
X390900Y313100D03*
X416300Y313100D03*
X390900Y338500D03*
X416300Y338500D03*
X390900Y363900D03*
X416300Y363900D03*
X390900Y389300D03*
X416300Y389300D03*
X390900Y414700D03*
X416300Y414700D03*
X390900Y440100D03*
X416300Y440100D03*
X390900Y465500D03*
X416300Y465500D03*
X390900Y490900D03*
X416300Y490900D03*
X390900Y516300D03*
X416300Y516300D03*
X390900Y541700D03*
X416300Y541700D03*
X644900Y109900D03*
X670300Y109900D03*
X644900Y135300D03*
X670300Y135300D03*
X644900Y160700D03*
X670300Y160700D03*
X644900Y186100D03*
X670300Y186100D03*
X644900Y211500D03*
X670300Y211500D03*
X644900Y236900D03*
X670300Y236900D03*
X644900Y262300D03*
X670300Y262300D03*
X644900Y287700D03*
X670300Y287700D03*
X644900Y313100D03*
X670300Y313100D03*
X644900Y338500D03*
X670300Y338500D03*
X644900Y363900D03*
X670300Y363900D03*
X644900Y389300D03*
X670300Y389300D03*
X644900Y414700D03*
X670300Y414700D03*
X644900Y440100D03*
X670300Y440100D03*
X644900Y465500D03*
X670300Y465500D03*
X644900Y490900D03*
X670300Y490900D03*
X644900Y516300D03*
X670300Y516300D03*
X644900Y541700D03*
X670300Y541700D03*
D11*
X304800Y302260D03*
X304800Y327660D03*
X304800Y353060D03*
X304800Y378460D03*
D12*
X304800Y635000D03*
X330200Y635000D03*
X355600Y635000D03*
X381000Y635000D03*
X406400Y635000D03*
X431800Y635000D03*
X457200Y635000D03*
X482600Y635000D03*
X508000Y635000D03*
X533400Y635000D03*
X558800Y635000D03*
X584200Y635000D03*
X609600Y635000D03*
X635000Y635000D03*
X660400Y635000D03*
X685800Y635000D03*
X711200Y635000D03*
X736600Y635000D03*
X762000Y635000D03*
X787400Y635000D03*
X787400Y787400D03*
X762000Y787400D03*
X736600Y787400D03*
X711200Y787400D03*
X685800Y787400D03*
X660400Y787400D03*
X635000Y787400D03*
X609600Y787400D03*
X584200Y787400D03*
X558800Y787400D03*
X533400Y787400D03*
X508000Y787400D03*
X482600Y787400D03*
X457200Y787400D03*
X431800Y787400D03*
X406400Y787400D03*
X381000Y787400D03*
X355600Y787400D03*
X330200Y787400D03*
X304800Y787400D03*
D13*
X595900Y190100D03*
X595900Y140100D03*
X470900Y140100D03*
X470900Y190100D03*
X595900Y355200D03*
X595900Y305200D03*
X470900Y305200D03*
X470900Y355200D03*
X595900Y507600D03*
X595900Y457600D03*
X470900Y457600D03*
X470900Y507600D03*
D14*
X114700Y647700D03*
X139700Y647700D03*
X164700Y647700D03*
D11*
X736600Y383540D03*
X736600Y358140D03*
X736600Y332740D03*
X736600Y307340D03*
D10*
X952500Y355600D03*
X952500Y330200D03*
X952500Y304800D03*
X952500Y279400D03*
X88900Y381000D03*
X88900Y355600D03*
X88900Y330200D03*
X88900Y304800D03*
D15*
X38100Y800100D03*
X38100Y38100D03*
X977900Y800100D03*
X965200Y38100D03*
D16*
X287020Y353060D03*
X111760Y330200D03*
X617220Y304800D03*
X612140Y139700D03*
X612140Y457200D03*
X927100Y304800D03*
X759460Y332740D03*
X406400Y622300D03*
X165100Y635000D03*
X44450Y711200D03*
X685800Y622300D03*
X812800Y355600D03*
X812800Y381000D03*
X622300Y533400D03*
X619760Y383540D03*
X614680Y217170D03*
X736600Y289560D03*
X284480Y378460D03*
X88900Y284480D03*
X952500Y259080D03*
X114300Y635000D03*
M02*
