G04 EAGLE Gerber RS-274X export*
G75*
%MOMM*%
%FSLAX34Y34*%
%LPD*%
%INTop Copper*%
%IPPOS*%
%AMOC8*
5,1,8,0,0,1.08239X$1,22.5*%
G01*
%ADD10R,1.524000X1.524000*%
%ADD11P,1.649562X8X112.500000*%
%ADD12C,1.778000*%
%ADD13R,1.140000X1.140000*%
%ADD14C,1.140000*%
%ADD15C,1.960000*%
%ADD16C,1.400000*%
%ADD17R,1.031241X0.949959*%
%ADD18R,0.949959X1.031241*%
%ADD19R,1.651000X1.651000*%
%ADD20C,1.651000*%
%ADD21C,1.016000*%
%ADD22C,4.445000*%
%ADD23C,0.254000*%
%ADD24C,0.609600*%

G36*
X1013444Y834508D02*
X1013444Y834508D01*
X1013437Y834627D01*
X1013424Y834665D01*
X1013419Y834706D01*
X1013376Y834816D01*
X1013339Y834929D01*
X1013317Y834964D01*
X1013302Y835001D01*
X1013233Y835097D01*
X1013169Y835198D01*
X1013139Y835226D01*
X1013116Y835259D01*
X1013024Y835335D01*
X1012937Y835416D01*
X1012902Y835436D01*
X1012871Y835461D01*
X1012763Y835512D01*
X1012659Y835570D01*
X1012619Y835580D01*
X1012583Y835597D01*
X1012466Y835619D01*
X1012351Y835649D01*
X1012291Y835653D01*
X1012271Y835657D01*
X1012250Y835655D01*
X1012190Y835659D01*
X3810Y835659D01*
X3692Y835644D01*
X3573Y835637D01*
X3535Y835624D01*
X3494Y835619D01*
X3384Y835576D01*
X3271Y835539D01*
X3236Y835517D01*
X3199Y835502D01*
X3103Y835433D01*
X3002Y835369D01*
X2974Y835339D01*
X2941Y835316D01*
X2865Y835224D01*
X2784Y835137D01*
X2764Y835102D01*
X2739Y835071D01*
X2688Y834963D01*
X2630Y834859D01*
X2620Y834819D01*
X2603Y834783D01*
X2581Y834666D01*
X2551Y834551D01*
X2547Y834491D01*
X2543Y834471D01*
X2545Y834450D01*
X2541Y834390D01*
X2541Y3810D01*
X2556Y3692D01*
X2563Y3573D01*
X2576Y3535D01*
X2581Y3494D01*
X2624Y3384D01*
X2661Y3271D01*
X2683Y3236D01*
X2698Y3199D01*
X2767Y3103D01*
X2831Y3002D01*
X2861Y2974D01*
X2884Y2941D01*
X2976Y2865D01*
X3063Y2784D01*
X3098Y2764D01*
X3129Y2739D01*
X3237Y2688D01*
X3341Y2630D01*
X3381Y2620D01*
X3417Y2603D01*
X3534Y2581D01*
X3649Y2551D01*
X3709Y2547D01*
X3729Y2543D01*
X3750Y2545D01*
X3810Y2541D01*
X1012190Y2541D01*
X1012308Y2556D01*
X1012427Y2563D01*
X1012465Y2576D01*
X1012506Y2581D01*
X1012616Y2624D01*
X1012729Y2661D01*
X1012764Y2683D01*
X1012801Y2698D01*
X1012897Y2767D01*
X1012998Y2831D01*
X1013026Y2861D01*
X1013059Y2884D01*
X1013135Y2976D01*
X1013216Y3063D01*
X1013236Y3098D01*
X1013261Y3129D01*
X1013312Y3237D01*
X1013370Y3341D01*
X1013380Y3381D01*
X1013397Y3417D01*
X1013419Y3534D01*
X1013449Y3649D01*
X1013453Y3709D01*
X1013457Y3729D01*
X1013455Y3750D01*
X1013459Y3810D01*
X1013459Y834390D01*
X1013444Y834508D01*
G37*
%LPC*%
G36*
X35484Y741681D02*
X35484Y741681D01*
X35602Y741696D01*
X35721Y741703D01*
X35759Y741716D01*
X35799Y741721D01*
X35910Y741764D01*
X36023Y741801D01*
X36057Y741823D01*
X36095Y741838D01*
X36191Y741908D01*
X36292Y741971D01*
X36320Y742001D01*
X36352Y742024D01*
X36428Y742116D01*
X36510Y742203D01*
X36523Y742227D01*
X43345Y742227D01*
X43463Y742242D01*
X43582Y742249D01*
X43620Y742262D01*
X43660Y742267D01*
X43771Y742311D01*
X43884Y742347D01*
X43919Y742369D01*
X43956Y742384D01*
X44052Y742454D01*
X44153Y742517D01*
X44181Y742547D01*
X44213Y742571D01*
X44289Y742662D01*
X44371Y742749D01*
X44390Y742784D01*
X44416Y742816D01*
X44446Y742880D01*
X44513Y742789D01*
X44576Y742688D01*
X44606Y742660D01*
X44630Y742628D01*
X44721Y742552D01*
X44808Y742470D01*
X44843Y742451D01*
X44875Y742425D01*
X44982Y742374D01*
X45086Y742317D01*
X45126Y742306D01*
X45162Y742289D01*
X45279Y742267D01*
X45394Y742237D01*
X45455Y742233D01*
X45475Y742229D01*
X45495Y742231D01*
X45555Y742227D01*
X52384Y742227D01*
X52437Y742142D01*
X52467Y742114D01*
X52491Y742081D01*
X52582Y742006D01*
X52669Y741924D01*
X52704Y741904D01*
X52736Y741879D01*
X52843Y741828D01*
X52948Y741770D01*
X52987Y741760D01*
X53023Y741743D01*
X53140Y741721D01*
X53255Y741691D01*
X53316Y741687D01*
X53336Y741683D01*
X53356Y741685D01*
X53416Y741681D01*
X76200Y741681D01*
X76318Y741696D01*
X76437Y741703D01*
X76475Y741716D01*
X76516Y741721D01*
X76626Y741764D01*
X76739Y741801D01*
X76774Y741823D01*
X76811Y741838D01*
X76907Y741908D01*
X77008Y741971D01*
X77036Y742001D01*
X77069Y742024D01*
X77145Y742116D01*
X77226Y742203D01*
X77246Y742238D01*
X77271Y742269D01*
X77322Y742377D01*
X77380Y742481D01*
X77390Y742521D01*
X77407Y742557D01*
X77429Y742674D01*
X77459Y742789D01*
X77463Y742850D01*
X77467Y742870D01*
X77465Y742890D01*
X77469Y742950D01*
X77469Y824231D01*
X938531Y824231D01*
X938531Y767080D01*
X938546Y766962D01*
X938553Y766843D01*
X938566Y766805D01*
X938571Y766764D01*
X938614Y766654D01*
X938651Y766541D01*
X938673Y766506D01*
X938688Y766469D01*
X938758Y766373D01*
X938821Y766272D01*
X938851Y766244D01*
X938874Y766211D01*
X938966Y766136D01*
X939053Y766054D01*
X939088Y766034D01*
X939119Y766009D01*
X939227Y765958D01*
X939331Y765900D01*
X939371Y765890D01*
X939407Y765873D01*
X939524Y765851D01*
X939639Y765821D01*
X939700Y765817D01*
X939720Y765813D01*
X939740Y765815D01*
X939800Y765811D01*
X999491Y765811D01*
X999491Y254000D01*
X999503Y253902D01*
X999506Y253803D01*
X999514Y253777D01*
X999515Y253762D01*
X999525Y253730D01*
X999531Y253684D01*
X999567Y253592D01*
X999595Y253497D01*
X999607Y253476D01*
X999613Y253459D01*
X999632Y253429D01*
X999648Y253389D01*
X999706Y253309D01*
X999756Y253223D01*
X999777Y253200D01*
X999783Y253190D01*
X999797Y253177D01*
X999822Y253148D01*
X999834Y253131D01*
X999844Y253124D01*
X999863Y253103D01*
X1002031Y250934D01*
X1002031Y72389D01*
X932180Y72389D01*
X932062Y72374D01*
X931943Y72367D01*
X931905Y72354D01*
X931864Y72349D01*
X931754Y72306D01*
X931641Y72269D01*
X931606Y72247D01*
X931569Y72232D01*
X931473Y72163D01*
X931372Y72099D01*
X931344Y72069D01*
X931311Y72046D01*
X931236Y71954D01*
X931154Y71867D01*
X931134Y71832D01*
X931109Y71801D01*
X931058Y71693D01*
X931000Y71589D01*
X930990Y71549D01*
X930973Y71513D01*
X930951Y71396D01*
X930921Y71281D01*
X930917Y71221D01*
X930913Y71201D01*
X930915Y71180D01*
X930913Y71161D01*
X930911Y71120D01*
X930911Y16509D01*
X74929Y16509D01*
X74929Y76200D01*
X74914Y76318D01*
X74907Y76437D01*
X74894Y76475D01*
X74889Y76516D01*
X74846Y76626D01*
X74809Y76739D01*
X74787Y76774D01*
X74772Y76811D01*
X74703Y76907D01*
X74639Y77008D01*
X74609Y77036D01*
X74586Y77069D01*
X74494Y77145D01*
X74407Y77226D01*
X74372Y77246D01*
X74341Y77271D01*
X74233Y77322D01*
X74129Y77380D01*
X74089Y77390D01*
X74053Y77407D01*
X73936Y77429D01*
X73821Y77459D01*
X73761Y77463D01*
X73741Y77467D01*
X73720Y77465D01*
X73660Y77469D01*
X13969Y77469D01*
X13969Y741681D01*
X35484Y741681D01*
G37*
%LPD*%
%LPC*%
G36*
X980439Y802639D02*
X980439Y802639D01*
X980439Y824736D01*
X982055Y824554D01*
X984767Y823935D01*
X987392Y823017D01*
X989899Y821810D01*
X992254Y820330D01*
X994429Y818595D01*
X996395Y816629D01*
X998130Y814454D01*
X999610Y812099D01*
X1000817Y809592D01*
X1001735Y806967D01*
X1002354Y804255D01*
X1002536Y802639D01*
X980439Y802639D01*
G37*
%LPD*%
%LPC*%
G36*
X40639Y802639D02*
X40639Y802639D01*
X40639Y824736D01*
X42255Y824554D01*
X44967Y823935D01*
X47592Y823017D01*
X50099Y821810D01*
X52454Y820330D01*
X54629Y818595D01*
X56595Y816629D01*
X58330Y814454D01*
X59810Y812099D01*
X61017Y809592D01*
X61935Y806967D01*
X62554Y804255D01*
X62736Y802639D01*
X40639Y802639D01*
G37*
%LPD*%
%LPC*%
G36*
X967739Y40639D02*
X967739Y40639D01*
X967739Y62736D01*
X969355Y62554D01*
X972067Y61935D01*
X974692Y61017D01*
X977199Y59810D01*
X979554Y58330D01*
X981729Y56595D01*
X983695Y54629D01*
X985430Y52454D01*
X986910Y50099D01*
X988117Y47592D01*
X989035Y44967D01*
X989654Y42255D01*
X989836Y40639D01*
X967739Y40639D01*
G37*
%LPD*%
%LPC*%
G36*
X40639Y40639D02*
X40639Y40639D01*
X40639Y62736D01*
X42255Y62554D01*
X44967Y61935D01*
X47592Y61017D01*
X50099Y59810D01*
X52454Y58330D01*
X54629Y56595D01*
X56595Y54629D01*
X58330Y52454D01*
X59810Y50099D01*
X61017Y47592D01*
X61935Y44967D01*
X62554Y42255D01*
X62736Y40639D01*
X40639Y40639D01*
G37*
%LPD*%
%LPC*%
G36*
X953264Y802639D02*
X953264Y802639D01*
X953446Y804255D01*
X954065Y806967D01*
X954983Y809592D01*
X956190Y812099D01*
X957670Y814454D01*
X959405Y816629D01*
X961371Y818595D01*
X963546Y820330D01*
X965901Y821810D01*
X968408Y823017D01*
X971033Y823935D01*
X973745Y824554D01*
X975361Y824736D01*
X975361Y802639D01*
X953264Y802639D01*
G37*
%LPD*%
%LPC*%
G36*
X13464Y802639D02*
X13464Y802639D01*
X13646Y804255D01*
X14265Y806967D01*
X15183Y809592D01*
X16390Y812099D01*
X17870Y814454D01*
X19605Y816629D01*
X21571Y818595D01*
X23746Y820330D01*
X26101Y821810D01*
X28608Y823017D01*
X31233Y823935D01*
X33945Y824554D01*
X35561Y824736D01*
X35561Y802639D01*
X13464Y802639D01*
G37*
%LPD*%
%LPC*%
G36*
X980439Y797561D02*
X980439Y797561D01*
X1002536Y797561D01*
X1002354Y795945D01*
X1001735Y793233D01*
X1000817Y790608D01*
X999610Y788101D01*
X998130Y785746D01*
X996395Y783571D01*
X994429Y781605D01*
X992254Y779870D01*
X989899Y778390D01*
X987392Y777183D01*
X984767Y776265D01*
X982055Y775646D01*
X980439Y775464D01*
X980439Y797561D01*
G37*
%LPD*%
%LPC*%
G36*
X40639Y797561D02*
X40639Y797561D01*
X62736Y797561D01*
X62554Y795945D01*
X61935Y793233D01*
X61017Y790608D01*
X59810Y788101D01*
X58330Y785746D01*
X56595Y783571D01*
X54629Y781605D01*
X52454Y779870D01*
X50099Y778390D01*
X47592Y777183D01*
X44967Y776265D01*
X42255Y775646D01*
X40639Y775464D01*
X40639Y797561D01*
G37*
%LPD*%
%LPC*%
G36*
X940564Y40639D02*
X940564Y40639D01*
X940746Y42255D01*
X941365Y44967D01*
X942283Y47592D01*
X943490Y50099D01*
X944970Y52454D01*
X946705Y54629D01*
X948671Y56595D01*
X950846Y58330D01*
X953201Y59810D01*
X955708Y61017D01*
X958333Y61935D01*
X961045Y62554D01*
X962661Y62736D01*
X962661Y40639D01*
X940564Y40639D01*
G37*
%LPD*%
%LPC*%
G36*
X13464Y40639D02*
X13464Y40639D01*
X13646Y42255D01*
X14265Y44967D01*
X15183Y47592D01*
X16390Y50099D01*
X17870Y52454D01*
X19605Y54629D01*
X21571Y56595D01*
X23746Y58330D01*
X26101Y59810D01*
X28608Y61017D01*
X31233Y61935D01*
X33945Y62554D01*
X35561Y62736D01*
X35561Y40639D01*
X13464Y40639D01*
G37*
%LPD*%
%LPC*%
G36*
X40639Y35561D02*
X40639Y35561D01*
X62736Y35561D01*
X62554Y33945D01*
X61935Y31233D01*
X61017Y28608D01*
X59810Y26101D01*
X58330Y23746D01*
X56595Y21571D01*
X54629Y19605D01*
X52454Y17870D01*
X50099Y16390D01*
X47592Y15183D01*
X44967Y14265D01*
X42255Y13646D01*
X40639Y13464D01*
X40639Y35561D01*
G37*
%LPD*%
%LPC*%
G36*
X967739Y35561D02*
X967739Y35561D01*
X989836Y35561D01*
X989654Y33945D01*
X989035Y31233D01*
X988117Y28608D01*
X986910Y26101D01*
X985430Y23746D01*
X983695Y21571D01*
X981729Y19605D01*
X979554Y17870D01*
X977199Y16390D01*
X974692Y15183D01*
X972067Y14265D01*
X969355Y13646D01*
X967739Y13464D01*
X967739Y35561D01*
G37*
%LPD*%
%LPC*%
G36*
X973745Y775646D02*
X973745Y775646D01*
X971033Y776265D01*
X968408Y777183D01*
X965901Y778390D01*
X963546Y779870D01*
X961371Y781605D01*
X959405Y783571D01*
X957670Y785746D01*
X956190Y788101D01*
X954983Y790608D01*
X954065Y793233D01*
X953446Y795945D01*
X953264Y797561D01*
X975361Y797561D01*
X975361Y775464D01*
X973745Y775646D01*
G37*
%LPD*%
%LPC*%
G36*
X33945Y775646D02*
X33945Y775646D01*
X31233Y776265D01*
X28608Y777183D01*
X26101Y778390D01*
X23746Y779870D01*
X21571Y781605D01*
X19605Y783571D01*
X17870Y785746D01*
X16390Y788101D01*
X15183Y790608D01*
X14265Y793233D01*
X13646Y795945D01*
X13464Y797561D01*
X35561Y797561D01*
X35561Y775464D01*
X33945Y775646D01*
G37*
%LPD*%
%LPC*%
G36*
X33945Y13646D02*
X33945Y13646D01*
X31233Y14265D01*
X28608Y15183D01*
X26101Y16390D01*
X23746Y17870D01*
X21571Y19605D01*
X19605Y21571D01*
X17870Y23746D01*
X16390Y26101D01*
X15183Y28608D01*
X14265Y31233D01*
X13646Y33945D01*
X13464Y35561D01*
X35561Y35561D01*
X35561Y13464D01*
X33945Y13646D01*
G37*
%LPD*%
%LPC*%
G36*
X961045Y13646D02*
X961045Y13646D01*
X958333Y14265D01*
X955708Y15183D01*
X953201Y16390D01*
X950846Y17870D01*
X948671Y19605D01*
X946705Y21571D01*
X944970Y23746D01*
X943490Y26101D01*
X942283Y28608D01*
X941365Y31233D01*
X940746Y33945D01*
X940564Y35561D01*
X962661Y35561D01*
X962661Y13464D01*
X961045Y13646D01*
G37*
%LPD*%
%LPC*%
G36*
X46824Y746975D02*
X46824Y746975D01*
X46824Y751891D01*
X49941Y751892D01*
X50587Y751718D01*
X51166Y751384D01*
X51639Y750911D01*
X51974Y750332D01*
X52147Y749685D01*
X52147Y746975D01*
X46824Y746975D01*
G37*
%LPD*%
%LPC*%
G36*
X36753Y746975D02*
X36753Y746975D01*
X36753Y749685D01*
X36926Y750332D01*
X37261Y750911D01*
X37734Y751384D01*
X38313Y751718D01*
X38959Y751892D01*
X42076Y751892D01*
X42076Y746975D01*
X36753Y746975D01*
G37*
%LPD*%
%LPC*%
G36*
X38099Y800099D02*
X38099Y800099D01*
X38099Y800101D01*
X38101Y800101D01*
X38101Y800099D01*
X38099Y800099D01*
G37*
%LPD*%
%LPC*%
G36*
X977899Y800099D02*
X977899Y800099D01*
X977899Y800101D01*
X977901Y800101D01*
X977901Y800099D01*
X977899Y800099D01*
G37*
%LPD*%
%LPC*%
G36*
X38099Y38099D02*
X38099Y38099D01*
X38099Y38101D01*
X38101Y38101D01*
X38101Y38099D01*
X38099Y38099D01*
G37*
%LPD*%
%LPC*%
G36*
X965199Y38099D02*
X965199Y38099D01*
X965199Y38101D01*
X965201Y38101D01*
X965201Y38099D01*
X965199Y38099D01*
G37*
%LPD*%
D10*
X390900Y109900D03*
D11*
X416300Y109900D03*
X390900Y135300D03*
X416300Y135300D03*
X390900Y160700D03*
X416300Y160700D03*
X390900Y186100D03*
X416300Y186100D03*
X390900Y211500D03*
X416300Y211500D03*
X390900Y236900D03*
X416300Y236900D03*
X390900Y262300D03*
X416300Y262300D03*
X390900Y287700D03*
X416300Y287700D03*
X390900Y313100D03*
X416300Y313100D03*
X390900Y338500D03*
X416300Y338500D03*
X390900Y363900D03*
X416300Y363900D03*
X390900Y389300D03*
X416300Y389300D03*
X390900Y414700D03*
X416300Y414700D03*
X390900Y440100D03*
X416300Y440100D03*
X390900Y465500D03*
X416300Y465500D03*
X390900Y490900D03*
X416300Y490900D03*
X390900Y516300D03*
X416300Y516300D03*
X390900Y541700D03*
X416300Y541700D03*
D10*
X644900Y109900D03*
D11*
X670300Y109900D03*
X644900Y135300D03*
X670300Y135300D03*
X644900Y160700D03*
X670300Y160700D03*
X644900Y186100D03*
X670300Y186100D03*
X644900Y211500D03*
X670300Y211500D03*
X644900Y236900D03*
X670300Y236900D03*
X644900Y262300D03*
X670300Y262300D03*
X644900Y287700D03*
X670300Y287700D03*
X644900Y313100D03*
X670300Y313100D03*
X644900Y338500D03*
X670300Y338500D03*
X644900Y363900D03*
X670300Y363900D03*
X644900Y389300D03*
X670300Y389300D03*
X644900Y414700D03*
X670300Y414700D03*
X644900Y440100D03*
X670300Y440100D03*
X644900Y465500D03*
X670300Y465500D03*
X644900Y490900D03*
X670300Y490900D03*
X644900Y516300D03*
X670300Y516300D03*
X644900Y541700D03*
X670300Y541700D03*
D12*
X304800Y302260D03*
X304800Y327660D03*
X304800Y353060D03*
X304800Y378460D03*
D13*
X304800Y635000D03*
D14*
X330200Y635000D03*
X355600Y635000D03*
X381000Y635000D03*
X406400Y635000D03*
X431800Y635000D03*
X457200Y635000D03*
X482600Y635000D03*
X508000Y635000D03*
X533400Y635000D03*
X558800Y635000D03*
X584200Y635000D03*
X609600Y635000D03*
X635000Y635000D03*
X660400Y635000D03*
X685800Y635000D03*
X711200Y635000D03*
X736600Y635000D03*
X762000Y635000D03*
X787400Y635000D03*
X787400Y787400D03*
X762000Y787400D03*
X736600Y787400D03*
X711200Y787400D03*
X685800Y787400D03*
X660400Y787400D03*
X635000Y787400D03*
X609600Y787400D03*
X584200Y787400D03*
X558800Y787400D03*
X533400Y787400D03*
X508000Y787400D03*
X482600Y787400D03*
X457200Y787400D03*
X431800Y787400D03*
X406400Y787400D03*
X381000Y787400D03*
X355600Y787400D03*
X330200Y787400D03*
X304800Y787400D03*
D15*
X595900Y190100D03*
X595900Y140100D03*
X470900Y140100D03*
X470900Y190100D03*
X595900Y355200D03*
X595900Y305200D03*
X470900Y305200D03*
X470900Y355200D03*
X595900Y507600D03*
X595900Y457600D03*
X470900Y457600D03*
X470900Y507600D03*
D16*
X114700Y647700D03*
X139700Y647700D03*
X164700Y647700D03*
D17*
X619760Y355219D03*
X619760Y371221D03*
X622300Y505079D03*
X622300Y521081D03*
X617220Y190119D03*
X617220Y206121D03*
D18*
X779399Y355600D03*
X795401Y355600D03*
X779399Y381000D03*
X795401Y381000D03*
D12*
X736600Y383540D03*
X736600Y358140D03*
X736600Y332740D03*
X736600Y307340D03*
D17*
X660400Y588899D03*
X660400Y604901D03*
D19*
X952500Y355600D03*
X952500Y330200D03*
D20*
X952500Y304800D03*
X952500Y279400D03*
D19*
X88900Y381000D03*
X88900Y355600D03*
D20*
X88900Y330200D03*
X88900Y304800D03*
D21*
X977900Y723900D03*
X838200Y800100D03*
X177800Y38100D03*
D22*
X38100Y800100D03*
X38100Y38100D03*
X977900Y800100D03*
X965200Y38100D03*
D17*
X44450Y728599D03*
X44450Y744601D03*
D23*
X287020Y353060D02*
X304800Y353060D01*
D24*
X287020Y353060D03*
D23*
X111760Y330200D02*
X88900Y330200D01*
D24*
X111760Y330200D03*
D23*
X595900Y305200D02*
X616820Y305200D01*
X617220Y304800D01*
D24*
X617220Y304800D03*
D23*
X611740Y140100D02*
X595900Y140100D01*
X611740Y140100D02*
X612140Y139700D01*
D24*
X612140Y139700D03*
D23*
X595900Y305200D02*
X470900Y305200D01*
X470900Y140100D02*
X595900Y140100D01*
X595900Y457600D02*
X611740Y457600D01*
X612140Y457200D01*
D24*
X612140Y457200D03*
D23*
X595900Y457600D02*
X470900Y457600D01*
X927100Y304800D02*
X952500Y304800D01*
D24*
X927100Y304800D03*
D23*
X759460Y332740D02*
X736600Y332740D01*
D24*
X759460Y332740D03*
D23*
X406400Y622300D02*
X406400Y635000D01*
D24*
X406400Y622300D03*
D23*
X164700Y635400D02*
X164700Y647700D01*
X164700Y635400D02*
X165100Y635000D01*
D24*
X165100Y635000D03*
X44450Y711200D03*
D23*
X685800Y635000D02*
X685800Y622300D01*
D24*
X685800Y622300D03*
D23*
X44450Y711200D02*
X44450Y728599D01*
X330200Y635000D02*
X346710Y651510D01*
X637540Y651510D02*
X646430Y642620D01*
X637540Y651510D02*
X346710Y651510D01*
X650621Y588899D02*
X660400Y588899D01*
X650621Y588899D02*
X646430Y593090D01*
X646430Y642620D01*
X795401Y355600D02*
X812800Y355600D01*
D24*
X812800Y355600D03*
D23*
X812800Y381000D02*
X795401Y381000D01*
D24*
X812800Y381000D03*
D23*
X622300Y521081D02*
X622300Y533400D01*
D24*
X622300Y533400D03*
D23*
X619760Y383540D02*
X619760Y371221D01*
D24*
X619760Y383540D03*
D23*
X614680Y208661D02*
X617220Y206121D01*
X614680Y208661D02*
X614680Y217170D01*
D24*
X614680Y217170D03*
D23*
X736600Y289560D02*
X736600Y307340D01*
D24*
X736600Y289560D03*
D23*
X304800Y378460D02*
X284480Y378460D01*
D24*
X284480Y378460D03*
D23*
X88900Y304800D02*
X88900Y284480D01*
D24*
X88900Y284480D03*
D23*
X952500Y279400D02*
X952500Y259080D01*
D24*
X952500Y259080D03*
D23*
X114700Y635400D02*
X114700Y647700D01*
X114700Y635400D02*
X114300Y635000D01*
D24*
X114300Y635000D03*
D23*
X470900Y507600D02*
X594360Y507600D01*
X595900Y507600D01*
X622300Y505079D02*
X630721Y505079D01*
X644900Y490900D01*
X622300Y505079D02*
X619779Y507600D01*
X595900Y507600D01*
X595900Y190100D02*
X470900Y190100D01*
X632736Y190100D02*
X640166Y197530D01*
X658870Y197530D01*
X670300Y186100D01*
X595919Y190119D02*
X595900Y190100D01*
X595919Y190119D02*
X612140Y190119D01*
X617220Y190119D01*
X612159Y190100D02*
X632736Y190100D01*
X612159Y190100D02*
X612140Y190119D01*
X595900Y355200D02*
X470900Y355200D01*
X637436Y355200D02*
X640166Y352470D01*
X658870Y352470D01*
X670300Y363900D01*
X619741Y355200D02*
X595900Y355200D01*
X619741Y355200D02*
X619760Y355219D01*
X619741Y355200D02*
X637436Y355200D01*
X739140Y381000D02*
X779399Y381000D01*
X739140Y381000D02*
X736600Y383540D01*
X360680Y302260D02*
X304800Y302260D01*
X360680Y302260D02*
X368300Y294640D01*
X368300Y279400D01*
X373970Y273730D01*
X421035Y273730D02*
X422985Y271780D01*
X574040Y271780D01*
X421035Y273730D02*
X373970Y273730D01*
X581660Y241300D02*
X589280Y233680D01*
X627380Y233680D01*
X644900Y216160D02*
X644900Y211500D01*
X644900Y216160D02*
X627380Y233680D01*
X581660Y241300D02*
X581660Y264160D01*
X574040Y271780D01*
X736600Y355600D02*
X779399Y355600D01*
X736600Y355600D02*
X736600Y358140D01*
X312420Y320040D02*
X304800Y327660D01*
X312420Y320040D02*
X363220Y320040D01*
X368300Y314960D01*
X368300Y307340D01*
X375920Y299720D02*
X439420Y299720D01*
X444500Y294640D01*
X444500Y287020D02*
X449580Y281940D01*
X640500Y241300D02*
X644900Y236900D01*
X375920Y299720D02*
X368300Y307340D01*
X444500Y294640D02*
X444500Y287020D01*
X449580Y281940D02*
X586740Y281940D01*
X594360Y274320D01*
X594360Y246380D01*
X599440Y241300D01*
X640500Y241300D01*
X139700Y624840D02*
X139700Y647700D01*
X355600Y635000D02*
X355600Y622300D01*
X149860Y614680D02*
X139700Y624840D01*
X149860Y614680D02*
X347980Y614680D01*
X355600Y622300D01*
X660400Y635000D02*
X660400Y604901D01*
X88900Y401320D02*
X88900Y381000D01*
X402920Y426720D02*
X416300Y440100D01*
X114300Y426720D02*
X88900Y401320D01*
X114300Y426720D02*
X402920Y426720D01*
X855980Y355600D02*
X952500Y355600D01*
X855980Y355600D02*
X850900Y360680D01*
X640166Y428670D02*
X639576Y429260D01*
X640166Y428670D02*
X838790Y428670D01*
X850900Y416560D01*
X850900Y360680D01*
X427140Y429260D02*
X416300Y440100D01*
X427140Y429260D02*
X639576Y429260D01*
X129540Y355600D02*
X88900Y355600D01*
X129540Y355600D02*
X134620Y360680D01*
X134620Y398780D02*
X139700Y403860D01*
X385576Y403860D01*
X386166Y403270D01*
X395635Y403270D01*
X396225Y403860D01*
X405460Y403860D02*
X416300Y414700D01*
X134620Y398780D02*
X134620Y360680D01*
X396225Y403860D02*
X405460Y403860D01*
X835660Y335280D02*
X840740Y330200D01*
X835660Y335280D02*
X835660Y396240D01*
X830580Y401320D01*
X418420Y414700D02*
X416300Y414700D01*
X840740Y330200D02*
X952500Y330200D01*
X830580Y401320D02*
X431800Y401320D01*
X418420Y414700D01*
M02*
