G04 EAGLE Gerber RS-274X export*
G75*
%MOMM*%
%FSLAX34Y34*%
%LPD*%
%IN*%
%IPPOS*%
%AMOC8*
5,1,8,0,0,1.08239X$1,22.5*%
G01*
%ADD10C,0.254000*%


D10*
X0Y0D02*
X1016000Y0D01*
X1016000Y838200D01*
X0Y838200D01*
X0Y0D01*
X75763Y551340D02*
X74894Y551416D01*
X74034Y551568D01*
X73190Y551794D01*
X72370Y552092D01*
X71578Y552461D01*
X70822Y552898D01*
X70107Y553399D01*
X69438Y553960D01*
X68820Y554578D01*
X68259Y555247D01*
X67758Y555962D01*
X67321Y556718D01*
X66952Y557510D01*
X66654Y558330D01*
X66428Y559174D01*
X66276Y560034D01*
X66200Y560903D01*
X66200Y561777D01*
X66276Y562647D01*
X66428Y563506D01*
X66654Y564350D01*
X66952Y565170D01*
X67321Y565962D01*
X67758Y566718D01*
X68259Y567433D01*
X68820Y568102D01*
X69438Y568720D01*
X70107Y569281D01*
X70822Y569782D01*
X71578Y570219D01*
X72370Y570588D01*
X73190Y570886D01*
X74034Y571112D01*
X74894Y571264D01*
X75763Y571340D01*
X76637Y571340D01*
X77507Y571264D01*
X78366Y571112D01*
X79210Y570886D01*
X80030Y570588D01*
X80822Y570219D01*
X81578Y569782D01*
X82293Y569281D01*
X82962Y568720D01*
X83580Y568102D01*
X84141Y567433D01*
X84642Y566718D01*
X85079Y565962D01*
X85448Y565170D01*
X85746Y564350D01*
X85972Y563506D01*
X86124Y562647D01*
X86200Y561777D01*
X86200Y560903D01*
X86124Y560034D01*
X85972Y559174D01*
X85746Y558330D01*
X85448Y557510D01*
X85079Y556718D01*
X84642Y555962D01*
X84141Y555247D01*
X83580Y554578D01*
X82962Y553960D01*
X82293Y553399D01*
X81578Y552898D01*
X80822Y552461D01*
X80030Y552092D01*
X79210Y551794D01*
X78366Y551568D01*
X77507Y551416D01*
X76637Y551340D01*
X75763Y551340D01*
X75763Y114460D02*
X74894Y114536D01*
X74034Y114688D01*
X73190Y114914D01*
X72370Y115212D01*
X71578Y115581D01*
X70822Y116018D01*
X70107Y116519D01*
X69438Y117080D01*
X68820Y117698D01*
X68259Y118367D01*
X67758Y119082D01*
X67321Y119838D01*
X66952Y120630D01*
X66654Y121450D01*
X66428Y122294D01*
X66276Y123154D01*
X66200Y124023D01*
X66200Y124897D01*
X66276Y125767D01*
X66428Y126626D01*
X66654Y127470D01*
X66952Y128290D01*
X67321Y129082D01*
X67758Y129838D01*
X68259Y130553D01*
X68820Y131222D01*
X69438Y131840D01*
X70107Y132401D01*
X70822Y132902D01*
X71578Y133339D01*
X72370Y133708D01*
X73190Y134006D01*
X74034Y134232D01*
X74894Y134384D01*
X75763Y134460D01*
X76637Y134460D01*
X77507Y134384D01*
X78366Y134232D01*
X79210Y134006D01*
X80030Y133708D01*
X80822Y133339D01*
X81578Y132902D01*
X82293Y132401D01*
X82962Y131840D01*
X83580Y131222D01*
X84141Y130553D01*
X84642Y129838D01*
X85079Y129082D01*
X85448Y128290D01*
X85746Y127470D01*
X85972Y126626D01*
X86124Y125767D01*
X86200Y124897D01*
X86200Y124023D01*
X86124Y123154D01*
X85972Y122294D01*
X85746Y121450D01*
X85448Y120630D01*
X85079Y119838D01*
X84642Y119082D01*
X84141Y118367D01*
X83580Y117698D01*
X82962Y117080D01*
X82293Y116519D01*
X81578Y116018D01*
X80822Y115581D01*
X80030Y115212D01*
X79210Y114914D01*
X78366Y114688D01*
X77507Y114536D01*
X76637Y114460D01*
X75763Y114460D01*
X304363Y551340D02*
X303494Y551416D01*
X302634Y551568D01*
X301790Y551794D01*
X300970Y552092D01*
X300178Y552461D01*
X299422Y552898D01*
X298707Y553399D01*
X298038Y553960D01*
X297420Y554578D01*
X296859Y555247D01*
X296358Y555962D01*
X295921Y556718D01*
X295552Y557510D01*
X295254Y558330D01*
X295028Y559174D01*
X294876Y560034D01*
X294800Y560903D01*
X294800Y561777D01*
X294876Y562647D01*
X295028Y563506D01*
X295254Y564350D01*
X295552Y565170D01*
X295921Y565962D01*
X296358Y566718D01*
X296859Y567433D01*
X297420Y568102D01*
X298038Y568720D01*
X298707Y569281D01*
X299422Y569782D01*
X300178Y570219D01*
X300970Y570588D01*
X301790Y570886D01*
X302634Y571112D01*
X303494Y571264D01*
X304363Y571340D01*
X305237Y571340D01*
X306107Y571264D01*
X306966Y571112D01*
X307810Y570886D01*
X308630Y570588D01*
X309422Y570219D01*
X310178Y569782D01*
X310893Y569281D01*
X311562Y568720D01*
X312180Y568102D01*
X312741Y567433D01*
X313242Y566718D01*
X313679Y565962D01*
X314048Y565170D01*
X314346Y564350D01*
X314572Y563506D01*
X314724Y562647D01*
X314800Y561777D01*
X314800Y560903D01*
X314724Y560034D01*
X314572Y559174D01*
X314346Y558330D01*
X314048Y557510D01*
X313679Y556718D01*
X313242Y555962D01*
X312741Y555247D01*
X312180Y554578D01*
X311562Y553960D01*
X310893Y553399D01*
X310178Y552898D01*
X309422Y552461D01*
X308630Y552092D01*
X307810Y551794D01*
X306966Y551568D01*
X306107Y551416D01*
X305237Y551340D01*
X304363Y551340D01*
X304363Y114460D02*
X303494Y114536D01*
X302634Y114688D01*
X301790Y114914D01*
X300970Y115212D01*
X300178Y115581D01*
X299422Y116018D01*
X298707Y116519D01*
X298038Y117080D01*
X297420Y117698D01*
X296859Y118367D01*
X296358Y119082D01*
X295921Y119838D01*
X295552Y120630D01*
X295254Y121450D01*
X295028Y122294D01*
X294876Y123154D01*
X294800Y124023D01*
X294800Y124897D01*
X294876Y125767D01*
X295028Y126626D01*
X295254Y127470D01*
X295552Y128290D01*
X295921Y129082D01*
X296358Y129838D01*
X296859Y130553D01*
X297420Y131222D01*
X298038Y131840D01*
X298707Y132401D01*
X299422Y132902D01*
X300178Y133339D01*
X300970Y133708D01*
X301790Y134006D01*
X302634Y134232D01*
X303494Y134384D01*
X304363Y134460D01*
X305237Y134460D01*
X306107Y134384D01*
X306966Y134232D01*
X307810Y134006D01*
X308630Y133708D01*
X309422Y133339D01*
X310178Y132902D01*
X310893Y132401D01*
X311562Y131840D01*
X312180Y131222D01*
X312741Y130553D01*
X313242Y129838D01*
X313679Y129082D01*
X314048Y128290D01*
X314346Y127470D01*
X314572Y126626D01*
X314724Y125767D01*
X314800Y124897D01*
X314800Y124023D01*
X314724Y123154D01*
X314572Y122294D01*
X314346Y121450D01*
X314048Y120630D01*
X313679Y119838D01*
X313242Y119082D01*
X312741Y118367D01*
X312180Y117698D01*
X311562Y117080D01*
X310893Y116519D01*
X310178Y116018D01*
X309422Y115581D01*
X308630Y115212D01*
X307810Y114914D01*
X306966Y114688D01*
X306107Y114536D01*
X305237Y114460D01*
X304363Y114460D01*
X102200Y717209D02*
X102123Y716230D01*
X101969Y715260D01*
X101740Y714304D01*
X101436Y713370D01*
X101061Y712463D01*
X100615Y711588D01*
X100101Y710750D01*
X99524Y709955D01*
X98886Y709208D01*
X98192Y708514D01*
X97445Y707876D01*
X96650Y707299D01*
X95812Y706785D01*
X94937Y706339D01*
X94030Y705964D01*
X93096Y705660D01*
X92141Y705431D01*
X91170Y705277D01*
X90191Y705200D01*
X89209Y705200D01*
X88230Y705277D01*
X87260Y705431D01*
X86304Y705660D01*
X85370Y705964D01*
X84463Y706339D01*
X83588Y706785D01*
X82750Y707299D01*
X81955Y707876D01*
X81208Y708514D01*
X80514Y709208D01*
X79876Y709955D01*
X79299Y710750D01*
X78785Y711588D01*
X78339Y712463D01*
X77964Y713370D01*
X77660Y714304D01*
X77431Y715260D01*
X77277Y716230D01*
X77200Y717209D01*
X77200Y718191D01*
X77277Y719170D01*
X77431Y720141D01*
X77660Y721096D01*
X77964Y722030D01*
X78339Y722937D01*
X78785Y723812D01*
X79299Y724650D01*
X79876Y725445D01*
X80514Y726192D01*
X81208Y726886D01*
X81955Y727524D01*
X82750Y728101D01*
X83588Y728615D01*
X84463Y729061D01*
X85370Y729436D01*
X86304Y729740D01*
X87260Y729969D01*
X88230Y730123D01*
X89209Y730200D01*
X90191Y730200D01*
X91170Y730123D01*
X92141Y729969D01*
X93096Y729740D01*
X94030Y729436D01*
X94937Y729061D01*
X95812Y728615D01*
X96650Y728101D01*
X97445Y727524D01*
X98192Y726886D01*
X98886Y726192D01*
X99524Y725445D01*
X100101Y724650D01*
X100615Y723812D01*
X101061Y722937D01*
X101436Y722030D01*
X101740Y721096D01*
X101969Y720141D01*
X102123Y719170D01*
X102200Y718191D01*
X102200Y717209D01*
X202200Y717209D02*
X202123Y716230D01*
X201969Y715260D01*
X201740Y714304D01*
X201436Y713370D01*
X201061Y712463D01*
X200615Y711588D01*
X200101Y710750D01*
X199524Y709955D01*
X198886Y709208D01*
X198192Y708514D01*
X197445Y707876D01*
X196650Y707299D01*
X195812Y706785D01*
X194937Y706339D01*
X194030Y705964D01*
X193096Y705660D01*
X192141Y705431D01*
X191170Y705277D01*
X190191Y705200D01*
X189209Y705200D01*
X188230Y705277D01*
X187260Y705431D01*
X186304Y705660D01*
X185370Y705964D01*
X184463Y706339D01*
X183588Y706785D01*
X182750Y707299D01*
X181955Y707876D01*
X181208Y708514D01*
X180514Y709208D01*
X179876Y709955D01*
X179299Y710750D01*
X178785Y711588D01*
X178339Y712463D01*
X177964Y713370D01*
X177660Y714304D01*
X177431Y715260D01*
X177277Y716230D01*
X177200Y717209D01*
X177200Y718191D01*
X177277Y719170D01*
X177431Y720141D01*
X177660Y721096D01*
X177964Y722030D01*
X178339Y722937D01*
X178785Y723812D01*
X179299Y724650D01*
X179876Y725445D01*
X180514Y726192D01*
X181208Y726886D01*
X181955Y727524D01*
X182750Y728101D01*
X183588Y728615D01*
X184463Y729061D01*
X185370Y729436D01*
X186304Y729740D01*
X187260Y729969D01*
X188230Y730123D01*
X189209Y730200D01*
X190191Y730200D01*
X191170Y730123D01*
X192141Y729969D01*
X193096Y729740D01*
X194030Y729436D01*
X194937Y729061D01*
X195812Y728615D01*
X196650Y728101D01*
X197445Y727524D01*
X198192Y726886D01*
X198886Y726192D01*
X199524Y725445D01*
X200101Y724650D01*
X200615Y723812D01*
X201061Y722937D01*
X201436Y722030D01*
X201740Y721096D01*
X201969Y720141D01*
X202123Y719170D01*
X202200Y718191D01*
X202200Y717209D01*
X965637Y134460D02*
X966507Y134384D01*
X967366Y134232D01*
X968210Y134006D01*
X969030Y133708D01*
X969822Y133339D01*
X970578Y132902D01*
X971293Y132401D01*
X971962Y131840D01*
X972580Y131222D01*
X973141Y130553D01*
X973642Y129838D01*
X974079Y129082D01*
X974448Y128290D01*
X974746Y127470D01*
X974972Y126626D01*
X975124Y125767D01*
X975200Y124897D01*
X975200Y124023D01*
X975124Y123154D01*
X974972Y122294D01*
X974746Y121450D01*
X974448Y120630D01*
X974079Y119838D01*
X973642Y119082D01*
X973141Y118367D01*
X972580Y117698D01*
X971962Y117080D01*
X971293Y116519D01*
X970578Y116018D01*
X969822Y115581D01*
X969030Y115212D01*
X968210Y114914D01*
X967366Y114688D01*
X966507Y114536D01*
X965637Y114460D01*
X964763Y114460D01*
X963894Y114536D01*
X963034Y114688D01*
X962190Y114914D01*
X961370Y115212D01*
X960578Y115581D01*
X959822Y116018D01*
X959107Y116519D01*
X958438Y117080D01*
X957820Y117698D01*
X957259Y118367D01*
X956758Y119082D01*
X956321Y119838D01*
X955952Y120630D01*
X955654Y121450D01*
X955428Y122294D01*
X955276Y123154D01*
X955200Y124023D01*
X955200Y124897D01*
X955276Y125767D01*
X955428Y126626D01*
X955654Y127470D01*
X955952Y128290D01*
X956321Y129082D01*
X956758Y129838D01*
X957259Y130553D01*
X957820Y131222D01*
X958438Y131840D01*
X959107Y132401D01*
X959822Y132902D01*
X960578Y133339D01*
X961370Y133708D01*
X962190Y134006D01*
X963034Y134232D01*
X963894Y134384D01*
X964763Y134460D01*
X965637Y134460D01*
X965637Y571340D02*
X966507Y571264D01*
X967366Y571112D01*
X968210Y570886D01*
X969030Y570588D01*
X969822Y570219D01*
X970578Y569782D01*
X971293Y569281D01*
X971962Y568720D01*
X972580Y568102D01*
X973141Y567433D01*
X973642Y566718D01*
X974079Y565962D01*
X974448Y565170D01*
X974746Y564350D01*
X974972Y563506D01*
X975124Y562647D01*
X975200Y561777D01*
X975200Y560903D01*
X975124Y560034D01*
X974972Y559174D01*
X974746Y558330D01*
X974448Y557510D01*
X974079Y556718D01*
X973642Y555962D01*
X973141Y555247D01*
X972580Y554578D01*
X971962Y553960D01*
X971293Y553399D01*
X970578Y552898D01*
X969822Y552461D01*
X969030Y552092D01*
X968210Y551794D01*
X967366Y551568D01*
X966507Y551416D01*
X965637Y551340D01*
X964763Y551340D01*
X963894Y551416D01*
X963034Y551568D01*
X962190Y551794D01*
X961370Y552092D01*
X960578Y552461D01*
X959822Y552898D01*
X959107Y553399D01*
X958438Y553960D01*
X957820Y554578D01*
X957259Y555247D01*
X956758Y555962D01*
X956321Y556718D01*
X955952Y557510D01*
X955654Y558330D01*
X955428Y559174D01*
X955276Y560034D01*
X955200Y560903D01*
X955200Y561777D01*
X955276Y562647D01*
X955428Y563506D01*
X955654Y564350D01*
X955952Y565170D01*
X956321Y565962D01*
X956758Y566718D01*
X957259Y567433D01*
X957820Y568102D01*
X958438Y568720D01*
X959107Y569281D01*
X959822Y569782D01*
X960578Y570219D01*
X961370Y570588D01*
X962190Y570886D01*
X963034Y571112D01*
X963894Y571264D01*
X964763Y571340D01*
X965637Y571340D01*
X737037Y134460D02*
X737907Y134384D01*
X738766Y134232D01*
X739610Y134006D01*
X740430Y133708D01*
X741222Y133339D01*
X741978Y132902D01*
X742693Y132401D01*
X743362Y131840D01*
X743980Y131222D01*
X744541Y130553D01*
X745042Y129838D01*
X745479Y129082D01*
X745848Y128290D01*
X746146Y127470D01*
X746372Y126626D01*
X746524Y125767D01*
X746600Y124897D01*
X746600Y124023D01*
X746524Y123154D01*
X746372Y122294D01*
X746146Y121450D01*
X745848Y120630D01*
X745479Y119838D01*
X745042Y119082D01*
X744541Y118367D01*
X743980Y117698D01*
X743362Y117080D01*
X742693Y116519D01*
X741978Y116018D01*
X741222Y115581D01*
X740430Y115212D01*
X739610Y114914D01*
X738766Y114688D01*
X737907Y114536D01*
X737037Y114460D01*
X736163Y114460D01*
X735294Y114536D01*
X734434Y114688D01*
X733590Y114914D01*
X732770Y115212D01*
X731978Y115581D01*
X731222Y116018D01*
X730507Y116519D01*
X729838Y117080D01*
X729220Y117698D01*
X728659Y118367D01*
X728158Y119082D01*
X727721Y119838D01*
X727352Y120630D01*
X727054Y121450D01*
X726828Y122294D01*
X726676Y123154D01*
X726600Y124023D01*
X726600Y124897D01*
X726676Y125767D01*
X726828Y126626D01*
X727054Y127470D01*
X727352Y128290D01*
X727721Y129082D01*
X728158Y129838D01*
X728659Y130553D01*
X729220Y131222D01*
X729838Y131840D01*
X730507Y132401D01*
X731222Y132902D01*
X731978Y133339D01*
X732770Y133708D01*
X733590Y134006D01*
X734434Y134232D01*
X735294Y134384D01*
X736163Y134460D01*
X737037Y134460D01*
X737037Y571340D02*
X737907Y571264D01*
X738766Y571112D01*
X739610Y570886D01*
X740430Y570588D01*
X741222Y570219D01*
X741978Y569782D01*
X742693Y569281D01*
X743362Y568720D01*
X743980Y568102D01*
X744541Y567433D01*
X745042Y566718D01*
X745479Y565962D01*
X745848Y565170D01*
X746146Y564350D01*
X746372Y563506D01*
X746524Y562647D01*
X746600Y561777D01*
X746600Y560903D01*
X746524Y560034D01*
X746372Y559174D01*
X746146Y558330D01*
X745848Y557510D01*
X745479Y556718D01*
X745042Y555962D01*
X744541Y555247D01*
X743980Y554578D01*
X743362Y553960D01*
X742693Y553399D01*
X741978Y552898D01*
X741222Y552461D01*
X740430Y552092D01*
X739610Y551794D01*
X738766Y551568D01*
X737907Y551416D01*
X737037Y551340D01*
X736163Y551340D01*
X735294Y551416D01*
X734434Y551568D01*
X733590Y551794D01*
X732770Y552092D01*
X731978Y552461D01*
X731222Y552898D01*
X730507Y553399D01*
X729838Y553960D01*
X729220Y554578D01*
X728659Y555247D01*
X728158Y555962D01*
X727721Y556718D01*
X727352Y557510D01*
X727054Y558330D01*
X726828Y559174D01*
X726676Y560034D01*
X726600Y560903D01*
X726600Y561777D01*
X726676Y562647D01*
X726828Y563506D01*
X727054Y564350D01*
X727352Y565170D01*
X727721Y565962D01*
X728158Y566718D01*
X728659Y567433D01*
X729220Y568102D01*
X729838Y568720D01*
X730507Y569281D01*
X731222Y569782D01*
X731978Y570219D01*
X732770Y570588D01*
X733590Y570886D01*
X734434Y571112D01*
X735294Y571264D01*
X736163Y571340D01*
X737037Y571340D01*
M02*
