G04 EAGLE Gerber RS-274X export*
G75*
%MOMM*%
%FSLAX34Y34*%
%LPD*%
%INSilkscreen Bottom*%
%IPPOS*%
%AMOC8*
5,1,8,0,0,1.08239X$1,22.5*%
G01*
%ADD10R,0.508000X0.508000*%
%ADD11C,0.254000*%
%ADD12C,0.152400*%
%ADD13C,0.076200*%


D10*
X390900Y109900D03*
X416300Y109900D03*
X416300Y135300D03*
X390900Y135300D03*
X416300Y160700D03*
X390900Y160700D03*
X416300Y186100D03*
X416300Y211500D03*
X416300Y236900D03*
X390900Y186100D03*
X390900Y211500D03*
X390900Y236900D03*
X416300Y262300D03*
X390900Y262300D03*
X416300Y287700D03*
X390900Y287700D03*
X416300Y313100D03*
X390900Y313100D03*
X416300Y338500D03*
X390900Y338500D03*
X416300Y363900D03*
X390900Y363900D03*
X416300Y389300D03*
X390900Y389300D03*
X416300Y414700D03*
X390900Y414700D03*
X416300Y440100D03*
X390900Y440100D03*
X416300Y465500D03*
X390900Y465500D03*
X416300Y490900D03*
X390900Y490900D03*
X416300Y516300D03*
X390900Y516300D03*
X416300Y541700D03*
X390900Y541700D03*
X644900Y109900D03*
X670300Y109900D03*
X670300Y135300D03*
X644900Y135300D03*
X670300Y160700D03*
X644900Y160700D03*
X670300Y186100D03*
X670300Y211500D03*
X670300Y236900D03*
X644900Y186100D03*
X644900Y211500D03*
X644900Y236900D03*
X670300Y262300D03*
X644900Y262300D03*
X670300Y287700D03*
X644900Y287700D03*
X670300Y313100D03*
X644900Y313100D03*
X670300Y338500D03*
X644900Y338500D03*
X670300Y363900D03*
X644900Y363900D03*
X670300Y389300D03*
X644900Y389300D03*
X670300Y414700D03*
X644900Y414700D03*
X670300Y440100D03*
X644900Y440100D03*
X670300Y465500D03*
X644900Y465500D03*
X670300Y490900D03*
X644900Y490900D03*
X670300Y516300D03*
X644900Y516300D03*
X670300Y541700D03*
X644900Y541700D03*
D11*
X705600Y500800D02*
X705600Y150800D01*
X705571Y148384D01*
X705483Y145969D01*
X705337Y143557D01*
X705133Y141149D01*
X704871Y138746D01*
X704551Y136351D01*
X704173Y133964D01*
X703737Y131587D01*
X703244Y129222D01*
X702694Y126868D01*
X702088Y124529D01*
X701425Y122205D01*
X700706Y119898D01*
X699931Y117609D01*
X699102Y115340D01*
X698217Y113091D01*
X697279Y110864D01*
X696287Y108660D01*
X695243Y106481D01*
X694146Y104328D01*
X692997Y102202D01*
X691797Y100104D01*
X690547Y98036D01*
X689247Y95999D01*
X687898Y93994D01*
X686502Y92021D01*
X685058Y90084D01*
X683567Y88181D01*
X682032Y86316D01*
X680451Y84488D01*
X678827Y82698D01*
X677160Y80949D01*
X675451Y79240D01*
X673702Y77573D01*
X671912Y75949D01*
X670084Y74368D01*
X668219Y72833D01*
X666316Y71342D01*
X664379Y69898D01*
X662406Y68502D01*
X660401Y67153D01*
X658364Y65853D01*
X656296Y64603D01*
X654198Y63403D01*
X652072Y62254D01*
X649919Y61157D01*
X647740Y60113D01*
X645536Y59121D01*
X643309Y58183D01*
X641060Y57298D01*
X638791Y56469D01*
X636502Y55694D01*
X634195Y54975D01*
X631871Y54312D01*
X629532Y53706D01*
X627178Y53156D01*
X624813Y52663D01*
X622436Y52227D01*
X620049Y51849D01*
X617654Y51529D01*
X615251Y51267D01*
X612843Y51063D01*
X610431Y50917D01*
X608016Y50829D01*
X605600Y50800D01*
X455600Y50800D01*
X453184Y50829D01*
X450769Y50917D01*
X448357Y51063D01*
X445949Y51267D01*
X443546Y51529D01*
X441151Y51849D01*
X438764Y52227D01*
X436387Y52663D01*
X434022Y53156D01*
X431668Y53706D01*
X429329Y54312D01*
X427005Y54975D01*
X424698Y55694D01*
X422409Y56469D01*
X420140Y57298D01*
X417891Y58183D01*
X415664Y59121D01*
X413460Y60113D01*
X411281Y61157D01*
X409128Y62254D01*
X407002Y63403D01*
X404904Y64603D01*
X402836Y65853D01*
X400799Y67153D01*
X398794Y68502D01*
X396821Y69898D01*
X394884Y71342D01*
X392981Y72833D01*
X391116Y74368D01*
X389288Y75949D01*
X387498Y77573D01*
X385749Y79240D01*
X384040Y80949D01*
X382373Y82698D01*
X380749Y84488D01*
X379168Y86316D01*
X377633Y88181D01*
X376142Y90084D01*
X374698Y92021D01*
X373302Y93994D01*
X371953Y95999D01*
X370653Y98036D01*
X369403Y100104D01*
X368203Y102202D01*
X367054Y104328D01*
X365957Y106481D01*
X364913Y108660D01*
X363921Y110864D01*
X362983Y113091D01*
X362098Y115340D01*
X361269Y117609D01*
X360494Y119898D01*
X359775Y122205D01*
X359112Y124529D01*
X358506Y126868D01*
X357956Y129222D01*
X357463Y131587D01*
X357027Y133964D01*
X356649Y136351D01*
X356329Y138746D01*
X356067Y141149D01*
X355863Y143557D01*
X355717Y145969D01*
X355629Y148384D01*
X355600Y150800D01*
X355600Y500800D01*
X355629Y503216D01*
X355717Y505631D01*
X355863Y508043D01*
X356067Y510451D01*
X356329Y512854D01*
X356649Y515249D01*
X357027Y517636D01*
X357463Y520013D01*
X357956Y522378D01*
X358506Y524732D01*
X359112Y527071D01*
X359775Y529395D01*
X360494Y531702D01*
X361269Y533991D01*
X362098Y536260D01*
X362983Y538509D01*
X363921Y540736D01*
X364913Y542940D01*
X365957Y545119D01*
X367054Y547272D01*
X368203Y549398D01*
X369403Y551496D01*
X370653Y553564D01*
X371953Y555601D01*
X373302Y557606D01*
X374698Y559579D01*
X376142Y561516D01*
X377633Y563419D01*
X379168Y565284D01*
X380749Y567112D01*
X382373Y568902D01*
X384040Y570651D01*
X385749Y572360D01*
X387498Y574027D01*
X389288Y575651D01*
X391116Y577232D01*
X392981Y578767D01*
X394884Y580258D01*
X396821Y581702D01*
X398794Y583098D01*
X400799Y584447D01*
X402836Y585747D01*
X404904Y586997D01*
X407002Y588197D01*
X409128Y589346D01*
X411281Y590443D01*
X413460Y591487D01*
X415664Y592479D01*
X417891Y593417D01*
X420140Y594302D01*
X422409Y595131D01*
X424698Y595906D01*
X427005Y596625D01*
X429329Y597288D01*
X431668Y597894D01*
X434022Y598444D01*
X436387Y598937D01*
X438764Y599373D01*
X441151Y599751D01*
X443546Y600071D01*
X445949Y600333D01*
X448357Y600537D01*
X450769Y600683D01*
X453184Y600771D01*
X455600Y600800D01*
X605600Y600800D01*
X608016Y600771D01*
X610431Y600683D01*
X612843Y600537D01*
X615251Y600333D01*
X617654Y600071D01*
X620049Y599751D01*
X622436Y599373D01*
X624813Y598937D01*
X627178Y598444D01*
X629532Y597894D01*
X631871Y597288D01*
X634195Y596625D01*
X636502Y595906D01*
X638791Y595131D01*
X641060Y594302D01*
X643309Y593417D01*
X645536Y592479D01*
X647740Y591487D01*
X649919Y590443D01*
X652072Y589346D01*
X654198Y588197D01*
X656296Y586997D01*
X658364Y585747D01*
X660401Y584447D01*
X662406Y583098D01*
X664379Y581702D01*
X666316Y580258D01*
X668219Y578767D01*
X670084Y577232D01*
X671912Y575651D01*
X673702Y574027D01*
X675451Y572360D01*
X677160Y570651D01*
X678827Y568902D01*
X680451Y567112D01*
X682032Y565284D01*
X683567Y563419D01*
X685058Y561516D01*
X686502Y559579D01*
X687898Y557606D01*
X689247Y555601D01*
X690547Y553564D01*
X691797Y551496D01*
X692997Y549398D01*
X694146Y547272D01*
X695243Y545119D01*
X696287Y542940D01*
X697279Y540736D01*
X698217Y538509D01*
X699102Y536260D01*
X699931Y533991D01*
X700706Y531702D01*
X701425Y529395D01*
X702088Y527071D01*
X702694Y524732D01*
X703244Y522378D01*
X703737Y520013D01*
X704173Y517636D01*
X704551Y515249D01*
X704871Y512854D01*
X705133Y510451D01*
X705337Y508043D01*
X705483Y505631D01*
X705571Y503216D01*
X705600Y500800D01*
D12*
X528828Y229719D02*
X512572Y229719D01*
X528828Y229719D02*
X528828Y234235D01*
X528826Y234368D01*
X528820Y234500D01*
X528810Y234632D01*
X528797Y234764D01*
X528779Y234896D01*
X528758Y235026D01*
X528733Y235157D01*
X528704Y235286D01*
X528671Y235414D01*
X528635Y235542D01*
X528595Y235668D01*
X528551Y235793D01*
X528503Y235917D01*
X528452Y236039D01*
X528397Y236160D01*
X528339Y236279D01*
X528277Y236397D01*
X528212Y236512D01*
X528143Y236626D01*
X528072Y236737D01*
X527996Y236846D01*
X527918Y236953D01*
X527837Y237058D01*
X527752Y237160D01*
X527665Y237260D01*
X527575Y237357D01*
X527482Y237452D01*
X527386Y237543D01*
X527288Y237632D01*
X527187Y237718D01*
X527083Y237801D01*
X526977Y237881D01*
X526869Y237957D01*
X526759Y238031D01*
X526646Y238101D01*
X526532Y238168D01*
X526415Y238231D01*
X526297Y238291D01*
X526177Y238348D01*
X526055Y238401D01*
X525932Y238450D01*
X525808Y238496D01*
X525682Y238538D01*
X525555Y238576D01*
X525427Y238611D01*
X525298Y238642D01*
X525169Y238669D01*
X525038Y238692D01*
X524907Y238712D01*
X524775Y238727D01*
X524643Y238739D01*
X524511Y238747D01*
X524378Y238751D01*
X524246Y238751D01*
X524113Y238747D01*
X523981Y238739D01*
X523849Y238727D01*
X523717Y238712D01*
X523586Y238692D01*
X523455Y238669D01*
X523326Y238642D01*
X523197Y238611D01*
X523069Y238576D01*
X522942Y238538D01*
X522816Y238496D01*
X522692Y238450D01*
X522569Y238401D01*
X522447Y238348D01*
X522327Y238291D01*
X522209Y238231D01*
X522092Y238168D01*
X521978Y238101D01*
X521865Y238031D01*
X521755Y237957D01*
X521647Y237881D01*
X521541Y237801D01*
X521437Y237718D01*
X521336Y237632D01*
X521238Y237543D01*
X521142Y237452D01*
X521049Y237357D01*
X520959Y237260D01*
X520872Y237160D01*
X520787Y237058D01*
X520706Y236953D01*
X520628Y236846D01*
X520552Y236737D01*
X520481Y236626D01*
X520412Y236512D01*
X520347Y236397D01*
X520285Y236279D01*
X520227Y236160D01*
X520172Y236039D01*
X520121Y235917D01*
X520073Y235793D01*
X520029Y235668D01*
X519989Y235542D01*
X519953Y235414D01*
X519920Y235286D01*
X519891Y235157D01*
X519866Y235026D01*
X519845Y234896D01*
X519827Y234764D01*
X519814Y234632D01*
X519804Y234500D01*
X519798Y234368D01*
X519796Y234235D01*
X519797Y234235D02*
X519797Y229719D01*
X519797Y244480D02*
X516184Y244480D01*
X519797Y244480D02*
X519916Y244482D01*
X520036Y244488D01*
X520155Y244498D01*
X520273Y244512D01*
X520392Y244529D01*
X520509Y244551D01*
X520626Y244576D01*
X520741Y244606D01*
X520856Y244639D01*
X520970Y244676D01*
X521082Y244716D01*
X521193Y244761D01*
X521302Y244809D01*
X521410Y244860D01*
X521516Y244915D01*
X521620Y244974D01*
X521722Y245036D01*
X521822Y245101D01*
X521920Y245170D01*
X522016Y245242D01*
X522109Y245317D01*
X522199Y245394D01*
X522287Y245475D01*
X522372Y245559D01*
X522454Y245646D01*
X522534Y245735D01*
X522610Y245827D01*
X522684Y245921D01*
X522754Y246018D01*
X522821Y246116D01*
X522885Y246217D01*
X522945Y246321D01*
X523002Y246426D01*
X523055Y246533D01*
X523105Y246641D01*
X523151Y246751D01*
X523193Y246863D01*
X523232Y246976D01*
X523267Y247090D01*
X523298Y247205D01*
X523326Y247322D01*
X523349Y247439D01*
X523369Y247556D01*
X523385Y247675D01*
X523397Y247794D01*
X523405Y247913D01*
X523409Y248032D01*
X523409Y248152D01*
X523405Y248271D01*
X523397Y248390D01*
X523385Y248509D01*
X523369Y248628D01*
X523349Y248745D01*
X523326Y248862D01*
X523298Y248979D01*
X523267Y249094D01*
X523232Y249208D01*
X523193Y249321D01*
X523151Y249433D01*
X523105Y249543D01*
X523055Y249651D01*
X523002Y249758D01*
X522945Y249863D01*
X522885Y249967D01*
X522821Y250068D01*
X522754Y250166D01*
X522684Y250263D01*
X522610Y250357D01*
X522534Y250449D01*
X522454Y250538D01*
X522372Y250625D01*
X522287Y250709D01*
X522199Y250790D01*
X522109Y250867D01*
X522016Y250942D01*
X521920Y251014D01*
X521822Y251083D01*
X521722Y251148D01*
X521620Y251210D01*
X521516Y251269D01*
X521410Y251324D01*
X521302Y251375D01*
X521193Y251423D01*
X521082Y251468D01*
X520970Y251508D01*
X520856Y251545D01*
X520741Y251578D01*
X520626Y251608D01*
X520509Y251633D01*
X520392Y251655D01*
X520273Y251672D01*
X520155Y251686D01*
X520036Y251696D01*
X519916Y251702D01*
X519797Y251704D01*
X519797Y251705D02*
X516184Y251705D01*
X516184Y251704D02*
X516065Y251702D01*
X515945Y251696D01*
X515826Y251686D01*
X515708Y251672D01*
X515589Y251655D01*
X515472Y251633D01*
X515355Y251608D01*
X515240Y251578D01*
X515125Y251545D01*
X515011Y251508D01*
X514899Y251468D01*
X514788Y251423D01*
X514679Y251375D01*
X514571Y251324D01*
X514465Y251269D01*
X514361Y251210D01*
X514259Y251148D01*
X514159Y251083D01*
X514061Y251014D01*
X513965Y250942D01*
X513872Y250867D01*
X513782Y250790D01*
X513694Y250709D01*
X513609Y250625D01*
X513527Y250538D01*
X513447Y250449D01*
X513371Y250357D01*
X513297Y250263D01*
X513227Y250166D01*
X513160Y250068D01*
X513096Y249967D01*
X513036Y249863D01*
X512979Y249758D01*
X512926Y249651D01*
X512876Y249543D01*
X512830Y249433D01*
X512788Y249321D01*
X512749Y249208D01*
X512714Y249094D01*
X512683Y248979D01*
X512655Y248862D01*
X512632Y248745D01*
X512612Y248628D01*
X512596Y248509D01*
X512584Y248390D01*
X512576Y248271D01*
X512572Y248152D01*
X512572Y248032D01*
X512576Y247913D01*
X512584Y247794D01*
X512596Y247675D01*
X512612Y247556D01*
X512632Y247439D01*
X512655Y247322D01*
X512683Y247205D01*
X512714Y247090D01*
X512749Y246976D01*
X512788Y246863D01*
X512830Y246751D01*
X512876Y246641D01*
X512926Y246533D01*
X512979Y246426D01*
X513036Y246321D01*
X513096Y246217D01*
X513160Y246116D01*
X513227Y246018D01*
X513297Y245921D01*
X513371Y245827D01*
X513447Y245735D01*
X513527Y245646D01*
X513609Y245559D01*
X513694Y245475D01*
X513782Y245394D01*
X513872Y245317D01*
X513965Y245242D01*
X514061Y245170D01*
X514159Y245101D01*
X514259Y245036D01*
X514361Y244974D01*
X514465Y244915D01*
X514571Y244860D01*
X514679Y244809D01*
X514788Y244761D01*
X514899Y244716D01*
X515011Y244676D01*
X515125Y244639D01*
X515240Y244606D01*
X515355Y244576D01*
X515472Y244551D01*
X515589Y244529D01*
X515708Y244512D01*
X515826Y244498D01*
X515945Y244488D01*
X516065Y244482D01*
X516184Y244480D01*
X512572Y260754D02*
X512572Y264366D01*
X512572Y260754D02*
X512574Y260653D01*
X512580Y260552D01*
X512589Y260451D01*
X512602Y260350D01*
X512619Y260250D01*
X512640Y260151D01*
X512664Y260053D01*
X512692Y259956D01*
X512724Y259859D01*
X512759Y259764D01*
X512798Y259671D01*
X512840Y259579D01*
X512886Y259488D01*
X512935Y259400D01*
X512987Y259313D01*
X513043Y259228D01*
X513101Y259145D01*
X513163Y259065D01*
X513228Y258987D01*
X513295Y258911D01*
X513365Y258838D01*
X513438Y258768D01*
X513514Y258701D01*
X513592Y258636D01*
X513672Y258574D01*
X513755Y258516D01*
X513840Y258460D01*
X513927Y258408D01*
X514015Y258359D01*
X514106Y258313D01*
X514198Y258271D01*
X514291Y258232D01*
X514386Y258197D01*
X514483Y258165D01*
X514580Y258137D01*
X514678Y258113D01*
X514777Y258092D01*
X514877Y258075D01*
X514978Y258062D01*
X515079Y258053D01*
X515180Y258047D01*
X515281Y258045D01*
X515281Y258044D02*
X520700Y258044D01*
X520700Y258045D02*
X520801Y258047D01*
X520902Y258053D01*
X521003Y258062D01*
X521104Y258075D01*
X521204Y258092D01*
X521303Y258113D01*
X521401Y258137D01*
X521498Y258165D01*
X521595Y258197D01*
X521690Y258232D01*
X521783Y258271D01*
X521875Y258313D01*
X521966Y258359D01*
X522055Y258408D01*
X522141Y258460D01*
X522226Y258516D01*
X522309Y258574D01*
X522389Y258636D01*
X522467Y258701D01*
X522543Y258768D01*
X522616Y258838D01*
X522686Y258911D01*
X522753Y258987D01*
X522818Y259065D01*
X522880Y259145D01*
X522938Y259228D01*
X522994Y259313D01*
X523046Y259399D01*
X523095Y259488D01*
X523141Y259579D01*
X523183Y259671D01*
X523222Y259764D01*
X523257Y259859D01*
X523289Y259956D01*
X523317Y260053D01*
X523341Y260151D01*
X523362Y260250D01*
X523379Y260350D01*
X523392Y260451D01*
X523401Y260552D01*
X523407Y260653D01*
X523409Y260754D01*
X523409Y264366D01*
X528828Y270701D02*
X512572Y270701D01*
X517991Y270701D02*
X523409Y277925D01*
X520248Y273861D02*
X512572Y277925D01*
X512572Y286267D02*
X512572Y290783D01*
X512572Y286267D02*
X512574Y286166D01*
X512580Y286065D01*
X512589Y285964D01*
X512602Y285863D01*
X512619Y285763D01*
X512640Y285664D01*
X512664Y285566D01*
X512692Y285469D01*
X512724Y285372D01*
X512759Y285277D01*
X512798Y285184D01*
X512840Y285092D01*
X512886Y285001D01*
X512935Y284913D01*
X512987Y284826D01*
X513043Y284741D01*
X513101Y284658D01*
X513163Y284578D01*
X513228Y284500D01*
X513295Y284424D01*
X513365Y284351D01*
X513438Y284281D01*
X513514Y284214D01*
X513592Y284149D01*
X513672Y284087D01*
X513755Y284029D01*
X513840Y283973D01*
X513927Y283921D01*
X514015Y283872D01*
X514106Y283826D01*
X514198Y283784D01*
X514291Y283745D01*
X514386Y283710D01*
X514483Y283678D01*
X514580Y283650D01*
X514678Y283626D01*
X514777Y283605D01*
X514877Y283588D01*
X514978Y283575D01*
X515079Y283566D01*
X515180Y283560D01*
X515281Y283558D01*
X519797Y283558D01*
X519916Y283560D01*
X520036Y283566D01*
X520155Y283576D01*
X520273Y283590D01*
X520392Y283607D01*
X520509Y283629D01*
X520626Y283654D01*
X520741Y283684D01*
X520856Y283717D01*
X520970Y283754D01*
X521082Y283794D01*
X521193Y283839D01*
X521302Y283887D01*
X521410Y283938D01*
X521516Y283993D01*
X521620Y284052D01*
X521722Y284114D01*
X521822Y284179D01*
X521920Y284248D01*
X522016Y284320D01*
X522109Y284395D01*
X522199Y284472D01*
X522287Y284553D01*
X522372Y284637D01*
X522454Y284724D01*
X522534Y284813D01*
X522610Y284905D01*
X522684Y284999D01*
X522754Y285096D01*
X522821Y285194D01*
X522885Y285295D01*
X522945Y285399D01*
X523002Y285504D01*
X523055Y285611D01*
X523105Y285719D01*
X523151Y285829D01*
X523193Y285941D01*
X523232Y286054D01*
X523267Y286168D01*
X523298Y286283D01*
X523326Y286400D01*
X523349Y286517D01*
X523369Y286634D01*
X523385Y286753D01*
X523397Y286872D01*
X523405Y286991D01*
X523409Y287110D01*
X523409Y287230D01*
X523405Y287349D01*
X523397Y287468D01*
X523385Y287587D01*
X523369Y287706D01*
X523349Y287823D01*
X523326Y287940D01*
X523298Y288057D01*
X523267Y288172D01*
X523232Y288286D01*
X523193Y288399D01*
X523151Y288511D01*
X523105Y288621D01*
X523055Y288729D01*
X523002Y288836D01*
X522945Y288941D01*
X522885Y289045D01*
X522821Y289146D01*
X522754Y289244D01*
X522684Y289341D01*
X522610Y289435D01*
X522534Y289527D01*
X522454Y289616D01*
X522372Y289703D01*
X522287Y289787D01*
X522199Y289868D01*
X522109Y289945D01*
X522016Y290020D01*
X521920Y290092D01*
X521822Y290161D01*
X521722Y290226D01*
X521620Y290288D01*
X521516Y290347D01*
X521410Y290402D01*
X521302Y290453D01*
X521193Y290501D01*
X521082Y290546D01*
X520970Y290586D01*
X520856Y290623D01*
X520741Y290656D01*
X520626Y290686D01*
X520509Y290711D01*
X520392Y290733D01*
X520273Y290750D01*
X520155Y290764D01*
X520036Y290774D01*
X519916Y290780D01*
X519797Y290782D01*
X519797Y290783D02*
X517991Y290783D01*
X517991Y283558D01*
X523409Y295808D02*
X523409Y301226D01*
X528828Y297614D02*
X515281Y297614D01*
X515180Y297616D01*
X515079Y297622D01*
X514978Y297631D01*
X514877Y297644D01*
X514777Y297661D01*
X514678Y297682D01*
X514580Y297706D01*
X514483Y297734D01*
X514386Y297766D01*
X514291Y297801D01*
X514198Y297840D01*
X514106Y297882D01*
X514015Y297928D01*
X513927Y297977D01*
X513840Y298029D01*
X513755Y298085D01*
X513672Y298143D01*
X513592Y298205D01*
X513514Y298270D01*
X513438Y298337D01*
X513365Y298407D01*
X513295Y298480D01*
X513228Y298556D01*
X513163Y298634D01*
X513101Y298714D01*
X513043Y298797D01*
X512987Y298882D01*
X512935Y298969D01*
X512886Y299057D01*
X512840Y299148D01*
X512798Y299240D01*
X512759Y299333D01*
X512724Y299428D01*
X512692Y299525D01*
X512664Y299622D01*
X512640Y299720D01*
X512619Y299819D01*
X512602Y299919D01*
X512589Y300020D01*
X512580Y300121D01*
X512574Y300222D01*
X512572Y300323D01*
X512572Y301226D01*
X521603Y307876D02*
X521603Y312391D01*
X521604Y312391D02*
X521602Y312524D01*
X521596Y312656D01*
X521586Y312788D01*
X521573Y312920D01*
X521555Y313052D01*
X521534Y313182D01*
X521509Y313313D01*
X521480Y313442D01*
X521447Y313570D01*
X521411Y313698D01*
X521371Y313824D01*
X521327Y313949D01*
X521279Y314073D01*
X521228Y314195D01*
X521173Y314316D01*
X521115Y314435D01*
X521053Y314553D01*
X520988Y314668D01*
X520919Y314782D01*
X520848Y314893D01*
X520772Y315002D01*
X520694Y315109D01*
X520613Y315214D01*
X520528Y315316D01*
X520441Y315416D01*
X520351Y315513D01*
X520258Y315608D01*
X520162Y315699D01*
X520064Y315788D01*
X519963Y315874D01*
X519859Y315957D01*
X519753Y316037D01*
X519645Y316113D01*
X519535Y316187D01*
X519422Y316257D01*
X519308Y316324D01*
X519191Y316387D01*
X519073Y316447D01*
X518953Y316504D01*
X518831Y316557D01*
X518708Y316606D01*
X518584Y316652D01*
X518458Y316694D01*
X518331Y316732D01*
X518203Y316767D01*
X518074Y316798D01*
X517945Y316825D01*
X517814Y316848D01*
X517683Y316868D01*
X517551Y316883D01*
X517419Y316895D01*
X517287Y316903D01*
X517154Y316907D01*
X517022Y316907D01*
X516889Y316903D01*
X516757Y316895D01*
X516625Y316883D01*
X516493Y316868D01*
X516362Y316848D01*
X516231Y316825D01*
X516102Y316798D01*
X515973Y316767D01*
X515845Y316732D01*
X515718Y316694D01*
X515592Y316652D01*
X515468Y316606D01*
X515345Y316557D01*
X515223Y316504D01*
X515103Y316447D01*
X514985Y316387D01*
X514868Y316324D01*
X514754Y316257D01*
X514641Y316187D01*
X514531Y316113D01*
X514423Y316037D01*
X514317Y315957D01*
X514213Y315874D01*
X514112Y315788D01*
X514014Y315699D01*
X513918Y315608D01*
X513825Y315513D01*
X513735Y315416D01*
X513648Y315316D01*
X513563Y315214D01*
X513482Y315109D01*
X513404Y315002D01*
X513328Y314893D01*
X513257Y314782D01*
X513188Y314668D01*
X513123Y314553D01*
X513061Y314435D01*
X513003Y314316D01*
X512948Y314195D01*
X512897Y314073D01*
X512849Y313949D01*
X512805Y313824D01*
X512765Y313698D01*
X512729Y313570D01*
X512696Y313442D01*
X512667Y313313D01*
X512642Y313182D01*
X512621Y313052D01*
X512603Y312920D01*
X512590Y312788D01*
X512580Y312656D01*
X512574Y312524D01*
X512572Y312391D01*
X512572Y307876D01*
X528828Y307876D01*
X528828Y312391D01*
X528826Y312510D01*
X528820Y312630D01*
X528810Y312749D01*
X528796Y312867D01*
X528779Y312986D01*
X528757Y313103D01*
X528732Y313220D01*
X528702Y313335D01*
X528669Y313450D01*
X528632Y313564D01*
X528592Y313676D01*
X528547Y313787D01*
X528499Y313896D01*
X528448Y314004D01*
X528393Y314110D01*
X528334Y314214D01*
X528272Y314316D01*
X528207Y314416D01*
X528138Y314514D01*
X528066Y314610D01*
X527991Y314703D01*
X527914Y314793D01*
X527833Y314881D01*
X527749Y314966D01*
X527662Y315048D01*
X527573Y315128D01*
X527481Y315204D01*
X527387Y315278D01*
X527290Y315348D01*
X527192Y315415D01*
X527091Y315479D01*
X526987Y315539D01*
X526882Y315596D01*
X526775Y315649D01*
X526667Y315699D01*
X526557Y315745D01*
X526445Y315787D01*
X526332Y315826D01*
X526218Y315861D01*
X526103Y315892D01*
X525986Y315920D01*
X525869Y315943D01*
X525752Y315963D01*
X525633Y315979D01*
X525514Y315991D01*
X525395Y315999D01*
X525276Y316003D01*
X525156Y316003D01*
X525037Y315999D01*
X524918Y315991D01*
X524799Y315979D01*
X524680Y315963D01*
X524563Y315943D01*
X524446Y315920D01*
X524329Y315892D01*
X524214Y315861D01*
X524100Y315826D01*
X523987Y315787D01*
X523875Y315745D01*
X523765Y315699D01*
X523657Y315649D01*
X523550Y315596D01*
X523445Y315539D01*
X523341Y315479D01*
X523240Y315415D01*
X523142Y315348D01*
X523045Y315278D01*
X522951Y315204D01*
X522859Y315128D01*
X522770Y315048D01*
X522683Y314966D01*
X522599Y314881D01*
X522518Y314793D01*
X522441Y314703D01*
X522366Y314610D01*
X522294Y314514D01*
X522225Y314416D01*
X522160Y314316D01*
X522098Y314214D01*
X522039Y314110D01*
X521984Y314004D01*
X521933Y313896D01*
X521885Y313787D01*
X521840Y313676D01*
X521800Y313564D01*
X521763Y313450D01*
X521730Y313335D01*
X521700Y313220D01*
X521675Y313103D01*
X521653Y312986D01*
X521636Y312867D01*
X521622Y312749D01*
X521612Y312630D01*
X521606Y312510D01*
X521604Y312391D01*
X512572Y325345D02*
X512572Y329861D01*
X512572Y325345D02*
X512574Y325244D01*
X512580Y325143D01*
X512589Y325042D01*
X512602Y324941D01*
X512619Y324841D01*
X512640Y324742D01*
X512664Y324644D01*
X512692Y324547D01*
X512724Y324450D01*
X512759Y324355D01*
X512798Y324262D01*
X512840Y324170D01*
X512886Y324079D01*
X512935Y323991D01*
X512987Y323904D01*
X513043Y323819D01*
X513101Y323736D01*
X513163Y323656D01*
X513228Y323578D01*
X513295Y323502D01*
X513365Y323429D01*
X513438Y323359D01*
X513514Y323292D01*
X513592Y323227D01*
X513672Y323165D01*
X513755Y323107D01*
X513840Y323051D01*
X513927Y322999D01*
X514015Y322950D01*
X514106Y322904D01*
X514198Y322862D01*
X514291Y322823D01*
X514386Y322788D01*
X514483Y322756D01*
X514580Y322728D01*
X514678Y322704D01*
X514777Y322683D01*
X514877Y322666D01*
X514978Y322653D01*
X515079Y322644D01*
X515180Y322638D01*
X515281Y322636D01*
X519797Y322636D01*
X519916Y322638D01*
X520036Y322644D01*
X520155Y322654D01*
X520273Y322668D01*
X520392Y322685D01*
X520509Y322707D01*
X520626Y322732D01*
X520741Y322762D01*
X520856Y322795D01*
X520970Y322832D01*
X521082Y322872D01*
X521193Y322917D01*
X521302Y322965D01*
X521410Y323016D01*
X521516Y323071D01*
X521620Y323130D01*
X521722Y323192D01*
X521822Y323257D01*
X521920Y323326D01*
X522016Y323398D01*
X522109Y323473D01*
X522199Y323550D01*
X522287Y323631D01*
X522372Y323715D01*
X522454Y323802D01*
X522534Y323891D01*
X522610Y323983D01*
X522684Y324077D01*
X522754Y324174D01*
X522821Y324272D01*
X522885Y324373D01*
X522945Y324477D01*
X523002Y324582D01*
X523055Y324689D01*
X523105Y324797D01*
X523151Y324907D01*
X523193Y325019D01*
X523232Y325132D01*
X523267Y325246D01*
X523298Y325361D01*
X523326Y325478D01*
X523349Y325595D01*
X523369Y325712D01*
X523385Y325831D01*
X523397Y325950D01*
X523405Y326069D01*
X523409Y326188D01*
X523409Y326308D01*
X523405Y326427D01*
X523397Y326546D01*
X523385Y326665D01*
X523369Y326784D01*
X523349Y326901D01*
X523326Y327018D01*
X523298Y327135D01*
X523267Y327250D01*
X523232Y327364D01*
X523193Y327477D01*
X523151Y327589D01*
X523105Y327699D01*
X523055Y327807D01*
X523002Y327914D01*
X522945Y328019D01*
X522885Y328123D01*
X522821Y328224D01*
X522754Y328322D01*
X522684Y328419D01*
X522610Y328513D01*
X522534Y328605D01*
X522454Y328694D01*
X522372Y328781D01*
X522287Y328865D01*
X522199Y328946D01*
X522109Y329023D01*
X522016Y329098D01*
X521920Y329170D01*
X521822Y329239D01*
X521722Y329304D01*
X521620Y329366D01*
X521516Y329425D01*
X521410Y329480D01*
X521302Y329531D01*
X521193Y329579D01*
X521082Y329624D01*
X520970Y329664D01*
X520856Y329701D01*
X520741Y329734D01*
X520626Y329764D01*
X520509Y329789D01*
X520392Y329811D01*
X520273Y329828D01*
X520155Y329842D01*
X520036Y329852D01*
X519916Y329858D01*
X519797Y329860D01*
X519797Y329861D02*
X517991Y329861D01*
X517991Y322636D01*
X518894Y339270D02*
X518894Y343334D01*
X518894Y339270D02*
X518892Y339158D01*
X518886Y339047D01*
X518876Y338936D01*
X518863Y338825D01*
X518845Y338715D01*
X518823Y338606D01*
X518798Y338497D01*
X518769Y338389D01*
X518736Y338283D01*
X518699Y338177D01*
X518659Y338073D01*
X518615Y337971D01*
X518567Y337870D01*
X518516Y337771D01*
X518461Y337673D01*
X518403Y337578D01*
X518342Y337485D01*
X518277Y337394D01*
X518209Y337305D01*
X518138Y337219D01*
X518065Y337136D01*
X517988Y337055D01*
X517908Y336976D01*
X517826Y336901D01*
X517741Y336829D01*
X517654Y336759D01*
X517564Y336693D01*
X517472Y336630D01*
X517377Y336570D01*
X517281Y336514D01*
X517183Y336461D01*
X517083Y336412D01*
X516981Y336366D01*
X516878Y336324D01*
X516773Y336285D01*
X516667Y336250D01*
X516560Y336219D01*
X516452Y336192D01*
X516343Y336168D01*
X516233Y336149D01*
X516123Y336133D01*
X516012Y336121D01*
X515900Y336113D01*
X515789Y336109D01*
X515677Y336109D01*
X515566Y336113D01*
X515454Y336121D01*
X515343Y336133D01*
X515233Y336149D01*
X515123Y336168D01*
X515014Y336192D01*
X514906Y336219D01*
X514799Y336250D01*
X514693Y336285D01*
X514588Y336324D01*
X514485Y336366D01*
X514383Y336412D01*
X514283Y336461D01*
X514185Y336514D01*
X514089Y336570D01*
X513994Y336630D01*
X513902Y336693D01*
X513812Y336759D01*
X513725Y336829D01*
X513640Y336901D01*
X513558Y336976D01*
X513478Y337055D01*
X513401Y337136D01*
X513328Y337219D01*
X513257Y337305D01*
X513189Y337394D01*
X513124Y337485D01*
X513063Y337578D01*
X513005Y337673D01*
X512950Y337771D01*
X512899Y337870D01*
X512851Y337971D01*
X512807Y338073D01*
X512767Y338177D01*
X512730Y338283D01*
X512697Y338389D01*
X512668Y338497D01*
X512643Y338606D01*
X512621Y338715D01*
X512603Y338825D01*
X512590Y338936D01*
X512580Y339047D01*
X512574Y339158D01*
X512572Y339270D01*
X512572Y343334D01*
X520700Y343334D01*
X520801Y343332D01*
X520902Y343326D01*
X521003Y343317D01*
X521104Y343304D01*
X521204Y343287D01*
X521303Y343266D01*
X521401Y343242D01*
X521498Y343214D01*
X521595Y343182D01*
X521690Y343147D01*
X521783Y343108D01*
X521875Y343066D01*
X521966Y343020D01*
X522055Y342971D01*
X522141Y342919D01*
X522226Y342863D01*
X522309Y342805D01*
X522389Y342743D01*
X522467Y342678D01*
X522543Y342611D01*
X522616Y342541D01*
X522686Y342468D01*
X522753Y342392D01*
X522818Y342314D01*
X522880Y342234D01*
X522938Y342151D01*
X522994Y342066D01*
X523046Y341980D01*
X523095Y341891D01*
X523141Y341800D01*
X523183Y341708D01*
X523222Y341615D01*
X523257Y341520D01*
X523289Y341423D01*
X523317Y341326D01*
X523341Y341228D01*
X523362Y341129D01*
X523379Y341029D01*
X523392Y340928D01*
X523401Y340827D01*
X523407Y340726D01*
X523409Y340625D01*
X523409Y337013D01*
X512572Y352887D02*
X512572Y357403D01*
X512572Y352887D02*
X512574Y352786D01*
X512580Y352685D01*
X512589Y352584D01*
X512602Y352483D01*
X512619Y352383D01*
X512640Y352284D01*
X512664Y352186D01*
X512692Y352089D01*
X512724Y351992D01*
X512759Y351897D01*
X512798Y351804D01*
X512840Y351712D01*
X512886Y351621D01*
X512935Y351533D01*
X512987Y351446D01*
X513043Y351361D01*
X513101Y351278D01*
X513163Y351198D01*
X513228Y351120D01*
X513295Y351044D01*
X513365Y350971D01*
X513438Y350901D01*
X513514Y350834D01*
X513592Y350769D01*
X513672Y350707D01*
X513755Y350649D01*
X513840Y350593D01*
X513927Y350541D01*
X514015Y350492D01*
X514106Y350446D01*
X514198Y350404D01*
X514291Y350365D01*
X514386Y350330D01*
X514483Y350298D01*
X514580Y350270D01*
X514678Y350246D01*
X514777Y350225D01*
X514877Y350208D01*
X514978Y350195D01*
X515079Y350186D01*
X515180Y350180D01*
X515281Y350178D01*
X520700Y350178D01*
X520801Y350180D01*
X520902Y350186D01*
X521003Y350195D01*
X521104Y350208D01*
X521204Y350225D01*
X521303Y350246D01*
X521401Y350270D01*
X521498Y350298D01*
X521595Y350330D01*
X521690Y350365D01*
X521783Y350404D01*
X521875Y350446D01*
X521966Y350492D01*
X522055Y350541D01*
X522141Y350593D01*
X522226Y350649D01*
X522309Y350707D01*
X522389Y350769D01*
X522467Y350834D01*
X522543Y350901D01*
X522616Y350971D01*
X522686Y351044D01*
X522753Y351120D01*
X522818Y351198D01*
X522880Y351278D01*
X522938Y351361D01*
X522994Y351446D01*
X523046Y351533D01*
X523095Y351621D01*
X523141Y351712D01*
X523183Y351804D01*
X523222Y351897D01*
X523257Y351992D01*
X523289Y352089D01*
X523317Y352186D01*
X523341Y352284D01*
X523362Y352383D01*
X523379Y352483D01*
X523392Y352584D01*
X523401Y352685D01*
X523407Y352786D01*
X523409Y352887D01*
X523409Y357403D01*
X509863Y357403D01*
X509863Y357402D02*
X509759Y357400D01*
X509656Y357394D01*
X509552Y357384D01*
X509449Y357370D01*
X509347Y357352D01*
X509246Y357331D01*
X509145Y357305D01*
X509046Y357276D01*
X508947Y357243D01*
X508850Y357206D01*
X508755Y357165D01*
X508661Y357121D01*
X508569Y357073D01*
X508479Y357022D01*
X508390Y356967D01*
X508304Y356909D01*
X508221Y356847D01*
X508139Y356783D01*
X508061Y356715D01*
X507985Y356645D01*
X507911Y356572D01*
X507841Y356495D01*
X507773Y356417D01*
X507709Y356335D01*
X507647Y356252D01*
X507589Y356166D01*
X507534Y356077D01*
X507483Y355987D01*
X507435Y355895D01*
X507391Y355801D01*
X507350Y355706D01*
X507313Y355609D01*
X507280Y355510D01*
X507251Y355411D01*
X507225Y355310D01*
X507204Y355209D01*
X507186Y355107D01*
X507172Y355004D01*
X507162Y354900D01*
X507156Y354797D01*
X507154Y354693D01*
X507153Y354693D02*
X507153Y351081D01*
X515281Y364556D02*
X528828Y364556D01*
X515281Y364556D02*
X515180Y364558D01*
X515079Y364564D01*
X514978Y364573D01*
X514877Y364586D01*
X514777Y364603D01*
X514678Y364624D01*
X514580Y364648D01*
X514483Y364676D01*
X514386Y364708D01*
X514291Y364743D01*
X514198Y364782D01*
X514106Y364824D01*
X514015Y364870D01*
X513927Y364919D01*
X513840Y364971D01*
X513755Y365027D01*
X513672Y365085D01*
X513592Y365147D01*
X513514Y365212D01*
X513438Y365279D01*
X513365Y365349D01*
X513295Y365422D01*
X513228Y365498D01*
X513163Y365576D01*
X513101Y365656D01*
X513043Y365739D01*
X512987Y365824D01*
X512935Y365911D01*
X512886Y365999D01*
X512840Y366090D01*
X512798Y366182D01*
X512759Y366275D01*
X512724Y366370D01*
X512692Y366467D01*
X512664Y366564D01*
X512640Y366662D01*
X512619Y366761D01*
X512602Y366861D01*
X512589Y366962D01*
X512580Y367063D01*
X512574Y367164D01*
X512572Y367265D01*
X512572Y375365D02*
X512572Y379881D01*
X512572Y375365D02*
X512574Y375264D01*
X512580Y375163D01*
X512589Y375062D01*
X512602Y374961D01*
X512619Y374861D01*
X512640Y374762D01*
X512664Y374664D01*
X512692Y374567D01*
X512724Y374470D01*
X512759Y374375D01*
X512798Y374282D01*
X512840Y374190D01*
X512886Y374099D01*
X512935Y374011D01*
X512987Y373924D01*
X513043Y373839D01*
X513101Y373756D01*
X513163Y373676D01*
X513228Y373598D01*
X513295Y373522D01*
X513365Y373449D01*
X513438Y373379D01*
X513514Y373312D01*
X513592Y373247D01*
X513672Y373185D01*
X513755Y373127D01*
X513840Y373071D01*
X513927Y373019D01*
X514015Y372970D01*
X514106Y372924D01*
X514198Y372882D01*
X514291Y372843D01*
X514386Y372808D01*
X514483Y372776D01*
X514580Y372748D01*
X514678Y372724D01*
X514777Y372703D01*
X514877Y372686D01*
X514978Y372673D01*
X515079Y372664D01*
X515180Y372658D01*
X515281Y372656D01*
X519797Y372656D01*
X519916Y372658D01*
X520036Y372664D01*
X520155Y372674D01*
X520273Y372688D01*
X520392Y372705D01*
X520509Y372727D01*
X520626Y372752D01*
X520741Y372782D01*
X520856Y372815D01*
X520970Y372852D01*
X521082Y372892D01*
X521193Y372937D01*
X521302Y372985D01*
X521410Y373036D01*
X521516Y373091D01*
X521620Y373150D01*
X521722Y373212D01*
X521822Y373277D01*
X521920Y373346D01*
X522016Y373418D01*
X522109Y373493D01*
X522199Y373570D01*
X522287Y373651D01*
X522372Y373735D01*
X522454Y373822D01*
X522534Y373911D01*
X522610Y374003D01*
X522684Y374097D01*
X522754Y374194D01*
X522821Y374292D01*
X522885Y374393D01*
X522945Y374497D01*
X523002Y374602D01*
X523055Y374709D01*
X523105Y374817D01*
X523151Y374927D01*
X523193Y375039D01*
X523232Y375152D01*
X523267Y375266D01*
X523298Y375381D01*
X523326Y375498D01*
X523349Y375615D01*
X523369Y375732D01*
X523385Y375851D01*
X523397Y375970D01*
X523405Y376089D01*
X523409Y376208D01*
X523409Y376328D01*
X523405Y376447D01*
X523397Y376566D01*
X523385Y376685D01*
X523369Y376804D01*
X523349Y376921D01*
X523326Y377038D01*
X523298Y377155D01*
X523267Y377270D01*
X523232Y377384D01*
X523193Y377497D01*
X523151Y377609D01*
X523105Y377719D01*
X523055Y377827D01*
X523002Y377934D01*
X522945Y378039D01*
X522885Y378143D01*
X522821Y378244D01*
X522754Y378342D01*
X522684Y378439D01*
X522610Y378533D01*
X522534Y378625D01*
X522454Y378714D01*
X522372Y378801D01*
X522287Y378885D01*
X522199Y378966D01*
X522109Y379043D01*
X522016Y379118D01*
X521920Y379190D01*
X521822Y379259D01*
X521722Y379324D01*
X521620Y379386D01*
X521516Y379445D01*
X521410Y379500D01*
X521302Y379551D01*
X521193Y379599D01*
X521082Y379644D01*
X520970Y379684D01*
X520856Y379721D01*
X520741Y379754D01*
X520626Y379784D01*
X520509Y379809D01*
X520392Y379831D01*
X520273Y379848D01*
X520155Y379862D01*
X520036Y379872D01*
X519916Y379878D01*
X519797Y379880D01*
X519797Y379881D02*
X517991Y379881D01*
X517991Y372656D01*
X536567Y75438D02*
X536567Y63698D01*
X536565Y63565D01*
X536559Y63433D01*
X536549Y63301D01*
X536536Y63169D01*
X536518Y63037D01*
X536497Y62907D01*
X536472Y62776D01*
X536443Y62647D01*
X536410Y62519D01*
X536374Y62391D01*
X536334Y62265D01*
X536290Y62140D01*
X536242Y62016D01*
X536191Y61894D01*
X536136Y61773D01*
X536078Y61654D01*
X536016Y61536D01*
X535951Y61421D01*
X535882Y61307D01*
X535811Y61196D01*
X535735Y61087D01*
X535657Y60980D01*
X535576Y60875D01*
X535491Y60773D01*
X535404Y60673D01*
X535314Y60576D01*
X535221Y60481D01*
X535125Y60390D01*
X535027Y60301D01*
X534926Y60215D01*
X534822Y60132D01*
X534716Y60052D01*
X534608Y59976D01*
X534498Y59902D01*
X534385Y59832D01*
X534271Y59765D01*
X534154Y59702D01*
X534036Y59642D01*
X533916Y59585D01*
X533794Y59532D01*
X533671Y59483D01*
X533547Y59437D01*
X533421Y59395D01*
X533294Y59357D01*
X533166Y59322D01*
X533037Y59291D01*
X532908Y59264D01*
X532777Y59241D01*
X532646Y59221D01*
X532514Y59206D01*
X532382Y59194D01*
X532250Y59186D01*
X532117Y59182D01*
X531985Y59182D01*
X531852Y59186D01*
X531720Y59194D01*
X531588Y59206D01*
X531456Y59221D01*
X531325Y59241D01*
X531194Y59264D01*
X531065Y59291D01*
X530936Y59322D01*
X530808Y59357D01*
X530681Y59395D01*
X530555Y59437D01*
X530431Y59483D01*
X530308Y59532D01*
X530186Y59585D01*
X530066Y59642D01*
X529948Y59702D01*
X529831Y59765D01*
X529717Y59832D01*
X529604Y59902D01*
X529494Y59976D01*
X529386Y60052D01*
X529280Y60132D01*
X529176Y60215D01*
X529075Y60301D01*
X528977Y60390D01*
X528881Y60481D01*
X528788Y60576D01*
X528698Y60673D01*
X528611Y60773D01*
X528526Y60875D01*
X528445Y60980D01*
X528367Y61087D01*
X528291Y61196D01*
X528220Y61307D01*
X528151Y61421D01*
X528086Y61536D01*
X528024Y61654D01*
X527966Y61773D01*
X527911Y61894D01*
X527860Y62016D01*
X527812Y62140D01*
X527768Y62265D01*
X527728Y62391D01*
X527692Y62519D01*
X527659Y62647D01*
X527630Y62776D01*
X527605Y62907D01*
X527584Y63037D01*
X527566Y63169D01*
X527553Y63301D01*
X527543Y63433D01*
X527537Y63565D01*
X527535Y63698D01*
X527535Y75438D01*
X511905Y62794D02*
X511907Y62676D01*
X511913Y62558D01*
X511922Y62440D01*
X511936Y62323D01*
X511953Y62206D01*
X511974Y62089D01*
X511999Y61974D01*
X512028Y61859D01*
X512061Y61745D01*
X512097Y61633D01*
X512137Y61522D01*
X512180Y61412D01*
X512227Y61303D01*
X512277Y61196D01*
X512332Y61091D01*
X512389Y60988D01*
X512450Y60887D01*
X512514Y60787D01*
X512581Y60690D01*
X512651Y60595D01*
X512725Y60503D01*
X512801Y60412D01*
X512881Y60325D01*
X512963Y60240D01*
X513048Y60158D01*
X513135Y60078D01*
X513226Y60002D01*
X513318Y59928D01*
X513413Y59858D01*
X513510Y59791D01*
X513610Y59727D01*
X513711Y59666D01*
X513814Y59609D01*
X513919Y59554D01*
X514026Y59504D01*
X514135Y59457D01*
X514245Y59414D01*
X514356Y59374D01*
X514468Y59338D01*
X514582Y59305D01*
X514697Y59276D01*
X514812Y59251D01*
X514929Y59230D01*
X515046Y59213D01*
X515163Y59199D01*
X515281Y59190D01*
X515399Y59184D01*
X515517Y59182D01*
X515700Y59184D01*
X515882Y59191D01*
X516064Y59202D01*
X516246Y59217D01*
X516428Y59237D01*
X516609Y59261D01*
X516789Y59289D01*
X516969Y59321D01*
X517148Y59358D01*
X517325Y59399D01*
X517502Y59445D01*
X517678Y59494D01*
X517853Y59548D01*
X518026Y59606D01*
X518197Y59668D01*
X518368Y59734D01*
X518536Y59805D01*
X518703Y59879D01*
X518868Y59957D01*
X519031Y60039D01*
X519192Y60125D01*
X519351Y60215D01*
X519508Y60309D01*
X519662Y60406D01*
X519814Y60507D01*
X519964Y60612D01*
X520111Y60720D01*
X520255Y60831D01*
X520397Y60946D01*
X520536Y61065D01*
X520672Y61187D01*
X520805Y61312D01*
X520935Y61440D01*
X520483Y71826D02*
X520481Y71944D01*
X520475Y72062D01*
X520466Y72180D01*
X520452Y72297D01*
X520435Y72414D01*
X520414Y72531D01*
X520389Y72646D01*
X520360Y72761D01*
X520327Y72875D01*
X520291Y72987D01*
X520251Y73098D01*
X520208Y73208D01*
X520161Y73317D01*
X520111Y73424D01*
X520056Y73529D01*
X519999Y73632D01*
X519938Y73733D01*
X519874Y73833D01*
X519807Y73930D01*
X519737Y74025D01*
X519663Y74117D01*
X519587Y74208D01*
X519507Y74295D01*
X519425Y74380D01*
X519340Y74462D01*
X519253Y74542D01*
X519162Y74618D01*
X519070Y74692D01*
X518975Y74762D01*
X518878Y74829D01*
X518778Y74893D01*
X518677Y74954D01*
X518574Y75011D01*
X518469Y75066D01*
X518362Y75116D01*
X518253Y75163D01*
X518143Y75206D01*
X518032Y75246D01*
X517920Y75282D01*
X517806Y75315D01*
X517691Y75344D01*
X517576Y75369D01*
X517459Y75390D01*
X517342Y75407D01*
X517225Y75421D01*
X517107Y75430D01*
X516989Y75436D01*
X516871Y75438D01*
X516710Y75436D01*
X516548Y75430D01*
X516387Y75421D01*
X516226Y75407D01*
X516066Y75390D01*
X515906Y75369D01*
X515746Y75344D01*
X515587Y75315D01*
X515429Y75283D01*
X515272Y75247D01*
X515116Y75207D01*
X514960Y75163D01*
X514806Y75115D01*
X514653Y75064D01*
X514501Y75010D01*
X514350Y74951D01*
X514201Y74890D01*
X514054Y74824D01*
X513908Y74755D01*
X513763Y74683D01*
X513621Y74607D01*
X513480Y74528D01*
X513341Y74446D01*
X513205Y74360D01*
X513070Y74271D01*
X512937Y74179D01*
X512807Y74083D01*
X518678Y68665D02*
X518779Y68727D01*
X518879Y68792D01*
X518976Y68861D01*
X519071Y68933D01*
X519164Y69007D01*
X519254Y69085D01*
X519342Y69166D01*
X519427Y69249D01*
X519509Y69335D01*
X519588Y69424D01*
X519665Y69515D01*
X519738Y69609D01*
X519809Y69705D01*
X519876Y69803D01*
X519940Y69903D01*
X520001Y70006D01*
X520058Y70110D01*
X520112Y70216D01*
X520162Y70324D01*
X520209Y70433D01*
X520253Y70544D01*
X520293Y70656D01*
X520329Y70770D01*
X520361Y70884D01*
X520390Y71000D01*
X520415Y71116D01*
X520436Y71233D01*
X520453Y71351D01*
X520467Y71469D01*
X520476Y71588D01*
X520482Y71707D01*
X520484Y71826D01*
X513710Y65955D02*
X513609Y65893D01*
X513509Y65828D01*
X513412Y65759D01*
X513317Y65687D01*
X513224Y65613D01*
X513134Y65535D01*
X513046Y65454D01*
X512961Y65371D01*
X512879Y65285D01*
X512800Y65196D01*
X512723Y65105D01*
X512650Y65011D01*
X512579Y64915D01*
X512512Y64817D01*
X512448Y64717D01*
X512387Y64614D01*
X512330Y64510D01*
X512276Y64404D01*
X512226Y64296D01*
X512179Y64187D01*
X512135Y64076D01*
X512095Y63964D01*
X512059Y63850D01*
X512027Y63736D01*
X511998Y63620D01*
X511973Y63504D01*
X511952Y63387D01*
X511935Y63269D01*
X511921Y63151D01*
X511912Y63032D01*
X511906Y62913D01*
X511904Y62794D01*
X513710Y65955D02*
X518678Y68665D01*
X505093Y68213D02*
X500578Y68213D01*
X500578Y68214D02*
X500445Y68212D01*
X500313Y68206D01*
X500181Y68196D01*
X500049Y68183D01*
X499917Y68165D01*
X499787Y68144D01*
X499656Y68119D01*
X499527Y68090D01*
X499399Y68057D01*
X499271Y68021D01*
X499145Y67981D01*
X499020Y67937D01*
X498896Y67889D01*
X498774Y67838D01*
X498653Y67783D01*
X498534Y67725D01*
X498416Y67663D01*
X498301Y67598D01*
X498187Y67529D01*
X498076Y67458D01*
X497967Y67382D01*
X497860Y67304D01*
X497755Y67223D01*
X497653Y67138D01*
X497553Y67051D01*
X497456Y66961D01*
X497361Y66868D01*
X497270Y66772D01*
X497181Y66674D01*
X497095Y66573D01*
X497012Y66469D01*
X496932Y66363D01*
X496856Y66255D01*
X496782Y66145D01*
X496712Y66032D01*
X496645Y65918D01*
X496582Y65801D01*
X496522Y65683D01*
X496465Y65563D01*
X496412Y65441D01*
X496363Y65318D01*
X496317Y65194D01*
X496275Y65068D01*
X496237Y64941D01*
X496202Y64813D01*
X496171Y64684D01*
X496144Y64555D01*
X496121Y64424D01*
X496101Y64293D01*
X496086Y64161D01*
X496074Y64029D01*
X496066Y63897D01*
X496062Y63764D01*
X496062Y63632D01*
X496066Y63499D01*
X496074Y63367D01*
X496086Y63235D01*
X496101Y63103D01*
X496121Y62972D01*
X496144Y62841D01*
X496171Y62712D01*
X496202Y62583D01*
X496237Y62455D01*
X496275Y62328D01*
X496317Y62202D01*
X496363Y62078D01*
X496412Y61955D01*
X496465Y61833D01*
X496522Y61713D01*
X496582Y61595D01*
X496645Y61478D01*
X496712Y61364D01*
X496782Y61251D01*
X496856Y61141D01*
X496932Y61033D01*
X497012Y60927D01*
X497095Y60823D01*
X497181Y60722D01*
X497270Y60624D01*
X497361Y60528D01*
X497456Y60435D01*
X497553Y60345D01*
X497653Y60258D01*
X497755Y60173D01*
X497860Y60092D01*
X497967Y60014D01*
X498076Y59938D01*
X498187Y59867D01*
X498301Y59798D01*
X498416Y59733D01*
X498534Y59671D01*
X498653Y59613D01*
X498774Y59558D01*
X498896Y59507D01*
X499020Y59459D01*
X499145Y59415D01*
X499271Y59375D01*
X499399Y59339D01*
X499527Y59306D01*
X499656Y59277D01*
X499787Y59252D01*
X499917Y59231D01*
X500049Y59213D01*
X500181Y59200D01*
X500313Y59190D01*
X500445Y59184D01*
X500578Y59182D01*
X505093Y59182D01*
X505093Y75438D01*
X500578Y75438D01*
X500459Y75436D01*
X500339Y75430D01*
X500220Y75420D01*
X500102Y75406D01*
X499983Y75389D01*
X499866Y75367D01*
X499749Y75342D01*
X499634Y75312D01*
X499519Y75279D01*
X499405Y75242D01*
X499293Y75202D01*
X499182Y75157D01*
X499073Y75109D01*
X498965Y75058D01*
X498859Y75003D01*
X498755Y74944D01*
X498653Y74882D01*
X498553Y74817D01*
X498455Y74748D01*
X498359Y74676D01*
X498266Y74601D01*
X498176Y74524D01*
X498088Y74443D01*
X498003Y74359D01*
X497921Y74272D01*
X497841Y74183D01*
X497765Y74091D01*
X497691Y73997D01*
X497621Y73900D01*
X497554Y73802D01*
X497490Y73701D01*
X497430Y73597D01*
X497373Y73492D01*
X497320Y73385D01*
X497270Y73277D01*
X497224Y73167D01*
X497182Y73055D01*
X497143Y72942D01*
X497108Y72828D01*
X497077Y72713D01*
X497049Y72596D01*
X497026Y72479D01*
X497006Y72362D01*
X496990Y72243D01*
X496978Y72124D01*
X496970Y72005D01*
X496966Y71886D01*
X496966Y71766D01*
X496970Y71647D01*
X496978Y71528D01*
X496990Y71409D01*
X497006Y71290D01*
X497026Y71173D01*
X497049Y71056D01*
X497077Y70939D01*
X497108Y70824D01*
X497143Y70710D01*
X497182Y70597D01*
X497224Y70485D01*
X497270Y70375D01*
X497320Y70267D01*
X497373Y70160D01*
X497430Y70055D01*
X497490Y69951D01*
X497554Y69850D01*
X497621Y69752D01*
X497691Y69655D01*
X497765Y69561D01*
X497841Y69469D01*
X497921Y69380D01*
X498003Y69293D01*
X498088Y69209D01*
X498176Y69128D01*
X498266Y69051D01*
X498359Y68976D01*
X498455Y68904D01*
X498553Y68835D01*
X498653Y68770D01*
X498755Y68708D01*
X498859Y68649D01*
X498965Y68594D01*
X499073Y68543D01*
X499182Y68495D01*
X499293Y68450D01*
X499405Y68410D01*
X499519Y68373D01*
X499634Y68340D01*
X499749Y68310D01*
X499866Y68285D01*
X499983Y68263D01*
X500102Y68246D01*
X500220Y68232D01*
X500339Y68222D01*
X500459Y68216D01*
X500578Y68214D01*
X558038Y572262D02*
X558038Y583099D01*
X549910Y583099D01*
X549809Y583097D01*
X549708Y583091D01*
X549607Y583082D01*
X549506Y583069D01*
X549406Y583052D01*
X549307Y583031D01*
X549209Y583007D01*
X549112Y582979D01*
X549015Y582947D01*
X548920Y582912D01*
X548827Y582873D01*
X548735Y582831D01*
X548644Y582785D01*
X548556Y582736D01*
X548469Y582684D01*
X548384Y582628D01*
X548301Y582570D01*
X548221Y582508D01*
X548143Y582443D01*
X548067Y582376D01*
X547994Y582306D01*
X547924Y582233D01*
X547857Y582157D01*
X547792Y582079D01*
X547730Y581999D01*
X547672Y581916D01*
X547616Y581831D01*
X547564Y581745D01*
X547515Y581656D01*
X547469Y581565D01*
X547427Y581473D01*
X547388Y581380D01*
X547353Y581285D01*
X547321Y581188D01*
X547293Y581091D01*
X547269Y580993D01*
X547248Y580894D01*
X547231Y580794D01*
X547218Y580693D01*
X547209Y580592D01*
X547203Y580491D01*
X547201Y580390D01*
X547201Y572262D01*
X552619Y572262D02*
X552619Y583099D01*
X540114Y583099D02*
X540114Y572262D01*
X540566Y587615D02*
X540566Y588518D01*
X539663Y588518D01*
X539663Y587615D01*
X540566Y587615D01*
X531100Y572262D02*
X527488Y572262D01*
X531100Y572262D02*
X531201Y572264D01*
X531302Y572270D01*
X531403Y572279D01*
X531504Y572292D01*
X531604Y572309D01*
X531703Y572330D01*
X531801Y572354D01*
X531898Y572382D01*
X531995Y572414D01*
X532090Y572449D01*
X532183Y572488D01*
X532275Y572530D01*
X532366Y572576D01*
X532455Y572625D01*
X532541Y572677D01*
X532626Y572733D01*
X532709Y572791D01*
X532789Y572853D01*
X532867Y572918D01*
X532943Y572985D01*
X533016Y573055D01*
X533086Y573128D01*
X533153Y573204D01*
X533218Y573282D01*
X533280Y573362D01*
X533338Y573445D01*
X533394Y573530D01*
X533446Y573617D01*
X533495Y573705D01*
X533541Y573796D01*
X533583Y573888D01*
X533622Y573981D01*
X533657Y574076D01*
X533689Y574173D01*
X533717Y574270D01*
X533741Y574368D01*
X533762Y574467D01*
X533779Y574567D01*
X533792Y574668D01*
X533801Y574769D01*
X533807Y574870D01*
X533809Y574971D01*
X533809Y580390D01*
X533807Y580491D01*
X533801Y580592D01*
X533792Y580693D01*
X533779Y580794D01*
X533762Y580894D01*
X533741Y580993D01*
X533717Y581091D01*
X533689Y581188D01*
X533657Y581285D01*
X533622Y581380D01*
X533583Y581473D01*
X533541Y581565D01*
X533495Y581656D01*
X533446Y581745D01*
X533394Y581831D01*
X533338Y581916D01*
X533280Y581999D01*
X533218Y582079D01*
X533153Y582157D01*
X533086Y582233D01*
X533016Y582306D01*
X532943Y582376D01*
X532867Y582443D01*
X532789Y582508D01*
X532709Y582570D01*
X532626Y582628D01*
X532541Y582684D01*
X532455Y582736D01*
X532366Y582785D01*
X532275Y582831D01*
X532183Y582873D01*
X532090Y582912D01*
X531995Y582947D01*
X531898Y582979D01*
X531801Y583007D01*
X531703Y583031D01*
X531604Y583052D01*
X531504Y583069D01*
X531403Y583082D01*
X531302Y583091D01*
X531201Y583097D01*
X531100Y583099D01*
X527488Y583099D01*
X521237Y583099D02*
X521237Y572262D01*
X521237Y583099D02*
X515819Y583099D01*
X515819Y581293D01*
X510901Y579487D02*
X510901Y575874D01*
X510901Y579487D02*
X510899Y579606D01*
X510893Y579726D01*
X510883Y579845D01*
X510869Y579963D01*
X510852Y580082D01*
X510830Y580199D01*
X510805Y580316D01*
X510775Y580431D01*
X510742Y580546D01*
X510705Y580660D01*
X510665Y580772D01*
X510620Y580883D01*
X510572Y580992D01*
X510521Y581100D01*
X510466Y581206D01*
X510407Y581310D01*
X510345Y581412D01*
X510280Y581512D01*
X510211Y581610D01*
X510139Y581706D01*
X510064Y581799D01*
X509987Y581889D01*
X509906Y581977D01*
X509822Y582062D01*
X509735Y582144D01*
X509646Y582224D01*
X509554Y582300D01*
X509460Y582374D01*
X509363Y582444D01*
X509265Y582511D01*
X509164Y582575D01*
X509060Y582635D01*
X508955Y582692D01*
X508848Y582745D01*
X508740Y582795D01*
X508630Y582841D01*
X508518Y582883D01*
X508405Y582922D01*
X508291Y582957D01*
X508176Y582988D01*
X508059Y583016D01*
X507942Y583039D01*
X507825Y583059D01*
X507706Y583075D01*
X507587Y583087D01*
X507468Y583095D01*
X507349Y583099D01*
X507229Y583099D01*
X507110Y583095D01*
X506991Y583087D01*
X506872Y583075D01*
X506753Y583059D01*
X506636Y583039D01*
X506519Y583016D01*
X506402Y582988D01*
X506287Y582957D01*
X506173Y582922D01*
X506060Y582883D01*
X505948Y582841D01*
X505838Y582795D01*
X505730Y582745D01*
X505623Y582692D01*
X505518Y582635D01*
X505414Y582575D01*
X505313Y582511D01*
X505215Y582444D01*
X505118Y582374D01*
X505024Y582300D01*
X504932Y582224D01*
X504843Y582144D01*
X504756Y582062D01*
X504672Y581977D01*
X504591Y581889D01*
X504514Y581799D01*
X504439Y581706D01*
X504367Y581610D01*
X504298Y581512D01*
X504233Y581412D01*
X504171Y581310D01*
X504112Y581206D01*
X504057Y581100D01*
X504006Y580992D01*
X503958Y580883D01*
X503913Y580772D01*
X503873Y580660D01*
X503836Y580546D01*
X503803Y580431D01*
X503773Y580316D01*
X503748Y580199D01*
X503726Y580082D01*
X503709Y579963D01*
X503695Y579845D01*
X503685Y579726D01*
X503679Y579606D01*
X503677Y579487D01*
X503676Y579487D02*
X503676Y575874D01*
X503677Y575874D02*
X503679Y575755D01*
X503685Y575635D01*
X503695Y575516D01*
X503709Y575398D01*
X503726Y575279D01*
X503748Y575162D01*
X503773Y575045D01*
X503803Y574930D01*
X503836Y574815D01*
X503873Y574701D01*
X503913Y574589D01*
X503958Y574478D01*
X504006Y574369D01*
X504057Y574261D01*
X504112Y574155D01*
X504171Y574051D01*
X504233Y573949D01*
X504298Y573849D01*
X504367Y573751D01*
X504439Y573655D01*
X504514Y573562D01*
X504591Y573472D01*
X504672Y573384D01*
X504756Y573299D01*
X504843Y573217D01*
X504932Y573137D01*
X505024Y573061D01*
X505118Y572987D01*
X505215Y572917D01*
X505313Y572850D01*
X505414Y572786D01*
X505518Y572726D01*
X505623Y572669D01*
X505730Y572616D01*
X505838Y572566D01*
X505948Y572520D01*
X506060Y572478D01*
X506173Y572439D01*
X506287Y572404D01*
X506402Y572373D01*
X506519Y572345D01*
X506636Y572322D01*
X506753Y572302D01*
X506872Y572286D01*
X506991Y572274D01*
X507110Y572266D01*
X507229Y572262D01*
X507349Y572262D01*
X507468Y572266D01*
X507587Y572274D01*
X507706Y572286D01*
X507825Y572302D01*
X507942Y572322D01*
X508059Y572345D01*
X508176Y572373D01*
X508291Y572404D01*
X508405Y572439D01*
X508518Y572478D01*
X508630Y572520D01*
X508740Y572566D01*
X508848Y572616D01*
X508955Y572669D01*
X509060Y572726D01*
X509164Y572786D01*
X509265Y572850D01*
X509363Y572917D01*
X509460Y572987D01*
X509554Y573061D01*
X509646Y573137D01*
X509735Y573217D01*
X509822Y573299D01*
X509906Y573384D01*
X509987Y573472D01*
X510064Y573562D01*
X510139Y573655D01*
X510211Y573751D01*
X510280Y573849D01*
X510345Y573949D01*
X510407Y574051D01*
X510466Y574155D01*
X510521Y574261D01*
X510572Y574369D01*
X510620Y574478D01*
X510665Y574589D01*
X510705Y574701D01*
X510742Y574815D01*
X510775Y574930D01*
X510805Y575045D01*
X510830Y575162D01*
X510852Y575279D01*
X510869Y575398D01*
X510883Y575516D01*
X510893Y575635D01*
X510899Y575755D01*
X510901Y575874D01*
X492318Y572262D02*
X492200Y572264D01*
X492082Y572270D01*
X491964Y572279D01*
X491847Y572293D01*
X491730Y572310D01*
X491613Y572331D01*
X491498Y572356D01*
X491383Y572385D01*
X491269Y572418D01*
X491157Y572454D01*
X491046Y572494D01*
X490936Y572537D01*
X490827Y572584D01*
X490720Y572634D01*
X490615Y572689D01*
X490512Y572746D01*
X490411Y572807D01*
X490311Y572871D01*
X490214Y572938D01*
X490119Y573008D01*
X490027Y573082D01*
X489936Y573158D01*
X489849Y573238D01*
X489764Y573320D01*
X489682Y573405D01*
X489602Y573492D01*
X489526Y573583D01*
X489452Y573675D01*
X489382Y573770D01*
X489315Y573867D01*
X489251Y573967D01*
X489190Y574068D01*
X489133Y574171D01*
X489078Y574276D01*
X489028Y574383D01*
X488981Y574492D01*
X488938Y574602D01*
X488898Y574713D01*
X488862Y574825D01*
X488829Y574939D01*
X488800Y575054D01*
X488775Y575169D01*
X488754Y575286D01*
X488737Y575403D01*
X488723Y575520D01*
X488714Y575638D01*
X488708Y575756D01*
X488706Y575874D01*
X492318Y572262D02*
X492501Y572264D01*
X492683Y572271D01*
X492865Y572282D01*
X493047Y572297D01*
X493229Y572317D01*
X493410Y572341D01*
X493590Y572369D01*
X493770Y572401D01*
X493949Y572438D01*
X494126Y572479D01*
X494303Y572525D01*
X494479Y572574D01*
X494654Y572628D01*
X494827Y572686D01*
X494998Y572748D01*
X495169Y572814D01*
X495337Y572885D01*
X495504Y572959D01*
X495669Y573037D01*
X495832Y573119D01*
X495993Y573205D01*
X496152Y573295D01*
X496309Y573389D01*
X496463Y573486D01*
X496615Y573587D01*
X496765Y573692D01*
X496912Y573800D01*
X497056Y573911D01*
X497198Y574026D01*
X497337Y574145D01*
X497473Y574267D01*
X497606Y574392D01*
X497736Y574520D01*
X497284Y584906D02*
X497282Y585024D01*
X497276Y585142D01*
X497267Y585260D01*
X497253Y585377D01*
X497236Y585494D01*
X497215Y585611D01*
X497190Y585726D01*
X497161Y585841D01*
X497128Y585955D01*
X497092Y586067D01*
X497052Y586178D01*
X497009Y586288D01*
X496962Y586397D01*
X496912Y586504D01*
X496857Y586609D01*
X496800Y586712D01*
X496739Y586813D01*
X496675Y586913D01*
X496608Y587010D01*
X496538Y587105D01*
X496464Y587197D01*
X496388Y587288D01*
X496308Y587375D01*
X496226Y587460D01*
X496141Y587542D01*
X496054Y587622D01*
X495963Y587698D01*
X495871Y587772D01*
X495776Y587842D01*
X495679Y587909D01*
X495579Y587973D01*
X495478Y588034D01*
X495375Y588091D01*
X495270Y588146D01*
X495163Y588196D01*
X495054Y588243D01*
X494944Y588286D01*
X494833Y588326D01*
X494721Y588362D01*
X494607Y588395D01*
X494492Y588424D01*
X494377Y588449D01*
X494260Y588470D01*
X494143Y588487D01*
X494026Y588501D01*
X493908Y588510D01*
X493790Y588516D01*
X493672Y588518D01*
X493511Y588516D01*
X493349Y588510D01*
X493188Y588501D01*
X493027Y588487D01*
X492867Y588470D01*
X492707Y588449D01*
X492547Y588424D01*
X492388Y588395D01*
X492230Y588363D01*
X492073Y588327D01*
X491917Y588287D01*
X491761Y588243D01*
X491607Y588195D01*
X491454Y588144D01*
X491302Y588090D01*
X491151Y588031D01*
X491002Y587970D01*
X490855Y587904D01*
X490709Y587835D01*
X490564Y587763D01*
X490422Y587687D01*
X490281Y587608D01*
X490142Y587526D01*
X490006Y587440D01*
X489871Y587351D01*
X489738Y587259D01*
X489608Y587163D01*
X495479Y581745D02*
X495580Y581807D01*
X495680Y581872D01*
X495777Y581941D01*
X495872Y582013D01*
X495965Y582087D01*
X496055Y582165D01*
X496143Y582246D01*
X496228Y582329D01*
X496310Y582415D01*
X496389Y582504D01*
X496466Y582595D01*
X496539Y582689D01*
X496610Y582785D01*
X496677Y582883D01*
X496741Y582983D01*
X496802Y583086D01*
X496859Y583190D01*
X496913Y583296D01*
X496963Y583404D01*
X497010Y583513D01*
X497054Y583624D01*
X497094Y583736D01*
X497130Y583850D01*
X497162Y583964D01*
X497191Y584080D01*
X497216Y584196D01*
X497237Y584313D01*
X497254Y584431D01*
X497268Y584549D01*
X497277Y584668D01*
X497283Y584787D01*
X497285Y584906D01*
X490511Y579035D02*
X490410Y578973D01*
X490310Y578908D01*
X490213Y578839D01*
X490118Y578767D01*
X490025Y578693D01*
X489935Y578615D01*
X489847Y578534D01*
X489762Y578451D01*
X489680Y578365D01*
X489601Y578276D01*
X489524Y578185D01*
X489451Y578091D01*
X489380Y577995D01*
X489313Y577897D01*
X489249Y577797D01*
X489188Y577694D01*
X489131Y577590D01*
X489077Y577484D01*
X489027Y577376D01*
X488980Y577267D01*
X488936Y577156D01*
X488896Y577044D01*
X488860Y576930D01*
X488828Y576816D01*
X488799Y576700D01*
X488774Y576584D01*
X488753Y576467D01*
X488736Y576349D01*
X488722Y576231D01*
X488713Y576112D01*
X488707Y575993D01*
X488705Y575874D01*
X490511Y579035D02*
X495478Y581745D01*
X482105Y588518D02*
X482105Y572262D01*
X482105Y588518D02*
X477589Y588518D01*
X477458Y588516D01*
X477326Y588510D01*
X477195Y588501D01*
X477065Y588487D01*
X476934Y588470D01*
X476805Y588449D01*
X476676Y588425D01*
X476548Y588396D01*
X476420Y588364D01*
X476294Y588328D01*
X476169Y588289D01*
X476044Y588246D01*
X475922Y588199D01*
X475800Y588149D01*
X475680Y588095D01*
X475562Y588038D01*
X475446Y587977D01*
X475331Y587913D01*
X475218Y587846D01*
X475107Y587775D01*
X474999Y587701D01*
X474892Y587624D01*
X474788Y587544D01*
X474686Y587461D01*
X474587Y587376D01*
X474490Y587287D01*
X474396Y587195D01*
X474304Y587101D01*
X474215Y587004D01*
X474130Y586905D01*
X474047Y586803D01*
X473967Y586699D01*
X473890Y586592D01*
X473816Y586484D01*
X473745Y586373D01*
X473678Y586260D01*
X473614Y586145D01*
X473553Y586029D01*
X473496Y585911D01*
X473442Y585791D01*
X473392Y585669D01*
X473345Y585547D01*
X473302Y585422D01*
X473263Y585297D01*
X473227Y585171D01*
X473195Y585043D01*
X473166Y584915D01*
X473142Y584786D01*
X473121Y584657D01*
X473104Y584526D01*
X473090Y584396D01*
X473081Y584265D01*
X473075Y584133D01*
X473073Y584002D01*
X473074Y584002D02*
X473074Y576778D01*
X473073Y576778D02*
X473075Y576647D01*
X473081Y576515D01*
X473090Y576384D01*
X473104Y576254D01*
X473121Y576123D01*
X473142Y575994D01*
X473166Y575865D01*
X473195Y575737D01*
X473227Y575609D01*
X473263Y575483D01*
X473302Y575358D01*
X473345Y575233D01*
X473392Y575111D01*
X473442Y574989D01*
X473496Y574869D01*
X473553Y574751D01*
X473614Y574635D01*
X473678Y574520D01*
X473745Y574407D01*
X473816Y574296D01*
X473890Y574188D01*
X473967Y574081D01*
X474047Y573977D01*
X474130Y573875D01*
X474215Y573776D01*
X474304Y573679D01*
X474396Y573585D01*
X474490Y573493D01*
X474587Y573404D01*
X474686Y573319D01*
X474788Y573236D01*
X474892Y573156D01*
X474999Y573079D01*
X475107Y573005D01*
X475218Y572934D01*
X475331Y572867D01*
X475446Y572803D01*
X475562Y572742D01*
X475680Y572685D01*
X475800Y572631D01*
X475922Y572581D01*
X476044Y572534D01*
X476169Y572491D01*
X476294Y572452D01*
X476420Y572416D01*
X476548Y572384D01*
X476676Y572355D01*
X476805Y572331D01*
X476934Y572310D01*
X477065Y572293D01*
X477195Y572279D01*
X477326Y572270D01*
X477458Y572264D01*
X477589Y572262D01*
X482105Y572262D01*
D13*
X726327Y101981D02*
X731647Y101981D01*
X726327Y101981D02*
X726238Y101983D01*
X726149Y101989D01*
X726060Y101999D01*
X725972Y102012D01*
X725884Y102029D01*
X725797Y102051D01*
X725712Y102076D01*
X725627Y102104D01*
X725544Y102137D01*
X725462Y102173D01*
X725382Y102212D01*
X725304Y102255D01*
X725228Y102301D01*
X725153Y102351D01*
X725081Y102404D01*
X725012Y102460D01*
X724945Y102519D01*
X724880Y102580D01*
X724819Y102645D01*
X724760Y102712D01*
X724704Y102781D01*
X724651Y102853D01*
X724601Y102928D01*
X724555Y103004D01*
X724512Y103082D01*
X724473Y103162D01*
X724437Y103244D01*
X724404Y103327D01*
X724376Y103412D01*
X724351Y103497D01*
X724329Y103584D01*
X724312Y103672D01*
X724299Y103760D01*
X724289Y103849D01*
X724283Y103938D01*
X724281Y104027D01*
X724283Y104116D01*
X724289Y104205D01*
X724299Y104294D01*
X724312Y104382D01*
X724329Y104470D01*
X724351Y104557D01*
X724376Y104642D01*
X724404Y104727D01*
X724437Y104810D01*
X724473Y104892D01*
X724512Y104972D01*
X724555Y105050D01*
X724601Y105126D01*
X724651Y105201D01*
X724704Y105273D01*
X724760Y105342D01*
X724819Y105409D01*
X724880Y105474D01*
X724945Y105535D01*
X725012Y105594D01*
X725081Y105650D01*
X725153Y105703D01*
X725228Y105753D01*
X725304Y105799D01*
X725382Y105842D01*
X725462Y105881D01*
X725544Y105917D01*
X725627Y105950D01*
X725712Y105978D01*
X725797Y106003D01*
X725884Y106025D01*
X725972Y106042D01*
X726060Y106055D01*
X726149Y106065D01*
X726238Y106071D01*
X726327Y106073D01*
X731647Y106073D01*
X730010Y109540D02*
X731647Y111586D01*
X724281Y111586D01*
X724281Y109540D02*
X724281Y113632D01*
M02*
