G04 EAGLE Gerber RS-274X export*
G75*
%MOMM*%
%FSLAX34Y34*%
%LPD*%
%INSilkscreen Top*%
%IPPOS*%
%AMOC8*
5,1,8,0,0,1.08239X$1,22.5*%
G01*
%ADD10C,0.203200*%
%ADD11C,0.508000*%
%ADD12C,0.127000*%
%ADD13C,0.200000*%
%ADD14C,0.101600*%
%ADD15C,0.254000*%
%ADD16C,0.076200*%


D10*
X848106Y671576D02*
X848106Y686308D01*
X852198Y686308D01*
X852325Y686306D01*
X852452Y686300D01*
X852579Y686290D01*
X852706Y686276D01*
X852832Y686259D01*
X852957Y686237D01*
X853082Y686211D01*
X853206Y686182D01*
X853329Y686149D01*
X853450Y686112D01*
X853571Y686071D01*
X853690Y686026D01*
X853808Y685978D01*
X853924Y685926D01*
X854039Y685871D01*
X854151Y685812D01*
X854262Y685749D01*
X854371Y685683D01*
X854478Y685614D01*
X854583Y685541D01*
X854685Y685466D01*
X854785Y685387D01*
X854882Y685305D01*
X854977Y685220D01*
X855069Y685132D01*
X855158Y685041D01*
X855245Y684948D01*
X855328Y684852D01*
X855409Y684753D01*
X855486Y684652D01*
X855560Y684549D01*
X855631Y684443D01*
X855699Y684335D01*
X855763Y684225D01*
X855824Y684113D01*
X855881Y684000D01*
X855935Y683884D01*
X855985Y683767D01*
X856031Y683649D01*
X856074Y683529D01*
X856113Y683408D01*
X856148Y683285D01*
X856179Y683162D01*
X856207Y683038D01*
X856230Y682913D01*
X856250Y682787D01*
X856266Y682661D01*
X856278Y682534D01*
X856286Y682407D01*
X856290Y682280D01*
X856290Y682152D01*
X856286Y682025D01*
X856278Y681898D01*
X856266Y681771D01*
X856250Y681645D01*
X856230Y681519D01*
X856207Y681394D01*
X856179Y681270D01*
X856148Y681147D01*
X856113Y681024D01*
X856074Y680903D01*
X856031Y680783D01*
X855985Y680665D01*
X855935Y680548D01*
X855881Y680432D01*
X855824Y680319D01*
X855763Y680207D01*
X855699Y680097D01*
X855631Y679989D01*
X855560Y679883D01*
X855486Y679780D01*
X855409Y679679D01*
X855328Y679580D01*
X855245Y679484D01*
X855158Y679391D01*
X855069Y679300D01*
X854977Y679212D01*
X854882Y679127D01*
X854785Y679045D01*
X854685Y678966D01*
X854583Y678891D01*
X854478Y678818D01*
X854371Y678749D01*
X854262Y678683D01*
X854151Y678620D01*
X854039Y678561D01*
X853924Y678506D01*
X853808Y678454D01*
X853690Y678406D01*
X853571Y678361D01*
X853450Y678320D01*
X853329Y678283D01*
X853206Y678250D01*
X853082Y678221D01*
X852957Y678195D01*
X852832Y678173D01*
X852706Y678156D01*
X852579Y678142D01*
X852452Y678132D01*
X852325Y678126D01*
X852198Y678124D01*
X848106Y678124D01*
X864817Y677305D02*
X868500Y677305D01*
X864817Y677306D02*
X864711Y677304D01*
X864605Y677298D01*
X864500Y677288D01*
X864395Y677275D01*
X864291Y677257D01*
X864187Y677236D01*
X864084Y677211D01*
X863982Y677182D01*
X863881Y677149D01*
X863782Y677113D01*
X863684Y677072D01*
X863588Y677029D01*
X863493Y676982D01*
X863400Y676931D01*
X863309Y676877D01*
X863220Y676819D01*
X863133Y676759D01*
X863048Y676695D01*
X862966Y676628D01*
X862887Y676558D01*
X862810Y676485D01*
X862736Y676410D01*
X862664Y676332D01*
X862596Y676251D01*
X862531Y676168D01*
X862468Y676082D01*
X862409Y675994D01*
X862354Y675904D01*
X862301Y675812D01*
X862252Y675718D01*
X862207Y675622D01*
X862165Y675525D01*
X862127Y675426D01*
X862092Y675326D01*
X862061Y675225D01*
X862034Y675123D01*
X862011Y675019D01*
X861992Y674915D01*
X861976Y674811D01*
X861964Y674705D01*
X861956Y674600D01*
X861952Y674494D01*
X861952Y674388D01*
X861956Y674282D01*
X861964Y674177D01*
X861976Y674071D01*
X861992Y673967D01*
X862011Y673863D01*
X862034Y673759D01*
X862061Y673657D01*
X862092Y673556D01*
X862127Y673456D01*
X862165Y673357D01*
X862207Y673260D01*
X862252Y673164D01*
X862301Y673070D01*
X862354Y672978D01*
X862409Y672888D01*
X862468Y672800D01*
X862531Y672714D01*
X862596Y672631D01*
X862664Y672550D01*
X862736Y672472D01*
X862810Y672397D01*
X862887Y672324D01*
X862966Y672254D01*
X863048Y672187D01*
X863133Y672123D01*
X863220Y672063D01*
X863309Y672005D01*
X863400Y671951D01*
X863493Y671900D01*
X863588Y671853D01*
X863684Y671810D01*
X863782Y671769D01*
X863881Y671733D01*
X863982Y671700D01*
X864084Y671671D01*
X864187Y671646D01*
X864291Y671625D01*
X864395Y671607D01*
X864500Y671594D01*
X864605Y671584D01*
X864711Y671578D01*
X864817Y671576D01*
X868500Y671576D01*
X868500Y678942D01*
X868499Y678942D02*
X868497Y679038D01*
X868491Y679135D01*
X868482Y679231D01*
X868469Y679326D01*
X868452Y679421D01*
X868431Y679515D01*
X868407Y679608D01*
X868379Y679701D01*
X868347Y679792D01*
X868312Y679881D01*
X868273Y679970D01*
X868231Y680057D01*
X868186Y680142D01*
X868137Y680225D01*
X868085Y680306D01*
X868030Y680385D01*
X867972Y680462D01*
X867911Y680536D01*
X867847Y680608D01*
X867780Y680678D01*
X867710Y680745D01*
X867638Y680809D01*
X867564Y680870D01*
X867487Y680928D01*
X867408Y680983D01*
X867327Y681035D01*
X867244Y681084D01*
X867159Y681129D01*
X867072Y681171D01*
X866983Y681210D01*
X866894Y681245D01*
X866803Y681277D01*
X866710Y681305D01*
X866617Y681329D01*
X866523Y681350D01*
X866428Y681367D01*
X866333Y681380D01*
X866237Y681389D01*
X866140Y681395D01*
X866044Y681397D01*
X862771Y681397D01*
X874115Y681397D02*
X879026Y681397D01*
X875752Y686308D02*
X875752Y674031D01*
X875754Y673935D01*
X875760Y673838D01*
X875769Y673742D01*
X875782Y673647D01*
X875799Y673552D01*
X875820Y673458D01*
X875844Y673365D01*
X875872Y673272D01*
X875904Y673181D01*
X875939Y673092D01*
X875978Y673003D01*
X876020Y672916D01*
X876065Y672831D01*
X876114Y672748D01*
X876166Y672667D01*
X876221Y672588D01*
X876279Y672511D01*
X876340Y672437D01*
X876404Y672365D01*
X876471Y672295D01*
X876541Y672228D01*
X876613Y672164D01*
X876687Y672103D01*
X876764Y672045D01*
X876843Y671990D01*
X876924Y671938D01*
X877007Y671889D01*
X877092Y671844D01*
X877179Y671801D01*
X877268Y671763D01*
X877357Y671728D01*
X877448Y671696D01*
X877541Y671668D01*
X877634Y671644D01*
X877728Y671623D01*
X877823Y671606D01*
X877918Y671593D01*
X878014Y671584D01*
X878111Y671578D01*
X878207Y671576D01*
X879026Y671576D01*
X883530Y681397D02*
X888441Y681397D01*
X885167Y686308D02*
X885167Y674031D01*
X885169Y673935D01*
X885175Y673838D01*
X885184Y673742D01*
X885197Y673647D01*
X885214Y673552D01*
X885235Y673458D01*
X885259Y673365D01*
X885287Y673272D01*
X885319Y673181D01*
X885354Y673092D01*
X885393Y673003D01*
X885435Y672916D01*
X885480Y672831D01*
X885529Y672748D01*
X885581Y672667D01*
X885636Y672588D01*
X885694Y672511D01*
X885755Y672437D01*
X885819Y672365D01*
X885886Y672295D01*
X885956Y672228D01*
X886028Y672164D01*
X886102Y672103D01*
X886179Y672045D01*
X886258Y671990D01*
X886339Y671938D01*
X886422Y671889D01*
X886507Y671844D01*
X886594Y671801D01*
X886683Y671763D01*
X886772Y671728D01*
X886863Y671696D01*
X886956Y671668D01*
X887049Y671644D01*
X887143Y671623D01*
X887238Y671606D01*
X887333Y671593D01*
X887429Y671584D01*
X887526Y671578D01*
X887622Y671576D01*
X888441Y671576D01*
X896707Y671576D02*
X900799Y671576D01*
X896707Y671576D02*
X896611Y671578D01*
X896514Y671584D01*
X896418Y671593D01*
X896323Y671606D01*
X896228Y671623D01*
X896134Y671644D01*
X896041Y671668D01*
X895948Y671696D01*
X895857Y671728D01*
X895768Y671763D01*
X895679Y671802D01*
X895592Y671844D01*
X895507Y671889D01*
X895424Y671938D01*
X895343Y671990D01*
X895264Y672045D01*
X895187Y672103D01*
X895113Y672164D01*
X895041Y672228D01*
X894971Y672295D01*
X894904Y672365D01*
X894840Y672437D01*
X894779Y672511D01*
X894721Y672588D01*
X894666Y672667D01*
X894614Y672748D01*
X894565Y672831D01*
X894520Y672916D01*
X894478Y673003D01*
X894439Y673092D01*
X894404Y673181D01*
X894372Y673272D01*
X894344Y673365D01*
X894320Y673458D01*
X894299Y673552D01*
X894282Y673647D01*
X894269Y673742D01*
X894260Y673838D01*
X894254Y673935D01*
X894252Y674031D01*
X894252Y678124D01*
X894254Y678237D01*
X894260Y678350D01*
X894270Y678462D01*
X894283Y678575D01*
X894301Y678686D01*
X894322Y678797D01*
X894347Y678908D01*
X894376Y679017D01*
X894409Y679125D01*
X894445Y679232D01*
X894485Y679338D01*
X894529Y679442D01*
X894576Y679545D01*
X894627Y679646D01*
X894681Y679745D01*
X894739Y679842D01*
X894800Y679937D01*
X894864Y680030D01*
X894931Y680121D01*
X895002Y680209D01*
X895075Y680295D01*
X895152Y680378D01*
X895231Y680459D01*
X895313Y680537D01*
X895398Y680612D01*
X895485Y680684D01*
X895574Y680753D01*
X895666Y680818D01*
X895760Y680881D01*
X895856Y680940D01*
X895955Y680996D01*
X896055Y681049D01*
X896157Y681098D01*
X896260Y681143D01*
X896365Y681185D01*
X896471Y681223D01*
X896579Y681258D01*
X896688Y681289D01*
X896797Y681316D01*
X896908Y681339D01*
X897019Y681359D01*
X897131Y681374D01*
X897244Y681386D01*
X897357Y681394D01*
X897469Y681398D01*
X897583Y681398D01*
X897695Y681394D01*
X897808Y681386D01*
X897921Y681374D01*
X898033Y681359D01*
X898144Y681339D01*
X898255Y681316D01*
X898364Y681289D01*
X898473Y681258D01*
X898581Y681223D01*
X898687Y681185D01*
X898792Y681143D01*
X898895Y681098D01*
X898997Y681049D01*
X899097Y680996D01*
X899196Y680940D01*
X899292Y680881D01*
X899386Y680818D01*
X899478Y680753D01*
X899567Y680684D01*
X899654Y680612D01*
X899739Y680537D01*
X899821Y680459D01*
X899900Y680378D01*
X899977Y680295D01*
X900050Y680209D01*
X900121Y680121D01*
X900188Y680030D01*
X900252Y679937D01*
X900313Y679842D01*
X900371Y679745D01*
X900425Y679646D01*
X900476Y679545D01*
X900523Y679442D01*
X900567Y679338D01*
X900607Y679232D01*
X900643Y679125D01*
X900676Y679017D01*
X900705Y678908D01*
X900730Y678797D01*
X900751Y678686D01*
X900769Y678575D01*
X900782Y678462D01*
X900792Y678350D01*
X900798Y678237D01*
X900800Y678124D01*
X900799Y678124D02*
X900799Y676487D01*
X894252Y676487D01*
X907735Y671576D02*
X907735Y681397D01*
X912646Y681397D01*
X912646Y679760D01*
X918037Y681397D02*
X918037Y671576D01*
X918037Y681397D02*
X922129Y681397D01*
X922225Y681395D01*
X922322Y681389D01*
X922418Y681380D01*
X922513Y681367D01*
X922608Y681350D01*
X922702Y681329D01*
X922795Y681305D01*
X922888Y681277D01*
X922979Y681245D01*
X923068Y681210D01*
X923157Y681171D01*
X923244Y681129D01*
X923329Y681084D01*
X923412Y681035D01*
X923493Y680983D01*
X923572Y680928D01*
X923649Y680870D01*
X923723Y680809D01*
X923795Y680745D01*
X923865Y680678D01*
X923932Y680608D01*
X923996Y680536D01*
X924057Y680462D01*
X924115Y680385D01*
X924170Y680306D01*
X924222Y680225D01*
X924271Y680142D01*
X924316Y680057D01*
X924358Y679970D01*
X924397Y679881D01*
X924432Y679792D01*
X924464Y679701D01*
X924492Y679608D01*
X924516Y679515D01*
X924537Y679421D01*
X924554Y679326D01*
X924567Y679231D01*
X924576Y679135D01*
X924582Y679038D01*
X924584Y678942D01*
X924585Y678942D02*
X924585Y671576D01*
X945742Y679760D02*
X948197Y679760D01*
X948197Y671576D01*
X943287Y671576D01*
X943175Y671578D01*
X943064Y671584D01*
X942952Y671593D01*
X942841Y671606D01*
X942731Y671624D01*
X942621Y671644D01*
X942512Y671669D01*
X942404Y671697D01*
X942297Y671729D01*
X942191Y671765D01*
X942086Y671804D01*
X941983Y671847D01*
X941881Y671893D01*
X941781Y671943D01*
X941682Y671996D01*
X941586Y672053D01*
X941491Y672112D01*
X941399Y672175D01*
X941309Y672241D01*
X941221Y672310D01*
X941135Y672382D01*
X941052Y672457D01*
X940972Y672535D01*
X940894Y672615D01*
X940819Y672698D01*
X940747Y672784D01*
X940678Y672872D01*
X940612Y672962D01*
X940549Y673054D01*
X940490Y673149D01*
X940433Y673245D01*
X940380Y673344D01*
X940330Y673444D01*
X940284Y673546D01*
X940241Y673649D01*
X940202Y673754D01*
X940166Y673860D01*
X940134Y673967D01*
X940106Y674075D01*
X940081Y674184D01*
X940061Y674294D01*
X940043Y674404D01*
X940030Y674515D01*
X940021Y674627D01*
X940015Y674738D01*
X940013Y674850D01*
X940013Y683034D01*
X940015Y683148D01*
X940021Y683262D01*
X940031Y683376D01*
X940045Y683490D01*
X940063Y683603D01*
X940085Y683715D01*
X940110Y683826D01*
X940140Y683936D01*
X940173Y684046D01*
X940210Y684154D01*
X940251Y684260D01*
X940296Y684366D01*
X940344Y684469D01*
X940396Y684571D01*
X940452Y684671D01*
X940510Y684769D01*
X940573Y684865D01*
X940638Y684958D01*
X940707Y685050D01*
X940779Y685138D01*
X940854Y685225D01*
X940932Y685308D01*
X941013Y685389D01*
X941096Y685467D01*
X941183Y685542D01*
X941271Y685614D01*
X941363Y685683D01*
X941456Y685748D01*
X941552Y685810D01*
X941650Y685869D01*
X941750Y685925D01*
X941852Y685977D01*
X941955Y686025D01*
X942061Y686070D01*
X942167Y686111D01*
X942275Y686148D01*
X942385Y686181D01*
X942495Y686211D01*
X942606Y686236D01*
X942718Y686258D01*
X942831Y686276D01*
X942945Y686290D01*
X943059Y686300D01*
X943173Y686306D01*
X943287Y686308D01*
X948197Y686308D01*
X957975Y677305D02*
X961658Y677305D01*
X957975Y677306D02*
X957869Y677304D01*
X957763Y677298D01*
X957658Y677288D01*
X957553Y677275D01*
X957449Y677257D01*
X957345Y677236D01*
X957242Y677211D01*
X957140Y677182D01*
X957039Y677149D01*
X956940Y677113D01*
X956842Y677072D01*
X956746Y677029D01*
X956651Y676982D01*
X956558Y676931D01*
X956467Y676877D01*
X956378Y676819D01*
X956291Y676759D01*
X956206Y676695D01*
X956124Y676628D01*
X956045Y676558D01*
X955968Y676485D01*
X955894Y676410D01*
X955822Y676332D01*
X955754Y676251D01*
X955689Y676168D01*
X955626Y676082D01*
X955567Y675994D01*
X955512Y675904D01*
X955459Y675812D01*
X955410Y675718D01*
X955365Y675622D01*
X955323Y675525D01*
X955285Y675426D01*
X955250Y675326D01*
X955219Y675225D01*
X955192Y675123D01*
X955169Y675019D01*
X955150Y674915D01*
X955134Y674811D01*
X955122Y674705D01*
X955114Y674600D01*
X955110Y674494D01*
X955110Y674388D01*
X955114Y674282D01*
X955122Y674177D01*
X955134Y674071D01*
X955150Y673967D01*
X955169Y673863D01*
X955192Y673759D01*
X955219Y673657D01*
X955250Y673556D01*
X955285Y673456D01*
X955323Y673357D01*
X955365Y673260D01*
X955410Y673164D01*
X955459Y673070D01*
X955512Y672978D01*
X955567Y672888D01*
X955626Y672800D01*
X955689Y672714D01*
X955754Y672631D01*
X955822Y672550D01*
X955894Y672472D01*
X955968Y672397D01*
X956045Y672324D01*
X956124Y672254D01*
X956206Y672187D01*
X956291Y672123D01*
X956378Y672063D01*
X956467Y672005D01*
X956558Y671951D01*
X956651Y671900D01*
X956746Y671853D01*
X956842Y671810D01*
X956940Y671769D01*
X957039Y671733D01*
X957140Y671700D01*
X957242Y671671D01*
X957345Y671646D01*
X957449Y671625D01*
X957553Y671607D01*
X957658Y671594D01*
X957763Y671584D01*
X957869Y671578D01*
X957975Y671576D01*
X961658Y671576D01*
X961658Y678942D01*
X961656Y679038D01*
X961650Y679135D01*
X961641Y679231D01*
X961628Y679326D01*
X961611Y679421D01*
X961590Y679515D01*
X961566Y679608D01*
X961538Y679701D01*
X961506Y679792D01*
X961471Y679881D01*
X961432Y679970D01*
X961390Y680057D01*
X961345Y680142D01*
X961296Y680225D01*
X961244Y680306D01*
X961189Y680385D01*
X961131Y680462D01*
X961070Y680536D01*
X961006Y680608D01*
X960939Y680678D01*
X960869Y680745D01*
X960797Y680809D01*
X960723Y680870D01*
X960646Y680928D01*
X960567Y680983D01*
X960486Y681035D01*
X960403Y681084D01*
X960318Y681129D01*
X960231Y681171D01*
X960142Y681210D01*
X960053Y681245D01*
X959962Y681277D01*
X959869Y681305D01*
X959776Y681329D01*
X959682Y681350D01*
X959587Y681367D01*
X959492Y681380D01*
X959396Y681389D01*
X959299Y681395D01*
X959203Y681397D01*
X955929Y681397D01*
X969422Y681397D02*
X969422Y671576D01*
X969422Y681397D02*
X976788Y681397D01*
X976884Y681395D01*
X976981Y681389D01*
X977077Y681380D01*
X977172Y681367D01*
X977267Y681350D01*
X977361Y681329D01*
X977454Y681305D01*
X977547Y681277D01*
X977638Y681245D01*
X977727Y681210D01*
X977816Y681171D01*
X977903Y681129D01*
X977988Y681084D01*
X978071Y681035D01*
X978152Y680983D01*
X978231Y680928D01*
X978308Y680870D01*
X978382Y680809D01*
X978454Y680745D01*
X978524Y680678D01*
X978591Y680608D01*
X978655Y680536D01*
X978716Y680462D01*
X978774Y680385D01*
X978829Y680306D01*
X978881Y680225D01*
X978930Y680142D01*
X978975Y680057D01*
X979017Y679970D01*
X979056Y679881D01*
X979091Y679792D01*
X979123Y679701D01*
X979151Y679608D01*
X979175Y679515D01*
X979196Y679421D01*
X979213Y679326D01*
X979226Y679231D01*
X979235Y679135D01*
X979241Y679038D01*
X979243Y678942D01*
X979243Y671576D01*
X974332Y671576D02*
X974332Y681397D01*
X988875Y671576D02*
X992967Y671576D01*
X988875Y671576D02*
X988779Y671578D01*
X988682Y671584D01*
X988586Y671593D01*
X988491Y671606D01*
X988396Y671623D01*
X988302Y671644D01*
X988209Y671668D01*
X988116Y671696D01*
X988025Y671728D01*
X987936Y671763D01*
X987847Y671802D01*
X987760Y671844D01*
X987675Y671889D01*
X987592Y671938D01*
X987511Y671990D01*
X987432Y672045D01*
X987355Y672103D01*
X987281Y672164D01*
X987209Y672228D01*
X987139Y672295D01*
X987072Y672365D01*
X987008Y672437D01*
X986947Y672511D01*
X986889Y672588D01*
X986834Y672667D01*
X986782Y672748D01*
X986733Y672831D01*
X986688Y672916D01*
X986646Y673003D01*
X986607Y673092D01*
X986572Y673181D01*
X986540Y673272D01*
X986512Y673365D01*
X986488Y673458D01*
X986467Y673552D01*
X986450Y673647D01*
X986437Y673742D01*
X986428Y673838D01*
X986422Y673935D01*
X986420Y674031D01*
X986420Y678124D01*
X986419Y678124D02*
X986421Y678237D01*
X986427Y678350D01*
X986437Y678462D01*
X986450Y678575D01*
X986468Y678686D01*
X986489Y678797D01*
X986514Y678908D01*
X986543Y679017D01*
X986576Y679125D01*
X986612Y679232D01*
X986652Y679338D01*
X986696Y679442D01*
X986743Y679545D01*
X986794Y679646D01*
X986848Y679745D01*
X986906Y679842D01*
X986967Y679937D01*
X987031Y680030D01*
X987098Y680121D01*
X987169Y680209D01*
X987242Y680295D01*
X987319Y680378D01*
X987398Y680459D01*
X987480Y680537D01*
X987565Y680612D01*
X987652Y680684D01*
X987741Y680753D01*
X987833Y680818D01*
X987927Y680881D01*
X988023Y680940D01*
X988122Y680996D01*
X988222Y681049D01*
X988324Y681098D01*
X988427Y681143D01*
X988532Y681185D01*
X988638Y681223D01*
X988746Y681258D01*
X988855Y681289D01*
X988964Y681316D01*
X989075Y681339D01*
X989186Y681359D01*
X989298Y681374D01*
X989411Y681386D01*
X989524Y681394D01*
X989636Y681398D01*
X989750Y681398D01*
X989862Y681394D01*
X989975Y681386D01*
X990088Y681374D01*
X990200Y681359D01*
X990311Y681339D01*
X990422Y681316D01*
X990531Y681289D01*
X990640Y681258D01*
X990748Y681223D01*
X990854Y681185D01*
X990959Y681143D01*
X991062Y681098D01*
X991164Y681049D01*
X991264Y680996D01*
X991363Y680940D01*
X991459Y680881D01*
X991553Y680818D01*
X991645Y680753D01*
X991734Y680684D01*
X991821Y680612D01*
X991906Y680537D01*
X991988Y680459D01*
X992067Y680378D01*
X992144Y680295D01*
X992217Y680209D01*
X992288Y680121D01*
X992355Y680030D01*
X992419Y679937D01*
X992480Y679842D01*
X992538Y679745D01*
X992592Y679646D01*
X992643Y679545D01*
X992690Y679442D01*
X992734Y679338D01*
X992774Y679232D01*
X992810Y679125D01*
X992843Y679017D01*
X992872Y678908D01*
X992897Y678797D01*
X992918Y678686D01*
X992936Y678575D01*
X992949Y678462D01*
X992959Y678350D01*
X992965Y678237D01*
X992967Y678124D01*
X992967Y676487D01*
X986420Y676487D01*
X855105Y642366D02*
X848106Y642366D01*
X848106Y658114D01*
X855105Y658114D01*
X853355Y651115D02*
X848106Y651115D01*
X861617Y658114D02*
X861617Y642366D01*
X870366Y642366D02*
X861617Y658114D01*
X870366Y658114D02*
X870366Y642366D01*
X884415Y651115D02*
X887039Y651115D01*
X887039Y642366D01*
X881790Y642366D01*
X881673Y642368D01*
X881556Y642374D01*
X881440Y642384D01*
X881323Y642397D01*
X881208Y642415D01*
X881093Y642436D01*
X880979Y642461D01*
X880865Y642490D01*
X880753Y642523D01*
X880642Y642560D01*
X880532Y642600D01*
X880424Y642644D01*
X880317Y642691D01*
X880211Y642742D01*
X880108Y642797D01*
X880006Y642855D01*
X879907Y642916D01*
X879809Y642980D01*
X879714Y643048D01*
X879621Y643119D01*
X879530Y643193D01*
X879442Y643270D01*
X879357Y643350D01*
X879274Y643433D01*
X879194Y643518D01*
X879117Y643606D01*
X879043Y643697D01*
X878972Y643790D01*
X878904Y643885D01*
X878840Y643983D01*
X878779Y644082D01*
X878721Y644184D01*
X878666Y644287D01*
X878615Y644393D01*
X878568Y644500D01*
X878524Y644608D01*
X878484Y644718D01*
X878447Y644829D01*
X878414Y644941D01*
X878385Y645055D01*
X878360Y645169D01*
X878339Y645284D01*
X878321Y645399D01*
X878308Y645516D01*
X878298Y645632D01*
X878292Y645749D01*
X878290Y645866D01*
X878291Y645866D02*
X878291Y654614D01*
X878290Y654614D02*
X878292Y654731D01*
X878298Y654848D01*
X878308Y654964D01*
X878321Y655081D01*
X878339Y655196D01*
X878360Y655311D01*
X878385Y655425D01*
X878414Y655539D01*
X878447Y655651D01*
X878484Y655762D01*
X878524Y655872D01*
X878568Y655980D01*
X878615Y656087D01*
X878666Y656193D01*
X878721Y656296D01*
X878779Y656398D01*
X878840Y656497D01*
X878904Y656595D01*
X878972Y656690D01*
X879043Y656783D01*
X879117Y656874D01*
X879194Y656962D01*
X879274Y657047D01*
X879357Y657130D01*
X879442Y657210D01*
X879530Y657287D01*
X879621Y657361D01*
X879714Y657432D01*
X879809Y657500D01*
X879907Y657564D01*
X880006Y657625D01*
X880108Y657683D01*
X880211Y657738D01*
X880317Y657789D01*
X880424Y657836D01*
X880532Y657880D01*
X880642Y657920D01*
X880753Y657957D01*
X880865Y657990D01*
X880979Y658019D01*
X881093Y658044D01*
X881208Y658065D01*
X881323Y658083D01*
X881440Y658096D01*
X881556Y658106D01*
X881673Y658112D01*
X881790Y658114D01*
X887039Y658114D01*
X895691Y658114D02*
X895691Y642366D01*
X893941Y642366D02*
X897441Y642366D01*
X897441Y658114D02*
X893941Y658114D01*
X903822Y642366D02*
X908196Y642366D01*
X908327Y642368D01*
X908458Y642374D01*
X908588Y642384D01*
X908718Y642397D01*
X908848Y642415D01*
X908977Y642436D01*
X909105Y642462D01*
X909233Y642491D01*
X909360Y642524D01*
X909485Y642560D01*
X909610Y642601D01*
X909733Y642645D01*
X909855Y642693D01*
X909975Y642744D01*
X910094Y642799D01*
X910211Y642858D01*
X910326Y642920D01*
X910439Y642985D01*
X910551Y643054D01*
X910660Y643126D01*
X910767Y643201D01*
X910872Y643280D01*
X910974Y643361D01*
X911074Y643446D01*
X911171Y643534D01*
X911266Y643624D01*
X911358Y643717D01*
X911447Y643813D01*
X911533Y643912D01*
X911616Y644013D01*
X911696Y644116D01*
X911773Y644222D01*
X911846Y644330D01*
X911917Y644441D01*
X911984Y644553D01*
X912048Y644667D01*
X912108Y644783D01*
X912165Y644901D01*
X912218Y645021D01*
X912268Y645142D01*
X912314Y645265D01*
X912356Y645388D01*
X912394Y645513D01*
X912429Y645640D01*
X912460Y645767D01*
X912488Y645895D01*
X912511Y646023D01*
X912530Y646153D01*
X912546Y646283D01*
X912558Y646413D01*
X912566Y646544D01*
X912570Y646675D01*
X912570Y646805D01*
X912566Y646936D01*
X912558Y647067D01*
X912546Y647197D01*
X912530Y647327D01*
X912511Y647457D01*
X912488Y647585D01*
X912460Y647713D01*
X912429Y647840D01*
X912394Y647967D01*
X912356Y648092D01*
X912314Y648215D01*
X912268Y648338D01*
X912218Y648459D01*
X912165Y648579D01*
X912108Y648697D01*
X912048Y648813D01*
X911984Y648927D01*
X911917Y649039D01*
X911846Y649150D01*
X911773Y649258D01*
X911696Y649364D01*
X911616Y649467D01*
X911533Y649568D01*
X911447Y649667D01*
X911358Y649763D01*
X911266Y649856D01*
X911171Y649946D01*
X911074Y650034D01*
X910974Y650119D01*
X910872Y650200D01*
X910767Y650279D01*
X910660Y650354D01*
X910551Y650426D01*
X910439Y650495D01*
X910326Y650560D01*
X910211Y650622D01*
X910094Y650681D01*
X909975Y650736D01*
X909855Y650787D01*
X909733Y650835D01*
X909610Y650879D01*
X909485Y650920D01*
X909360Y650956D01*
X909233Y650989D01*
X909105Y651018D01*
X908977Y651044D01*
X908848Y651065D01*
X908718Y651083D01*
X908588Y651096D01*
X908458Y651106D01*
X908327Y651112D01*
X908196Y651114D01*
X909071Y658114D02*
X903822Y658114D01*
X909071Y658114D02*
X909189Y658112D01*
X909307Y658106D01*
X909425Y658096D01*
X909542Y658082D01*
X909659Y658064D01*
X909776Y658042D01*
X909891Y658017D01*
X910005Y657987D01*
X910119Y657953D01*
X910231Y657916D01*
X910342Y657875D01*
X910451Y657830D01*
X910559Y657782D01*
X910665Y657730D01*
X910770Y657674D01*
X910872Y657615D01*
X910972Y657553D01*
X911070Y657487D01*
X911166Y657418D01*
X911260Y657345D01*
X911351Y657270D01*
X911439Y657191D01*
X911525Y657110D01*
X911608Y657025D01*
X911688Y656938D01*
X911765Y656849D01*
X911839Y656756D01*
X911909Y656662D01*
X911977Y656565D01*
X912041Y656465D01*
X912102Y656364D01*
X912159Y656261D01*
X912213Y656155D01*
X912264Y656048D01*
X912310Y655940D01*
X912353Y655830D01*
X912392Y655718D01*
X912428Y655605D01*
X912459Y655491D01*
X912487Y655376D01*
X912511Y655261D01*
X912531Y655144D01*
X912547Y655027D01*
X912559Y654909D01*
X912567Y654791D01*
X912571Y654673D01*
X912571Y654555D01*
X912567Y654437D01*
X912559Y654319D01*
X912547Y654201D01*
X912531Y654084D01*
X912511Y653967D01*
X912487Y653852D01*
X912459Y653737D01*
X912428Y653623D01*
X912392Y653510D01*
X912353Y653398D01*
X912310Y653288D01*
X912264Y653180D01*
X912213Y653073D01*
X912159Y652967D01*
X912102Y652864D01*
X912041Y652763D01*
X911977Y652663D01*
X911909Y652566D01*
X911839Y652472D01*
X911765Y652379D01*
X911688Y652290D01*
X911608Y652203D01*
X911525Y652118D01*
X911439Y652037D01*
X911351Y651958D01*
X911260Y651883D01*
X911166Y651810D01*
X911070Y651741D01*
X910972Y651675D01*
X910872Y651613D01*
X910770Y651554D01*
X910665Y651498D01*
X910559Y651446D01*
X910451Y651398D01*
X910342Y651353D01*
X910231Y651312D01*
X910119Y651275D01*
X910005Y651241D01*
X909891Y651211D01*
X909776Y651186D01*
X909659Y651164D01*
X909542Y651146D01*
X909425Y651132D01*
X909307Y651122D01*
X909189Y651116D01*
X909071Y651114D01*
X909071Y651115D02*
X905571Y651115D01*
X919452Y650240D02*
X919456Y650550D01*
X919467Y650859D01*
X919485Y651169D01*
X919511Y651477D01*
X919544Y651785D01*
X919585Y652093D01*
X919633Y652399D01*
X919688Y652704D01*
X919750Y653007D01*
X919820Y653309D01*
X919897Y653609D01*
X919981Y653907D01*
X920072Y654203D01*
X920170Y654497D01*
X920275Y654789D01*
X920387Y655078D01*
X920506Y655364D01*
X920632Y655647D01*
X920764Y655927D01*
X920765Y655927D02*
X920803Y656032D01*
X920845Y656135D01*
X920890Y656237D01*
X920938Y656338D01*
X920990Y656436D01*
X921046Y656533D01*
X921104Y656628D01*
X921166Y656721D01*
X921231Y656811D01*
X921300Y656899D01*
X921371Y656985D01*
X921445Y657069D01*
X921522Y657149D01*
X921601Y657228D01*
X921684Y657303D01*
X921769Y657375D01*
X921856Y657445D01*
X921946Y657511D01*
X922037Y657574D01*
X922131Y657634D01*
X922227Y657691D01*
X922325Y657745D01*
X922425Y657795D01*
X922526Y657841D01*
X922629Y657884D01*
X922734Y657924D01*
X922839Y657960D01*
X922946Y657992D01*
X923054Y658020D01*
X923163Y658045D01*
X923272Y658066D01*
X923382Y658083D01*
X923493Y658097D01*
X923604Y658106D01*
X923715Y658112D01*
X923827Y658114D01*
X923939Y658112D01*
X924050Y658106D01*
X924161Y658097D01*
X924272Y658083D01*
X924382Y658066D01*
X924492Y658045D01*
X924600Y658020D01*
X924708Y657992D01*
X924815Y657960D01*
X924920Y657924D01*
X925025Y657884D01*
X925128Y657841D01*
X925229Y657795D01*
X925329Y657745D01*
X925427Y657691D01*
X925523Y657634D01*
X925617Y657574D01*
X925708Y657511D01*
X925798Y657445D01*
X925885Y657375D01*
X925970Y657303D01*
X926053Y657228D01*
X926132Y657149D01*
X926209Y657069D01*
X926283Y656985D01*
X926354Y656899D01*
X926423Y656811D01*
X926488Y656721D01*
X926550Y656628D01*
X926608Y656533D01*
X926664Y656436D01*
X926716Y656338D01*
X926764Y656237D01*
X926809Y656135D01*
X926851Y656032D01*
X926889Y655927D01*
X927021Y655647D01*
X927147Y655363D01*
X927266Y655077D01*
X927378Y654788D01*
X927483Y654497D01*
X927581Y654203D01*
X927672Y653907D01*
X927756Y653609D01*
X927833Y653309D01*
X927903Y653007D01*
X927965Y652703D01*
X928020Y652399D01*
X928068Y652093D01*
X928109Y651785D01*
X928142Y651477D01*
X928168Y651169D01*
X928186Y650859D01*
X928197Y650550D01*
X928201Y650240D01*
X919453Y650240D02*
X919457Y649930D01*
X919468Y649621D01*
X919486Y649311D01*
X919512Y649003D01*
X919545Y648695D01*
X919586Y648387D01*
X919634Y648081D01*
X919689Y647776D01*
X919751Y647473D01*
X919821Y647171D01*
X919898Y646871D01*
X919982Y646573D01*
X920073Y646277D01*
X920171Y645983D01*
X920276Y645691D01*
X920388Y645402D01*
X920507Y645116D01*
X920633Y644833D01*
X920765Y644553D01*
X920803Y644448D01*
X920845Y644345D01*
X920890Y644243D01*
X920938Y644142D01*
X920990Y644044D01*
X921046Y643947D01*
X921104Y643852D01*
X921166Y643759D01*
X921231Y643669D01*
X921300Y643581D01*
X921371Y643495D01*
X921445Y643411D01*
X921522Y643331D01*
X921601Y643252D01*
X921684Y643177D01*
X921769Y643105D01*
X921856Y643035D01*
X921946Y642969D01*
X922037Y642906D01*
X922131Y642846D01*
X922227Y642789D01*
X922325Y642735D01*
X922425Y642685D01*
X922526Y642639D01*
X922629Y642596D01*
X922734Y642556D01*
X922839Y642520D01*
X922946Y642488D01*
X923054Y642460D01*
X923163Y642435D01*
X923272Y642414D01*
X923382Y642397D01*
X923493Y642383D01*
X923604Y642374D01*
X923715Y642368D01*
X923827Y642366D01*
X926890Y644553D02*
X927022Y644833D01*
X927148Y645116D01*
X927267Y645402D01*
X927379Y645691D01*
X927484Y645983D01*
X927582Y646277D01*
X927673Y646573D01*
X927757Y646871D01*
X927834Y647171D01*
X927904Y647473D01*
X927966Y647776D01*
X928021Y648081D01*
X928069Y648387D01*
X928110Y648695D01*
X928143Y649003D01*
X928169Y649311D01*
X928187Y649621D01*
X928198Y649930D01*
X928202Y650240D01*
X926889Y644553D02*
X926851Y644448D01*
X926809Y644345D01*
X926764Y644243D01*
X926716Y644142D01*
X926664Y644044D01*
X926608Y643947D01*
X926550Y643852D01*
X926488Y643759D01*
X926423Y643669D01*
X926354Y643581D01*
X926283Y643495D01*
X926209Y643411D01*
X926132Y643331D01*
X926053Y643252D01*
X925970Y643177D01*
X925885Y643105D01*
X925798Y643035D01*
X925708Y642969D01*
X925617Y642906D01*
X925523Y642846D01*
X925427Y642789D01*
X925329Y642735D01*
X925229Y642685D01*
X925128Y642639D01*
X925025Y642596D01*
X924920Y642556D01*
X924815Y642520D01*
X924708Y642488D01*
X924600Y642460D01*
X924491Y642435D01*
X924382Y642414D01*
X924272Y642397D01*
X924161Y642383D01*
X924050Y642374D01*
X923939Y642368D01*
X923827Y642366D01*
X920328Y645866D02*
X927327Y654614D01*
X935084Y654614D02*
X939458Y658114D01*
X939458Y642366D01*
X935084Y642366D02*
X943833Y642366D01*
X843026Y632714D02*
X843026Y616966D01*
X843026Y632714D02*
X847400Y632714D01*
X847531Y632712D01*
X847662Y632706D01*
X847792Y632696D01*
X847922Y632683D01*
X848052Y632665D01*
X848181Y632644D01*
X848309Y632618D01*
X848437Y632589D01*
X848564Y632556D01*
X848689Y632520D01*
X848814Y632479D01*
X848937Y632435D01*
X849059Y632387D01*
X849179Y632336D01*
X849298Y632281D01*
X849415Y632222D01*
X849530Y632160D01*
X849643Y632095D01*
X849755Y632026D01*
X849864Y631954D01*
X849971Y631879D01*
X850076Y631800D01*
X850178Y631719D01*
X850278Y631634D01*
X850375Y631546D01*
X850470Y631456D01*
X850562Y631363D01*
X850651Y631267D01*
X850737Y631168D01*
X850820Y631067D01*
X850900Y630964D01*
X850977Y630858D01*
X851050Y630750D01*
X851121Y630639D01*
X851188Y630527D01*
X851252Y630413D01*
X851312Y630297D01*
X851369Y630179D01*
X851422Y630059D01*
X851472Y629938D01*
X851518Y629815D01*
X851560Y629692D01*
X851598Y629567D01*
X851633Y629440D01*
X851664Y629313D01*
X851692Y629185D01*
X851715Y629057D01*
X851734Y628927D01*
X851750Y628797D01*
X851762Y628667D01*
X851770Y628536D01*
X851774Y628405D01*
X851774Y628275D01*
X851770Y628144D01*
X851762Y628013D01*
X851750Y627883D01*
X851734Y627753D01*
X851715Y627623D01*
X851692Y627495D01*
X851664Y627367D01*
X851633Y627240D01*
X851598Y627113D01*
X851560Y626988D01*
X851518Y626865D01*
X851472Y626742D01*
X851422Y626621D01*
X851369Y626501D01*
X851312Y626383D01*
X851252Y626267D01*
X851188Y626153D01*
X851121Y626041D01*
X851050Y625930D01*
X850977Y625822D01*
X850900Y625716D01*
X850820Y625613D01*
X850737Y625512D01*
X850651Y625413D01*
X850562Y625317D01*
X850470Y625224D01*
X850375Y625134D01*
X850278Y625046D01*
X850178Y624961D01*
X850076Y624880D01*
X849971Y624801D01*
X849864Y624726D01*
X849755Y624654D01*
X849643Y624585D01*
X849530Y624520D01*
X849415Y624458D01*
X849298Y624399D01*
X849179Y624344D01*
X849059Y624293D01*
X848937Y624245D01*
X848814Y624201D01*
X848689Y624160D01*
X848564Y624124D01*
X848437Y624091D01*
X848309Y624062D01*
X848181Y624036D01*
X848052Y624015D01*
X847922Y623997D01*
X847792Y623984D01*
X847662Y623974D01*
X847531Y623968D01*
X847400Y623966D01*
X847400Y623965D02*
X843026Y623965D01*
X848275Y623965D02*
X851775Y616966D01*
X861005Y616966D02*
X865379Y616966D01*
X861005Y616966D02*
X860904Y616968D01*
X860804Y616974D01*
X860704Y616983D01*
X860604Y616997D01*
X860505Y617014D01*
X860407Y617035D01*
X860309Y617060D01*
X860213Y617088D01*
X860118Y617121D01*
X860024Y617156D01*
X859931Y617196D01*
X859840Y617239D01*
X859751Y617285D01*
X859664Y617335D01*
X859578Y617388D01*
X859495Y617444D01*
X859414Y617503D01*
X859335Y617566D01*
X859259Y617631D01*
X859185Y617700D01*
X859114Y617771D01*
X859045Y617845D01*
X858980Y617921D01*
X858917Y618000D01*
X858858Y618081D01*
X858802Y618164D01*
X858749Y618250D01*
X858699Y618337D01*
X858653Y618426D01*
X858610Y618517D01*
X858570Y618610D01*
X858535Y618704D01*
X858502Y618799D01*
X858474Y618895D01*
X858449Y618993D01*
X858428Y619091D01*
X858411Y619190D01*
X858397Y619290D01*
X858388Y619390D01*
X858382Y619490D01*
X858380Y619591D01*
X858380Y623965D01*
X858379Y623965D02*
X858381Y624083D01*
X858387Y624201D01*
X858397Y624319D01*
X858411Y624436D01*
X858429Y624553D01*
X858451Y624670D01*
X858476Y624785D01*
X858506Y624899D01*
X858540Y625013D01*
X858577Y625125D01*
X858618Y625236D01*
X858663Y625345D01*
X858711Y625453D01*
X858763Y625559D01*
X858819Y625664D01*
X858878Y625766D01*
X858940Y625866D01*
X859006Y625964D01*
X859075Y626060D01*
X859148Y626154D01*
X859223Y626245D01*
X859302Y626333D01*
X859383Y626419D01*
X859468Y626502D01*
X859555Y626582D01*
X859644Y626659D01*
X859737Y626733D01*
X859831Y626803D01*
X859928Y626871D01*
X860028Y626935D01*
X860129Y626996D01*
X860232Y627053D01*
X860338Y627107D01*
X860445Y627158D01*
X860553Y627204D01*
X860663Y627247D01*
X860775Y627286D01*
X860888Y627322D01*
X861002Y627353D01*
X861117Y627381D01*
X861232Y627405D01*
X861349Y627425D01*
X861466Y627441D01*
X861584Y627453D01*
X861702Y627461D01*
X861820Y627465D01*
X861938Y627465D01*
X862056Y627461D01*
X862174Y627453D01*
X862292Y627441D01*
X862409Y627425D01*
X862526Y627405D01*
X862641Y627381D01*
X862756Y627353D01*
X862870Y627322D01*
X862983Y627286D01*
X863095Y627247D01*
X863205Y627204D01*
X863313Y627158D01*
X863420Y627107D01*
X863526Y627053D01*
X863629Y626996D01*
X863730Y626935D01*
X863830Y626871D01*
X863927Y626803D01*
X864021Y626733D01*
X864114Y626659D01*
X864203Y626582D01*
X864290Y626502D01*
X864375Y626419D01*
X864456Y626333D01*
X864535Y626245D01*
X864610Y626154D01*
X864683Y626060D01*
X864752Y625964D01*
X864818Y625866D01*
X864880Y625766D01*
X864939Y625664D01*
X864995Y625559D01*
X865047Y625453D01*
X865095Y625345D01*
X865140Y625236D01*
X865181Y625125D01*
X865218Y625013D01*
X865252Y624899D01*
X865282Y624785D01*
X865307Y624670D01*
X865329Y624553D01*
X865347Y624436D01*
X865361Y624319D01*
X865371Y624201D01*
X865377Y624083D01*
X865379Y623965D01*
X865379Y622215D01*
X858380Y622215D01*
X871406Y627465D02*
X874905Y616966D01*
X878405Y627465D01*
X892936Y629214D02*
X897310Y632714D01*
X897310Y616966D01*
X892936Y616966D02*
X901685Y616966D01*
X907815Y616966D02*
X907815Y617841D01*
X908689Y617841D01*
X908689Y616966D01*
X907815Y616966D01*
X914819Y624840D02*
X914823Y625150D01*
X914834Y625459D01*
X914852Y625769D01*
X914878Y626077D01*
X914911Y626385D01*
X914952Y626693D01*
X915000Y626999D01*
X915055Y627304D01*
X915117Y627607D01*
X915187Y627909D01*
X915264Y628209D01*
X915348Y628507D01*
X915439Y628803D01*
X915537Y629097D01*
X915642Y629389D01*
X915754Y629678D01*
X915873Y629964D01*
X915999Y630247D01*
X916131Y630527D01*
X916132Y630527D02*
X916170Y630632D01*
X916212Y630735D01*
X916257Y630837D01*
X916305Y630938D01*
X916357Y631036D01*
X916413Y631133D01*
X916471Y631228D01*
X916533Y631321D01*
X916598Y631411D01*
X916667Y631499D01*
X916738Y631585D01*
X916812Y631669D01*
X916889Y631749D01*
X916968Y631828D01*
X917051Y631903D01*
X917136Y631975D01*
X917223Y632045D01*
X917313Y632111D01*
X917404Y632174D01*
X917498Y632234D01*
X917594Y632291D01*
X917692Y632345D01*
X917792Y632395D01*
X917893Y632441D01*
X917996Y632484D01*
X918101Y632524D01*
X918206Y632560D01*
X918313Y632592D01*
X918421Y632620D01*
X918530Y632645D01*
X918639Y632666D01*
X918749Y632683D01*
X918860Y632697D01*
X918971Y632706D01*
X919082Y632712D01*
X919194Y632714D01*
X919306Y632712D01*
X919417Y632706D01*
X919528Y632697D01*
X919639Y632683D01*
X919749Y632666D01*
X919859Y632645D01*
X919967Y632620D01*
X920075Y632592D01*
X920182Y632560D01*
X920287Y632524D01*
X920392Y632484D01*
X920495Y632441D01*
X920596Y632395D01*
X920696Y632345D01*
X920794Y632291D01*
X920890Y632234D01*
X920984Y632174D01*
X921075Y632111D01*
X921165Y632045D01*
X921252Y631975D01*
X921337Y631903D01*
X921420Y631828D01*
X921499Y631749D01*
X921576Y631669D01*
X921650Y631585D01*
X921721Y631499D01*
X921790Y631411D01*
X921855Y631321D01*
X921917Y631228D01*
X921975Y631133D01*
X922031Y631036D01*
X922083Y630938D01*
X922131Y630837D01*
X922176Y630735D01*
X922218Y630632D01*
X922256Y630527D01*
X922388Y630247D01*
X922514Y629963D01*
X922633Y629677D01*
X922745Y629388D01*
X922850Y629097D01*
X922948Y628803D01*
X923039Y628507D01*
X923123Y628209D01*
X923200Y627909D01*
X923270Y627607D01*
X923332Y627303D01*
X923387Y626999D01*
X923435Y626693D01*
X923476Y626385D01*
X923509Y626077D01*
X923535Y625769D01*
X923553Y625459D01*
X923564Y625150D01*
X923568Y624840D01*
X914819Y624840D02*
X914823Y624530D01*
X914834Y624221D01*
X914852Y623911D01*
X914878Y623603D01*
X914911Y623295D01*
X914952Y622987D01*
X915000Y622681D01*
X915055Y622376D01*
X915117Y622073D01*
X915187Y621771D01*
X915264Y621471D01*
X915348Y621173D01*
X915439Y620877D01*
X915537Y620583D01*
X915642Y620291D01*
X915754Y620002D01*
X915873Y619716D01*
X915999Y619433D01*
X916131Y619153D01*
X916132Y619153D02*
X916170Y619048D01*
X916212Y618945D01*
X916257Y618843D01*
X916305Y618742D01*
X916357Y618644D01*
X916413Y618547D01*
X916471Y618452D01*
X916533Y618359D01*
X916598Y618269D01*
X916667Y618181D01*
X916738Y618095D01*
X916812Y618011D01*
X916889Y617931D01*
X916968Y617852D01*
X917051Y617777D01*
X917136Y617705D01*
X917223Y617635D01*
X917313Y617569D01*
X917404Y617506D01*
X917498Y617446D01*
X917594Y617389D01*
X917692Y617335D01*
X917792Y617285D01*
X917893Y617239D01*
X917996Y617196D01*
X918101Y617156D01*
X918206Y617120D01*
X918313Y617088D01*
X918421Y617060D01*
X918530Y617035D01*
X918639Y617014D01*
X918749Y616997D01*
X918860Y616983D01*
X918971Y616974D01*
X919082Y616968D01*
X919194Y616966D01*
X922257Y619153D02*
X922389Y619433D01*
X922515Y619716D01*
X922634Y620002D01*
X922746Y620291D01*
X922851Y620583D01*
X922949Y620877D01*
X923040Y621173D01*
X923124Y621471D01*
X923201Y621771D01*
X923271Y622073D01*
X923333Y622376D01*
X923388Y622681D01*
X923436Y622987D01*
X923477Y623295D01*
X923510Y623603D01*
X923536Y623911D01*
X923554Y624221D01*
X923565Y624530D01*
X923569Y624840D01*
X922256Y619153D02*
X922218Y619048D01*
X922176Y618945D01*
X922131Y618843D01*
X922083Y618742D01*
X922031Y618644D01*
X921975Y618547D01*
X921917Y618452D01*
X921855Y618359D01*
X921790Y618269D01*
X921721Y618181D01*
X921650Y618095D01*
X921576Y618011D01*
X921499Y617931D01*
X921420Y617852D01*
X921337Y617777D01*
X921252Y617705D01*
X921165Y617635D01*
X921075Y617569D01*
X920984Y617506D01*
X920890Y617446D01*
X920794Y617389D01*
X920696Y617335D01*
X920596Y617285D01*
X920495Y617239D01*
X920392Y617196D01*
X920287Y617156D01*
X920182Y617120D01*
X920075Y617088D01*
X919967Y617060D01*
X919858Y617035D01*
X919749Y617014D01*
X919639Y616997D01*
X919528Y616983D01*
X919417Y616974D01*
X919306Y616968D01*
X919194Y616966D01*
X915694Y620466D02*
X922693Y629214D01*
X849376Y750316D02*
X849376Y766064D01*
X853750Y766064D01*
X853880Y766062D01*
X854009Y766056D01*
X854138Y766047D01*
X854267Y766033D01*
X854396Y766016D01*
X854524Y765995D01*
X854651Y765970D01*
X854777Y765942D01*
X854903Y765909D01*
X855027Y765873D01*
X855151Y765834D01*
X855273Y765790D01*
X855394Y765743D01*
X855513Y765693D01*
X855631Y765639D01*
X855747Y765581D01*
X855862Y765520D01*
X855974Y765456D01*
X856085Y765389D01*
X856194Y765318D01*
X856300Y765244D01*
X856404Y765167D01*
X856506Y765087D01*
X856605Y765003D01*
X856702Y764917D01*
X856797Y764828D01*
X856888Y764737D01*
X856977Y764642D01*
X857063Y764545D01*
X857147Y764446D01*
X857227Y764344D01*
X857304Y764240D01*
X857378Y764134D01*
X857449Y764025D01*
X857516Y763914D01*
X857580Y763802D01*
X857641Y763687D01*
X857699Y763571D01*
X857753Y763453D01*
X857803Y763334D01*
X857850Y763213D01*
X857894Y763091D01*
X857933Y762967D01*
X857969Y762843D01*
X858002Y762717D01*
X858030Y762591D01*
X858055Y762464D01*
X858076Y762336D01*
X858093Y762207D01*
X858107Y762078D01*
X858116Y761949D01*
X858122Y761820D01*
X858124Y761690D01*
X858125Y761690D02*
X858125Y754690D01*
X858124Y754690D02*
X858122Y754560D01*
X858116Y754431D01*
X858107Y754302D01*
X858093Y754173D01*
X858076Y754044D01*
X858055Y753916D01*
X858030Y753789D01*
X858002Y753663D01*
X857969Y753537D01*
X857933Y753413D01*
X857894Y753289D01*
X857850Y753167D01*
X857803Y753046D01*
X857753Y752927D01*
X857699Y752809D01*
X857641Y752693D01*
X857580Y752578D01*
X857516Y752466D01*
X857449Y752355D01*
X857378Y752246D01*
X857304Y752140D01*
X857227Y752036D01*
X857147Y751934D01*
X857063Y751835D01*
X856977Y751738D01*
X856888Y751643D01*
X856797Y751552D01*
X856702Y751463D01*
X856605Y751377D01*
X856506Y751293D01*
X856404Y751213D01*
X856300Y751136D01*
X856194Y751062D01*
X856085Y750991D01*
X855974Y750924D01*
X855862Y750860D01*
X855747Y750799D01*
X855631Y750741D01*
X855513Y750687D01*
X855394Y750637D01*
X855273Y750590D01*
X855151Y750546D01*
X855027Y750507D01*
X854903Y750471D01*
X854777Y750438D01*
X854651Y750410D01*
X854524Y750385D01*
X854396Y750364D01*
X854267Y750347D01*
X854138Y750333D01*
X854009Y750324D01*
X853880Y750318D01*
X853750Y750316D01*
X849376Y750316D01*
X867986Y750316D02*
X872360Y750316D01*
X867986Y750316D02*
X867885Y750318D01*
X867785Y750324D01*
X867685Y750333D01*
X867585Y750347D01*
X867486Y750364D01*
X867388Y750385D01*
X867290Y750410D01*
X867194Y750438D01*
X867099Y750471D01*
X867005Y750506D01*
X866912Y750546D01*
X866821Y750589D01*
X866732Y750635D01*
X866645Y750685D01*
X866559Y750738D01*
X866476Y750794D01*
X866395Y750853D01*
X866316Y750916D01*
X866240Y750981D01*
X866166Y751050D01*
X866095Y751121D01*
X866026Y751195D01*
X865961Y751271D01*
X865898Y751350D01*
X865839Y751431D01*
X865783Y751514D01*
X865730Y751600D01*
X865680Y751687D01*
X865634Y751776D01*
X865591Y751867D01*
X865551Y751960D01*
X865516Y752054D01*
X865483Y752149D01*
X865455Y752245D01*
X865430Y752343D01*
X865409Y752441D01*
X865392Y752540D01*
X865378Y752640D01*
X865369Y752740D01*
X865363Y752840D01*
X865361Y752941D01*
X865361Y757315D01*
X865363Y757433D01*
X865369Y757551D01*
X865379Y757669D01*
X865393Y757786D01*
X865411Y757903D01*
X865433Y758020D01*
X865458Y758135D01*
X865488Y758249D01*
X865522Y758363D01*
X865559Y758475D01*
X865600Y758586D01*
X865645Y758695D01*
X865693Y758803D01*
X865745Y758909D01*
X865801Y759014D01*
X865860Y759116D01*
X865922Y759216D01*
X865988Y759314D01*
X866057Y759410D01*
X866130Y759504D01*
X866205Y759595D01*
X866284Y759683D01*
X866365Y759769D01*
X866450Y759852D01*
X866537Y759932D01*
X866626Y760009D01*
X866719Y760083D01*
X866813Y760153D01*
X866910Y760221D01*
X867010Y760285D01*
X867111Y760346D01*
X867214Y760403D01*
X867320Y760457D01*
X867427Y760508D01*
X867535Y760554D01*
X867645Y760597D01*
X867757Y760636D01*
X867870Y760672D01*
X867984Y760703D01*
X868099Y760731D01*
X868214Y760755D01*
X868331Y760775D01*
X868448Y760791D01*
X868566Y760803D01*
X868684Y760811D01*
X868802Y760815D01*
X868920Y760815D01*
X869038Y760811D01*
X869156Y760803D01*
X869274Y760791D01*
X869391Y760775D01*
X869508Y760755D01*
X869623Y760731D01*
X869738Y760703D01*
X869852Y760672D01*
X869965Y760636D01*
X870077Y760597D01*
X870187Y760554D01*
X870295Y760508D01*
X870402Y760457D01*
X870508Y760403D01*
X870611Y760346D01*
X870712Y760285D01*
X870812Y760221D01*
X870909Y760153D01*
X871003Y760083D01*
X871096Y760009D01*
X871185Y759932D01*
X871272Y759852D01*
X871357Y759769D01*
X871438Y759683D01*
X871517Y759595D01*
X871592Y759504D01*
X871665Y759410D01*
X871734Y759314D01*
X871800Y759216D01*
X871862Y759116D01*
X871921Y759014D01*
X871977Y758909D01*
X872029Y758803D01*
X872077Y758695D01*
X872122Y758586D01*
X872163Y758475D01*
X872200Y758363D01*
X872234Y758249D01*
X872264Y758135D01*
X872289Y758020D01*
X872311Y757903D01*
X872329Y757786D01*
X872343Y757669D01*
X872353Y757551D01*
X872359Y757433D01*
X872361Y757315D01*
X872360Y757315D02*
X872360Y755565D01*
X865361Y755565D01*
X881533Y750316D02*
X885907Y750316D01*
X881533Y750316D02*
X881432Y750318D01*
X881332Y750324D01*
X881232Y750333D01*
X881132Y750347D01*
X881033Y750364D01*
X880935Y750385D01*
X880837Y750410D01*
X880741Y750438D01*
X880646Y750471D01*
X880552Y750506D01*
X880459Y750546D01*
X880368Y750589D01*
X880279Y750635D01*
X880192Y750685D01*
X880106Y750738D01*
X880023Y750794D01*
X879942Y750853D01*
X879863Y750916D01*
X879787Y750981D01*
X879713Y751050D01*
X879642Y751121D01*
X879573Y751195D01*
X879508Y751271D01*
X879445Y751350D01*
X879386Y751431D01*
X879330Y751514D01*
X879277Y751600D01*
X879227Y751687D01*
X879181Y751776D01*
X879138Y751867D01*
X879098Y751960D01*
X879063Y752054D01*
X879030Y752149D01*
X879002Y752245D01*
X878977Y752343D01*
X878956Y752441D01*
X878939Y752540D01*
X878925Y752640D01*
X878916Y752740D01*
X878910Y752840D01*
X878908Y752941D01*
X878908Y757315D01*
X878910Y757433D01*
X878916Y757551D01*
X878926Y757669D01*
X878940Y757786D01*
X878958Y757903D01*
X878980Y758020D01*
X879005Y758135D01*
X879035Y758249D01*
X879069Y758363D01*
X879106Y758475D01*
X879147Y758586D01*
X879192Y758695D01*
X879240Y758803D01*
X879292Y758909D01*
X879348Y759014D01*
X879407Y759116D01*
X879469Y759216D01*
X879535Y759314D01*
X879604Y759410D01*
X879677Y759504D01*
X879752Y759595D01*
X879831Y759683D01*
X879912Y759769D01*
X879997Y759852D01*
X880084Y759932D01*
X880173Y760009D01*
X880266Y760083D01*
X880360Y760153D01*
X880457Y760221D01*
X880557Y760285D01*
X880658Y760346D01*
X880761Y760403D01*
X880867Y760457D01*
X880974Y760508D01*
X881082Y760554D01*
X881192Y760597D01*
X881304Y760636D01*
X881417Y760672D01*
X881531Y760703D01*
X881646Y760731D01*
X881761Y760755D01*
X881878Y760775D01*
X881995Y760791D01*
X882113Y760803D01*
X882231Y760811D01*
X882349Y760815D01*
X882467Y760815D01*
X882585Y760811D01*
X882703Y760803D01*
X882821Y760791D01*
X882938Y760775D01*
X883055Y760755D01*
X883170Y760731D01*
X883285Y760703D01*
X883399Y760672D01*
X883512Y760636D01*
X883624Y760597D01*
X883734Y760554D01*
X883842Y760508D01*
X883949Y760457D01*
X884055Y760403D01*
X884158Y760346D01*
X884259Y760285D01*
X884359Y760221D01*
X884456Y760153D01*
X884550Y760083D01*
X884643Y760009D01*
X884732Y759932D01*
X884819Y759852D01*
X884904Y759769D01*
X884985Y759683D01*
X885064Y759595D01*
X885139Y759504D01*
X885212Y759410D01*
X885281Y759314D01*
X885347Y759216D01*
X885409Y759116D01*
X885468Y759014D01*
X885524Y758909D01*
X885576Y758803D01*
X885624Y758695D01*
X885669Y758586D01*
X885710Y758475D01*
X885747Y758363D01*
X885781Y758249D01*
X885811Y758135D01*
X885836Y758020D01*
X885858Y757903D01*
X885876Y757786D01*
X885890Y757669D01*
X885900Y757551D01*
X885906Y757433D01*
X885908Y757315D01*
X885907Y757315D02*
X885907Y755565D01*
X878908Y755565D01*
X893064Y760815D02*
X893064Y745067D01*
X893064Y760815D02*
X897439Y760815D01*
X897540Y760813D01*
X897640Y760807D01*
X897740Y760798D01*
X897840Y760784D01*
X897939Y760767D01*
X898037Y760746D01*
X898135Y760721D01*
X898231Y760693D01*
X898326Y760660D01*
X898420Y760625D01*
X898513Y760585D01*
X898604Y760542D01*
X898693Y760496D01*
X898780Y760446D01*
X898866Y760393D01*
X898949Y760337D01*
X899030Y760278D01*
X899109Y760215D01*
X899185Y760150D01*
X899259Y760081D01*
X899330Y760010D01*
X899399Y759936D01*
X899464Y759860D01*
X899527Y759781D01*
X899586Y759700D01*
X899642Y759617D01*
X899695Y759531D01*
X899745Y759444D01*
X899791Y759355D01*
X899834Y759264D01*
X899874Y759171D01*
X899909Y759077D01*
X899942Y758982D01*
X899970Y758886D01*
X899995Y758788D01*
X900016Y758690D01*
X900033Y758591D01*
X900047Y758491D01*
X900056Y758391D01*
X900062Y758291D01*
X900064Y758190D01*
X900063Y758190D02*
X900063Y752941D01*
X900064Y752941D02*
X900062Y752840D01*
X900056Y752740D01*
X900047Y752640D01*
X900033Y752540D01*
X900016Y752441D01*
X899995Y752343D01*
X899970Y752245D01*
X899942Y752149D01*
X899909Y752054D01*
X899874Y751960D01*
X899834Y751867D01*
X899791Y751776D01*
X899745Y751687D01*
X899695Y751600D01*
X899642Y751514D01*
X899586Y751431D01*
X899527Y751350D01*
X899464Y751271D01*
X899399Y751195D01*
X899330Y751121D01*
X899259Y751050D01*
X899185Y750981D01*
X899109Y750916D01*
X899030Y750853D01*
X898949Y750794D01*
X898866Y750738D01*
X898780Y750685D01*
X898693Y750635D01*
X898604Y750589D01*
X898513Y750546D01*
X898420Y750506D01*
X898326Y750471D01*
X898231Y750438D01*
X898135Y750410D01*
X898037Y750385D01*
X897939Y750364D01*
X897840Y750347D01*
X897740Y750333D01*
X897640Y750324D01*
X897540Y750318D01*
X897439Y750316D01*
X893064Y750316D01*
X911419Y750316D02*
X911536Y750318D01*
X911653Y750324D01*
X911769Y750334D01*
X911885Y750347D01*
X912001Y750365D01*
X912116Y750386D01*
X912230Y750411D01*
X912344Y750440D01*
X912456Y750473D01*
X912567Y750510D01*
X912677Y750550D01*
X912785Y750594D01*
X912892Y750641D01*
X912998Y750692D01*
X913101Y750747D01*
X913203Y750805D01*
X913302Y750866D01*
X913400Y750930D01*
X913495Y750998D01*
X913588Y751069D01*
X913679Y751143D01*
X913767Y751220D01*
X913852Y751300D01*
X913935Y751383D01*
X914015Y751468D01*
X914092Y751556D01*
X914166Y751647D01*
X914237Y751740D01*
X914305Y751835D01*
X914369Y751933D01*
X914430Y752032D01*
X914488Y752134D01*
X914543Y752237D01*
X914594Y752343D01*
X914641Y752450D01*
X914685Y752558D01*
X914725Y752668D01*
X914762Y752779D01*
X914795Y752891D01*
X914824Y753005D01*
X914849Y753119D01*
X914870Y753234D01*
X914888Y753349D01*
X914901Y753466D01*
X914911Y753582D01*
X914917Y753699D01*
X914919Y753816D01*
X911419Y750316D02*
X911242Y750318D01*
X911065Y750324D01*
X910889Y750335D01*
X910712Y750350D01*
X910537Y750369D01*
X910361Y750392D01*
X910187Y750419D01*
X910012Y750451D01*
X909839Y750487D01*
X909667Y750527D01*
X909496Y750571D01*
X909325Y750619D01*
X909156Y750671D01*
X908989Y750727D01*
X908822Y750787D01*
X908657Y750851D01*
X908494Y750919D01*
X908332Y750991D01*
X908173Y751067D01*
X908015Y751146D01*
X907859Y751230D01*
X907705Y751317D01*
X907553Y751407D01*
X907403Y751502D01*
X907256Y751600D01*
X907111Y751701D01*
X906968Y751806D01*
X906828Y751914D01*
X906691Y752025D01*
X906556Y752140D01*
X906425Y752258D01*
X906296Y752379D01*
X906170Y752503D01*
X906606Y762564D02*
X906608Y762681D01*
X906614Y762798D01*
X906624Y762914D01*
X906637Y763031D01*
X906655Y763146D01*
X906676Y763261D01*
X906701Y763375D01*
X906730Y763489D01*
X906763Y763601D01*
X906800Y763712D01*
X906840Y763822D01*
X906884Y763930D01*
X906931Y764037D01*
X906982Y764143D01*
X907037Y764246D01*
X907095Y764348D01*
X907156Y764447D01*
X907220Y764545D01*
X907288Y764640D01*
X907359Y764733D01*
X907433Y764824D01*
X907510Y764912D01*
X907590Y764997D01*
X907673Y765080D01*
X907758Y765160D01*
X907846Y765237D01*
X907937Y765311D01*
X908030Y765382D01*
X908125Y765450D01*
X908223Y765514D01*
X908322Y765575D01*
X908424Y765633D01*
X908527Y765688D01*
X908633Y765739D01*
X908740Y765786D01*
X908848Y765830D01*
X908958Y765870D01*
X909069Y765907D01*
X909181Y765940D01*
X909295Y765969D01*
X909409Y765994D01*
X909524Y766015D01*
X909639Y766033D01*
X909756Y766046D01*
X909872Y766056D01*
X909989Y766062D01*
X910106Y766064D01*
X910262Y766062D01*
X910419Y766057D01*
X910575Y766047D01*
X910731Y766034D01*
X910886Y766017D01*
X911041Y765997D01*
X911196Y765973D01*
X911350Y765945D01*
X911503Y765914D01*
X911655Y765879D01*
X911807Y765840D01*
X911957Y765797D01*
X912107Y765752D01*
X912255Y765702D01*
X912402Y765649D01*
X912548Y765593D01*
X912693Y765533D01*
X912836Y765469D01*
X912977Y765403D01*
X913117Y765333D01*
X913255Y765259D01*
X913391Y765182D01*
X913526Y765103D01*
X913658Y765019D01*
X913789Y764933D01*
X913917Y764844D01*
X914043Y764752D01*
X908357Y759502D02*
X908258Y759562D01*
X908162Y759626D01*
X908068Y759692D01*
X907976Y759761D01*
X907886Y759834D01*
X907798Y759909D01*
X907714Y759987D01*
X907631Y760068D01*
X907552Y760151D01*
X907475Y760237D01*
X907401Y760325D01*
X907329Y760416D01*
X907261Y760509D01*
X907196Y760604D01*
X907134Y760702D01*
X907075Y760801D01*
X907020Y760902D01*
X906967Y761005D01*
X906919Y761109D01*
X906873Y761215D01*
X906831Y761322D01*
X906792Y761431D01*
X906757Y761541D01*
X906726Y761652D01*
X906698Y761764D01*
X906674Y761876D01*
X906654Y761990D01*
X906637Y762104D01*
X906624Y762219D01*
X906614Y762334D01*
X906609Y762449D01*
X906607Y762564D01*
X913168Y756878D02*
X913267Y756818D01*
X913363Y756754D01*
X913457Y756688D01*
X913549Y756619D01*
X913639Y756546D01*
X913727Y756471D01*
X913811Y756393D01*
X913894Y756312D01*
X913973Y756229D01*
X914050Y756143D01*
X914124Y756055D01*
X914196Y755964D01*
X914264Y755871D01*
X914329Y755776D01*
X914391Y755678D01*
X914450Y755579D01*
X914505Y755478D01*
X914558Y755375D01*
X914607Y755271D01*
X914652Y755165D01*
X914694Y755058D01*
X914733Y754949D01*
X914768Y754839D01*
X914799Y754728D01*
X914827Y754616D01*
X914851Y754504D01*
X914871Y754390D01*
X914888Y754276D01*
X914901Y754161D01*
X914911Y754046D01*
X914916Y753931D01*
X914918Y753816D01*
X913168Y756878D02*
X908357Y759502D01*
D11*
X82550Y92710D02*
X81936Y92717D01*
X81323Y92740D01*
X80710Y92777D01*
X80099Y92829D01*
X79488Y92895D01*
X78880Y92977D01*
X78274Y93073D01*
X77670Y93183D01*
X77069Y93308D01*
X76471Y93448D01*
X75877Y93602D01*
X75287Y93771D01*
X74701Y93953D01*
X74120Y94150D01*
X73543Y94361D01*
X72972Y94585D01*
X72406Y94823D01*
X71846Y95075D01*
X71293Y95341D01*
X70746Y95619D01*
X70206Y95911D01*
X69673Y96216D01*
X69148Y96534D01*
X68630Y96864D01*
X68121Y97206D01*
X67620Y97561D01*
X67128Y97928D01*
X66645Y98306D01*
X66171Y98696D01*
X65707Y99098D01*
X65252Y99510D01*
X64808Y99934D01*
X64374Y100368D01*
X63950Y100812D01*
X63538Y101267D01*
X63136Y101731D01*
X62746Y102205D01*
X62368Y102688D01*
X62001Y103180D01*
X61646Y103681D01*
X61304Y104190D01*
X60974Y104708D01*
X60656Y105233D01*
X60351Y105766D01*
X60059Y106306D01*
X59781Y106853D01*
X59515Y107406D01*
X59263Y107966D01*
X59025Y108532D01*
X58801Y109103D01*
X58590Y109680D01*
X58393Y110261D01*
X58211Y110847D01*
X58042Y111437D01*
X57888Y112031D01*
X57748Y112629D01*
X57623Y113230D01*
X57513Y113834D01*
X57417Y114440D01*
X57335Y115048D01*
X57269Y115659D01*
X57217Y116270D01*
X57180Y116883D01*
X57157Y117496D01*
X57150Y118110D01*
X82550Y92710D02*
X298450Y92710D01*
X299064Y92717D01*
X299677Y92740D01*
X300290Y92777D01*
X300901Y92829D01*
X301512Y92895D01*
X302120Y92977D01*
X302726Y93073D01*
X303330Y93183D01*
X303931Y93308D01*
X304529Y93448D01*
X305123Y93602D01*
X305713Y93771D01*
X306299Y93953D01*
X306880Y94150D01*
X307457Y94361D01*
X308028Y94585D01*
X308594Y94823D01*
X309154Y95075D01*
X309707Y95341D01*
X310254Y95619D01*
X310794Y95911D01*
X311327Y96216D01*
X311852Y96534D01*
X312370Y96864D01*
X312879Y97206D01*
X313380Y97561D01*
X313872Y97928D01*
X314355Y98306D01*
X314829Y98696D01*
X315293Y99098D01*
X315748Y99510D01*
X316192Y99934D01*
X316626Y100368D01*
X317050Y100812D01*
X317462Y101267D01*
X317864Y101731D01*
X318254Y102205D01*
X318632Y102688D01*
X318999Y103180D01*
X319354Y103681D01*
X319696Y104190D01*
X320026Y104708D01*
X320344Y105233D01*
X320649Y105766D01*
X320941Y106306D01*
X321219Y106853D01*
X321485Y107406D01*
X321737Y107966D01*
X321975Y108532D01*
X322199Y109103D01*
X322410Y109680D01*
X322607Y110261D01*
X322789Y110847D01*
X322958Y111437D01*
X323112Y112031D01*
X323252Y112629D01*
X323377Y113230D01*
X323487Y113834D01*
X323583Y114440D01*
X323665Y115048D01*
X323731Y115659D01*
X323783Y116270D01*
X323820Y116883D01*
X323843Y117496D01*
X323850Y118110D01*
X323850Y567690D01*
X323843Y568304D01*
X323820Y568917D01*
X323783Y569530D01*
X323731Y570141D01*
X323665Y570752D01*
X323583Y571360D01*
X323487Y571966D01*
X323377Y572570D01*
X323252Y573171D01*
X323112Y573769D01*
X322958Y574363D01*
X322789Y574953D01*
X322607Y575539D01*
X322410Y576120D01*
X322199Y576697D01*
X321975Y577268D01*
X321737Y577834D01*
X321485Y578394D01*
X321219Y578947D01*
X320941Y579494D01*
X320649Y580034D01*
X320344Y580567D01*
X320026Y581092D01*
X319696Y581610D01*
X319354Y582119D01*
X318999Y582620D01*
X318632Y583112D01*
X318254Y583595D01*
X317864Y584069D01*
X317462Y584533D01*
X317050Y584988D01*
X316626Y585432D01*
X316192Y585866D01*
X315748Y586290D01*
X315293Y586702D01*
X314829Y587104D01*
X314355Y587494D01*
X313872Y587872D01*
X313380Y588239D01*
X312879Y588594D01*
X312370Y588936D01*
X311852Y589266D01*
X311327Y589584D01*
X310794Y589889D01*
X310254Y590181D01*
X309707Y590459D01*
X309154Y590725D01*
X308594Y590977D01*
X308028Y591215D01*
X307457Y591439D01*
X306880Y591650D01*
X306299Y591847D01*
X305713Y592029D01*
X305123Y592198D01*
X304529Y592352D01*
X303931Y592492D01*
X303330Y592617D01*
X302726Y592727D01*
X302120Y592823D01*
X301512Y592905D01*
X300901Y592971D01*
X300290Y593023D01*
X299677Y593060D01*
X299064Y593083D01*
X298450Y593090D01*
X82550Y593090D01*
X81936Y593083D01*
X81323Y593060D01*
X80710Y593023D01*
X80099Y592971D01*
X79488Y592905D01*
X78880Y592823D01*
X78274Y592727D01*
X77670Y592617D01*
X77069Y592492D01*
X76471Y592352D01*
X75877Y592198D01*
X75287Y592029D01*
X74701Y591847D01*
X74120Y591650D01*
X73543Y591439D01*
X72972Y591215D01*
X72406Y590977D01*
X71846Y590725D01*
X71293Y590459D01*
X70746Y590181D01*
X70206Y589889D01*
X69673Y589584D01*
X69148Y589266D01*
X68630Y588936D01*
X68121Y588594D01*
X67620Y588239D01*
X67128Y587872D01*
X66645Y587494D01*
X66171Y587104D01*
X65707Y586702D01*
X65252Y586290D01*
X64808Y585866D01*
X64374Y585432D01*
X63950Y584988D01*
X63538Y584533D01*
X63136Y584069D01*
X62746Y583595D01*
X62368Y583112D01*
X62001Y582620D01*
X61646Y582119D01*
X61304Y581610D01*
X60974Y581092D01*
X60656Y580567D01*
X60351Y580034D01*
X60059Y579494D01*
X59781Y578947D01*
X59515Y578394D01*
X59263Y577834D01*
X59025Y577268D01*
X58801Y576697D01*
X58590Y576120D01*
X58393Y575539D01*
X58211Y574953D01*
X58042Y574363D01*
X57888Y573769D01*
X57748Y573171D01*
X57623Y572570D01*
X57513Y571966D01*
X57417Y571360D01*
X57335Y570752D01*
X57269Y570141D01*
X57217Y569530D01*
X57180Y568917D01*
X57157Y568304D01*
X57150Y567690D01*
X57150Y118110D01*
D12*
X339725Y299791D02*
X339725Y301766D01*
X339725Y299791D02*
X339723Y299702D01*
X339717Y299614D01*
X339707Y299526D01*
X339693Y299438D01*
X339675Y299351D01*
X339654Y299265D01*
X339628Y299180D01*
X339599Y299097D01*
X339566Y299014D01*
X339529Y298934D01*
X339489Y298855D01*
X339445Y298778D01*
X339398Y298702D01*
X339348Y298630D01*
X339294Y298559D01*
X339237Y298491D01*
X339177Y298425D01*
X339115Y298363D01*
X339049Y298303D01*
X338981Y298246D01*
X338910Y298192D01*
X338838Y298142D01*
X338763Y298095D01*
X338685Y298051D01*
X338606Y298011D01*
X338526Y297974D01*
X338443Y297941D01*
X338360Y297912D01*
X338275Y297886D01*
X338189Y297865D01*
X338102Y297847D01*
X338014Y297833D01*
X337926Y297823D01*
X337838Y297817D01*
X337749Y297815D01*
X332811Y297815D01*
X332722Y297817D01*
X332634Y297823D01*
X332546Y297833D01*
X332458Y297847D01*
X332371Y297865D01*
X332285Y297886D01*
X332200Y297912D01*
X332117Y297941D01*
X332034Y297974D01*
X331954Y298011D01*
X331875Y298051D01*
X331798Y298095D01*
X331722Y298142D01*
X331650Y298192D01*
X331579Y298246D01*
X331511Y298303D01*
X331445Y298363D01*
X331383Y298425D01*
X331323Y298491D01*
X331266Y298559D01*
X331212Y298630D01*
X331162Y298702D01*
X331115Y298777D01*
X331071Y298855D01*
X331031Y298934D01*
X330994Y299014D01*
X330961Y299097D01*
X330932Y299180D01*
X330906Y299265D01*
X330885Y299351D01*
X330867Y299438D01*
X330853Y299526D01*
X330843Y299614D01*
X330837Y299702D01*
X330835Y299791D01*
X330835Y301766D01*
X330835Y323215D02*
X339725Y323215D01*
X330835Y323215D02*
X330835Y325684D01*
X330837Y325781D01*
X330843Y325878D01*
X330852Y325974D01*
X330865Y326070D01*
X330882Y326166D01*
X330903Y326260D01*
X330928Y326354D01*
X330956Y326447D01*
X330988Y326539D01*
X331023Y326629D01*
X331062Y326718D01*
X331104Y326805D01*
X331150Y326890D01*
X331199Y326974D01*
X331251Y327056D01*
X331307Y327135D01*
X331365Y327213D01*
X331427Y327287D01*
X331491Y327360D01*
X331558Y327430D01*
X331628Y327497D01*
X331701Y327561D01*
X331775Y327623D01*
X331853Y327681D01*
X331932Y327737D01*
X332014Y327789D01*
X332098Y327838D01*
X332183Y327884D01*
X332270Y327926D01*
X332359Y327965D01*
X332449Y328000D01*
X332541Y328032D01*
X332634Y328060D01*
X332728Y328085D01*
X332822Y328106D01*
X332918Y328123D01*
X333014Y328136D01*
X333110Y328145D01*
X333207Y328151D01*
X333304Y328153D01*
X333304Y328154D02*
X337256Y328154D01*
X337256Y328153D02*
X337353Y328151D01*
X337450Y328145D01*
X337546Y328136D01*
X337642Y328123D01*
X337738Y328106D01*
X337832Y328085D01*
X337926Y328060D01*
X338019Y328032D01*
X338111Y328000D01*
X338201Y327965D01*
X338290Y327926D01*
X338377Y327884D01*
X338462Y327838D01*
X338546Y327789D01*
X338628Y327737D01*
X338707Y327681D01*
X338785Y327623D01*
X338859Y327561D01*
X338932Y327497D01*
X339002Y327430D01*
X339069Y327360D01*
X339133Y327287D01*
X339195Y327213D01*
X339253Y327135D01*
X339309Y327056D01*
X339361Y326974D01*
X339410Y326890D01*
X339456Y326805D01*
X339498Y326718D01*
X339537Y326629D01*
X339572Y326539D01*
X339604Y326447D01*
X339632Y326354D01*
X339657Y326260D01*
X339678Y326166D01*
X339695Y326070D01*
X339708Y325974D01*
X339717Y325878D01*
X339723Y325781D01*
X339725Y325684D01*
X339725Y323215D01*
X336268Y348615D02*
X336268Y354542D01*
X336268Y374015D02*
X336268Y379942D01*
X339231Y376978D02*
X333304Y376978D01*
X330835Y552704D02*
X339090Y552704D01*
X339201Y552706D01*
X339311Y552712D01*
X339422Y552721D01*
X339532Y552735D01*
X339641Y552752D01*
X339750Y552773D01*
X339858Y552798D01*
X339965Y552827D01*
X340071Y552859D01*
X340176Y552895D01*
X340279Y552935D01*
X340381Y552978D01*
X340482Y553025D01*
X340581Y553076D01*
X340678Y553129D01*
X340772Y553186D01*
X340865Y553247D01*
X340956Y553310D01*
X341045Y553377D01*
X341131Y553447D01*
X341214Y553520D01*
X341296Y553595D01*
X341374Y553673D01*
X341449Y553755D01*
X341522Y553838D01*
X341592Y553924D01*
X341659Y554013D01*
X341722Y554104D01*
X341783Y554197D01*
X341840Y554292D01*
X341893Y554388D01*
X341944Y554487D01*
X341991Y554588D01*
X342034Y554690D01*
X342074Y554793D01*
X342110Y554898D01*
X342142Y555004D01*
X342171Y555111D01*
X342196Y555219D01*
X342217Y555328D01*
X342234Y555437D01*
X342248Y555547D01*
X342257Y555658D01*
X342263Y555768D01*
X342265Y555879D01*
X342263Y555990D01*
X342257Y556100D01*
X342248Y556211D01*
X342234Y556321D01*
X342217Y556430D01*
X342196Y556539D01*
X342171Y556647D01*
X342142Y556754D01*
X342110Y556860D01*
X342074Y556965D01*
X342034Y557068D01*
X341991Y557170D01*
X341944Y557271D01*
X341893Y557370D01*
X341840Y557466D01*
X341783Y557561D01*
X341722Y557654D01*
X341659Y557745D01*
X341592Y557834D01*
X341522Y557920D01*
X341449Y558003D01*
X341374Y558085D01*
X341296Y558163D01*
X341214Y558238D01*
X341131Y558311D01*
X341045Y558381D01*
X340956Y558448D01*
X340865Y558511D01*
X340772Y558572D01*
X340678Y558629D01*
X340581Y558682D01*
X340482Y558733D01*
X340381Y558780D01*
X340279Y558823D01*
X340176Y558863D01*
X340071Y558899D01*
X339965Y558931D01*
X339858Y558960D01*
X339750Y558985D01*
X339641Y559006D01*
X339532Y559023D01*
X339422Y559037D01*
X339311Y559046D01*
X339201Y559052D01*
X339090Y559054D01*
X330835Y559054D01*
X330835Y568008D02*
X330837Y568112D01*
X330843Y568217D01*
X330852Y568321D01*
X330865Y568424D01*
X330883Y568527D01*
X330903Y568629D01*
X330928Y568731D01*
X330956Y568831D01*
X330988Y568931D01*
X331024Y569029D01*
X331063Y569126D01*
X331105Y569221D01*
X331151Y569315D01*
X331201Y569407D01*
X331253Y569497D01*
X331309Y569585D01*
X331369Y569671D01*
X331431Y569755D01*
X331496Y569836D01*
X331564Y569915D01*
X331636Y569992D01*
X331709Y570065D01*
X331786Y570137D01*
X331865Y570205D01*
X331946Y570270D01*
X332030Y570332D01*
X332116Y570392D01*
X332204Y570448D01*
X332294Y570500D01*
X332386Y570550D01*
X332480Y570596D01*
X332575Y570638D01*
X332672Y570677D01*
X332770Y570713D01*
X332870Y570745D01*
X332970Y570773D01*
X333072Y570798D01*
X333174Y570818D01*
X333277Y570836D01*
X333380Y570849D01*
X333484Y570858D01*
X333589Y570864D01*
X333693Y570866D01*
X330835Y568008D02*
X330837Y567890D01*
X330843Y567771D01*
X330852Y567653D01*
X330865Y567536D01*
X330883Y567419D01*
X330903Y567302D01*
X330928Y567186D01*
X330956Y567071D01*
X330989Y566958D01*
X331024Y566845D01*
X331064Y566733D01*
X331106Y566623D01*
X331153Y566514D01*
X331203Y566406D01*
X331256Y566301D01*
X331313Y566197D01*
X331373Y566095D01*
X331436Y565995D01*
X331503Y565897D01*
X331572Y565801D01*
X331645Y565708D01*
X331721Y565617D01*
X331799Y565528D01*
X331881Y565442D01*
X331965Y565359D01*
X332051Y565278D01*
X332141Y565201D01*
X332232Y565126D01*
X332326Y565054D01*
X332423Y564985D01*
X332521Y564920D01*
X332622Y564857D01*
X332725Y564798D01*
X332829Y564742D01*
X332935Y564690D01*
X333043Y564641D01*
X333152Y564596D01*
X333263Y564554D01*
X333375Y564516D01*
X335915Y569913D02*
X335840Y569989D01*
X335761Y570064D01*
X335680Y570135D01*
X335596Y570204D01*
X335510Y570269D01*
X335422Y570331D01*
X335332Y570391D01*
X335240Y570447D01*
X335145Y570500D01*
X335049Y570549D01*
X334951Y570595D01*
X334852Y570638D01*
X334751Y570677D01*
X334649Y570712D01*
X334546Y570744D01*
X334442Y570772D01*
X334337Y570797D01*
X334230Y570818D01*
X334124Y570835D01*
X334017Y570848D01*
X333909Y570857D01*
X333801Y570863D01*
X333693Y570865D01*
X335915Y569913D02*
X342265Y564515D01*
X342265Y570865D01*
D13*
X303800Y624300D02*
X303802Y624363D01*
X303808Y624425D01*
X303818Y624487D01*
X303831Y624549D01*
X303849Y624609D01*
X303870Y624668D01*
X303895Y624726D01*
X303924Y624782D01*
X303956Y624836D01*
X303991Y624888D01*
X304029Y624937D01*
X304071Y624985D01*
X304115Y625029D01*
X304163Y625071D01*
X304212Y625109D01*
X304264Y625144D01*
X304318Y625176D01*
X304374Y625205D01*
X304432Y625230D01*
X304491Y625251D01*
X304551Y625269D01*
X304613Y625282D01*
X304675Y625292D01*
X304737Y625298D01*
X304800Y625300D01*
X304863Y625298D01*
X304925Y625292D01*
X304987Y625282D01*
X305049Y625269D01*
X305109Y625251D01*
X305168Y625230D01*
X305226Y625205D01*
X305282Y625176D01*
X305336Y625144D01*
X305388Y625109D01*
X305437Y625071D01*
X305485Y625029D01*
X305529Y624985D01*
X305571Y624937D01*
X305609Y624888D01*
X305644Y624836D01*
X305676Y624782D01*
X305705Y624726D01*
X305730Y624668D01*
X305751Y624609D01*
X305769Y624549D01*
X305782Y624487D01*
X305792Y624425D01*
X305798Y624363D01*
X305800Y624300D01*
X305798Y624237D01*
X305792Y624175D01*
X305782Y624113D01*
X305769Y624051D01*
X305751Y623991D01*
X305730Y623932D01*
X305705Y623874D01*
X305676Y623818D01*
X305644Y623764D01*
X305609Y623712D01*
X305571Y623663D01*
X305529Y623615D01*
X305485Y623571D01*
X305437Y623529D01*
X305388Y623491D01*
X305336Y623456D01*
X305282Y623424D01*
X305226Y623395D01*
X305168Y623370D01*
X305109Y623349D01*
X305049Y623331D01*
X304987Y623318D01*
X304925Y623308D01*
X304863Y623302D01*
X304800Y623300D01*
X304737Y623302D01*
X304675Y623308D01*
X304613Y623318D01*
X304551Y623331D01*
X304491Y623349D01*
X304432Y623370D01*
X304374Y623395D01*
X304318Y623424D01*
X304264Y623456D01*
X304212Y623491D01*
X304163Y623529D01*
X304115Y623571D01*
X304071Y623615D01*
X304029Y623663D01*
X303991Y623712D01*
X303956Y623764D01*
X303924Y623818D01*
X303895Y623874D01*
X303870Y623932D01*
X303849Y623991D01*
X303831Y624051D01*
X303818Y624113D01*
X303808Y624175D01*
X303802Y624237D01*
X303800Y624300D01*
D12*
X282550Y638150D02*
X282550Y784250D01*
X809650Y784250D02*
X809650Y638150D01*
D14*
X277026Y632958D02*
X268588Y632958D01*
X277026Y632958D02*
X277139Y632960D01*
X277252Y632966D01*
X277365Y632976D01*
X277478Y632990D01*
X277590Y633007D01*
X277701Y633029D01*
X277811Y633054D01*
X277921Y633084D01*
X278029Y633117D01*
X278136Y633154D01*
X278242Y633194D01*
X278346Y633239D01*
X278449Y633287D01*
X278550Y633338D01*
X278649Y633393D01*
X278746Y633451D01*
X278841Y633513D01*
X278934Y633578D01*
X279024Y633646D01*
X279112Y633717D01*
X279198Y633792D01*
X279281Y633869D01*
X279361Y633949D01*
X279438Y634032D01*
X279513Y634118D01*
X279584Y634206D01*
X279652Y634296D01*
X279717Y634389D01*
X279779Y634484D01*
X279837Y634581D01*
X279892Y634680D01*
X279943Y634781D01*
X279991Y634884D01*
X280036Y634988D01*
X280076Y635094D01*
X280113Y635201D01*
X280146Y635309D01*
X280176Y635419D01*
X280201Y635529D01*
X280223Y635640D01*
X280240Y635752D01*
X280254Y635865D01*
X280264Y635978D01*
X280270Y636091D01*
X280272Y636204D01*
X280270Y636317D01*
X280264Y636430D01*
X280254Y636543D01*
X280240Y636656D01*
X280223Y636768D01*
X280201Y636879D01*
X280176Y636989D01*
X280146Y637099D01*
X280113Y637207D01*
X280076Y637314D01*
X280036Y637420D01*
X279991Y637524D01*
X279943Y637627D01*
X279892Y637728D01*
X279837Y637827D01*
X279779Y637924D01*
X279717Y638019D01*
X279652Y638112D01*
X279584Y638202D01*
X279513Y638290D01*
X279438Y638376D01*
X279361Y638459D01*
X279281Y638539D01*
X279198Y638616D01*
X279112Y638691D01*
X279024Y638762D01*
X278934Y638830D01*
X278841Y638895D01*
X278746Y638957D01*
X278649Y639015D01*
X278550Y639070D01*
X278449Y639121D01*
X278346Y639169D01*
X278242Y639214D01*
X278136Y639254D01*
X278029Y639291D01*
X277921Y639324D01*
X277811Y639354D01*
X277701Y639379D01*
X277590Y639401D01*
X277478Y639418D01*
X277365Y639432D01*
X277252Y639442D01*
X277139Y639448D01*
X277026Y639450D01*
X277026Y639449D02*
X268588Y639449D01*
X280272Y644769D02*
X280272Y648015D01*
X280270Y648128D01*
X280264Y648241D01*
X280254Y648354D01*
X280240Y648467D01*
X280223Y648579D01*
X280201Y648690D01*
X280176Y648800D01*
X280146Y648910D01*
X280113Y649018D01*
X280076Y649125D01*
X280036Y649231D01*
X279991Y649335D01*
X279943Y649438D01*
X279892Y649539D01*
X279837Y649638D01*
X279779Y649735D01*
X279717Y649830D01*
X279652Y649923D01*
X279584Y650013D01*
X279513Y650101D01*
X279438Y650187D01*
X279361Y650270D01*
X279281Y650350D01*
X279198Y650427D01*
X279112Y650502D01*
X279024Y650573D01*
X278934Y650641D01*
X278841Y650706D01*
X278746Y650768D01*
X278649Y650826D01*
X278550Y650881D01*
X278449Y650932D01*
X278346Y650980D01*
X278242Y651025D01*
X278136Y651065D01*
X278029Y651102D01*
X277921Y651135D01*
X277811Y651165D01*
X277701Y651190D01*
X277590Y651212D01*
X277478Y651229D01*
X277365Y651243D01*
X277252Y651253D01*
X277139Y651259D01*
X277026Y651261D01*
X276913Y651259D01*
X276800Y651253D01*
X276687Y651243D01*
X276574Y651229D01*
X276462Y651212D01*
X276351Y651190D01*
X276241Y651165D01*
X276131Y651135D01*
X276023Y651102D01*
X275916Y651065D01*
X275810Y651025D01*
X275706Y650980D01*
X275603Y650932D01*
X275502Y650881D01*
X275403Y650826D01*
X275306Y650768D01*
X275211Y650706D01*
X275118Y650641D01*
X275028Y650573D01*
X274940Y650502D01*
X274854Y650427D01*
X274771Y650350D01*
X274691Y650270D01*
X274614Y650187D01*
X274539Y650101D01*
X274468Y650013D01*
X274400Y649923D01*
X274335Y649830D01*
X274273Y649735D01*
X274215Y649638D01*
X274160Y649539D01*
X274109Y649438D01*
X274061Y649335D01*
X274016Y649231D01*
X273976Y649125D01*
X273939Y649018D01*
X273906Y648910D01*
X273876Y648800D01*
X273851Y648690D01*
X273829Y648579D01*
X273812Y648467D01*
X273798Y648354D01*
X273788Y648241D01*
X273782Y648128D01*
X273780Y648015D01*
X268588Y648664D02*
X268588Y644769D01*
X268588Y648664D02*
X268590Y648765D01*
X268596Y648865D01*
X268606Y648965D01*
X268619Y649065D01*
X268637Y649164D01*
X268658Y649263D01*
X268683Y649360D01*
X268712Y649457D01*
X268745Y649552D01*
X268781Y649646D01*
X268821Y649738D01*
X268864Y649829D01*
X268911Y649918D01*
X268961Y650005D01*
X269015Y650091D01*
X269072Y650174D01*
X269132Y650254D01*
X269195Y650333D01*
X269262Y650409D01*
X269331Y650482D01*
X269403Y650552D01*
X269477Y650620D01*
X269554Y650685D01*
X269634Y650746D01*
X269716Y650805D01*
X269800Y650860D01*
X269886Y650912D01*
X269974Y650961D01*
X270064Y651006D01*
X270156Y651048D01*
X270249Y651086D01*
X270344Y651120D01*
X270439Y651151D01*
X270536Y651178D01*
X270634Y651201D01*
X270733Y651221D01*
X270833Y651236D01*
X270933Y651248D01*
X271033Y651256D01*
X271134Y651260D01*
X271234Y651260D01*
X271335Y651256D01*
X271435Y651248D01*
X271535Y651236D01*
X271635Y651221D01*
X271734Y651201D01*
X271832Y651178D01*
X271929Y651151D01*
X272024Y651120D01*
X272119Y651086D01*
X272212Y651048D01*
X272304Y651006D01*
X272394Y650961D01*
X272482Y650912D01*
X272568Y650860D01*
X272652Y650805D01*
X272734Y650746D01*
X272814Y650685D01*
X272891Y650620D01*
X272965Y650552D01*
X273037Y650482D01*
X273106Y650409D01*
X273173Y650333D01*
X273236Y650254D01*
X273296Y650174D01*
X273353Y650091D01*
X273407Y650005D01*
X273457Y649918D01*
X273504Y649829D01*
X273547Y649738D01*
X273587Y649646D01*
X273623Y649552D01*
X273656Y649457D01*
X273685Y649360D01*
X273710Y649263D01*
X273731Y649164D01*
X273749Y649065D01*
X273762Y648965D01*
X273772Y648865D01*
X273778Y648765D01*
X273780Y648664D01*
X273781Y648664D02*
X273781Y646067D01*
D15*
X593400Y115100D02*
X593397Y114858D01*
X593388Y114617D01*
X593374Y114376D01*
X593353Y114135D01*
X593327Y113895D01*
X593295Y113655D01*
X593257Y113416D01*
X593214Y113179D01*
X593164Y112942D01*
X593109Y112707D01*
X593049Y112473D01*
X592982Y112241D01*
X592911Y112010D01*
X592833Y111781D01*
X592750Y111554D01*
X592662Y111329D01*
X592568Y111106D01*
X592469Y110886D01*
X592364Y110668D01*
X592255Y110453D01*
X592140Y110240D01*
X592020Y110030D01*
X591895Y109824D01*
X591765Y109620D01*
X591630Y109419D01*
X591490Y109222D01*
X591346Y109028D01*
X591197Y108838D01*
X591043Y108652D01*
X590885Y108469D01*
X590723Y108290D01*
X590556Y108115D01*
X590385Y107944D01*
X590210Y107777D01*
X590031Y107615D01*
X589848Y107457D01*
X589662Y107303D01*
X589472Y107154D01*
X589278Y107010D01*
X589081Y106870D01*
X588880Y106735D01*
X588676Y106605D01*
X588470Y106480D01*
X588260Y106360D01*
X588047Y106245D01*
X587832Y106136D01*
X587614Y106031D01*
X587394Y105932D01*
X587171Y105838D01*
X586946Y105750D01*
X586719Y105667D01*
X586490Y105589D01*
X586259Y105518D01*
X586027Y105451D01*
X585793Y105391D01*
X585558Y105336D01*
X585321Y105286D01*
X585084Y105243D01*
X584845Y105205D01*
X584605Y105173D01*
X584365Y105147D01*
X584124Y105126D01*
X583883Y105112D01*
X583642Y105103D01*
X583400Y105100D01*
X483400Y105100D01*
X483158Y105103D01*
X482917Y105112D01*
X482676Y105126D01*
X482435Y105147D01*
X482195Y105173D01*
X481955Y105205D01*
X481716Y105243D01*
X481479Y105286D01*
X481242Y105336D01*
X481007Y105391D01*
X480773Y105451D01*
X480541Y105518D01*
X480310Y105589D01*
X480081Y105667D01*
X479854Y105750D01*
X479629Y105838D01*
X479406Y105932D01*
X479186Y106031D01*
X478968Y106136D01*
X478753Y106245D01*
X478540Y106360D01*
X478330Y106480D01*
X478124Y106605D01*
X477920Y106735D01*
X477719Y106870D01*
X477522Y107010D01*
X477328Y107154D01*
X477138Y107303D01*
X476952Y107457D01*
X476769Y107615D01*
X476590Y107777D01*
X476415Y107944D01*
X476244Y108115D01*
X476077Y108290D01*
X475915Y108469D01*
X475757Y108652D01*
X475603Y108838D01*
X475454Y109028D01*
X475310Y109222D01*
X475170Y109419D01*
X475035Y109620D01*
X474905Y109824D01*
X474780Y110030D01*
X474660Y110240D01*
X474545Y110453D01*
X474436Y110668D01*
X474331Y110886D01*
X474232Y111106D01*
X474138Y111329D01*
X474050Y111554D01*
X473967Y111781D01*
X473889Y112010D01*
X473818Y112241D01*
X473751Y112473D01*
X473691Y112707D01*
X473636Y112942D01*
X473586Y113179D01*
X473543Y113416D01*
X473505Y113655D01*
X473473Y113895D01*
X473447Y114135D01*
X473426Y114376D01*
X473412Y114617D01*
X473403Y114858D01*
X473400Y115100D01*
X473400Y215100D02*
X473403Y215342D01*
X473412Y215583D01*
X473426Y215824D01*
X473447Y216065D01*
X473473Y216305D01*
X473505Y216545D01*
X473543Y216784D01*
X473586Y217021D01*
X473636Y217258D01*
X473691Y217493D01*
X473751Y217727D01*
X473818Y217959D01*
X473889Y218190D01*
X473967Y218419D01*
X474050Y218646D01*
X474138Y218871D01*
X474232Y219094D01*
X474331Y219314D01*
X474436Y219532D01*
X474545Y219747D01*
X474660Y219960D01*
X474780Y220170D01*
X474905Y220376D01*
X475035Y220580D01*
X475170Y220781D01*
X475310Y220978D01*
X475454Y221172D01*
X475603Y221362D01*
X475757Y221548D01*
X475915Y221731D01*
X476077Y221910D01*
X476244Y222085D01*
X476415Y222256D01*
X476590Y222423D01*
X476769Y222585D01*
X476952Y222743D01*
X477138Y222897D01*
X477328Y223046D01*
X477522Y223190D01*
X477719Y223330D01*
X477920Y223465D01*
X478124Y223595D01*
X478330Y223720D01*
X478540Y223840D01*
X478753Y223955D01*
X478968Y224064D01*
X479186Y224169D01*
X479406Y224268D01*
X479629Y224362D01*
X479854Y224450D01*
X480081Y224533D01*
X480310Y224611D01*
X480541Y224682D01*
X480773Y224749D01*
X481007Y224809D01*
X481242Y224864D01*
X481479Y224914D01*
X481716Y224957D01*
X481955Y224995D01*
X482195Y225027D01*
X482435Y225053D01*
X482676Y225074D01*
X482917Y225088D01*
X483158Y225097D01*
X483400Y225100D01*
X583400Y225100D01*
X583642Y225097D01*
X583883Y225088D01*
X584124Y225074D01*
X584365Y225053D01*
X584605Y225027D01*
X584845Y224995D01*
X585084Y224957D01*
X585321Y224914D01*
X585558Y224864D01*
X585793Y224809D01*
X586027Y224749D01*
X586259Y224682D01*
X586490Y224611D01*
X586719Y224533D01*
X586946Y224450D01*
X587171Y224362D01*
X587394Y224268D01*
X587614Y224169D01*
X587832Y224064D01*
X588047Y223955D01*
X588260Y223840D01*
X588470Y223720D01*
X588676Y223595D01*
X588880Y223465D01*
X589081Y223330D01*
X589278Y223190D01*
X589472Y223046D01*
X589662Y222897D01*
X589848Y222743D01*
X590031Y222585D01*
X590210Y222423D01*
X590385Y222256D01*
X590556Y222085D01*
X590723Y221910D01*
X590885Y221731D01*
X591043Y221548D01*
X591197Y221362D01*
X591346Y221172D01*
X591490Y220978D01*
X591630Y220781D01*
X591765Y220580D01*
X591895Y220376D01*
X592020Y220170D01*
X592140Y219960D01*
X592255Y219747D01*
X592364Y219532D01*
X592469Y219314D01*
X592568Y219094D01*
X592662Y218871D01*
X592750Y218646D01*
X592833Y218419D01*
X592911Y218190D01*
X592982Y217959D01*
X593049Y217727D01*
X593109Y217493D01*
X593164Y217258D01*
X593214Y217021D01*
X593257Y216784D01*
X593295Y216545D01*
X593327Y216305D01*
X593353Y216065D01*
X593374Y215824D01*
X593388Y215583D01*
X593397Y215342D01*
X593400Y215100D01*
X498045Y165100D02*
X498056Y165968D01*
X498088Y166835D01*
X498141Y167701D01*
X498215Y168565D01*
X498311Y169428D01*
X498428Y170288D01*
X498566Y171144D01*
X498724Y171997D01*
X498904Y172846D01*
X499105Y173691D01*
X499326Y174530D01*
X499567Y175363D01*
X499829Y176190D01*
X500112Y177011D01*
X500414Y177824D01*
X500736Y178630D01*
X501078Y179427D01*
X501439Y180216D01*
X501820Y180996D01*
X502220Y181766D01*
X502638Y182526D01*
X503075Y183276D01*
X503530Y184015D01*
X504003Y184742D01*
X504494Y185458D01*
X505003Y186161D01*
X505528Y186852D01*
X506070Y187529D01*
X506629Y188193D01*
X507204Y188843D01*
X507794Y189479D01*
X508400Y190100D01*
X509021Y190706D01*
X509657Y191296D01*
X510307Y191871D01*
X510971Y192430D01*
X511648Y192972D01*
X512339Y193497D01*
X513042Y194006D01*
X513758Y194497D01*
X514485Y194970D01*
X515224Y195425D01*
X515974Y195862D01*
X516734Y196280D01*
X517504Y196680D01*
X518284Y197061D01*
X519073Y197422D01*
X519870Y197764D01*
X520676Y198086D01*
X521489Y198388D01*
X522310Y198671D01*
X523137Y198933D01*
X523970Y199174D01*
X524809Y199395D01*
X525654Y199596D01*
X526503Y199776D01*
X527356Y199934D01*
X528212Y200072D01*
X529072Y200189D01*
X529935Y200285D01*
X530799Y200359D01*
X531665Y200412D01*
X532532Y200444D01*
X533400Y200455D01*
X534268Y200444D01*
X535135Y200412D01*
X536001Y200359D01*
X536865Y200285D01*
X537728Y200189D01*
X538588Y200072D01*
X539444Y199934D01*
X540297Y199776D01*
X541146Y199596D01*
X541991Y199395D01*
X542830Y199174D01*
X543663Y198933D01*
X544490Y198671D01*
X545311Y198388D01*
X546124Y198086D01*
X546930Y197764D01*
X547727Y197422D01*
X548516Y197061D01*
X549296Y196680D01*
X550066Y196280D01*
X550826Y195862D01*
X551576Y195425D01*
X552315Y194970D01*
X553042Y194497D01*
X553758Y194006D01*
X554461Y193497D01*
X555152Y192972D01*
X555829Y192430D01*
X556493Y191871D01*
X557143Y191296D01*
X557779Y190706D01*
X558400Y190100D01*
X559006Y189479D01*
X559596Y188843D01*
X560171Y188193D01*
X560730Y187529D01*
X561272Y186852D01*
X561797Y186161D01*
X562306Y185458D01*
X562797Y184742D01*
X563270Y184015D01*
X563725Y183276D01*
X564162Y182526D01*
X564580Y181766D01*
X564980Y180996D01*
X565361Y180216D01*
X565722Y179427D01*
X566064Y178630D01*
X566386Y177824D01*
X566688Y177011D01*
X566971Y176190D01*
X567233Y175363D01*
X567474Y174530D01*
X567695Y173691D01*
X567896Y172846D01*
X568076Y171997D01*
X568234Y171144D01*
X568372Y170288D01*
X568489Y169428D01*
X568585Y168565D01*
X568659Y167701D01*
X568712Y166835D01*
X568744Y165968D01*
X568755Y165100D01*
X568744Y164232D01*
X568712Y163365D01*
X568659Y162499D01*
X568585Y161635D01*
X568489Y160772D01*
X568372Y159912D01*
X568234Y159056D01*
X568076Y158203D01*
X567896Y157354D01*
X567695Y156509D01*
X567474Y155670D01*
X567233Y154837D01*
X566971Y154010D01*
X566688Y153189D01*
X566386Y152376D01*
X566064Y151570D01*
X565722Y150773D01*
X565361Y149984D01*
X564980Y149204D01*
X564580Y148434D01*
X564162Y147674D01*
X563725Y146924D01*
X563270Y146185D01*
X562797Y145458D01*
X562306Y144742D01*
X561797Y144039D01*
X561272Y143348D01*
X560730Y142671D01*
X560171Y142007D01*
X559596Y141357D01*
X559006Y140721D01*
X558400Y140100D01*
X557779Y139494D01*
X557143Y138904D01*
X556493Y138329D01*
X555829Y137770D01*
X555152Y137228D01*
X554461Y136703D01*
X553758Y136194D01*
X553042Y135703D01*
X552315Y135230D01*
X551576Y134775D01*
X550826Y134338D01*
X550066Y133920D01*
X549296Y133520D01*
X548516Y133139D01*
X547727Y132778D01*
X546930Y132436D01*
X546124Y132114D01*
X545311Y131812D01*
X544490Y131529D01*
X543663Y131267D01*
X542830Y131026D01*
X541991Y130805D01*
X541146Y130604D01*
X540297Y130424D01*
X539444Y130266D01*
X538588Y130128D01*
X537728Y130011D01*
X536865Y129915D01*
X536001Y129841D01*
X535135Y129788D01*
X534268Y129756D01*
X533400Y129745D01*
X532532Y129756D01*
X531665Y129788D01*
X530799Y129841D01*
X529935Y129915D01*
X529072Y130011D01*
X528212Y130128D01*
X527356Y130266D01*
X526503Y130424D01*
X525654Y130604D01*
X524809Y130805D01*
X523970Y131026D01*
X523137Y131267D01*
X522310Y131529D01*
X521489Y131812D01*
X520676Y132114D01*
X519870Y132436D01*
X519073Y132778D01*
X518284Y133139D01*
X517504Y133520D01*
X516734Y133920D01*
X515974Y134338D01*
X515224Y134775D01*
X514485Y135230D01*
X513758Y135703D01*
X513042Y136194D01*
X512339Y136703D01*
X511648Y137228D01*
X510971Y137770D01*
X510307Y138329D01*
X509657Y138904D01*
X509021Y139494D01*
X508400Y140100D01*
X507794Y140721D01*
X507204Y141357D01*
X506629Y142007D01*
X506070Y142671D01*
X505528Y143348D01*
X505003Y144039D01*
X504494Y144742D01*
X504003Y145458D01*
X503530Y146185D01*
X503075Y146924D01*
X502638Y147674D01*
X502220Y148434D01*
X501820Y149204D01*
X501439Y149984D01*
X501078Y150773D01*
X500736Y151570D01*
X500414Y152376D01*
X500112Y153189D01*
X499829Y154010D01*
X499567Y154837D01*
X499326Y155670D01*
X499105Y156509D01*
X498904Y157354D01*
X498724Y158203D01*
X498566Y159056D01*
X498428Y159912D01*
X498311Y160772D01*
X498215Y161635D01*
X498141Y162499D01*
X498088Y163365D01*
X498056Y164232D01*
X498045Y165100D01*
X513400Y185100D02*
X553400Y185100D01*
X553400Y145100D01*
X513400Y145100D01*
X513400Y185100D01*
X473400Y202600D02*
X473400Y215100D01*
X473400Y177600D02*
X473400Y152600D01*
X473400Y127600D02*
X473400Y115100D01*
X593400Y202600D02*
X593400Y215100D01*
X593400Y177600D02*
X593400Y152600D01*
X593400Y127600D02*
X593400Y115100D01*
D14*
X487003Y229108D02*
X487102Y229110D01*
X487202Y229116D01*
X487301Y229125D01*
X487399Y229138D01*
X487497Y229155D01*
X487595Y229176D01*
X487691Y229201D01*
X487786Y229229D01*
X487880Y229261D01*
X487973Y229296D01*
X488065Y229335D01*
X488155Y229378D01*
X488243Y229423D01*
X488330Y229473D01*
X488414Y229525D01*
X488497Y229581D01*
X488577Y229639D01*
X488655Y229701D01*
X488730Y229766D01*
X488803Y229834D01*
X488873Y229904D01*
X488941Y229977D01*
X489006Y230052D01*
X489068Y230130D01*
X489126Y230210D01*
X489182Y230293D01*
X489234Y230377D01*
X489284Y230464D01*
X489329Y230552D01*
X489372Y230642D01*
X489411Y230734D01*
X489446Y230827D01*
X489478Y230921D01*
X489506Y231016D01*
X489531Y231112D01*
X489552Y231210D01*
X489569Y231308D01*
X489582Y231406D01*
X489591Y231505D01*
X489597Y231605D01*
X489599Y231704D01*
X487003Y229108D02*
X486859Y229110D01*
X486714Y229116D01*
X486570Y229125D01*
X486427Y229138D01*
X486283Y229155D01*
X486140Y229176D01*
X485998Y229201D01*
X485857Y229229D01*
X485716Y229261D01*
X485576Y229297D01*
X485437Y229336D01*
X485299Y229379D01*
X485163Y229426D01*
X485027Y229476D01*
X484893Y229530D01*
X484761Y229587D01*
X484630Y229648D01*
X484501Y229712D01*
X484373Y229780D01*
X484247Y229850D01*
X484123Y229925D01*
X484002Y230002D01*
X483882Y230083D01*
X483764Y230166D01*
X483649Y230253D01*
X483536Y230343D01*
X483425Y230436D01*
X483317Y230531D01*
X483211Y230630D01*
X483108Y230731D01*
X483433Y238196D02*
X483435Y238295D01*
X483441Y238395D01*
X483450Y238494D01*
X483463Y238592D01*
X483480Y238690D01*
X483501Y238788D01*
X483526Y238884D01*
X483554Y238979D01*
X483586Y239073D01*
X483621Y239166D01*
X483660Y239258D01*
X483703Y239348D01*
X483748Y239436D01*
X483798Y239523D01*
X483850Y239607D01*
X483906Y239690D01*
X483964Y239770D01*
X484026Y239848D01*
X484091Y239923D01*
X484159Y239996D01*
X484229Y240066D01*
X484302Y240134D01*
X484377Y240199D01*
X484455Y240261D01*
X484535Y240319D01*
X484618Y240375D01*
X484702Y240427D01*
X484789Y240477D01*
X484877Y240522D01*
X484967Y240565D01*
X485059Y240604D01*
X485152Y240639D01*
X485246Y240671D01*
X485341Y240699D01*
X485438Y240724D01*
X485535Y240745D01*
X485633Y240762D01*
X485731Y240775D01*
X485830Y240784D01*
X485930Y240790D01*
X486029Y240792D01*
X486165Y240790D01*
X486301Y240784D01*
X486437Y240775D01*
X486573Y240762D01*
X486708Y240744D01*
X486842Y240724D01*
X486976Y240699D01*
X487110Y240671D01*
X487242Y240638D01*
X487373Y240603D01*
X487504Y240563D01*
X487633Y240520D01*
X487761Y240474D01*
X487887Y240423D01*
X488013Y240370D01*
X488136Y240312D01*
X488258Y240252D01*
X488378Y240188D01*
X488497Y240120D01*
X488613Y240050D01*
X488727Y239976D01*
X488840Y239899D01*
X488950Y239818D01*
X484731Y235924D02*
X484645Y235977D01*
X484561Y236034D01*
X484479Y236093D01*
X484399Y236156D01*
X484322Y236222D01*
X484247Y236290D01*
X484175Y236362D01*
X484106Y236436D01*
X484040Y236513D01*
X483977Y236592D01*
X483917Y236674D01*
X483860Y236758D01*
X483806Y236844D01*
X483756Y236932D01*
X483709Y237022D01*
X483665Y237113D01*
X483626Y237207D01*
X483589Y237301D01*
X483557Y237397D01*
X483528Y237495D01*
X483503Y237593D01*
X483482Y237692D01*
X483464Y237792D01*
X483451Y237892D01*
X483441Y237993D01*
X483435Y238095D01*
X483433Y238196D01*
X488301Y233976D02*
X488387Y233923D01*
X488471Y233866D01*
X488553Y233807D01*
X488633Y233744D01*
X488710Y233678D01*
X488785Y233610D01*
X488857Y233538D01*
X488926Y233464D01*
X488992Y233387D01*
X489055Y233308D01*
X489115Y233226D01*
X489172Y233142D01*
X489226Y233056D01*
X489276Y232968D01*
X489323Y232878D01*
X489367Y232787D01*
X489406Y232693D01*
X489443Y232599D01*
X489475Y232503D01*
X489504Y232405D01*
X489529Y232307D01*
X489550Y232208D01*
X489568Y232108D01*
X489581Y232008D01*
X489591Y231907D01*
X489597Y231805D01*
X489599Y231704D01*
X488301Y233976D02*
X484731Y235924D01*
X493734Y240792D02*
X496330Y229108D01*
X498927Y236897D01*
X501523Y229108D01*
X504119Y240792D01*
X508635Y238196D02*
X511881Y240792D01*
X511881Y229108D01*
X515126Y229108D02*
X508635Y229108D01*
D15*
X583400Y270200D02*
X583642Y270203D01*
X583883Y270212D01*
X584124Y270226D01*
X584365Y270247D01*
X584605Y270273D01*
X584845Y270305D01*
X585084Y270343D01*
X585321Y270386D01*
X585558Y270436D01*
X585793Y270491D01*
X586027Y270551D01*
X586259Y270618D01*
X586490Y270689D01*
X586719Y270767D01*
X586946Y270850D01*
X587171Y270938D01*
X587394Y271032D01*
X587614Y271131D01*
X587832Y271236D01*
X588047Y271345D01*
X588260Y271460D01*
X588470Y271580D01*
X588676Y271705D01*
X588880Y271835D01*
X589081Y271970D01*
X589278Y272110D01*
X589472Y272254D01*
X589662Y272403D01*
X589848Y272557D01*
X590031Y272715D01*
X590210Y272877D01*
X590385Y273044D01*
X590556Y273215D01*
X590723Y273390D01*
X590885Y273569D01*
X591043Y273752D01*
X591197Y273938D01*
X591346Y274128D01*
X591490Y274322D01*
X591630Y274519D01*
X591765Y274720D01*
X591895Y274924D01*
X592020Y275130D01*
X592140Y275340D01*
X592255Y275553D01*
X592364Y275768D01*
X592469Y275986D01*
X592568Y276206D01*
X592662Y276429D01*
X592750Y276654D01*
X592833Y276881D01*
X592911Y277110D01*
X592982Y277341D01*
X593049Y277573D01*
X593109Y277807D01*
X593164Y278042D01*
X593214Y278279D01*
X593257Y278516D01*
X593295Y278755D01*
X593327Y278995D01*
X593353Y279235D01*
X593374Y279476D01*
X593388Y279717D01*
X593397Y279958D01*
X593400Y280200D01*
X583400Y270200D02*
X483400Y270200D01*
X483158Y270203D01*
X482917Y270212D01*
X482676Y270226D01*
X482435Y270247D01*
X482195Y270273D01*
X481955Y270305D01*
X481716Y270343D01*
X481479Y270386D01*
X481242Y270436D01*
X481007Y270491D01*
X480773Y270551D01*
X480541Y270618D01*
X480310Y270689D01*
X480081Y270767D01*
X479854Y270850D01*
X479629Y270938D01*
X479406Y271032D01*
X479186Y271131D01*
X478968Y271236D01*
X478753Y271345D01*
X478540Y271460D01*
X478330Y271580D01*
X478124Y271705D01*
X477920Y271835D01*
X477719Y271970D01*
X477522Y272110D01*
X477328Y272254D01*
X477138Y272403D01*
X476952Y272557D01*
X476769Y272715D01*
X476590Y272877D01*
X476415Y273044D01*
X476244Y273215D01*
X476077Y273390D01*
X475915Y273569D01*
X475757Y273752D01*
X475603Y273938D01*
X475454Y274128D01*
X475310Y274322D01*
X475170Y274519D01*
X475035Y274720D01*
X474905Y274924D01*
X474780Y275130D01*
X474660Y275340D01*
X474545Y275553D01*
X474436Y275768D01*
X474331Y275986D01*
X474232Y276206D01*
X474138Y276429D01*
X474050Y276654D01*
X473967Y276881D01*
X473889Y277110D01*
X473818Y277341D01*
X473751Y277573D01*
X473691Y277807D01*
X473636Y278042D01*
X473586Y278279D01*
X473543Y278516D01*
X473505Y278755D01*
X473473Y278995D01*
X473447Y279235D01*
X473426Y279476D01*
X473412Y279717D01*
X473403Y279958D01*
X473400Y280200D01*
X473400Y380200D02*
X473403Y380442D01*
X473412Y380683D01*
X473426Y380924D01*
X473447Y381165D01*
X473473Y381405D01*
X473505Y381645D01*
X473543Y381884D01*
X473586Y382121D01*
X473636Y382358D01*
X473691Y382593D01*
X473751Y382827D01*
X473818Y383059D01*
X473889Y383290D01*
X473967Y383519D01*
X474050Y383746D01*
X474138Y383971D01*
X474232Y384194D01*
X474331Y384414D01*
X474436Y384632D01*
X474545Y384847D01*
X474660Y385060D01*
X474780Y385270D01*
X474905Y385476D01*
X475035Y385680D01*
X475170Y385881D01*
X475310Y386078D01*
X475454Y386272D01*
X475603Y386462D01*
X475757Y386648D01*
X475915Y386831D01*
X476077Y387010D01*
X476244Y387185D01*
X476415Y387356D01*
X476590Y387523D01*
X476769Y387685D01*
X476952Y387843D01*
X477138Y387997D01*
X477328Y388146D01*
X477522Y388290D01*
X477719Y388430D01*
X477920Y388565D01*
X478124Y388695D01*
X478330Y388820D01*
X478540Y388940D01*
X478753Y389055D01*
X478968Y389164D01*
X479186Y389269D01*
X479406Y389368D01*
X479629Y389462D01*
X479854Y389550D01*
X480081Y389633D01*
X480310Y389711D01*
X480541Y389782D01*
X480773Y389849D01*
X481007Y389909D01*
X481242Y389964D01*
X481479Y390014D01*
X481716Y390057D01*
X481955Y390095D01*
X482195Y390127D01*
X482435Y390153D01*
X482676Y390174D01*
X482917Y390188D01*
X483158Y390197D01*
X483400Y390200D01*
X583400Y390200D01*
X583642Y390197D01*
X583883Y390188D01*
X584124Y390174D01*
X584365Y390153D01*
X584605Y390127D01*
X584845Y390095D01*
X585084Y390057D01*
X585321Y390014D01*
X585558Y389964D01*
X585793Y389909D01*
X586027Y389849D01*
X586259Y389782D01*
X586490Y389711D01*
X586719Y389633D01*
X586946Y389550D01*
X587171Y389462D01*
X587394Y389368D01*
X587614Y389269D01*
X587832Y389164D01*
X588047Y389055D01*
X588260Y388940D01*
X588470Y388820D01*
X588676Y388695D01*
X588880Y388565D01*
X589081Y388430D01*
X589278Y388290D01*
X589472Y388146D01*
X589662Y387997D01*
X589848Y387843D01*
X590031Y387685D01*
X590210Y387523D01*
X590385Y387356D01*
X590556Y387185D01*
X590723Y387010D01*
X590885Y386831D01*
X591043Y386648D01*
X591197Y386462D01*
X591346Y386272D01*
X591490Y386078D01*
X591630Y385881D01*
X591765Y385680D01*
X591895Y385476D01*
X592020Y385270D01*
X592140Y385060D01*
X592255Y384847D01*
X592364Y384632D01*
X592469Y384414D01*
X592568Y384194D01*
X592662Y383971D01*
X592750Y383746D01*
X592833Y383519D01*
X592911Y383290D01*
X592982Y383059D01*
X593049Y382827D01*
X593109Y382593D01*
X593164Y382358D01*
X593214Y382121D01*
X593257Y381884D01*
X593295Y381645D01*
X593327Y381405D01*
X593353Y381165D01*
X593374Y380924D01*
X593388Y380683D01*
X593397Y380442D01*
X593400Y380200D01*
X498045Y330200D02*
X498056Y331068D01*
X498088Y331935D01*
X498141Y332801D01*
X498215Y333665D01*
X498311Y334528D01*
X498428Y335388D01*
X498566Y336244D01*
X498724Y337097D01*
X498904Y337946D01*
X499105Y338791D01*
X499326Y339630D01*
X499567Y340463D01*
X499829Y341290D01*
X500112Y342111D01*
X500414Y342924D01*
X500736Y343730D01*
X501078Y344527D01*
X501439Y345316D01*
X501820Y346096D01*
X502220Y346866D01*
X502638Y347626D01*
X503075Y348376D01*
X503530Y349115D01*
X504003Y349842D01*
X504494Y350558D01*
X505003Y351261D01*
X505528Y351952D01*
X506070Y352629D01*
X506629Y353293D01*
X507204Y353943D01*
X507794Y354579D01*
X508400Y355200D01*
X509021Y355806D01*
X509657Y356396D01*
X510307Y356971D01*
X510971Y357530D01*
X511648Y358072D01*
X512339Y358597D01*
X513042Y359106D01*
X513758Y359597D01*
X514485Y360070D01*
X515224Y360525D01*
X515974Y360962D01*
X516734Y361380D01*
X517504Y361780D01*
X518284Y362161D01*
X519073Y362522D01*
X519870Y362864D01*
X520676Y363186D01*
X521489Y363488D01*
X522310Y363771D01*
X523137Y364033D01*
X523970Y364274D01*
X524809Y364495D01*
X525654Y364696D01*
X526503Y364876D01*
X527356Y365034D01*
X528212Y365172D01*
X529072Y365289D01*
X529935Y365385D01*
X530799Y365459D01*
X531665Y365512D01*
X532532Y365544D01*
X533400Y365555D01*
X534268Y365544D01*
X535135Y365512D01*
X536001Y365459D01*
X536865Y365385D01*
X537728Y365289D01*
X538588Y365172D01*
X539444Y365034D01*
X540297Y364876D01*
X541146Y364696D01*
X541991Y364495D01*
X542830Y364274D01*
X543663Y364033D01*
X544490Y363771D01*
X545311Y363488D01*
X546124Y363186D01*
X546930Y362864D01*
X547727Y362522D01*
X548516Y362161D01*
X549296Y361780D01*
X550066Y361380D01*
X550826Y360962D01*
X551576Y360525D01*
X552315Y360070D01*
X553042Y359597D01*
X553758Y359106D01*
X554461Y358597D01*
X555152Y358072D01*
X555829Y357530D01*
X556493Y356971D01*
X557143Y356396D01*
X557779Y355806D01*
X558400Y355200D01*
X559006Y354579D01*
X559596Y353943D01*
X560171Y353293D01*
X560730Y352629D01*
X561272Y351952D01*
X561797Y351261D01*
X562306Y350558D01*
X562797Y349842D01*
X563270Y349115D01*
X563725Y348376D01*
X564162Y347626D01*
X564580Y346866D01*
X564980Y346096D01*
X565361Y345316D01*
X565722Y344527D01*
X566064Y343730D01*
X566386Y342924D01*
X566688Y342111D01*
X566971Y341290D01*
X567233Y340463D01*
X567474Y339630D01*
X567695Y338791D01*
X567896Y337946D01*
X568076Y337097D01*
X568234Y336244D01*
X568372Y335388D01*
X568489Y334528D01*
X568585Y333665D01*
X568659Y332801D01*
X568712Y331935D01*
X568744Y331068D01*
X568755Y330200D01*
X568744Y329332D01*
X568712Y328465D01*
X568659Y327599D01*
X568585Y326735D01*
X568489Y325872D01*
X568372Y325012D01*
X568234Y324156D01*
X568076Y323303D01*
X567896Y322454D01*
X567695Y321609D01*
X567474Y320770D01*
X567233Y319937D01*
X566971Y319110D01*
X566688Y318289D01*
X566386Y317476D01*
X566064Y316670D01*
X565722Y315873D01*
X565361Y315084D01*
X564980Y314304D01*
X564580Y313534D01*
X564162Y312774D01*
X563725Y312024D01*
X563270Y311285D01*
X562797Y310558D01*
X562306Y309842D01*
X561797Y309139D01*
X561272Y308448D01*
X560730Y307771D01*
X560171Y307107D01*
X559596Y306457D01*
X559006Y305821D01*
X558400Y305200D01*
X557779Y304594D01*
X557143Y304004D01*
X556493Y303429D01*
X555829Y302870D01*
X555152Y302328D01*
X554461Y301803D01*
X553758Y301294D01*
X553042Y300803D01*
X552315Y300330D01*
X551576Y299875D01*
X550826Y299438D01*
X550066Y299020D01*
X549296Y298620D01*
X548516Y298239D01*
X547727Y297878D01*
X546930Y297536D01*
X546124Y297214D01*
X545311Y296912D01*
X544490Y296629D01*
X543663Y296367D01*
X542830Y296126D01*
X541991Y295905D01*
X541146Y295704D01*
X540297Y295524D01*
X539444Y295366D01*
X538588Y295228D01*
X537728Y295111D01*
X536865Y295015D01*
X536001Y294941D01*
X535135Y294888D01*
X534268Y294856D01*
X533400Y294845D01*
X532532Y294856D01*
X531665Y294888D01*
X530799Y294941D01*
X529935Y295015D01*
X529072Y295111D01*
X528212Y295228D01*
X527356Y295366D01*
X526503Y295524D01*
X525654Y295704D01*
X524809Y295905D01*
X523970Y296126D01*
X523137Y296367D01*
X522310Y296629D01*
X521489Y296912D01*
X520676Y297214D01*
X519870Y297536D01*
X519073Y297878D01*
X518284Y298239D01*
X517504Y298620D01*
X516734Y299020D01*
X515974Y299438D01*
X515224Y299875D01*
X514485Y300330D01*
X513758Y300803D01*
X513042Y301294D01*
X512339Y301803D01*
X511648Y302328D01*
X510971Y302870D01*
X510307Y303429D01*
X509657Y304004D01*
X509021Y304594D01*
X508400Y305200D01*
X507794Y305821D01*
X507204Y306457D01*
X506629Y307107D01*
X506070Y307771D01*
X505528Y308448D01*
X505003Y309139D01*
X504494Y309842D01*
X504003Y310558D01*
X503530Y311285D01*
X503075Y312024D01*
X502638Y312774D01*
X502220Y313534D01*
X501820Y314304D01*
X501439Y315084D01*
X501078Y315873D01*
X500736Y316670D01*
X500414Y317476D01*
X500112Y318289D01*
X499829Y319110D01*
X499567Y319937D01*
X499326Y320770D01*
X499105Y321609D01*
X498904Y322454D01*
X498724Y323303D01*
X498566Y324156D01*
X498428Y325012D01*
X498311Y325872D01*
X498215Y326735D01*
X498141Y327599D01*
X498088Y328465D01*
X498056Y329332D01*
X498045Y330200D01*
X513400Y350200D02*
X553400Y350200D01*
X553400Y310200D01*
X513400Y310200D01*
X513400Y350200D01*
X473400Y367700D02*
X473400Y380200D01*
X473400Y342700D02*
X473400Y317700D01*
X473400Y292700D02*
X473400Y280200D01*
X593400Y367700D02*
X593400Y380200D01*
X593400Y342700D02*
X593400Y317700D01*
X593400Y292700D02*
X593400Y280200D01*
D14*
X487003Y394208D02*
X487102Y394210D01*
X487202Y394216D01*
X487301Y394225D01*
X487399Y394238D01*
X487497Y394255D01*
X487595Y394276D01*
X487691Y394301D01*
X487786Y394329D01*
X487880Y394361D01*
X487973Y394396D01*
X488065Y394435D01*
X488155Y394478D01*
X488243Y394523D01*
X488330Y394573D01*
X488414Y394625D01*
X488497Y394681D01*
X488577Y394739D01*
X488655Y394801D01*
X488730Y394866D01*
X488803Y394934D01*
X488873Y395004D01*
X488941Y395077D01*
X489006Y395152D01*
X489068Y395230D01*
X489126Y395310D01*
X489182Y395393D01*
X489234Y395477D01*
X489284Y395564D01*
X489329Y395652D01*
X489372Y395742D01*
X489411Y395834D01*
X489446Y395927D01*
X489478Y396021D01*
X489506Y396116D01*
X489531Y396212D01*
X489552Y396310D01*
X489569Y396408D01*
X489582Y396506D01*
X489591Y396605D01*
X489597Y396705D01*
X489599Y396804D01*
X487003Y394208D02*
X486859Y394210D01*
X486714Y394216D01*
X486570Y394225D01*
X486427Y394238D01*
X486283Y394255D01*
X486140Y394276D01*
X485998Y394301D01*
X485857Y394329D01*
X485716Y394361D01*
X485576Y394397D01*
X485437Y394436D01*
X485299Y394479D01*
X485163Y394526D01*
X485027Y394576D01*
X484893Y394630D01*
X484761Y394687D01*
X484630Y394748D01*
X484501Y394812D01*
X484373Y394880D01*
X484247Y394950D01*
X484123Y395025D01*
X484002Y395102D01*
X483882Y395183D01*
X483764Y395266D01*
X483649Y395353D01*
X483536Y395443D01*
X483425Y395536D01*
X483317Y395631D01*
X483211Y395730D01*
X483108Y395831D01*
X483433Y403296D02*
X483435Y403395D01*
X483441Y403495D01*
X483450Y403594D01*
X483463Y403692D01*
X483480Y403790D01*
X483501Y403888D01*
X483526Y403984D01*
X483554Y404079D01*
X483586Y404173D01*
X483621Y404266D01*
X483660Y404358D01*
X483703Y404448D01*
X483748Y404536D01*
X483798Y404623D01*
X483850Y404707D01*
X483906Y404790D01*
X483964Y404870D01*
X484026Y404948D01*
X484091Y405023D01*
X484159Y405096D01*
X484229Y405166D01*
X484302Y405234D01*
X484377Y405299D01*
X484455Y405361D01*
X484535Y405419D01*
X484618Y405475D01*
X484702Y405527D01*
X484789Y405577D01*
X484877Y405622D01*
X484967Y405665D01*
X485059Y405704D01*
X485152Y405739D01*
X485246Y405771D01*
X485341Y405799D01*
X485438Y405824D01*
X485535Y405845D01*
X485633Y405862D01*
X485731Y405875D01*
X485830Y405884D01*
X485930Y405890D01*
X486029Y405892D01*
X486165Y405890D01*
X486301Y405884D01*
X486437Y405875D01*
X486573Y405862D01*
X486708Y405844D01*
X486842Y405824D01*
X486976Y405799D01*
X487110Y405771D01*
X487242Y405738D01*
X487373Y405703D01*
X487504Y405663D01*
X487633Y405620D01*
X487761Y405574D01*
X487887Y405523D01*
X488013Y405470D01*
X488136Y405412D01*
X488258Y405352D01*
X488378Y405288D01*
X488497Y405220D01*
X488613Y405150D01*
X488727Y405076D01*
X488840Y404999D01*
X488950Y404918D01*
X484731Y401024D02*
X484645Y401077D01*
X484561Y401134D01*
X484479Y401193D01*
X484399Y401256D01*
X484322Y401322D01*
X484247Y401390D01*
X484175Y401462D01*
X484106Y401536D01*
X484040Y401613D01*
X483977Y401692D01*
X483917Y401774D01*
X483860Y401858D01*
X483806Y401944D01*
X483756Y402032D01*
X483709Y402122D01*
X483665Y402213D01*
X483626Y402307D01*
X483589Y402401D01*
X483557Y402497D01*
X483528Y402595D01*
X483503Y402693D01*
X483482Y402792D01*
X483464Y402892D01*
X483451Y402992D01*
X483441Y403093D01*
X483435Y403195D01*
X483433Y403296D01*
X488301Y399076D02*
X488387Y399023D01*
X488471Y398966D01*
X488553Y398907D01*
X488633Y398844D01*
X488710Y398778D01*
X488785Y398710D01*
X488857Y398638D01*
X488926Y398564D01*
X488992Y398487D01*
X489055Y398408D01*
X489115Y398326D01*
X489172Y398242D01*
X489226Y398156D01*
X489276Y398068D01*
X489323Y397978D01*
X489367Y397887D01*
X489406Y397793D01*
X489443Y397699D01*
X489475Y397603D01*
X489504Y397505D01*
X489529Y397407D01*
X489550Y397308D01*
X489568Y397208D01*
X489581Y397108D01*
X489591Y397007D01*
X489597Y396905D01*
X489599Y396804D01*
X488301Y399076D02*
X484731Y401024D01*
X493734Y405892D02*
X496330Y394208D01*
X498927Y401997D01*
X501523Y394208D01*
X504119Y405892D01*
X512205Y405892D02*
X512312Y405890D01*
X512418Y405884D01*
X512524Y405874D01*
X512630Y405861D01*
X512736Y405843D01*
X512840Y405822D01*
X512944Y405797D01*
X513047Y405768D01*
X513148Y405736D01*
X513248Y405699D01*
X513347Y405659D01*
X513445Y405616D01*
X513541Y405569D01*
X513635Y405518D01*
X513727Y405464D01*
X513817Y405407D01*
X513905Y405347D01*
X513990Y405283D01*
X514073Y405216D01*
X514154Y405146D01*
X514232Y405074D01*
X514308Y404998D01*
X514380Y404920D01*
X514450Y404839D01*
X514517Y404756D01*
X514581Y404671D01*
X514641Y404583D01*
X514698Y404493D01*
X514752Y404401D01*
X514803Y404307D01*
X514850Y404211D01*
X514893Y404113D01*
X514933Y404014D01*
X514970Y403914D01*
X515002Y403813D01*
X515031Y403710D01*
X515056Y403606D01*
X515077Y403502D01*
X515095Y403396D01*
X515108Y403290D01*
X515118Y403184D01*
X515124Y403078D01*
X515126Y402971D01*
X512205Y405892D02*
X512084Y405890D01*
X511963Y405884D01*
X511843Y405874D01*
X511722Y405861D01*
X511603Y405843D01*
X511483Y405822D01*
X511365Y405797D01*
X511248Y405768D01*
X511131Y405735D01*
X511016Y405699D01*
X510902Y405658D01*
X510789Y405615D01*
X510677Y405567D01*
X510568Y405516D01*
X510460Y405461D01*
X510353Y405403D01*
X510249Y405342D01*
X510147Y405277D01*
X510047Y405209D01*
X509949Y405138D01*
X509853Y405064D01*
X509760Y404987D01*
X509670Y404906D01*
X509582Y404823D01*
X509497Y404737D01*
X509414Y404648D01*
X509335Y404557D01*
X509258Y404463D01*
X509185Y404367D01*
X509115Y404269D01*
X509048Y404168D01*
X508984Y404065D01*
X508924Y403960D01*
X508867Y403853D01*
X508813Y403745D01*
X508763Y403635D01*
X508717Y403523D01*
X508674Y403410D01*
X508635Y403295D01*
X514153Y400699D02*
X514232Y400776D01*
X514308Y400857D01*
X514381Y400940D01*
X514451Y401025D01*
X514518Y401113D01*
X514582Y401203D01*
X514642Y401295D01*
X514699Y401390D01*
X514753Y401486D01*
X514804Y401584D01*
X514851Y401684D01*
X514895Y401786D01*
X514935Y401889D01*
X514971Y401993D01*
X515003Y402099D01*
X515032Y402205D01*
X515057Y402313D01*
X515079Y402421D01*
X515096Y402531D01*
X515110Y402640D01*
X515119Y402750D01*
X515125Y402861D01*
X515127Y402971D01*
X514152Y400699D02*
X508635Y394208D01*
X515126Y394208D01*
D15*
X583400Y422600D02*
X583642Y422603D01*
X583883Y422612D01*
X584124Y422626D01*
X584365Y422647D01*
X584605Y422673D01*
X584845Y422705D01*
X585084Y422743D01*
X585321Y422786D01*
X585558Y422836D01*
X585793Y422891D01*
X586027Y422951D01*
X586259Y423018D01*
X586490Y423089D01*
X586719Y423167D01*
X586946Y423250D01*
X587171Y423338D01*
X587394Y423432D01*
X587614Y423531D01*
X587832Y423636D01*
X588047Y423745D01*
X588260Y423860D01*
X588470Y423980D01*
X588676Y424105D01*
X588880Y424235D01*
X589081Y424370D01*
X589278Y424510D01*
X589472Y424654D01*
X589662Y424803D01*
X589848Y424957D01*
X590031Y425115D01*
X590210Y425277D01*
X590385Y425444D01*
X590556Y425615D01*
X590723Y425790D01*
X590885Y425969D01*
X591043Y426152D01*
X591197Y426338D01*
X591346Y426528D01*
X591490Y426722D01*
X591630Y426919D01*
X591765Y427120D01*
X591895Y427324D01*
X592020Y427530D01*
X592140Y427740D01*
X592255Y427953D01*
X592364Y428168D01*
X592469Y428386D01*
X592568Y428606D01*
X592662Y428829D01*
X592750Y429054D01*
X592833Y429281D01*
X592911Y429510D01*
X592982Y429741D01*
X593049Y429973D01*
X593109Y430207D01*
X593164Y430442D01*
X593214Y430679D01*
X593257Y430916D01*
X593295Y431155D01*
X593327Y431395D01*
X593353Y431635D01*
X593374Y431876D01*
X593388Y432117D01*
X593397Y432358D01*
X593400Y432600D01*
X583400Y422600D02*
X483400Y422600D01*
X483158Y422603D01*
X482917Y422612D01*
X482676Y422626D01*
X482435Y422647D01*
X482195Y422673D01*
X481955Y422705D01*
X481716Y422743D01*
X481479Y422786D01*
X481242Y422836D01*
X481007Y422891D01*
X480773Y422951D01*
X480541Y423018D01*
X480310Y423089D01*
X480081Y423167D01*
X479854Y423250D01*
X479629Y423338D01*
X479406Y423432D01*
X479186Y423531D01*
X478968Y423636D01*
X478753Y423745D01*
X478540Y423860D01*
X478330Y423980D01*
X478124Y424105D01*
X477920Y424235D01*
X477719Y424370D01*
X477522Y424510D01*
X477328Y424654D01*
X477138Y424803D01*
X476952Y424957D01*
X476769Y425115D01*
X476590Y425277D01*
X476415Y425444D01*
X476244Y425615D01*
X476077Y425790D01*
X475915Y425969D01*
X475757Y426152D01*
X475603Y426338D01*
X475454Y426528D01*
X475310Y426722D01*
X475170Y426919D01*
X475035Y427120D01*
X474905Y427324D01*
X474780Y427530D01*
X474660Y427740D01*
X474545Y427953D01*
X474436Y428168D01*
X474331Y428386D01*
X474232Y428606D01*
X474138Y428829D01*
X474050Y429054D01*
X473967Y429281D01*
X473889Y429510D01*
X473818Y429741D01*
X473751Y429973D01*
X473691Y430207D01*
X473636Y430442D01*
X473586Y430679D01*
X473543Y430916D01*
X473505Y431155D01*
X473473Y431395D01*
X473447Y431635D01*
X473426Y431876D01*
X473412Y432117D01*
X473403Y432358D01*
X473400Y432600D01*
X473400Y532600D02*
X473403Y532842D01*
X473412Y533083D01*
X473426Y533324D01*
X473447Y533565D01*
X473473Y533805D01*
X473505Y534045D01*
X473543Y534284D01*
X473586Y534521D01*
X473636Y534758D01*
X473691Y534993D01*
X473751Y535227D01*
X473818Y535459D01*
X473889Y535690D01*
X473967Y535919D01*
X474050Y536146D01*
X474138Y536371D01*
X474232Y536594D01*
X474331Y536814D01*
X474436Y537032D01*
X474545Y537247D01*
X474660Y537460D01*
X474780Y537670D01*
X474905Y537876D01*
X475035Y538080D01*
X475170Y538281D01*
X475310Y538478D01*
X475454Y538672D01*
X475603Y538862D01*
X475757Y539048D01*
X475915Y539231D01*
X476077Y539410D01*
X476244Y539585D01*
X476415Y539756D01*
X476590Y539923D01*
X476769Y540085D01*
X476952Y540243D01*
X477138Y540397D01*
X477328Y540546D01*
X477522Y540690D01*
X477719Y540830D01*
X477920Y540965D01*
X478124Y541095D01*
X478330Y541220D01*
X478540Y541340D01*
X478753Y541455D01*
X478968Y541564D01*
X479186Y541669D01*
X479406Y541768D01*
X479629Y541862D01*
X479854Y541950D01*
X480081Y542033D01*
X480310Y542111D01*
X480541Y542182D01*
X480773Y542249D01*
X481007Y542309D01*
X481242Y542364D01*
X481479Y542414D01*
X481716Y542457D01*
X481955Y542495D01*
X482195Y542527D01*
X482435Y542553D01*
X482676Y542574D01*
X482917Y542588D01*
X483158Y542597D01*
X483400Y542600D01*
X583400Y542600D01*
X583642Y542597D01*
X583883Y542588D01*
X584124Y542574D01*
X584365Y542553D01*
X584605Y542527D01*
X584845Y542495D01*
X585084Y542457D01*
X585321Y542414D01*
X585558Y542364D01*
X585793Y542309D01*
X586027Y542249D01*
X586259Y542182D01*
X586490Y542111D01*
X586719Y542033D01*
X586946Y541950D01*
X587171Y541862D01*
X587394Y541768D01*
X587614Y541669D01*
X587832Y541564D01*
X588047Y541455D01*
X588260Y541340D01*
X588470Y541220D01*
X588676Y541095D01*
X588880Y540965D01*
X589081Y540830D01*
X589278Y540690D01*
X589472Y540546D01*
X589662Y540397D01*
X589848Y540243D01*
X590031Y540085D01*
X590210Y539923D01*
X590385Y539756D01*
X590556Y539585D01*
X590723Y539410D01*
X590885Y539231D01*
X591043Y539048D01*
X591197Y538862D01*
X591346Y538672D01*
X591490Y538478D01*
X591630Y538281D01*
X591765Y538080D01*
X591895Y537876D01*
X592020Y537670D01*
X592140Y537460D01*
X592255Y537247D01*
X592364Y537032D01*
X592469Y536814D01*
X592568Y536594D01*
X592662Y536371D01*
X592750Y536146D01*
X592833Y535919D01*
X592911Y535690D01*
X592982Y535459D01*
X593049Y535227D01*
X593109Y534993D01*
X593164Y534758D01*
X593214Y534521D01*
X593257Y534284D01*
X593295Y534045D01*
X593327Y533805D01*
X593353Y533565D01*
X593374Y533324D01*
X593388Y533083D01*
X593397Y532842D01*
X593400Y532600D01*
X498045Y482600D02*
X498056Y483468D01*
X498088Y484335D01*
X498141Y485201D01*
X498215Y486065D01*
X498311Y486928D01*
X498428Y487788D01*
X498566Y488644D01*
X498724Y489497D01*
X498904Y490346D01*
X499105Y491191D01*
X499326Y492030D01*
X499567Y492863D01*
X499829Y493690D01*
X500112Y494511D01*
X500414Y495324D01*
X500736Y496130D01*
X501078Y496927D01*
X501439Y497716D01*
X501820Y498496D01*
X502220Y499266D01*
X502638Y500026D01*
X503075Y500776D01*
X503530Y501515D01*
X504003Y502242D01*
X504494Y502958D01*
X505003Y503661D01*
X505528Y504352D01*
X506070Y505029D01*
X506629Y505693D01*
X507204Y506343D01*
X507794Y506979D01*
X508400Y507600D01*
X509021Y508206D01*
X509657Y508796D01*
X510307Y509371D01*
X510971Y509930D01*
X511648Y510472D01*
X512339Y510997D01*
X513042Y511506D01*
X513758Y511997D01*
X514485Y512470D01*
X515224Y512925D01*
X515974Y513362D01*
X516734Y513780D01*
X517504Y514180D01*
X518284Y514561D01*
X519073Y514922D01*
X519870Y515264D01*
X520676Y515586D01*
X521489Y515888D01*
X522310Y516171D01*
X523137Y516433D01*
X523970Y516674D01*
X524809Y516895D01*
X525654Y517096D01*
X526503Y517276D01*
X527356Y517434D01*
X528212Y517572D01*
X529072Y517689D01*
X529935Y517785D01*
X530799Y517859D01*
X531665Y517912D01*
X532532Y517944D01*
X533400Y517955D01*
X534268Y517944D01*
X535135Y517912D01*
X536001Y517859D01*
X536865Y517785D01*
X537728Y517689D01*
X538588Y517572D01*
X539444Y517434D01*
X540297Y517276D01*
X541146Y517096D01*
X541991Y516895D01*
X542830Y516674D01*
X543663Y516433D01*
X544490Y516171D01*
X545311Y515888D01*
X546124Y515586D01*
X546930Y515264D01*
X547727Y514922D01*
X548516Y514561D01*
X549296Y514180D01*
X550066Y513780D01*
X550826Y513362D01*
X551576Y512925D01*
X552315Y512470D01*
X553042Y511997D01*
X553758Y511506D01*
X554461Y510997D01*
X555152Y510472D01*
X555829Y509930D01*
X556493Y509371D01*
X557143Y508796D01*
X557779Y508206D01*
X558400Y507600D01*
X559006Y506979D01*
X559596Y506343D01*
X560171Y505693D01*
X560730Y505029D01*
X561272Y504352D01*
X561797Y503661D01*
X562306Y502958D01*
X562797Y502242D01*
X563270Y501515D01*
X563725Y500776D01*
X564162Y500026D01*
X564580Y499266D01*
X564980Y498496D01*
X565361Y497716D01*
X565722Y496927D01*
X566064Y496130D01*
X566386Y495324D01*
X566688Y494511D01*
X566971Y493690D01*
X567233Y492863D01*
X567474Y492030D01*
X567695Y491191D01*
X567896Y490346D01*
X568076Y489497D01*
X568234Y488644D01*
X568372Y487788D01*
X568489Y486928D01*
X568585Y486065D01*
X568659Y485201D01*
X568712Y484335D01*
X568744Y483468D01*
X568755Y482600D01*
X568744Y481732D01*
X568712Y480865D01*
X568659Y479999D01*
X568585Y479135D01*
X568489Y478272D01*
X568372Y477412D01*
X568234Y476556D01*
X568076Y475703D01*
X567896Y474854D01*
X567695Y474009D01*
X567474Y473170D01*
X567233Y472337D01*
X566971Y471510D01*
X566688Y470689D01*
X566386Y469876D01*
X566064Y469070D01*
X565722Y468273D01*
X565361Y467484D01*
X564980Y466704D01*
X564580Y465934D01*
X564162Y465174D01*
X563725Y464424D01*
X563270Y463685D01*
X562797Y462958D01*
X562306Y462242D01*
X561797Y461539D01*
X561272Y460848D01*
X560730Y460171D01*
X560171Y459507D01*
X559596Y458857D01*
X559006Y458221D01*
X558400Y457600D01*
X557779Y456994D01*
X557143Y456404D01*
X556493Y455829D01*
X555829Y455270D01*
X555152Y454728D01*
X554461Y454203D01*
X553758Y453694D01*
X553042Y453203D01*
X552315Y452730D01*
X551576Y452275D01*
X550826Y451838D01*
X550066Y451420D01*
X549296Y451020D01*
X548516Y450639D01*
X547727Y450278D01*
X546930Y449936D01*
X546124Y449614D01*
X545311Y449312D01*
X544490Y449029D01*
X543663Y448767D01*
X542830Y448526D01*
X541991Y448305D01*
X541146Y448104D01*
X540297Y447924D01*
X539444Y447766D01*
X538588Y447628D01*
X537728Y447511D01*
X536865Y447415D01*
X536001Y447341D01*
X535135Y447288D01*
X534268Y447256D01*
X533400Y447245D01*
X532532Y447256D01*
X531665Y447288D01*
X530799Y447341D01*
X529935Y447415D01*
X529072Y447511D01*
X528212Y447628D01*
X527356Y447766D01*
X526503Y447924D01*
X525654Y448104D01*
X524809Y448305D01*
X523970Y448526D01*
X523137Y448767D01*
X522310Y449029D01*
X521489Y449312D01*
X520676Y449614D01*
X519870Y449936D01*
X519073Y450278D01*
X518284Y450639D01*
X517504Y451020D01*
X516734Y451420D01*
X515974Y451838D01*
X515224Y452275D01*
X514485Y452730D01*
X513758Y453203D01*
X513042Y453694D01*
X512339Y454203D01*
X511648Y454728D01*
X510971Y455270D01*
X510307Y455829D01*
X509657Y456404D01*
X509021Y456994D01*
X508400Y457600D01*
X507794Y458221D01*
X507204Y458857D01*
X506629Y459507D01*
X506070Y460171D01*
X505528Y460848D01*
X505003Y461539D01*
X504494Y462242D01*
X504003Y462958D01*
X503530Y463685D01*
X503075Y464424D01*
X502638Y465174D01*
X502220Y465934D01*
X501820Y466704D01*
X501439Y467484D01*
X501078Y468273D01*
X500736Y469070D01*
X500414Y469876D01*
X500112Y470689D01*
X499829Y471510D01*
X499567Y472337D01*
X499326Y473170D01*
X499105Y474009D01*
X498904Y474854D01*
X498724Y475703D01*
X498566Y476556D01*
X498428Y477412D01*
X498311Y478272D01*
X498215Y479135D01*
X498141Y479999D01*
X498088Y480865D01*
X498056Y481732D01*
X498045Y482600D01*
X513400Y502600D02*
X553400Y502600D01*
X553400Y462600D01*
X513400Y462600D01*
X513400Y502600D01*
X473400Y520100D02*
X473400Y532600D01*
X473400Y495100D02*
X473400Y470100D01*
X473400Y445100D02*
X473400Y432600D01*
X593400Y520100D02*
X593400Y532600D01*
X593400Y495100D02*
X593400Y470100D01*
X593400Y445100D02*
X593400Y432600D01*
D14*
X487003Y546608D02*
X487102Y546610D01*
X487202Y546616D01*
X487301Y546625D01*
X487399Y546638D01*
X487497Y546655D01*
X487595Y546676D01*
X487691Y546701D01*
X487786Y546729D01*
X487880Y546761D01*
X487973Y546796D01*
X488065Y546835D01*
X488155Y546878D01*
X488243Y546923D01*
X488330Y546973D01*
X488414Y547025D01*
X488497Y547081D01*
X488577Y547139D01*
X488655Y547201D01*
X488730Y547266D01*
X488803Y547334D01*
X488873Y547404D01*
X488941Y547477D01*
X489006Y547552D01*
X489068Y547630D01*
X489126Y547710D01*
X489182Y547793D01*
X489234Y547877D01*
X489284Y547964D01*
X489329Y548052D01*
X489372Y548142D01*
X489411Y548234D01*
X489446Y548327D01*
X489478Y548421D01*
X489506Y548516D01*
X489531Y548612D01*
X489552Y548710D01*
X489569Y548808D01*
X489582Y548906D01*
X489591Y549005D01*
X489597Y549105D01*
X489599Y549204D01*
X487003Y546608D02*
X486859Y546610D01*
X486714Y546616D01*
X486570Y546625D01*
X486427Y546638D01*
X486283Y546655D01*
X486140Y546676D01*
X485998Y546701D01*
X485857Y546729D01*
X485716Y546761D01*
X485576Y546797D01*
X485437Y546836D01*
X485299Y546879D01*
X485163Y546926D01*
X485027Y546976D01*
X484893Y547030D01*
X484761Y547087D01*
X484630Y547148D01*
X484501Y547212D01*
X484373Y547280D01*
X484247Y547350D01*
X484123Y547425D01*
X484002Y547502D01*
X483882Y547583D01*
X483764Y547666D01*
X483649Y547753D01*
X483536Y547843D01*
X483425Y547936D01*
X483317Y548031D01*
X483211Y548130D01*
X483108Y548231D01*
X483433Y555696D02*
X483435Y555795D01*
X483441Y555895D01*
X483450Y555994D01*
X483463Y556092D01*
X483480Y556190D01*
X483501Y556288D01*
X483526Y556384D01*
X483554Y556479D01*
X483586Y556573D01*
X483621Y556666D01*
X483660Y556758D01*
X483703Y556848D01*
X483748Y556936D01*
X483798Y557023D01*
X483850Y557107D01*
X483906Y557190D01*
X483964Y557270D01*
X484026Y557348D01*
X484091Y557423D01*
X484159Y557496D01*
X484229Y557566D01*
X484302Y557634D01*
X484377Y557699D01*
X484455Y557761D01*
X484535Y557819D01*
X484618Y557875D01*
X484702Y557927D01*
X484789Y557977D01*
X484877Y558022D01*
X484967Y558065D01*
X485059Y558104D01*
X485152Y558139D01*
X485246Y558171D01*
X485341Y558199D01*
X485438Y558224D01*
X485535Y558245D01*
X485633Y558262D01*
X485731Y558275D01*
X485830Y558284D01*
X485930Y558290D01*
X486029Y558292D01*
X486165Y558290D01*
X486301Y558284D01*
X486437Y558275D01*
X486573Y558262D01*
X486708Y558244D01*
X486842Y558224D01*
X486976Y558199D01*
X487110Y558171D01*
X487242Y558138D01*
X487373Y558103D01*
X487504Y558063D01*
X487633Y558020D01*
X487761Y557974D01*
X487887Y557923D01*
X488013Y557870D01*
X488136Y557812D01*
X488258Y557752D01*
X488378Y557688D01*
X488497Y557620D01*
X488613Y557550D01*
X488727Y557476D01*
X488840Y557399D01*
X488950Y557318D01*
X484731Y553424D02*
X484645Y553477D01*
X484561Y553534D01*
X484479Y553593D01*
X484399Y553656D01*
X484322Y553722D01*
X484247Y553790D01*
X484175Y553862D01*
X484106Y553936D01*
X484040Y554013D01*
X483977Y554092D01*
X483917Y554174D01*
X483860Y554258D01*
X483806Y554344D01*
X483756Y554432D01*
X483709Y554522D01*
X483665Y554613D01*
X483626Y554707D01*
X483589Y554801D01*
X483557Y554897D01*
X483528Y554995D01*
X483503Y555093D01*
X483482Y555192D01*
X483464Y555292D01*
X483451Y555392D01*
X483441Y555493D01*
X483435Y555595D01*
X483433Y555696D01*
X488301Y551476D02*
X488387Y551423D01*
X488471Y551366D01*
X488553Y551307D01*
X488633Y551244D01*
X488710Y551178D01*
X488785Y551110D01*
X488857Y551038D01*
X488926Y550964D01*
X488992Y550887D01*
X489055Y550808D01*
X489115Y550726D01*
X489172Y550642D01*
X489226Y550556D01*
X489276Y550468D01*
X489323Y550378D01*
X489367Y550287D01*
X489406Y550193D01*
X489443Y550099D01*
X489475Y550003D01*
X489504Y549905D01*
X489529Y549807D01*
X489550Y549708D01*
X489568Y549608D01*
X489581Y549508D01*
X489591Y549407D01*
X489597Y549305D01*
X489599Y549204D01*
X488301Y551476D02*
X484731Y553424D01*
X493734Y558292D02*
X496330Y546608D01*
X498927Y554397D01*
X501523Y546608D01*
X504119Y558292D01*
X508635Y546608D02*
X511881Y546608D01*
X511994Y546610D01*
X512107Y546616D01*
X512220Y546626D01*
X512333Y546640D01*
X512445Y546657D01*
X512556Y546679D01*
X512666Y546704D01*
X512776Y546734D01*
X512884Y546767D01*
X512991Y546804D01*
X513097Y546844D01*
X513201Y546889D01*
X513304Y546937D01*
X513405Y546988D01*
X513504Y547043D01*
X513601Y547101D01*
X513696Y547163D01*
X513789Y547228D01*
X513879Y547296D01*
X513967Y547367D01*
X514053Y547442D01*
X514136Y547519D01*
X514216Y547599D01*
X514293Y547682D01*
X514368Y547768D01*
X514439Y547856D01*
X514507Y547946D01*
X514572Y548039D01*
X514634Y548134D01*
X514692Y548231D01*
X514747Y548330D01*
X514798Y548431D01*
X514846Y548534D01*
X514891Y548638D01*
X514931Y548744D01*
X514968Y548851D01*
X515001Y548959D01*
X515031Y549069D01*
X515056Y549179D01*
X515078Y549290D01*
X515095Y549402D01*
X515109Y549515D01*
X515119Y549628D01*
X515125Y549741D01*
X515127Y549854D01*
X515125Y549967D01*
X515119Y550080D01*
X515109Y550193D01*
X515095Y550306D01*
X515078Y550418D01*
X515056Y550529D01*
X515031Y550639D01*
X515001Y550749D01*
X514968Y550857D01*
X514931Y550964D01*
X514891Y551070D01*
X514846Y551174D01*
X514798Y551277D01*
X514747Y551378D01*
X514692Y551477D01*
X514634Y551574D01*
X514572Y551669D01*
X514507Y551762D01*
X514439Y551852D01*
X514368Y551940D01*
X514293Y552026D01*
X514216Y552109D01*
X514136Y552189D01*
X514053Y552266D01*
X513967Y552341D01*
X513879Y552412D01*
X513789Y552480D01*
X513696Y552545D01*
X513601Y552607D01*
X513504Y552665D01*
X513405Y552720D01*
X513304Y552771D01*
X513201Y552819D01*
X513097Y552864D01*
X512991Y552904D01*
X512884Y552941D01*
X512776Y552974D01*
X512666Y553004D01*
X512556Y553029D01*
X512445Y553051D01*
X512333Y553068D01*
X512220Y553082D01*
X512107Y553092D01*
X511994Y553098D01*
X511881Y553100D01*
X512530Y558292D02*
X508635Y558292D01*
X512530Y558292D02*
X512631Y558290D01*
X512731Y558284D01*
X512831Y558274D01*
X512931Y558261D01*
X513030Y558243D01*
X513129Y558222D01*
X513226Y558197D01*
X513323Y558168D01*
X513418Y558135D01*
X513512Y558099D01*
X513604Y558059D01*
X513695Y558016D01*
X513784Y557969D01*
X513871Y557919D01*
X513957Y557865D01*
X514040Y557808D01*
X514120Y557748D01*
X514199Y557685D01*
X514275Y557618D01*
X514348Y557549D01*
X514418Y557477D01*
X514486Y557403D01*
X514551Y557326D01*
X514612Y557246D01*
X514671Y557164D01*
X514726Y557080D01*
X514778Y556994D01*
X514827Y556906D01*
X514872Y556816D01*
X514914Y556724D01*
X514952Y556631D01*
X514986Y556536D01*
X515017Y556441D01*
X515044Y556344D01*
X515067Y556246D01*
X515087Y556147D01*
X515102Y556047D01*
X515114Y555947D01*
X515122Y555847D01*
X515126Y555746D01*
X515126Y555646D01*
X515122Y555545D01*
X515114Y555445D01*
X515102Y555345D01*
X515087Y555245D01*
X515067Y555146D01*
X515044Y555048D01*
X515017Y554951D01*
X514986Y554856D01*
X514952Y554761D01*
X514914Y554668D01*
X514872Y554576D01*
X514827Y554486D01*
X514778Y554398D01*
X514726Y554312D01*
X514671Y554228D01*
X514612Y554146D01*
X514551Y554066D01*
X514486Y553989D01*
X514418Y553915D01*
X514348Y553843D01*
X514275Y553774D01*
X514199Y553707D01*
X514120Y553644D01*
X514040Y553584D01*
X513957Y553527D01*
X513871Y553473D01*
X513784Y553423D01*
X513695Y553376D01*
X513604Y553333D01*
X513512Y553293D01*
X513418Y553257D01*
X513323Y553224D01*
X513226Y553195D01*
X513129Y553170D01*
X513030Y553149D01*
X512931Y553131D01*
X512831Y553118D01*
X512731Y553108D01*
X512631Y553102D01*
X512530Y553100D01*
X512530Y553099D02*
X509933Y553099D01*
D12*
X89700Y647700D02*
X89700Y697700D01*
X89700Y737700D02*
X89700Y772700D01*
X189700Y772700D01*
X189700Y737700D01*
X189700Y697700D02*
X189700Y647700D01*
X179700Y647700D01*
X99700Y647700D02*
X89700Y647700D01*
X109700Y717700D02*
X109709Y718436D01*
X109736Y719172D01*
X109781Y719907D01*
X109844Y720641D01*
X109926Y721372D01*
X110025Y722102D01*
X110142Y722829D01*
X110276Y723553D01*
X110429Y724273D01*
X110599Y724989D01*
X110787Y725701D01*
X110992Y726409D01*
X111214Y727110D01*
X111454Y727807D01*
X111710Y728497D01*
X111984Y729181D01*
X112274Y729857D01*
X112580Y730527D01*
X112903Y731188D01*
X113242Y731842D01*
X113597Y732487D01*
X113968Y733123D01*
X114354Y733750D01*
X114756Y734367D01*
X115172Y734974D01*
X115604Y735571D01*
X116050Y736157D01*
X116510Y736732D01*
X116984Y737295D01*
X117471Y737847D01*
X117973Y738386D01*
X118487Y738913D01*
X119014Y739427D01*
X119553Y739929D01*
X120105Y740416D01*
X120668Y740890D01*
X121243Y741350D01*
X121829Y741796D01*
X122426Y742228D01*
X123033Y742644D01*
X123650Y743046D01*
X124277Y743432D01*
X124913Y743803D01*
X125558Y744158D01*
X126212Y744497D01*
X126873Y744820D01*
X127543Y745126D01*
X128219Y745416D01*
X128903Y745690D01*
X129593Y745946D01*
X130290Y746186D01*
X130991Y746408D01*
X131699Y746613D01*
X132411Y746801D01*
X133127Y746971D01*
X133847Y747124D01*
X134571Y747258D01*
X135298Y747375D01*
X136028Y747474D01*
X136759Y747556D01*
X137493Y747619D01*
X138228Y747664D01*
X138964Y747691D01*
X139700Y747700D01*
X140436Y747691D01*
X141172Y747664D01*
X141907Y747619D01*
X142641Y747556D01*
X143372Y747474D01*
X144102Y747375D01*
X144829Y747258D01*
X145553Y747124D01*
X146273Y746971D01*
X146989Y746801D01*
X147701Y746613D01*
X148409Y746408D01*
X149110Y746186D01*
X149807Y745946D01*
X150497Y745690D01*
X151181Y745416D01*
X151857Y745126D01*
X152527Y744820D01*
X153188Y744497D01*
X153842Y744158D01*
X154487Y743803D01*
X155123Y743432D01*
X155750Y743046D01*
X156367Y742644D01*
X156974Y742228D01*
X157571Y741796D01*
X158157Y741350D01*
X158732Y740890D01*
X159295Y740416D01*
X159847Y739929D01*
X160386Y739427D01*
X160913Y738913D01*
X161427Y738386D01*
X161929Y737847D01*
X162416Y737295D01*
X162890Y736732D01*
X163350Y736157D01*
X163796Y735571D01*
X164228Y734974D01*
X164644Y734367D01*
X165046Y733750D01*
X165432Y733123D01*
X165803Y732487D01*
X166158Y731842D01*
X166497Y731188D01*
X166820Y730527D01*
X167126Y729857D01*
X167416Y729181D01*
X167690Y728497D01*
X167946Y727807D01*
X168186Y727110D01*
X168408Y726409D01*
X168613Y725701D01*
X168801Y724989D01*
X168971Y724273D01*
X169124Y723553D01*
X169258Y722829D01*
X169375Y722102D01*
X169474Y721372D01*
X169556Y720641D01*
X169619Y719907D01*
X169664Y719172D01*
X169691Y718436D01*
X169700Y717700D01*
X169691Y716964D01*
X169664Y716228D01*
X169619Y715493D01*
X169556Y714759D01*
X169474Y714028D01*
X169375Y713298D01*
X169258Y712571D01*
X169124Y711847D01*
X168971Y711127D01*
X168801Y710411D01*
X168613Y709699D01*
X168408Y708991D01*
X168186Y708290D01*
X167946Y707593D01*
X167690Y706903D01*
X167416Y706219D01*
X167126Y705543D01*
X166820Y704873D01*
X166497Y704212D01*
X166158Y703558D01*
X165803Y702913D01*
X165432Y702277D01*
X165046Y701650D01*
X164644Y701033D01*
X164228Y700426D01*
X163796Y699829D01*
X163350Y699243D01*
X162890Y698668D01*
X162416Y698105D01*
X161929Y697553D01*
X161427Y697014D01*
X160913Y696487D01*
X160386Y695973D01*
X159847Y695471D01*
X159295Y694984D01*
X158732Y694510D01*
X158157Y694050D01*
X157571Y693604D01*
X156974Y693172D01*
X156367Y692756D01*
X155750Y692354D01*
X155123Y691968D01*
X154487Y691597D01*
X153842Y691242D01*
X153188Y690903D01*
X152527Y690580D01*
X151857Y690274D01*
X151181Y689984D01*
X150497Y689710D01*
X149807Y689454D01*
X149110Y689214D01*
X148409Y688992D01*
X147701Y688787D01*
X146989Y688599D01*
X146273Y688429D01*
X145553Y688276D01*
X144829Y688142D01*
X144102Y688025D01*
X143372Y687926D01*
X142641Y687844D01*
X141907Y687781D01*
X141172Y687736D01*
X140436Y687709D01*
X139700Y687700D01*
X138964Y687709D01*
X138228Y687736D01*
X137493Y687781D01*
X136759Y687844D01*
X136028Y687926D01*
X135298Y688025D01*
X134571Y688142D01*
X133847Y688276D01*
X133127Y688429D01*
X132411Y688599D01*
X131699Y688787D01*
X130991Y688992D01*
X130290Y689214D01*
X129593Y689454D01*
X128903Y689710D01*
X128219Y689984D01*
X127543Y690274D01*
X126873Y690580D01*
X126212Y690903D01*
X125558Y691242D01*
X124913Y691597D01*
X124277Y691968D01*
X123650Y692354D01*
X123033Y692756D01*
X122426Y693172D01*
X121829Y693604D01*
X121243Y694050D01*
X120668Y694510D01*
X120105Y694984D01*
X119553Y695471D01*
X119014Y695973D01*
X118487Y696487D01*
X117973Y697014D01*
X117471Y697553D01*
X116984Y698105D01*
X116510Y698668D01*
X116050Y699243D01*
X115604Y699829D01*
X115172Y700426D01*
X114756Y701033D01*
X114354Y701650D01*
X113968Y702277D01*
X113597Y702913D01*
X113242Y703558D01*
X112903Y704212D01*
X112580Y704873D01*
X112274Y705543D01*
X111984Y706219D01*
X111710Y706903D01*
X111454Y707593D01*
X111214Y708290D01*
X110992Y708991D01*
X110787Y709699D01*
X110599Y710411D01*
X110429Y711127D01*
X110276Y711847D01*
X110142Y712571D01*
X110025Y713298D01*
X109926Y714028D01*
X109844Y714759D01*
X109781Y715493D01*
X109736Y716228D01*
X109709Y716964D01*
X109700Y717700D01*
D16*
X89281Y775081D02*
X89281Y782447D01*
X91327Y782447D01*
X91416Y782445D01*
X91505Y782439D01*
X91594Y782429D01*
X91682Y782416D01*
X91770Y782399D01*
X91857Y782377D01*
X91942Y782352D01*
X92027Y782324D01*
X92110Y782291D01*
X92192Y782255D01*
X92272Y782216D01*
X92350Y782173D01*
X92426Y782127D01*
X92501Y782077D01*
X92573Y782024D01*
X92642Y781968D01*
X92709Y781909D01*
X92774Y781848D01*
X92835Y781783D01*
X92894Y781716D01*
X92950Y781647D01*
X93003Y781575D01*
X93053Y781500D01*
X93099Y781424D01*
X93142Y781346D01*
X93181Y781266D01*
X93217Y781184D01*
X93250Y781101D01*
X93278Y781016D01*
X93303Y780931D01*
X93325Y780844D01*
X93342Y780756D01*
X93355Y780668D01*
X93365Y780579D01*
X93371Y780490D01*
X93373Y780401D01*
X93371Y780312D01*
X93365Y780223D01*
X93355Y780134D01*
X93342Y780046D01*
X93325Y779958D01*
X93303Y779871D01*
X93278Y779786D01*
X93250Y779701D01*
X93217Y779618D01*
X93181Y779536D01*
X93142Y779456D01*
X93099Y779378D01*
X93053Y779302D01*
X93003Y779227D01*
X92950Y779155D01*
X92894Y779086D01*
X92835Y779019D01*
X92774Y778954D01*
X92709Y778893D01*
X92642Y778834D01*
X92573Y778778D01*
X92501Y778725D01*
X92426Y778675D01*
X92350Y778629D01*
X92272Y778586D01*
X92192Y778547D01*
X92110Y778511D01*
X92027Y778478D01*
X91942Y778450D01*
X91857Y778425D01*
X91770Y778403D01*
X91682Y778386D01*
X91594Y778373D01*
X91505Y778363D01*
X91416Y778357D01*
X91327Y778355D01*
X89281Y778355D01*
X91736Y778355D02*
X93373Y775081D01*
X96545Y780810D02*
X98591Y782447D01*
X98591Y775081D01*
X96545Y775081D02*
X100637Y775081D01*
D12*
X614680Y363220D02*
X624840Y363220D01*
D16*
X606679Y350901D02*
X599313Y350901D01*
X599313Y352947D01*
X599315Y353036D01*
X599321Y353125D01*
X599331Y353214D01*
X599344Y353302D01*
X599361Y353390D01*
X599383Y353477D01*
X599408Y353562D01*
X599436Y353647D01*
X599469Y353730D01*
X599505Y353812D01*
X599544Y353892D01*
X599587Y353970D01*
X599633Y354046D01*
X599683Y354121D01*
X599736Y354193D01*
X599792Y354262D01*
X599851Y354329D01*
X599912Y354394D01*
X599977Y354455D01*
X600044Y354514D01*
X600113Y354570D01*
X600185Y354623D01*
X600260Y354673D01*
X600336Y354719D01*
X600414Y354762D01*
X600494Y354801D01*
X600576Y354837D01*
X600659Y354870D01*
X600744Y354898D01*
X600829Y354923D01*
X600916Y354945D01*
X601004Y354962D01*
X601092Y354975D01*
X601181Y354985D01*
X601270Y354991D01*
X601359Y354993D01*
X601448Y354991D01*
X601537Y354985D01*
X601626Y354975D01*
X601714Y354962D01*
X601802Y354945D01*
X601889Y354923D01*
X601974Y354898D01*
X602059Y354870D01*
X602142Y354837D01*
X602224Y354801D01*
X602304Y354762D01*
X602382Y354719D01*
X602458Y354673D01*
X602533Y354623D01*
X602605Y354570D01*
X602674Y354514D01*
X602741Y354455D01*
X602806Y354394D01*
X602867Y354329D01*
X602926Y354262D01*
X602982Y354193D01*
X603035Y354121D01*
X603085Y354046D01*
X603131Y353970D01*
X603174Y353892D01*
X603213Y353812D01*
X603249Y353730D01*
X603282Y353647D01*
X603310Y353562D01*
X603335Y353477D01*
X603357Y353390D01*
X603374Y353302D01*
X603387Y353214D01*
X603397Y353125D01*
X603403Y353036D01*
X603405Y352947D01*
X603405Y350901D01*
X603405Y353356D02*
X606679Y354993D01*
X601155Y362258D02*
X601070Y362256D01*
X600985Y362250D01*
X600901Y362240D01*
X600817Y362227D01*
X600733Y362209D01*
X600651Y362188D01*
X600570Y362163D01*
X600490Y362134D01*
X600411Y362101D01*
X600334Y362065D01*
X600259Y362025D01*
X600185Y361982D01*
X600114Y361936D01*
X600045Y361886D01*
X599978Y361833D01*
X599914Y361777D01*
X599853Y361718D01*
X599794Y361657D01*
X599738Y361593D01*
X599685Y361526D01*
X599635Y361457D01*
X599589Y361386D01*
X599546Y361312D01*
X599506Y361237D01*
X599470Y361160D01*
X599437Y361081D01*
X599408Y361001D01*
X599383Y360920D01*
X599362Y360838D01*
X599344Y360754D01*
X599331Y360670D01*
X599321Y360586D01*
X599315Y360501D01*
X599313Y360416D01*
X599315Y360320D01*
X599321Y360224D01*
X599331Y360129D01*
X599344Y360034D01*
X599362Y359939D01*
X599383Y359846D01*
X599408Y359753D01*
X599437Y359662D01*
X599469Y359571D01*
X599505Y359482D01*
X599545Y359395D01*
X599588Y359309D01*
X599634Y359225D01*
X599684Y359143D01*
X599738Y359063D01*
X599794Y358986D01*
X599854Y358911D01*
X599916Y358838D01*
X599982Y358768D01*
X600050Y358700D01*
X600121Y358635D01*
X600194Y358574D01*
X600270Y358515D01*
X600349Y358459D01*
X600429Y358407D01*
X600512Y358358D01*
X600596Y358312D01*
X600682Y358270D01*
X600770Y358232D01*
X600859Y358197D01*
X600950Y358165D01*
X602587Y361643D02*
X602528Y361703D01*
X602466Y361760D01*
X602402Y361815D01*
X602335Y361866D01*
X602266Y361915D01*
X602196Y361961D01*
X602123Y362004D01*
X602049Y362044D01*
X601973Y362080D01*
X601895Y362113D01*
X601816Y362143D01*
X601736Y362170D01*
X601655Y362193D01*
X601573Y362212D01*
X601491Y362228D01*
X601407Y362241D01*
X601323Y362250D01*
X601239Y362255D01*
X601155Y362257D01*
X602587Y361643D02*
X606679Y358165D01*
X606679Y362257D01*
D12*
X617220Y513080D02*
X627380Y513080D01*
D16*
X609219Y500761D02*
X601853Y500761D01*
X601853Y502807D01*
X601855Y502896D01*
X601861Y502985D01*
X601871Y503074D01*
X601884Y503162D01*
X601901Y503250D01*
X601923Y503337D01*
X601948Y503422D01*
X601976Y503507D01*
X602009Y503590D01*
X602045Y503672D01*
X602084Y503752D01*
X602127Y503830D01*
X602173Y503906D01*
X602223Y503981D01*
X602276Y504053D01*
X602332Y504122D01*
X602391Y504189D01*
X602452Y504254D01*
X602517Y504315D01*
X602584Y504374D01*
X602653Y504430D01*
X602725Y504483D01*
X602800Y504533D01*
X602876Y504579D01*
X602954Y504622D01*
X603034Y504661D01*
X603116Y504697D01*
X603199Y504730D01*
X603284Y504758D01*
X603369Y504783D01*
X603456Y504805D01*
X603544Y504822D01*
X603632Y504835D01*
X603721Y504845D01*
X603810Y504851D01*
X603899Y504853D01*
X603988Y504851D01*
X604077Y504845D01*
X604166Y504835D01*
X604254Y504822D01*
X604342Y504805D01*
X604429Y504783D01*
X604514Y504758D01*
X604599Y504730D01*
X604682Y504697D01*
X604764Y504661D01*
X604844Y504622D01*
X604922Y504579D01*
X604998Y504533D01*
X605073Y504483D01*
X605145Y504430D01*
X605214Y504374D01*
X605281Y504315D01*
X605346Y504254D01*
X605407Y504189D01*
X605466Y504122D01*
X605522Y504053D01*
X605575Y503981D01*
X605625Y503906D01*
X605671Y503830D01*
X605714Y503752D01*
X605753Y503672D01*
X605789Y503590D01*
X605822Y503507D01*
X605850Y503422D01*
X605875Y503337D01*
X605897Y503250D01*
X605914Y503162D01*
X605927Y503074D01*
X605937Y502985D01*
X605943Y502896D01*
X605945Y502807D01*
X605945Y500761D01*
X605945Y503216D02*
X609219Y504853D01*
X609219Y508025D02*
X609219Y510071D01*
X609217Y510160D01*
X609211Y510249D01*
X609201Y510338D01*
X609188Y510426D01*
X609171Y510514D01*
X609149Y510601D01*
X609124Y510686D01*
X609096Y510771D01*
X609063Y510854D01*
X609027Y510936D01*
X608988Y511016D01*
X608945Y511094D01*
X608899Y511170D01*
X608849Y511245D01*
X608796Y511317D01*
X608740Y511386D01*
X608681Y511453D01*
X608620Y511518D01*
X608555Y511579D01*
X608488Y511638D01*
X608419Y511694D01*
X608347Y511747D01*
X608272Y511797D01*
X608196Y511843D01*
X608118Y511886D01*
X608038Y511925D01*
X607956Y511961D01*
X607873Y511994D01*
X607788Y512022D01*
X607703Y512047D01*
X607616Y512069D01*
X607528Y512086D01*
X607440Y512099D01*
X607351Y512109D01*
X607262Y512115D01*
X607173Y512117D01*
X607084Y512115D01*
X606995Y512109D01*
X606906Y512099D01*
X606818Y512086D01*
X606730Y512069D01*
X606643Y512047D01*
X606558Y512022D01*
X606473Y511994D01*
X606390Y511961D01*
X606308Y511925D01*
X606228Y511886D01*
X606150Y511843D01*
X606074Y511797D01*
X605999Y511747D01*
X605927Y511694D01*
X605858Y511638D01*
X605791Y511579D01*
X605726Y511518D01*
X605665Y511453D01*
X605606Y511386D01*
X605550Y511317D01*
X605497Y511245D01*
X605447Y511170D01*
X605401Y511094D01*
X605358Y511016D01*
X605319Y510936D01*
X605283Y510854D01*
X605250Y510771D01*
X605222Y510686D01*
X605197Y510601D01*
X605175Y510514D01*
X605158Y510426D01*
X605145Y510338D01*
X605135Y510249D01*
X605129Y510160D01*
X605127Y510071D01*
X601853Y510480D02*
X601853Y508025D01*
X601853Y510480D02*
X601855Y510559D01*
X601861Y510638D01*
X601870Y510717D01*
X601883Y510795D01*
X601901Y510872D01*
X601921Y510948D01*
X601946Y511023D01*
X601974Y511097D01*
X602005Y511170D01*
X602041Y511241D01*
X602079Y511310D01*
X602121Y511377D01*
X602166Y511442D01*
X602214Y511505D01*
X602265Y511566D01*
X602319Y511623D01*
X602375Y511679D01*
X602434Y511731D01*
X602496Y511781D01*
X602560Y511827D01*
X602626Y511871D01*
X602694Y511911D01*
X602764Y511947D01*
X602836Y511981D01*
X602910Y512011D01*
X602984Y512037D01*
X603060Y512060D01*
X603137Y512078D01*
X603214Y512094D01*
X603293Y512105D01*
X603371Y512113D01*
X603450Y512117D01*
X603530Y512117D01*
X603609Y512113D01*
X603687Y512105D01*
X603766Y512094D01*
X603843Y512078D01*
X603920Y512060D01*
X603996Y512037D01*
X604070Y512011D01*
X604144Y511981D01*
X604216Y511947D01*
X604286Y511911D01*
X604354Y511871D01*
X604420Y511827D01*
X604484Y511781D01*
X604546Y511731D01*
X604605Y511679D01*
X604661Y511623D01*
X604715Y511566D01*
X604766Y511505D01*
X604814Y511442D01*
X604859Y511377D01*
X604901Y511310D01*
X604939Y511241D01*
X604975Y511170D01*
X605006Y511097D01*
X605034Y511023D01*
X605059Y510948D01*
X605079Y510872D01*
X605097Y510795D01*
X605110Y510717D01*
X605119Y510638D01*
X605125Y510559D01*
X605127Y510480D01*
X605127Y508843D01*
D12*
X612140Y198120D02*
X622300Y198120D01*
D16*
X604139Y185801D02*
X596773Y185801D01*
X596773Y187847D01*
X596775Y187936D01*
X596781Y188025D01*
X596791Y188114D01*
X596804Y188202D01*
X596821Y188290D01*
X596843Y188377D01*
X596868Y188462D01*
X596896Y188547D01*
X596929Y188630D01*
X596965Y188712D01*
X597004Y188792D01*
X597047Y188870D01*
X597093Y188946D01*
X597143Y189021D01*
X597196Y189093D01*
X597252Y189162D01*
X597311Y189229D01*
X597372Y189294D01*
X597437Y189355D01*
X597504Y189414D01*
X597573Y189470D01*
X597645Y189523D01*
X597720Y189573D01*
X597796Y189619D01*
X597874Y189662D01*
X597954Y189701D01*
X598036Y189737D01*
X598119Y189770D01*
X598204Y189798D01*
X598289Y189823D01*
X598376Y189845D01*
X598464Y189862D01*
X598552Y189875D01*
X598641Y189885D01*
X598730Y189891D01*
X598819Y189893D01*
X598908Y189891D01*
X598997Y189885D01*
X599086Y189875D01*
X599174Y189862D01*
X599262Y189845D01*
X599349Y189823D01*
X599434Y189798D01*
X599519Y189770D01*
X599602Y189737D01*
X599684Y189701D01*
X599764Y189662D01*
X599842Y189619D01*
X599918Y189573D01*
X599993Y189523D01*
X600065Y189470D01*
X600134Y189414D01*
X600201Y189355D01*
X600266Y189294D01*
X600327Y189229D01*
X600386Y189162D01*
X600442Y189093D01*
X600495Y189021D01*
X600545Y188946D01*
X600591Y188870D01*
X600634Y188792D01*
X600673Y188712D01*
X600709Y188630D01*
X600742Y188547D01*
X600770Y188462D01*
X600795Y188377D01*
X600817Y188290D01*
X600834Y188202D01*
X600847Y188114D01*
X600857Y188025D01*
X600863Y187936D01*
X600865Y187847D01*
X600865Y185801D01*
X600865Y188256D02*
X604139Y189893D01*
X602502Y193065D02*
X596773Y194702D01*
X602502Y193065D02*
X602502Y197157D01*
X600865Y195930D02*
X604139Y195930D01*
D12*
X787400Y350520D02*
X787400Y360680D01*
D16*
X775081Y368681D02*
X775081Y376047D01*
X777127Y376047D01*
X777216Y376045D01*
X777305Y376039D01*
X777394Y376029D01*
X777482Y376016D01*
X777570Y375999D01*
X777657Y375977D01*
X777742Y375952D01*
X777827Y375924D01*
X777910Y375891D01*
X777992Y375855D01*
X778072Y375816D01*
X778150Y375773D01*
X778226Y375727D01*
X778301Y375677D01*
X778373Y375624D01*
X778442Y375568D01*
X778509Y375509D01*
X778574Y375448D01*
X778635Y375383D01*
X778694Y375316D01*
X778750Y375247D01*
X778803Y375175D01*
X778853Y375100D01*
X778899Y375024D01*
X778942Y374946D01*
X778981Y374866D01*
X779017Y374784D01*
X779050Y374701D01*
X779078Y374616D01*
X779103Y374531D01*
X779125Y374444D01*
X779142Y374356D01*
X779155Y374268D01*
X779165Y374179D01*
X779171Y374090D01*
X779173Y374001D01*
X779171Y373912D01*
X779165Y373823D01*
X779155Y373734D01*
X779142Y373646D01*
X779125Y373558D01*
X779103Y373471D01*
X779078Y373386D01*
X779050Y373301D01*
X779017Y373218D01*
X778981Y373136D01*
X778942Y373056D01*
X778899Y372978D01*
X778853Y372902D01*
X778803Y372827D01*
X778750Y372755D01*
X778694Y372686D01*
X778635Y372619D01*
X778574Y372554D01*
X778509Y372493D01*
X778442Y372434D01*
X778373Y372378D01*
X778301Y372325D01*
X778226Y372275D01*
X778150Y372229D01*
X778072Y372186D01*
X777992Y372147D01*
X777910Y372111D01*
X777827Y372078D01*
X777742Y372050D01*
X777657Y372025D01*
X777570Y372003D01*
X777482Y371986D01*
X777394Y371973D01*
X777305Y371963D01*
X777216Y371957D01*
X777127Y371955D01*
X775081Y371955D01*
X777536Y371955D02*
X779173Y368681D01*
X782345Y372773D02*
X784800Y372773D01*
X784878Y372771D01*
X784956Y372766D01*
X785033Y372756D01*
X785110Y372743D01*
X785186Y372727D01*
X785261Y372707D01*
X785335Y372683D01*
X785408Y372656D01*
X785480Y372625D01*
X785550Y372591D01*
X785619Y372554D01*
X785685Y372513D01*
X785750Y372469D01*
X785812Y372423D01*
X785872Y372373D01*
X785930Y372321D01*
X785985Y372266D01*
X786037Y372208D01*
X786087Y372148D01*
X786133Y372086D01*
X786177Y372021D01*
X786218Y371955D01*
X786255Y371886D01*
X786289Y371816D01*
X786320Y371744D01*
X786347Y371671D01*
X786371Y371597D01*
X786391Y371522D01*
X786407Y371446D01*
X786420Y371369D01*
X786430Y371292D01*
X786435Y371214D01*
X786437Y371136D01*
X786437Y370727D01*
X786435Y370638D01*
X786429Y370549D01*
X786419Y370460D01*
X786406Y370372D01*
X786389Y370284D01*
X786367Y370197D01*
X786342Y370112D01*
X786314Y370027D01*
X786281Y369944D01*
X786245Y369862D01*
X786206Y369782D01*
X786163Y369704D01*
X786117Y369628D01*
X786067Y369553D01*
X786014Y369481D01*
X785958Y369412D01*
X785899Y369345D01*
X785838Y369280D01*
X785773Y369219D01*
X785706Y369160D01*
X785637Y369104D01*
X785565Y369051D01*
X785490Y369001D01*
X785414Y368955D01*
X785336Y368912D01*
X785256Y368873D01*
X785174Y368837D01*
X785091Y368804D01*
X785006Y368776D01*
X784921Y368751D01*
X784834Y368729D01*
X784746Y368712D01*
X784658Y368699D01*
X784569Y368689D01*
X784480Y368683D01*
X784391Y368681D01*
X784302Y368683D01*
X784213Y368689D01*
X784124Y368699D01*
X784036Y368712D01*
X783948Y368729D01*
X783861Y368751D01*
X783776Y368776D01*
X783691Y368804D01*
X783608Y368837D01*
X783526Y368873D01*
X783446Y368912D01*
X783368Y368955D01*
X783292Y369001D01*
X783217Y369051D01*
X783145Y369104D01*
X783076Y369160D01*
X783009Y369219D01*
X782944Y369280D01*
X782883Y369345D01*
X782824Y369412D01*
X782768Y369481D01*
X782715Y369553D01*
X782665Y369628D01*
X782619Y369704D01*
X782576Y369782D01*
X782537Y369862D01*
X782501Y369944D01*
X782468Y370027D01*
X782440Y370112D01*
X782415Y370197D01*
X782393Y370284D01*
X782376Y370372D01*
X782363Y370460D01*
X782353Y370549D01*
X782347Y370638D01*
X782345Y370727D01*
X782345Y372773D01*
X782347Y372887D01*
X782353Y373001D01*
X782363Y373115D01*
X782377Y373229D01*
X782395Y373342D01*
X782417Y373454D01*
X782442Y373565D01*
X782472Y373675D01*
X782505Y373785D01*
X782542Y373893D01*
X782583Y373999D01*
X782628Y374105D01*
X782676Y374208D01*
X782728Y374310D01*
X782784Y374410D01*
X782842Y374508D01*
X782905Y374604D01*
X782970Y374697D01*
X783039Y374789D01*
X783111Y374877D01*
X783186Y374964D01*
X783264Y375047D01*
X783345Y375128D01*
X783428Y375206D01*
X783515Y375281D01*
X783603Y375353D01*
X783695Y375422D01*
X783788Y375487D01*
X783884Y375549D01*
X783982Y375608D01*
X784082Y375664D01*
X784184Y375716D01*
X784287Y375764D01*
X784393Y375809D01*
X784499Y375850D01*
X784607Y375887D01*
X784717Y375920D01*
X784827Y375950D01*
X784938Y375975D01*
X785050Y375997D01*
X785163Y376015D01*
X785277Y376029D01*
X785391Y376039D01*
X785505Y376045D01*
X785619Y376047D01*
D12*
X787400Y375920D02*
X787400Y386080D01*
D16*
X775081Y394081D02*
X775081Y401447D01*
X777127Y401447D01*
X777216Y401445D01*
X777305Y401439D01*
X777394Y401429D01*
X777482Y401416D01*
X777570Y401399D01*
X777657Y401377D01*
X777742Y401352D01*
X777827Y401324D01*
X777910Y401291D01*
X777992Y401255D01*
X778072Y401216D01*
X778150Y401173D01*
X778226Y401127D01*
X778301Y401077D01*
X778373Y401024D01*
X778442Y400968D01*
X778509Y400909D01*
X778574Y400848D01*
X778635Y400783D01*
X778694Y400716D01*
X778750Y400647D01*
X778803Y400575D01*
X778853Y400500D01*
X778899Y400424D01*
X778942Y400346D01*
X778981Y400266D01*
X779017Y400184D01*
X779050Y400101D01*
X779078Y400016D01*
X779103Y399931D01*
X779125Y399844D01*
X779142Y399756D01*
X779155Y399668D01*
X779165Y399579D01*
X779171Y399490D01*
X779173Y399401D01*
X779171Y399312D01*
X779165Y399223D01*
X779155Y399134D01*
X779142Y399046D01*
X779125Y398958D01*
X779103Y398871D01*
X779078Y398786D01*
X779050Y398701D01*
X779017Y398618D01*
X778981Y398536D01*
X778942Y398456D01*
X778899Y398378D01*
X778853Y398302D01*
X778803Y398227D01*
X778750Y398155D01*
X778694Y398086D01*
X778635Y398019D01*
X778574Y397954D01*
X778509Y397893D01*
X778442Y397834D01*
X778373Y397778D01*
X778301Y397725D01*
X778226Y397675D01*
X778150Y397629D01*
X778072Y397586D01*
X777992Y397547D01*
X777910Y397511D01*
X777827Y397478D01*
X777742Y397450D01*
X777657Y397425D01*
X777570Y397403D01*
X777482Y397386D01*
X777394Y397373D01*
X777305Y397363D01*
X777216Y397357D01*
X777127Y397355D01*
X775081Y397355D01*
X777536Y397355D02*
X779173Y394081D01*
X782345Y400629D02*
X782345Y401447D01*
X786437Y401447D01*
X784391Y394081D01*
D11*
X958850Y593090D02*
X959464Y593083D01*
X960077Y593060D01*
X960690Y593023D01*
X961301Y592971D01*
X961912Y592905D01*
X962520Y592823D01*
X963126Y592727D01*
X963730Y592617D01*
X964331Y592492D01*
X964929Y592352D01*
X965523Y592198D01*
X966113Y592029D01*
X966699Y591847D01*
X967280Y591650D01*
X967857Y591439D01*
X968428Y591215D01*
X968994Y590977D01*
X969554Y590725D01*
X970107Y590459D01*
X970654Y590181D01*
X971194Y589889D01*
X971727Y589584D01*
X972252Y589266D01*
X972770Y588936D01*
X973279Y588594D01*
X973780Y588239D01*
X974272Y587872D01*
X974755Y587494D01*
X975229Y587104D01*
X975693Y586702D01*
X976148Y586290D01*
X976592Y585866D01*
X977026Y585432D01*
X977450Y584988D01*
X977862Y584533D01*
X978264Y584069D01*
X978654Y583595D01*
X979032Y583112D01*
X979399Y582620D01*
X979754Y582119D01*
X980096Y581610D01*
X980426Y581092D01*
X980744Y580567D01*
X981049Y580034D01*
X981341Y579494D01*
X981619Y578947D01*
X981885Y578394D01*
X982137Y577834D01*
X982375Y577268D01*
X982599Y576697D01*
X982810Y576120D01*
X983007Y575539D01*
X983189Y574953D01*
X983358Y574363D01*
X983512Y573769D01*
X983652Y573171D01*
X983777Y572570D01*
X983887Y571966D01*
X983983Y571360D01*
X984065Y570752D01*
X984131Y570141D01*
X984183Y569530D01*
X984220Y568917D01*
X984243Y568304D01*
X984250Y567690D01*
X958850Y593090D02*
X742950Y593090D01*
X742336Y593083D01*
X741723Y593060D01*
X741110Y593023D01*
X740499Y592971D01*
X739888Y592905D01*
X739280Y592823D01*
X738674Y592727D01*
X738070Y592617D01*
X737469Y592492D01*
X736871Y592352D01*
X736277Y592198D01*
X735687Y592029D01*
X735101Y591847D01*
X734520Y591650D01*
X733943Y591439D01*
X733372Y591215D01*
X732806Y590977D01*
X732246Y590725D01*
X731693Y590459D01*
X731146Y590181D01*
X730606Y589889D01*
X730073Y589584D01*
X729548Y589266D01*
X729030Y588936D01*
X728521Y588594D01*
X728020Y588239D01*
X727528Y587872D01*
X727045Y587494D01*
X726571Y587104D01*
X726107Y586702D01*
X725652Y586290D01*
X725208Y585866D01*
X724774Y585432D01*
X724350Y584988D01*
X723938Y584533D01*
X723536Y584069D01*
X723146Y583595D01*
X722768Y583112D01*
X722401Y582620D01*
X722046Y582119D01*
X721704Y581610D01*
X721374Y581092D01*
X721056Y580567D01*
X720751Y580034D01*
X720459Y579494D01*
X720181Y578947D01*
X719915Y578394D01*
X719663Y577834D01*
X719425Y577268D01*
X719201Y576697D01*
X718990Y576120D01*
X718793Y575539D01*
X718611Y574953D01*
X718442Y574363D01*
X718288Y573769D01*
X718148Y573171D01*
X718023Y572570D01*
X717913Y571966D01*
X717817Y571360D01*
X717735Y570752D01*
X717669Y570141D01*
X717617Y569530D01*
X717580Y568917D01*
X717557Y568304D01*
X717550Y567690D01*
X717550Y118110D01*
X717557Y117496D01*
X717580Y116883D01*
X717617Y116270D01*
X717669Y115659D01*
X717735Y115048D01*
X717817Y114440D01*
X717913Y113834D01*
X718023Y113230D01*
X718148Y112629D01*
X718288Y112031D01*
X718442Y111437D01*
X718611Y110847D01*
X718793Y110261D01*
X718990Y109680D01*
X719201Y109103D01*
X719425Y108532D01*
X719663Y107966D01*
X719915Y107406D01*
X720181Y106853D01*
X720459Y106306D01*
X720751Y105766D01*
X721056Y105233D01*
X721374Y104708D01*
X721704Y104190D01*
X722046Y103681D01*
X722401Y103180D01*
X722768Y102688D01*
X723146Y102205D01*
X723536Y101731D01*
X723938Y101267D01*
X724350Y100812D01*
X724774Y100368D01*
X725208Y99934D01*
X725652Y99510D01*
X726107Y99098D01*
X726571Y98696D01*
X727045Y98306D01*
X727528Y97928D01*
X728020Y97561D01*
X728521Y97206D01*
X729030Y96864D01*
X729548Y96534D01*
X730073Y96216D01*
X730606Y95911D01*
X731146Y95619D01*
X731693Y95341D01*
X732246Y95075D01*
X732806Y94823D01*
X733372Y94585D01*
X733943Y94361D01*
X734520Y94150D01*
X735101Y93953D01*
X735687Y93771D01*
X736277Y93602D01*
X736871Y93448D01*
X737469Y93308D01*
X738070Y93183D01*
X738674Y93073D01*
X739280Y92977D01*
X739888Y92895D01*
X740499Y92829D01*
X741110Y92777D01*
X741723Y92740D01*
X742336Y92717D01*
X742950Y92710D01*
X958850Y92710D01*
X959464Y92717D01*
X960077Y92740D01*
X960690Y92777D01*
X961301Y92829D01*
X961912Y92895D01*
X962520Y92977D01*
X963126Y93073D01*
X963730Y93183D01*
X964331Y93308D01*
X964929Y93448D01*
X965523Y93602D01*
X966113Y93771D01*
X966699Y93953D01*
X967280Y94150D01*
X967857Y94361D01*
X968428Y94585D01*
X968994Y94823D01*
X969554Y95075D01*
X970107Y95341D01*
X970654Y95619D01*
X971194Y95911D01*
X971727Y96216D01*
X972252Y96534D01*
X972770Y96864D01*
X973279Y97206D01*
X973780Y97561D01*
X974272Y97928D01*
X974755Y98306D01*
X975229Y98696D01*
X975693Y99098D01*
X976148Y99510D01*
X976592Y99934D01*
X977026Y100368D01*
X977450Y100812D01*
X977862Y101267D01*
X978264Y101731D01*
X978654Y102205D01*
X979032Y102688D01*
X979399Y103180D01*
X979754Y103681D01*
X980096Y104190D01*
X980426Y104708D01*
X980744Y105233D01*
X981049Y105766D01*
X981341Y106306D01*
X981619Y106853D01*
X981885Y107406D01*
X982137Y107966D01*
X982375Y108532D01*
X982599Y109103D01*
X982810Y109680D01*
X983007Y110261D01*
X983189Y110847D01*
X983358Y111437D01*
X983512Y112031D01*
X983652Y112629D01*
X983777Y113230D01*
X983887Y113834D01*
X983983Y114440D01*
X984065Y115048D01*
X984131Y115659D01*
X984183Y116270D01*
X984220Y116883D01*
X984243Y117496D01*
X984250Y118110D01*
X984250Y567690D01*
D12*
X710565Y387985D02*
X710565Y386009D01*
X710563Y385920D01*
X710557Y385832D01*
X710547Y385744D01*
X710533Y385656D01*
X710515Y385569D01*
X710494Y385483D01*
X710468Y385398D01*
X710439Y385315D01*
X710406Y385232D01*
X710369Y385152D01*
X710329Y385073D01*
X710285Y384996D01*
X710238Y384920D01*
X710188Y384848D01*
X710134Y384777D01*
X710077Y384709D01*
X710017Y384643D01*
X709955Y384581D01*
X709889Y384521D01*
X709821Y384464D01*
X709750Y384410D01*
X709678Y384360D01*
X709603Y384313D01*
X709525Y384269D01*
X709446Y384229D01*
X709366Y384192D01*
X709283Y384159D01*
X709200Y384130D01*
X709115Y384104D01*
X709029Y384083D01*
X708942Y384065D01*
X708854Y384051D01*
X708766Y384041D01*
X708678Y384035D01*
X708589Y384033D01*
X708589Y384034D02*
X703651Y384034D01*
X703651Y384033D02*
X703562Y384035D01*
X703474Y384041D01*
X703386Y384051D01*
X703298Y384065D01*
X703211Y384083D01*
X703125Y384104D01*
X703040Y384130D01*
X702957Y384159D01*
X702874Y384192D01*
X702794Y384229D01*
X702715Y384269D01*
X702638Y384313D01*
X702562Y384360D01*
X702490Y384410D01*
X702419Y384464D01*
X702351Y384521D01*
X702285Y384581D01*
X702223Y384643D01*
X702163Y384709D01*
X702106Y384777D01*
X702052Y384848D01*
X702002Y384920D01*
X701955Y384995D01*
X701911Y385073D01*
X701871Y385152D01*
X701834Y385232D01*
X701801Y385315D01*
X701772Y385398D01*
X701746Y385483D01*
X701725Y385569D01*
X701707Y385656D01*
X701693Y385744D01*
X701683Y385832D01*
X701677Y385920D01*
X701675Y386009D01*
X701675Y387985D01*
X701675Y357646D02*
X710565Y357646D01*
X701675Y357646D02*
X701675Y360116D01*
X701677Y360213D01*
X701683Y360310D01*
X701692Y360406D01*
X701705Y360502D01*
X701722Y360598D01*
X701743Y360692D01*
X701768Y360786D01*
X701796Y360879D01*
X701828Y360971D01*
X701863Y361061D01*
X701902Y361150D01*
X701944Y361237D01*
X701990Y361322D01*
X702039Y361406D01*
X702091Y361488D01*
X702147Y361567D01*
X702205Y361645D01*
X702267Y361719D01*
X702331Y361792D01*
X702398Y361862D01*
X702468Y361929D01*
X702541Y361993D01*
X702615Y362055D01*
X702693Y362113D01*
X702772Y362169D01*
X702854Y362221D01*
X702938Y362270D01*
X703023Y362316D01*
X703110Y362358D01*
X703199Y362397D01*
X703289Y362432D01*
X703381Y362464D01*
X703474Y362492D01*
X703568Y362517D01*
X703662Y362538D01*
X703758Y362555D01*
X703854Y362568D01*
X703950Y362577D01*
X704047Y362583D01*
X704144Y362585D01*
X708096Y362585D01*
X708193Y362583D01*
X708290Y362577D01*
X708386Y362568D01*
X708482Y362555D01*
X708578Y362538D01*
X708672Y362517D01*
X708766Y362492D01*
X708859Y362464D01*
X708951Y362432D01*
X709041Y362397D01*
X709130Y362358D01*
X709217Y362316D01*
X709302Y362270D01*
X709386Y362221D01*
X709468Y362169D01*
X709547Y362113D01*
X709625Y362055D01*
X709699Y361993D01*
X709772Y361929D01*
X709842Y361862D01*
X709909Y361792D01*
X709973Y361719D01*
X710035Y361645D01*
X710093Y361567D01*
X710149Y361488D01*
X710201Y361406D01*
X710250Y361322D01*
X710296Y361237D01*
X710338Y361150D01*
X710377Y361061D01*
X710412Y360971D01*
X710444Y360879D01*
X710472Y360786D01*
X710497Y360692D01*
X710518Y360598D01*
X710535Y360502D01*
X710548Y360406D01*
X710557Y360310D01*
X710563Y360213D01*
X710565Y360116D01*
X710565Y357646D01*
X707108Y337185D02*
X707108Y331258D01*
X707108Y311785D02*
X707108Y305858D01*
X710071Y308822D02*
X704144Y308822D01*
X707390Y114935D02*
X699135Y114935D01*
X707390Y114935D02*
X707501Y114937D01*
X707611Y114943D01*
X707722Y114952D01*
X707832Y114966D01*
X707941Y114983D01*
X708050Y115004D01*
X708158Y115029D01*
X708265Y115058D01*
X708371Y115090D01*
X708476Y115126D01*
X708579Y115166D01*
X708681Y115209D01*
X708782Y115256D01*
X708881Y115307D01*
X708978Y115360D01*
X709072Y115417D01*
X709165Y115478D01*
X709256Y115541D01*
X709345Y115608D01*
X709431Y115678D01*
X709514Y115751D01*
X709596Y115826D01*
X709674Y115904D01*
X709749Y115986D01*
X709822Y116069D01*
X709892Y116155D01*
X709959Y116244D01*
X710022Y116335D01*
X710083Y116428D01*
X710140Y116522D01*
X710193Y116619D01*
X710244Y116718D01*
X710291Y116819D01*
X710334Y116921D01*
X710374Y117024D01*
X710410Y117129D01*
X710442Y117235D01*
X710471Y117342D01*
X710496Y117450D01*
X710517Y117559D01*
X710534Y117668D01*
X710548Y117778D01*
X710557Y117889D01*
X710563Y117999D01*
X710565Y118110D01*
X710563Y118221D01*
X710557Y118331D01*
X710548Y118442D01*
X710534Y118552D01*
X710517Y118661D01*
X710496Y118770D01*
X710471Y118878D01*
X710442Y118985D01*
X710410Y119091D01*
X710374Y119196D01*
X710334Y119299D01*
X710291Y119401D01*
X710244Y119502D01*
X710193Y119601D01*
X710140Y119697D01*
X710083Y119792D01*
X710022Y119885D01*
X709959Y119976D01*
X709892Y120065D01*
X709822Y120151D01*
X709749Y120234D01*
X709674Y120316D01*
X709596Y120394D01*
X709514Y120469D01*
X709431Y120542D01*
X709345Y120612D01*
X709256Y120679D01*
X709165Y120742D01*
X709072Y120803D01*
X708978Y120860D01*
X708881Y120913D01*
X708782Y120964D01*
X708681Y121011D01*
X708579Y121054D01*
X708476Y121094D01*
X708371Y121130D01*
X708265Y121162D01*
X708158Y121191D01*
X708050Y121216D01*
X707941Y121237D01*
X707832Y121254D01*
X707722Y121268D01*
X707611Y121277D01*
X707501Y121283D01*
X707390Y121285D01*
X699135Y121285D01*
X699135Y129286D02*
X708025Y126746D01*
X708025Y133096D01*
X705485Y131191D02*
X710565Y131191D01*
X665480Y596900D02*
X655320Y596900D01*
D16*
X647319Y584581D02*
X639953Y584581D01*
X639953Y586627D01*
X639955Y586716D01*
X639961Y586805D01*
X639971Y586894D01*
X639984Y586982D01*
X640001Y587070D01*
X640023Y587157D01*
X640048Y587242D01*
X640076Y587327D01*
X640109Y587410D01*
X640145Y587492D01*
X640184Y587572D01*
X640227Y587650D01*
X640273Y587726D01*
X640323Y587801D01*
X640376Y587873D01*
X640432Y587942D01*
X640491Y588009D01*
X640552Y588074D01*
X640617Y588135D01*
X640684Y588194D01*
X640753Y588250D01*
X640825Y588303D01*
X640900Y588353D01*
X640976Y588399D01*
X641054Y588442D01*
X641134Y588481D01*
X641216Y588517D01*
X641299Y588550D01*
X641384Y588578D01*
X641469Y588603D01*
X641556Y588625D01*
X641644Y588642D01*
X641732Y588655D01*
X641821Y588665D01*
X641910Y588671D01*
X641999Y588673D01*
X642088Y588671D01*
X642177Y588665D01*
X642266Y588655D01*
X642354Y588642D01*
X642442Y588625D01*
X642529Y588603D01*
X642614Y588578D01*
X642699Y588550D01*
X642782Y588517D01*
X642864Y588481D01*
X642944Y588442D01*
X643022Y588399D01*
X643098Y588353D01*
X643173Y588303D01*
X643245Y588250D01*
X643314Y588194D01*
X643381Y588135D01*
X643446Y588074D01*
X643507Y588009D01*
X643566Y587942D01*
X643622Y587873D01*
X643675Y587801D01*
X643725Y587726D01*
X643771Y587650D01*
X643814Y587572D01*
X643853Y587492D01*
X643889Y587410D01*
X643922Y587327D01*
X643950Y587242D01*
X643975Y587157D01*
X643997Y587070D01*
X644014Y586982D01*
X644027Y586894D01*
X644037Y586805D01*
X644043Y586716D01*
X644045Y586627D01*
X644045Y584581D01*
X644045Y587036D02*
X647319Y588673D01*
X647319Y591845D02*
X647319Y594300D01*
X647317Y594378D01*
X647312Y594456D01*
X647302Y594533D01*
X647289Y594610D01*
X647273Y594686D01*
X647253Y594761D01*
X647229Y594835D01*
X647202Y594908D01*
X647171Y594980D01*
X647137Y595050D01*
X647100Y595119D01*
X647059Y595185D01*
X647015Y595250D01*
X646969Y595312D01*
X646919Y595372D01*
X646867Y595430D01*
X646812Y595485D01*
X646754Y595537D01*
X646694Y595587D01*
X646632Y595633D01*
X646567Y595677D01*
X646501Y595718D01*
X646432Y595755D01*
X646362Y595789D01*
X646290Y595820D01*
X646217Y595847D01*
X646143Y595871D01*
X646068Y595891D01*
X645992Y595907D01*
X645915Y595920D01*
X645838Y595930D01*
X645760Y595935D01*
X645682Y595937D01*
X644864Y595937D01*
X644784Y595935D01*
X644704Y595929D01*
X644624Y595919D01*
X644545Y595906D01*
X644466Y595888D01*
X644389Y595867D01*
X644313Y595841D01*
X644238Y595812D01*
X644164Y595780D01*
X644092Y595744D01*
X644022Y595704D01*
X643955Y595661D01*
X643889Y595615D01*
X643826Y595565D01*
X643765Y595513D01*
X643706Y595458D01*
X643651Y595399D01*
X643599Y595339D01*
X643549Y595275D01*
X643503Y595209D01*
X643460Y595142D01*
X643420Y595072D01*
X643384Y595000D01*
X643352Y594926D01*
X643323Y594852D01*
X643297Y594775D01*
X643276Y594698D01*
X643258Y594619D01*
X643245Y594540D01*
X643235Y594460D01*
X643229Y594380D01*
X643227Y594300D01*
X643227Y591845D01*
X639953Y591845D01*
X639953Y595937D01*
D12*
X939800Y368300D02*
X965200Y368300D01*
X965200Y266700D01*
X939800Y266700D01*
X939800Y368300D01*
X927100Y285750D02*
X927100Y273050D01*
X920750Y279400D02*
X933450Y279400D01*
X933450Y304800D02*
X920750Y304800D01*
X920750Y352425D02*
X923925Y352425D01*
X923925Y358775D01*
X930275Y358775D01*
X930275Y352425D01*
X933450Y352425D01*
X923925Y327025D02*
X920750Y327025D01*
X923925Y327025D02*
X923925Y333375D01*
X930275Y333375D01*
X930275Y327025D01*
X933450Y327025D01*
D14*
X933958Y377134D02*
X933958Y382270D01*
X933958Y377134D02*
X933960Y377047D01*
X933966Y376959D01*
X933975Y376872D01*
X933989Y376786D01*
X934006Y376700D01*
X934027Y376616D01*
X934052Y376532D01*
X934081Y376449D01*
X934113Y376368D01*
X934148Y376288D01*
X934187Y376210D01*
X934230Y376133D01*
X934276Y376059D01*
X934325Y375987D01*
X934377Y375917D01*
X934433Y375849D01*
X934491Y375784D01*
X934552Y375721D01*
X934616Y375662D01*
X934683Y375605D01*
X934751Y375551D01*
X934823Y375500D01*
X934896Y375453D01*
X934971Y375408D01*
X935049Y375367D01*
X935128Y375330D01*
X935208Y375296D01*
X935290Y375266D01*
X935373Y375239D01*
X935458Y375216D01*
X935543Y375197D01*
X935629Y375182D01*
X935716Y375170D01*
X935803Y375162D01*
X935890Y375158D01*
X935978Y375158D01*
X936065Y375162D01*
X936152Y375170D01*
X936239Y375182D01*
X936325Y375197D01*
X936410Y375216D01*
X936495Y375239D01*
X936578Y375266D01*
X936660Y375296D01*
X936740Y375330D01*
X936819Y375367D01*
X936897Y375408D01*
X936972Y375453D01*
X937045Y375500D01*
X937117Y375551D01*
X937185Y375605D01*
X937252Y375662D01*
X937316Y375721D01*
X937377Y375784D01*
X937435Y375849D01*
X937491Y375917D01*
X937543Y375987D01*
X937592Y376059D01*
X937638Y376133D01*
X937681Y376210D01*
X937720Y376288D01*
X937755Y376368D01*
X937787Y376449D01*
X937816Y376532D01*
X937841Y376616D01*
X937862Y376700D01*
X937879Y376786D01*
X937893Y376872D01*
X937902Y376959D01*
X937908Y377047D01*
X937910Y377134D01*
X937909Y377134D02*
X937909Y382270D01*
X941517Y375158D02*
X943888Y375158D01*
X943966Y375160D01*
X944043Y375166D01*
X944120Y375175D01*
X944196Y375188D01*
X944272Y375205D01*
X944347Y375226D01*
X944420Y375250D01*
X944493Y375278D01*
X944564Y375310D01*
X944633Y375345D01*
X944700Y375383D01*
X944766Y375424D01*
X944829Y375469D01*
X944890Y375517D01*
X944949Y375567D01*
X945005Y375621D01*
X945059Y375677D01*
X945109Y375736D01*
X945157Y375797D01*
X945202Y375860D01*
X945243Y375926D01*
X945281Y375993D01*
X945316Y376062D01*
X945348Y376133D01*
X945376Y376206D01*
X945400Y376279D01*
X945421Y376354D01*
X945438Y376430D01*
X945451Y376506D01*
X945460Y376583D01*
X945466Y376660D01*
X945468Y376738D01*
X945468Y377529D01*
X945466Y377607D01*
X945460Y377684D01*
X945451Y377761D01*
X945438Y377837D01*
X945421Y377913D01*
X945400Y377988D01*
X945376Y378061D01*
X945348Y378134D01*
X945316Y378205D01*
X945281Y378274D01*
X945243Y378341D01*
X945202Y378407D01*
X945157Y378470D01*
X945109Y378531D01*
X945059Y378590D01*
X945005Y378646D01*
X944949Y378700D01*
X944890Y378750D01*
X944829Y378798D01*
X944766Y378843D01*
X944700Y378884D01*
X944633Y378922D01*
X944564Y378957D01*
X944493Y378989D01*
X944420Y379017D01*
X944347Y379041D01*
X944272Y379062D01*
X944196Y379079D01*
X944120Y379092D01*
X944043Y379101D01*
X943966Y379107D01*
X943888Y379109D01*
X941517Y379109D01*
X941517Y382270D01*
X945468Y382270D01*
D12*
X101600Y393700D02*
X76200Y393700D01*
X101600Y393700D02*
X101600Y292100D01*
X76200Y292100D01*
X76200Y393700D01*
X63500Y311150D02*
X63500Y298450D01*
X57150Y304800D02*
X69850Y304800D01*
X69850Y330200D02*
X57150Y330200D01*
X57150Y377825D02*
X60325Y377825D01*
X60325Y384175D01*
X66675Y384175D01*
X66675Y377825D01*
X69850Y377825D01*
X60325Y352425D02*
X57150Y352425D01*
X60325Y352425D02*
X60325Y358775D01*
X66675Y358775D01*
X66675Y352425D01*
X69850Y352425D01*
D14*
X70358Y402534D02*
X70358Y407670D01*
X70358Y402534D02*
X70360Y402447D01*
X70366Y402359D01*
X70375Y402272D01*
X70389Y402186D01*
X70406Y402100D01*
X70427Y402016D01*
X70452Y401932D01*
X70481Y401849D01*
X70513Y401768D01*
X70548Y401688D01*
X70587Y401610D01*
X70630Y401533D01*
X70676Y401459D01*
X70725Y401387D01*
X70777Y401317D01*
X70833Y401249D01*
X70891Y401184D01*
X70952Y401121D01*
X71016Y401062D01*
X71083Y401005D01*
X71151Y400951D01*
X71223Y400900D01*
X71296Y400853D01*
X71371Y400808D01*
X71449Y400767D01*
X71528Y400730D01*
X71608Y400696D01*
X71690Y400666D01*
X71773Y400639D01*
X71858Y400616D01*
X71943Y400597D01*
X72029Y400582D01*
X72116Y400570D01*
X72203Y400562D01*
X72290Y400558D01*
X72378Y400558D01*
X72465Y400562D01*
X72552Y400570D01*
X72639Y400582D01*
X72725Y400597D01*
X72810Y400616D01*
X72895Y400639D01*
X72978Y400666D01*
X73060Y400696D01*
X73140Y400730D01*
X73219Y400767D01*
X73297Y400808D01*
X73372Y400853D01*
X73445Y400900D01*
X73517Y400951D01*
X73585Y401005D01*
X73652Y401062D01*
X73716Y401121D01*
X73777Y401184D01*
X73835Y401249D01*
X73891Y401317D01*
X73943Y401387D01*
X73992Y401459D01*
X74038Y401533D01*
X74081Y401610D01*
X74120Y401688D01*
X74155Y401768D01*
X74187Y401849D01*
X74216Y401932D01*
X74241Y402016D01*
X74262Y402100D01*
X74279Y402186D01*
X74293Y402272D01*
X74302Y402359D01*
X74308Y402447D01*
X74310Y402534D01*
X74309Y402534D02*
X74309Y407670D01*
X77917Y404509D02*
X80288Y404509D01*
X80366Y404507D01*
X80443Y404501D01*
X80520Y404492D01*
X80596Y404479D01*
X80672Y404462D01*
X80747Y404441D01*
X80820Y404417D01*
X80893Y404389D01*
X80964Y404357D01*
X81033Y404322D01*
X81100Y404284D01*
X81166Y404243D01*
X81229Y404198D01*
X81290Y404150D01*
X81349Y404100D01*
X81405Y404046D01*
X81459Y403990D01*
X81509Y403931D01*
X81557Y403870D01*
X81602Y403807D01*
X81643Y403741D01*
X81681Y403674D01*
X81716Y403605D01*
X81748Y403534D01*
X81776Y403461D01*
X81800Y403388D01*
X81821Y403313D01*
X81838Y403237D01*
X81851Y403161D01*
X81860Y403084D01*
X81866Y403007D01*
X81868Y402929D01*
X81868Y402534D01*
X81869Y402534D02*
X81867Y402447D01*
X81861Y402359D01*
X81852Y402272D01*
X81838Y402186D01*
X81821Y402100D01*
X81800Y402016D01*
X81775Y401932D01*
X81746Y401849D01*
X81714Y401768D01*
X81679Y401688D01*
X81640Y401610D01*
X81597Y401533D01*
X81551Y401459D01*
X81502Y401387D01*
X81450Y401317D01*
X81394Y401249D01*
X81336Y401184D01*
X81275Y401121D01*
X81211Y401062D01*
X81144Y401005D01*
X81076Y400951D01*
X81004Y400900D01*
X80931Y400853D01*
X80856Y400808D01*
X80778Y400767D01*
X80699Y400730D01*
X80619Y400696D01*
X80537Y400666D01*
X80454Y400639D01*
X80369Y400616D01*
X80284Y400597D01*
X80198Y400582D01*
X80111Y400570D01*
X80024Y400562D01*
X79937Y400558D01*
X79849Y400558D01*
X79762Y400562D01*
X79675Y400570D01*
X79588Y400582D01*
X79502Y400597D01*
X79417Y400616D01*
X79332Y400639D01*
X79249Y400666D01*
X79167Y400696D01*
X79087Y400730D01*
X79008Y400767D01*
X78930Y400808D01*
X78855Y400853D01*
X78782Y400900D01*
X78710Y400951D01*
X78642Y401005D01*
X78575Y401062D01*
X78511Y401121D01*
X78450Y401184D01*
X78392Y401249D01*
X78336Y401317D01*
X78284Y401387D01*
X78235Y401459D01*
X78189Y401533D01*
X78146Y401610D01*
X78107Y401688D01*
X78072Y401768D01*
X78040Y401849D01*
X78011Y401932D01*
X77986Y402016D01*
X77965Y402100D01*
X77948Y402186D01*
X77934Y402272D01*
X77925Y402359D01*
X77919Y402447D01*
X77917Y402534D01*
X77917Y404509D01*
X77919Y404619D01*
X77925Y404729D01*
X77934Y404839D01*
X77948Y404949D01*
X77965Y405058D01*
X77986Y405166D01*
X78011Y405274D01*
X78039Y405380D01*
X78072Y405486D01*
X78108Y405590D01*
X78147Y405693D01*
X78190Y405795D01*
X78237Y405895D01*
X78287Y405993D01*
X78340Y406089D01*
X78397Y406184D01*
X78457Y406277D01*
X78521Y406367D01*
X78587Y406455D01*
X78657Y406541D01*
X78729Y406624D01*
X78804Y406705D01*
X78882Y406783D01*
X78963Y406858D01*
X79046Y406930D01*
X79132Y407000D01*
X79220Y407066D01*
X79310Y407130D01*
X79403Y407190D01*
X79497Y407246D01*
X79594Y407300D01*
X79692Y407350D01*
X79792Y407397D01*
X79894Y407440D01*
X79997Y407479D01*
X80101Y407515D01*
X80207Y407548D01*
X80313Y407576D01*
X80421Y407601D01*
X80529Y407622D01*
X80638Y407639D01*
X80748Y407653D01*
X80857Y407662D01*
X80968Y407668D01*
X81078Y407670D01*
D12*
X49530Y736600D02*
X39370Y736600D01*
D16*
X31369Y724281D02*
X24003Y724281D01*
X24003Y726327D01*
X24005Y726416D01*
X24011Y726505D01*
X24021Y726594D01*
X24034Y726682D01*
X24051Y726770D01*
X24073Y726857D01*
X24098Y726942D01*
X24126Y727027D01*
X24159Y727110D01*
X24195Y727192D01*
X24234Y727272D01*
X24277Y727350D01*
X24323Y727426D01*
X24373Y727501D01*
X24426Y727573D01*
X24482Y727642D01*
X24541Y727709D01*
X24602Y727774D01*
X24667Y727835D01*
X24734Y727894D01*
X24803Y727950D01*
X24875Y728003D01*
X24950Y728053D01*
X25026Y728099D01*
X25104Y728142D01*
X25184Y728181D01*
X25266Y728217D01*
X25349Y728250D01*
X25434Y728278D01*
X25519Y728303D01*
X25606Y728325D01*
X25694Y728342D01*
X25782Y728355D01*
X25871Y728365D01*
X25960Y728371D01*
X26049Y728373D01*
X26138Y728371D01*
X26227Y728365D01*
X26316Y728355D01*
X26404Y728342D01*
X26492Y728325D01*
X26579Y728303D01*
X26664Y728278D01*
X26749Y728250D01*
X26832Y728217D01*
X26914Y728181D01*
X26994Y728142D01*
X27072Y728099D01*
X27148Y728053D01*
X27223Y728003D01*
X27295Y727950D01*
X27364Y727894D01*
X27431Y727835D01*
X27496Y727774D01*
X27557Y727709D01*
X27616Y727642D01*
X27672Y727573D01*
X27725Y727501D01*
X27775Y727426D01*
X27821Y727350D01*
X27864Y727272D01*
X27903Y727192D01*
X27939Y727110D01*
X27972Y727027D01*
X28000Y726942D01*
X28025Y726857D01*
X28047Y726770D01*
X28064Y726682D01*
X28077Y726594D01*
X28087Y726505D01*
X28093Y726416D01*
X28095Y726327D01*
X28095Y724281D01*
X28095Y726736D02*
X31369Y728373D01*
X29323Y731545D02*
X29234Y731547D01*
X29145Y731553D01*
X29056Y731563D01*
X28968Y731576D01*
X28880Y731593D01*
X28793Y731615D01*
X28708Y731640D01*
X28623Y731668D01*
X28540Y731701D01*
X28458Y731737D01*
X28378Y731776D01*
X28300Y731819D01*
X28224Y731865D01*
X28149Y731915D01*
X28077Y731968D01*
X28008Y732024D01*
X27941Y732083D01*
X27876Y732144D01*
X27815Y732209D01*
X27756Y732276D01*
X27700Y732345D01*
X27647Y732417D01*
X27597Y732492D01*
X27551Y732568D01*
X27508Y732646D01*
X27469Y732726D01*
X27433Y732808D01*
X27400Y732891D01*
X27372Y732976D01*
X27347Y733061D01*
X27325Y733148D01*
X27308Y733236D01*
X27295Y733324D01*
X27285Y733413D01*
X27279Y733502D01*
X27277Y733591D01*
X27279Y733680D01*
X27285Y733769D01*
X27295Y733858D01*
X27308Y733946D01*
X27325Y734034D01*
X27347Y734121D01*
X27372Y734206D01*
X27400Y734291D01*
X27433Y734374D01*
X27469Y734456D01*
X27508Y734536D01*
X27551Y734614D01*
X27597Y734690D01*
X27647Y734765D01*
X27700Y734837D01*
X27756Y734906D01*
X27815Y734973D01*
X27876Y735038D01*
X27941Y735099D01*
X28008Y735158D01*
X28077Y735214D01*
X28149Y735267D01*
X28224Y735317D01*
X28300Y735363D01*
X28378Y735406D01*
X28458Y735445D01*
X28540Y735481D01*
X28623Y735514D01*
X28708Y735542D01*
X28793Y735567D01*
X28880Y735589D01*
X28968Y735606D01*
X29056Y735619D01*
X29145Y735629D01*
X29234Y735635D01*
X29323Y735637D01*
X29412Y735635D01*
X29501Y735629D01*
X29590Y735619D01*
X29678Y735606D01*
X29766Y735589D01*
X29853Y735567D01*
X29938Y735542D01*
X30023Y735514D01*
X30106Y735481D01*
X30188Y735445D01*
X30268Y735406D01*
X30346Y735363D01*
X30422Y735317D01*
X30497Y735267D01*
X30569Y735214D01*
X30638Y735158D01*
X30705Y735099D01*
X30770Y735038D01*
X30831Y734973D01*
X30890Y734906D01*
X30946Y734837D01*
X30999Y734765D01*
X31049Y734690D01*
X31095Y734614D01*
X31138Y734536D01*
X31177Y734456D01*
X31213Y734374D01*
X31246Y734291D01*
X31274Y734206D01*
X31299Y734121D01*
X31321Y734034D01*
X31338Y733946D01*
X31351Y733858D01*
X31361Y733769D01*
X31367Y733680D01*
X31369Y733591D01*
X31367Y733502D01*
X31361Y733413D01*
X31351Y733324D01*
X31338Y733236D01*
X31321Y733148D01*
X31299Y733061D01*
X31274Y732976D01*
X31246Y732891D01*
X31213Y732808D01*
X31177Y732726D01*
X31138Y732646D01*
X31095Y732568D01*
X31049Y732492D01*
X30999Y732417D01*
X30946Y732345D01*
X30890Y732276D01*
X30831Y732209D01*
X30770Y732144D01*
X30705Y732083D01*
X30638Y732024D01*
X30569Y731968D01*
X30497Y731915D01*
X30422Y731865D01*
X30346Y731819D01*
X30268Y731776D01*
X30188Y731737D01*
X30106Y731701D01*
X30023Y731668D01*
X29938Y731640D01*
X29853Y731615D01*
X29766Y731593D01*
X29678Y731576D01*
X29590Y731563D01*
X29501Y731553D01*
X29412Y731547D01*
X29323Y731545D01*
X25640Y731954D02*
X25561Y731956D01*
X25482Y731962D01*
X25403Y731971D01*
X25325Y731984D01*
X25248Y732002D01*
X25172Y732022D01*
X25097Y732047D01*
X25023Y732075D01*
X24950Y732106D01*
X24879Y732142D01*
X24810Y732180D01*
X24743Y732222D01*
X24678Y732267D01*
X24615Y732315D01*
X24554Y732366D01*
X24497Y732420D01*
X24441Y732476D01*
X24389Y732535D01*
X24339Y732597D01*
X24293Y732661D01*
X24249Y732727D01*
X24209Y732795D01*
X24173Y732865D01*
X24139Y732937D01*
X24109Y733011D01*
X24083Y733085D01*
X24060Y733161D01*
X24042Y733238D01*
X24026Y733315D01*
X24015Y733394D01*
X24007Y733472D01*
X24003Y733551D01*
X24003Y733631D01*
X24007Y733710D01*
X24015Y733788D01*
X24026Y733867D01*
X24042Y733944D01*
X24060Y734021D01*
X24083Y734097D01*
X24109Y734171D01*
X24139Y734245D01*
X24173Y734317D01*
X24209Y734387D01*
X24249Y734455D01*
X24293Y734521D01*
X24339Y734585D01*
X24389Y734647D01*
X24441Y734706D01*
X24497Y734762D01*
X24554Y734816D01*
X24615Y734867D01*
X24678Y734915D01*
X24743Y734960D01*
X24810Y735002D01*
X24879Y735040D01*
X24950Y735076D01*
X25023Y735107D01*
X25097Y735135D01*
X25172Y735160D01*
X25248Y735180D01*
X25325Y735198D01*
X25403Y735211D01*
X25482Y735220D01*
X25561Y735226D01*
X25640Y735228D01*
X25719Y735226D01*
X25798Y735220D01*
X25877Y735211D01*
X25955Y735198D01*
X26032Y735180D01*
X26108Y735160D01*
X26183Y735135D01*
X26257Y735107D01*
X26330Y735076D01*
X26401Y735040D01*
X26470Y735002D01*
X26537Y734960D01*
X26602Y734915D01*
X26665Y734867D01*
X26726Y734816D01*
X26783Y734762D01*
X26839Y734706D01*
X26891Y734647D01*
X26941Y734585D01*
X26987Y734521D01*
X27031Y734455D01*
X27071Y734387D01*
X27107Y734317D01*
X27141Y734245D01*
X27171Y734171D01*
X27197Y734097D01*
X27220Y734021D01*
X27238Y733944D01*
X27254Y733867D01*
X27265Y733788D01*
X27273Y733710D01*
X27277Y733631D01*
X27277Y733551D01*
X27273Y733472D01*
X27265Y733394D01*
X27254Y733315D01*
X27238Y733238D01*
X27220Y733161D01*
X27197Y733085D01*
X27171Y733011D01*
X27141Y732937D01*
X27107Y732865D01*
X27071Y732795D01*
X27031Y732727D01*
X26987Y732661D01*
X26941Y732597D01*
X26891Y732535D01*
X26839Y732476D01*
X26783Y732420D01*
X26726Y732366D01*
X26665Y732315D01*
X26602Y732267D01*
X26537Y732222D01*
X26470Y732180D01*
X26401Y732142D01*
X26330Y732106D01*
X26257Y732075D01*
X26183Y732047D01*
X26108Y732022D01*
X26032Y732002D01*
X25955Y731984D01*
X25877Y731971D01*
X25798Y731962D01*
X25719Y731956D01*
X25640Y731954D01*
M02*
