G04 EAGLE Gerber RS-274X export*
G75*
%MOMM*%
%FSLAX34Y34*%
%LPD*%
%INSoldermask Top*%
%IPPOS*%
%AMOC8*
5,1,8,0,0,1.08239X$1,22.5*%
G01*
%ADD10R,1.676400X1.676400*%
%ADD11P,1.814519X8X112.500000*%
%ADD12C,2.152400*%
%ADD13C,1.930400*%
%ADD14R,1.292400X1.292400*%
%ADD15C,1.292400*%
%ADD16C,2.112400*%
%ADD17C,1.552400*%
%ADD18C,2.652400*%
%ADD19R,1.183641X1.102359*%
%ADD20R,1.102359X1.183641*%
%ADD21R,1.803400X1.803400*%
%ADD22C,1.803400*%
%ADD23C,0.609600*%
%ADD24C,1.168400*%
%ADD25C,4.597400*%


D10*
X390900Y109900D03*
D11*
X416300Y109900D03*
X390900Y135300D03*
X416300Y135300D03*
X390900Y160700D03*
X416300Y160700D03*
X390900Y186100D03*
X416300Y186100D03*
X390900Y211500D03*
X416300Y211500D03*
X390900Y236900D03*
X416300Y236900D03*
X390900Y262300D03*
X416300Y262300D03*
X390900Y287700D03*
X416300Y287700D03*
X390900Y313100D03*
X416300Y313100D03*
X390900Y338500D03*
X416300Y338500D03*
X390900Y363900D03*
X416300Y363900D03*
X390900Y389300D03*
X416300Y389300D03*
X390900Y414700D03*
X416300Y414700D03*
X390900Y440100D03*
X416300Y440100D03*
X390900Y465500D03*
X416300Y465500D03*
X390900Y490900D03*
X416300Y490900D03*
X390900Y516300D03*
X416300Y516300D03*
X390900Y541700D03*
X416300Y541700D03*
D10*
X644900Y109900D03*
D11*
X670300Y109900D03*
X644900Y135300D03*
X670300Y135300D03*
X644900Y160700D03*
X670300Y160700D03*
X644900Y186100D03*
X670300Y186100D03*
X644900Y211500D03*
X670300Y211500D03*
X644900Y236900D03*
X670300Y236900D03*
X644900Y262300D03*
X670300Y262300D03*
X644900Y287700D03*
X670300Y287700D03*
X644900Y313100D03*
X670300Y313100D03*
X644900Y338500D03*
X670300Y338500D03*
X644900Y363900D03*
X670300Y363900D03*
X644900Y389300D03*
X670300Y389300D03*
X644900Y414700D03*
X670300Y414700D03*
X644900Y440100D03*
X670300Y440100D03*
X644900Y465500D03*
X670300Y465500D03*
X644900Y490900D03*
X670300Y490900D03*
X644900Y516300D03*
X670300Y516300D03*
X644900Y541700D03*
X670300Y541700D03*
D12*
X76200Y561340D03*
X76200Y124460D03*
X304800Y561340D03*
X304800Y124460D03*
D13*
X304800Y302260D03*
X304800Y327660D03*
X304800Y353060D03*
X304800Y378460D03*
D14*
X304800Y635000D03*
D15*
X330200Y635000D03*
X355600Y635000D03*
X381000Y635000D03*
X406400Y635000D03*
X431800Y635000D03*
X457200Y635000D03*
X482600Y635000D03*
X508000Y635000D03*
X533400Y635000D03*
X558800Y635000D03*
X584200Y635000D03*
X609600Y635000D03*
X635000Y635000D03*
X660400Y635000D03*
X685800Y635000D03*
X711200Y635000D03*
X736600Y635000D03*
X762000Y635000D03*
X787400Y635000D03*
X787400Y787400D03*
X762000Y787400D03*
X736600Y787400D03*
X711200Y787400D03*
X685800Y787400D03*
X660400Y787400D03*
X635000Y787400D03*
X609600Y787400D03*
X584200Y787400D03*
X558800Y787400D03*
X533400Y787400D03*
X508000Y787400D03*
X482600Y787400D03*
X457200Y787400D03*
X431800Y787400D03*
X406400Y787400D03*
X381000Y787400D03*
X355600Y787400D03*
X330200Y787400D03*
X304800Y787400D03*
D16*
X595900Y190100D03*
X595900Y140100D03*
X470900Y140100D03*
X470900Y190100D03*
X595900Y355200D03*
X595900Y305200D03*
X470900Y305200D03*
X470900Y355200D03*
X595900Y507600D03*
X595900Y457600D03*
X470900Y457600D03*
X470900Y507600D03*
D17*
X114700Y647700D03*
X139700Y647700D03*
X164700Y647700D03*
D18*
X89700Y717700D03*
X189700Y717700D03*
D19*
X619760Y355219D03*
X619760Y371221D03*
X622300Y505079D03*
X622300Y521081D03*
X617220Y190119D03*
X617220Y206121D03*
D20*
X779399Y355600D03*
X795401Y355600D03*
X779399Y381000D03*
X795401Y381000D03*
D12*
X965200Y124460D03*
X965200Y561340D03*
X736600Y124460D03*
X736600Y561340D03*
D13*
X736600Y383540D03*
X736600Y358140D03*
X736600Y332740D03*
X736600Y307340D03*
D19*
X660400Y588899D03*
X660400Y604901D03*
D21*
X952500Y355600D03*
X952500Y330200D03*
D22*
X952500Y304800D03*
X952500Y279400D03*
D21*
X88900Y381000D03*
X88900Y355600D03*
D22*
X88900Y330200D03*
X88900Y304800D03*
D23*
X970280Y723900D02*
X970282Y724087D01*
X970289Y724274D01*
X970301Y724461D01*
X970317Y724647D01*
X970337Y724833D01*
X970362Y725018D01*
X970392Y725203D01*
X970426Y725387D01*
X970465Y725570D01*
X970508Y725752D01*
X970556Y725932D01*
X970608Y726112D01*
X970665Y726290D01*
X970725Y726467D01*
X970791Y726642D01*
X970860Y726816D01*
X970934Y726988D01*
X971012Y727158D01*
X971094Y727326D01*
X971180Y727492D01*
X971270Y727656D01*
X971364Y727817D01*
X971462Y727977D01*
X971564Y728133D01*
X971670Y728288D01*
X971780Y728439D01*
X971893Y728588D01*
X972010Y728734D01*
X972130Y728877D01*
X972254Y729017D01*
X972381Y729154D01*
X972512Y729288D01*
X972646Y729419D01*
X972783Y729546D01*
X972923Y729670D01*
X973066Y729790D01*
X973212Y729907D01*
X973361Y730020D01*
X973512Y730130D01*
X973667Y730236D01*
X973823Y730338D01*
X973983Y730436D01*
X974144Y730530D01*
X974308Y730620D01*
X974474Y730706D01*
X974642Y730788D01*
X974812Y730866D01*
X974984Y730940D01*
X975158Y731009D01*
X975333Y731075D01*
X975510Y731135D01*
X975688Y731192D01*
X975868Y731244D01*
X976048Y731292D01*
X976230Y731335D01*
X976413Y731374D01*
X976597Y731408D01*
X976782Y731438D01*
X976967Y731463D01*
X977153Y731483D01*
X977339Y731499D01*
X977526Y731511D01*
X977713Y731518D01*
X977900Y731520D01*
X978087Y731518D01*
X978274Y731511D01*
X978461Y731499D01*
X978647Y731483D01*
X978833Y731463D01*
X979018Y731438D01*
X979203Y731408D01*
X979387Y731374D01*
X979570Y731335D01*
X979752Y731292D01*
X979932Y731244D01*
X980112Y731192D01*
X980290Y731135D01*
X980467Y731075D01*
X980642Y731009D01*
X980816Y730940D01*
X980988Y730866D01*
X981158Y730788D01*
X981326Y730706D01*
X981492Y730620D01*
X981656Y730530D01*
X981817Y730436D01*
X981977Y730338D01*
X982133Y730236D01*
X982288Y730130D01*
X982439Y730020D01*
X982588Y729907D01*
X982734Y729790D01*
X982877Y729670D01*
X983017Y729546D01*
X983154Y729419D01*
X983288Y729288D01*
X983419Y729154D01*
X983546Y729017D01*
X983670Y728877D01*
X983790Y728734D01*
X983907Y728588D01*
X984020Y728439D01*
X984130Y728288D01*
X984236Y728133D01*
X984338Y727977D01*
X984436Y727817D01*
X984530Y727656D01*
X984620Y727492D01*
X984706Y727326D01*
X984788Y727158D01*
X984866Y726988D01*
X984940Y726816D01*
X985009Y726642D01*
X985075Y726467D01*
X985135Y726290D01*
X985192Y726112D01*
X985244Y725932D01*
X985292Y725752D01*
X985335Y725570D01*
X985374Y725387D01*
X985408Y725203D01*
X985438Y725018D01*
X985463Y724833D01*
X985483Y724647D01*
X985499Y724461D01*
X985511Y724274D01*
X985518Y724087D01*
X985520Y723900D01*
X985518Y723713D01*
X985511Y723526D01*
X985499Y723339D01*
X985483Y723153D01*
X985463Y722967D01*
X985438Y722782D01*
X985408Y722597D01*
X985374Y722413D01*
X985335Y722230D01*
X985292Y722048D01*
X985244Y721868D01*
X985192Y721688D01*
X985135Y721510D01*
X985075Y721333D01*
X985009Y721158D01*
X984940Y720984D01*
X984866Y720812D01*
X984788Y720642D01*
X984706Y720474D01*
X984620Y720308D01*
X984530Y720144D01*
X984436Y719983D01*
X984338Y719823D01*
X984236Y719667D01*
X984130Y719512D01*
X984020Y719361D01*
X983907Y719212D01*
X983790Y719066D01*
X983670Y718923D01*
X983546Y718783D01*
X983419Y718646D01*
X983288Y718512D01*
X983154Y718381D01*
X983017Y718254D01*
X982877Y718130D01*
X982734Y718010D01*
X982588Y717893D01*
X982439Y717780D01*
X982288Y717670D01*
X982133Y717564D01*
X981977Y717462D01*
X981817Y717364D01*
X981656Y717270D01*
X981492Y717180D01*
X981326Y717094D01*
X981158Y717012D01*
X980988Y716934D01*
X980816Y716860D01*
X980642Y716791D01*
X980467Y716725D01*
X980290Y716665D01*
X980112Y716608D01*
X979932Y716556D01*
X979752Y716508D01*
X979570Y716465D01*
X979387Y716426D01*
X979203Y716392D01*
X979018Y716362D01*
X978833Y716337D01*
X978647Y716317D01*
X978461Y716301D01*
X978274Y716289D01*
X978087Y716282D01*
X977900Y716280D01*
X977713Y716282D01*
X977526Y716289D01*
X977339Y716301D01*
X977153Y716317D01*
X976967Y716337D01*
X976782Y716362D01*
X976597Y716392D01*
X976413Y716426D01*
X976230Y716465D01*
X976048Y716508D01*
X975868Y716556D01*
X975688Y716608D01*
X975510Y716665D01*
X975333Y716725D01*
X975158Y716791D01*
X974984Y716860D01*
X974812Y716934D01*
X974642Y717012D01*
X974474Y717094D01*
X974308Y717180D01*
X974144Y717270D01*
X973983Y717364D01*
X973823Y717462D01*
X973667Y717564D01*
X973512Y717670D01*
X973361Y717780D01*
X973212Y717893D01*
X973066Y718010D01*
X972923Y718130D01*
X972783Y718254D01*
X972646Y718381D01*
X972512Y718512D01*
X972381Y718646D01*
X972254Y718783D01*
X972130Y718923D01*
X972010Y719066D01*
X971893Y719212D01*
X971780Y719361D01*
X971670Y719512D01*
X971564Y719667D01*
X971462Y719823D01*
X971364Y719983D01*
X971270Y720144D01*
X971180Y720308D01*
X971094Y720474D01*
X971012Y720642D01*
X970934Y720812D01*
X970860Y720984D01*
X970791Y721158D01*
X970725Y721333D01*
X970665Y721510D01*
X970608Y721688D01*
X970556Y721868D01*
X970508Y722048D01*
X970465Y722230D01*
X970426Y722413D01*
X970392Y722597D01*
X970362Y722782D01*
X970337Y722967D01*
X970317Y723153D01*
X970301Y723339D01*
X970289Y723526D01*
X970282Y723713D01*
X970280Y723900D01*
D24*
X977900Y723900D03*
D23*
X830580Y800100D02*
X830582Y800287D01*
X830589Y800474D01*
X830601Y800661D01*
X830617Y800847D01*
X830637Y801033D01*
X830662Y801218D01*
X830692Y801403D01*
X830726Y801587D01*
X830765Y801770D01*
X830808Y801952D01*
X830856Y802132D01*
X830908Y802312D01*
X830965Y802490D01*
X831025Y802667D01*
X831091Y802842D01*
X831160Y803016D01*
X831234Y803188D01*
X831312Y803358D01*
X831394Y803526D01*
X831480Y803692D01*
X831570Y803856D01*
X831664Y804017D01*
X831762Y804177D01*
X831864Y804333D01*
X831970Y804488D01*
X832080Y804639D01*
X832193Y804788D01*
X832310Y804934D01*
X832430Y805077D01*
X832554Y805217D01*
X832681Y805354D01*
X832812Y805488D01*
X832946Y805619D01*
X833083Y805746D01*
X833223Y805870D01*
X833366Y805990D01*
X833512Y806107D01*
X833661Y806220D01*
X833812Y806330D01*
X833967Y806436D01*
X834123Y806538D01*
X834283Y806636D01*
X834444Y806730D01*
X834608Y806820D01*
X834774Y806906D01*
X834942Y806988D01*
X835112Y807066D01*
X835284Y807140D01*
X835458Y807209D01*
X835633Y807275D01*
X835810Y807335D01*
X835988Y807392D01*
X836168Y807444D01*
X836348Y807492D01*
X836530Y807535D01*
X836713Y807574D01*
X836897Y807608D01*
X837082Y807638D01*
X837267Y807663D01*
X837453Y807683D01*
X837639Y807699D01*
X837826Y807711D01*
X838013Y807718D01*
X838200Y807720D01*
X838387Y807718D01*
X838574Y807711D01*
X838761Y807699D01*
X838947Y807683D01*
X839133Y807663D01*
X839318Y807638D01*
X839503Y807608D01*
X839687Y807574D01*
X839870Y807535D01*
X840052Y807492D01*
X840232Y807444D01*
X840412Y807392D01*
X840590Y807335D01*
X840767Y807275D01*
X840942Y807209D01*
X841116Y807140D01*
X841288Y807066D01*
X841458Y806988D01*
X841626Y806906D01*
X841792Y806820D01*
X841956Y806730D01*
X842117Y806636D01*
X842277Y806538D01*
X842433Y806436D01*
X842588Y806330D01*
X842739Y806220D01*
X842888Y806107D01*
X843034Y805990D01*
X843177Y805870D01*
X843317Y805746D01*
X843454Y805619D01*
X843588Y805488D01*
X843719Y805354D01*
X843846Y805217D01*
X843970Y805077D01*
X844090Y804934D01*
X844207Y804788D01*
X844320Y804639D01*
X844430Y804488D01*
X844536Y804333D01*
X844638Y804177D01*
X844736Y804017D01*
X844830Y803856D01*
X844920Y803692D01*
X845006Y803526D01*
X845088Y803358D01*
X845166Y803188D01*
X845240Y803016D01*
X845309Y802842D01*
X845375Y802667D01*
X845435Y802490D01*
X845492Y802312D01*
X845544Y802132D01*
X845592Y801952D01*
X845635Y801770D01*
X845674Y801587D01*
X845708Y801403D01*
X845738Y801218D01*
X845763Y801033D01*
X845783Y800847D01*
X845799Y800661D01*
X845811Y800474D01*
X845818Y800287D01*
X845820Y800100D01*
X845818Y799913D01*
X845811Y799726D01*
X845799Y799539D01*
X845783Y799353D01*
X845763Y799167D01*
X845738Y798982D01*
X845708Y798797D01*
X845674Y798613D01*
X845635Y798430D01*
X845592Y798248D01*
X845544Y798068D01*
X845492Y797888D01*
X845435Y797710D01*
X845375Y797533D01*
X845309Y797358D01*
X845240Y797184D01*
X845166Y797012D01*
X845088Y796842D01*
X845006Y796674D01*
X844920Y796508D01*
X844830Y796344D01*
X844736Y796183D01*
X844638Y796023D01*
X844536Y795867D01*
X844430Y795712D01*
X844320Y795561D01*
X844207Y795412D01*
X844090Y795266D01*
X843970Y795123D01*
X843846Y794983D01*
X843719Y794846D01*
X843588Y794712D01*
X843454Y794581D01*
X843317Y794454D01*
X843177Y794330D01*
X843034Y794210D01*
X842888Y794093D01*
X842739Y793980D01*
X842588Y793870D01*
X842433Y793764D01*
X842277Y793662D01*
X842117Y793564D01*
X841956Y793470D01*
X841792Y793380D01*
X841626Y793294D01*
X841458Y793212D01*
X841288Y793134D01*
X841116Y793060D01*
X840942Y792991D01*
X840767Y792925D01*
X840590Y792865D01*
X840412Y792808D01*
X840232Y792756D01*
X840052Y792708D01*
X839870Y792665D01*
X839687Y792626D01*
X839503Y792592D01*
X839318Y792562D01*
X839133Y792537D01*
X838947Y792517D01*
X838761Y792501D01*
X838574Y792489D01*
X838387Y792482D01*
X838200Y792480D01*
X838013Y792482D01*
X837826Y792489D01*
X837639Y792501D01*
X837453Y792517D01*
X837267Y792537D01*
X837082Y792562D01*
X836897Y792592D01*
X836713Y792626D01*
X836530Y792665D01*
X836348Y792708D01*
X836168Y792756D01*
X835988Y792808D01*
X835810Y792865D01*
X835633Y792925D01*
X835458Y792991D01*
X835284Y793060D01*
X835112Y793134D01*
X834942Y793212D01*
X834774Y793294D01*
X834608Y793380D01*
X834444Y793470D01*
X834283Y793564D01*
X834123Y793662D01*
X833967Y793764D01*
X833812Y793870D01*
X833661Y793980D01*
X833512Y794093D01*
X833366Y794210D01*
X833223Y794330D01*
X833083Y794454D01*
X832946Y794581D01*
X832812Y794712D01*
X832681Y794846D01*
X832554Y794983D01*
X832430Y795123D01*
X832310Y795266D01*
X832193Y795412D01*
X832080Y795561D01*
X831970Y795712D01*
X831864Y795867D01*
X831762Y796023D01*
X831664Y796183D01*
X831570Y796344D01*
X831480Y796508D01*
X831394Y796674D01*
X831312Y796842D01*
X831234Y797012D01*
X831160Y797184D01*
X831091Y797358D01*
X831025Y797533D01*
X830965Y797710D01*
X830908Y797888D01*
X830856Y798068D01*
X830808Y798248D01*
X830765Y798430D01*
X830726Y798613D01*
X830692Y798797D01*
X830662Y798982D01*
X830637Y799167D01*
X830617Y799353D01*
X830601Y799539D01*
X830589Y799726D01*
X830582Y799913D01*
X830580Y800100D01*
D24*
X838200Y800100D03*
D23*
X170180Y38100D02*
X170182Y38287D01*
X170189Y38474D01*
X170201Y38661D01*
X170217Y38847D01*
X170237Y39033D01*
X170262Y39218D01*
X170292Y39403D01*
X170326Y39587D01*
X170365Y39770D01*
X170408Y39952D01*
X170456Y40132D01*
X170508Y40312D01*
X170565Y40490D01*
X170625Y40667D01*
X170691Y40842D01*
X170760Y41016D01*
X170834Y41188D01*
X170912Y41358D01*
X170994Y41526D01*
X171080Y41692D01*
X171170Y41856D01*
X171264Y42017D01*
X171362Y42177D01*
X171464Y42333D01*
X171570Y42488D01*
X171680Y42639D01*
X171793Y42788D01*
X171910Y42934D01*
X172030Y43077D01*
X172154Y43217D01*
X172281Y43354D01*
X172412Y43488D01*
X172546Y43619D01*
X172683Y43746D01*
X172823Y43870D01*
X172966Y43990D01*
X173112Y44107D01*
X173261Y44220D01*
X173412Y44330D01*
X173567Y44436D01*
X173723Y44538D01*
X173883Y44636D01*
X174044Y44730D01*
X174208Y44820D01*
X174374Y44906D01*
X174542Y44988D01*
X174712Y45066D01*
X174884Y45140D01*
X175058Y45209D01*
X175233Y45275D01*
X175410Y45335D01*
X175588Y45392D01*
X175768Y45444D01*
X175948Y45492D01*
X176130Y45535D01*
X176313Y45574D01*
X176497Y45608D01*
X176682Y45638D01*
X176867Y45663D01*
X177053Y45683D01*
X177239Y45699D01*
X177426Y45711D01*
X177613Y45718D01*
X177800Y45720D01*
X177987Y45718D01*
X178174Y45711D01*
X178361Y45699D01*
X178547Y45683D01*
X178733Y45663D01*
X178918Y45638D01*
X179103Y45608D01*
X179287Y45574D01*
X179470Y45535D01*
X179652Y45492D01*
X179832Y45444D01*
X180012Y45392D01*
X180190Y45335D01*
X180367Y45275D01*
X180542Y45209D01*
X180716Y45140D01*
X180888Y45066D01*
X181058Y44988D01*
X181226Y44906D01*
X181392Y44820D01*
X181556Y44730D01*
X181717Y44636D01*
X181877Y44538D01*
X182033Y44436D01*
X182188Y44330D01*
X182339Y44220D01*
X182488Y44107D01*
X182634Y43990D01*
X182777Y43870D01*
X182917Y43746D01*
X183054Y43619D01*
X183188Y43488D01*
X183319Y43354D01*
X183446Y43217D01*
X183570Y43077D01*
X183690Y42934D01*
X183807Y42788D01*
X183920Y42639D01*
X184030Y42488D01*
X184136Y42333D01*
X184238Y42177D01*
X184336Y42017D01*
X184430Y41856D01*
X184520Y41692D01*
X184606Y41526D01*
X184688Y41358D01*
X184766Y41188D01*
X184840Y41016D01*
X184909Y40842D01*
X184975Y40667D01*
X185035Y40490D01*
X185092Y40312D01*
X185144Y40132D01*
X185192Y39952D01*
X185235Y39770D01*
X185274Y39587D01*
X185308Y39403D01*
X185338Y39218D01*
X185363Y39033D01*
X185383Y38847D01*
X185399Y38661D01*
X185411Y38474D01*
X185418Y38287D01*
X185420Y38100D01*
X185418Y37913D01*
X185411Y37726D01*
X185399Y37539D01*
X185383Y37353D01*
X185363Y37167D01*
X185338Y36982D01*
X185308Y36797D01*
X185274Y36613D01*
X185235Y36430D01*
X185192Y36248D01*
X185144Y36068D01*
X185092Y35888D01*
X185035Y35710D01*
X184975Y35533D01*
X184909Y35358D01*
X184840Y35184D01*
X184766Y35012D01*
X184688Y34842D01*
X184606Y34674D01*
X184520Y34508D01*
X184430Y34344D01*
X184336Y34183D01*
X184238Y34023D01*
X184136Y33867D01*
X184030Y33712D01*
X183920Y33561D01*
X183807Y33412D01*
X183690Y33266D01*
X183570Y33123D01*
X183446Y32983D01*
X183319Y32846D01*
X183188Y32712D01*
X183054Y32581D01*
X182917Y32454D01*
X182777Y32330D01*
X182634Y32210D01*
X182488Y32093D01*
X182339Y31980D01*
X182188Y31870D01*
X182033Y31764D01*
X181877Y31662D01*
X181717Y31564D01*
X181556Y31470D01*
X181392Y31380D01*
X181226Y31294D01*
X181058Y31212D01*
X180888Y31134D01*
X180716Y31060D01*
X180542Y30991D01*
X180367Y30925D01*
X180190Y30865D01*
X180012Y30808D01*
X179832Y30756D01*
X179652Y30708D01*
X179470Y30665D01*
X179287Y30626D01*
X179103Y30592D01*
X178918Y30562D01*
X178733Y30537D01*
X178547Y30517D01*
X178361Y30501D01*
X178174Y30489D01*
X177987Y30482D01*
X177800Y30480D01*
X177613Y30482D01*
X177426Y30489D01*
X177239Y30501D01*
X177053Y30517D01*
X176867Y30537D01*
X176682Y30562D01*
X176497Y30592D01*
X176313Y30626D01*
X176130Y30665D01*
X175948Y30708D01*
X175768Y30756D01*
X175588Y30808D01*
X175410Y30865D01*
X175233Y30925D01*
X175058Y30991D01*
X174884Y31060D01*
X174712Y31134D01*
X174542Y31212D01*
X174374Y31294D01*
X174208Y31380D01*
X174044Y31470D01*
X173883Y31564D01*
X173723Y31662D01*
X173567Y31764D01*
X173412Y31870D01*
X173261Y31980D01*
X173112Y32093D01*
X172966Y32210D01*
X172823Y32330D01*
X172683Y32454D01*
X172546Y32581D01*
X172412Y32712D01*
X172281Y32846D01*
X172154Y32983D01*
X172030Y33123D01*
X171910Y33266D01*
X171793Y33412D01*
X171680Y33561D01*
X171570Y33712D01*
X171464Y33867D01*
X171362Y34023D01*
X171264Y34183D01*
X171170Y34344D01*
X171080Y34508D01*
X170994Y34674D01*
X170912Y34842D01*
X170834Y35012D01*
X170760Y35184D01*
X170691Y35358D01*
X170625Y35533D01*
X170565Y35710D01*
X170508Y35888D01*
X170456Y36068D01*
X170408Y36248D01*
X170365Y36430D01*
X170326Y36613D01*
X170292Y36797D01*
X170262Y36982D01*
X170237Y37167D01*
X170217Y37353D01*
X170201Y37539D01*
X170189Y37726D01*
X170182Y37913D01*
X170180Y38100D01*
D24*
X177800Y38100D03*
D25*
X38100Y800100D03*
X38100Y38100D03*
X977900Y800100D03*
X965200Y38100D03*
D19*
X44450Y728599D03*
X44450Y744601D03*
M02*
